<?xml version="1.0" standalone="no"?>
<!DOCTYPE svg PUBLIC "-//W3C//DTD SVG 1.1//EN" "http://www.w3.org/Graphics/SVG/1.1/DTD/svg11.dtd" >
<svg>
<metadata>
Created by FontForge 20090914 at Fri Oct 20 00:16:22 2017
 By www-data
Copyright 1990-2007 Bitstream Inc. All rights reserved. Modification for European languages. Copyright 1995-2007 Tilde, SIA.
</metadata>
<defs>
<font id="AmerigoTL-RomanA" horiz-adv-x="500" >
  <font-face 
    font-family="AmerigoTL-RomanA"
    font-weight="400"
    font-stretch="normal"
    units-per-em="1000"
    panose-1="2 14 5 3 5 5 6 2 2 4"
    ascent="773"
    descent="-227"
    x-height="462.998"
    cap-height="655.003"
    bbox="-172 -226.003 1000 938.002"
    underline-thickness="61"
    underline-position="-43"
    unicode-range="U+0020-U+FB02"
  />
<missing-glyph 
d="M0 500h500v-500h-500v500zM218 250l-173 173v-346zM423 45l-173 173l-173 -173h346zM455 423l-173 -173l173 -173v346zM423 455h-346l173 -173z" />
    <glyph glyph-name=".notdef" 
d="M0 500h500v-500h-500v500zM218 250l-173 173v-346zM423 45l-173 173l-173 -173h346zM455 423l-173 -173l173 -173v346zM423 455h-346l173 -173z" />
    <glyph glyph-name="space" unicode=" " horiz-adv-x="256" 
 />
    <glyph glyph-name="exclam" unicode="!" horiz-adv-x="257" 
d="M83 655h113l-37 -500h-38zM137 103c39.333 0 59.001 -19.333 59.001 -58c0 -16.667 -5 -29.667 -15 -39s-24.667 -14 -44 -14c-16.667 0 -29.834 4.5 -39.501 13.5s-14.5 22.167 -14.5 39.5s5 31.333 15 42s23 16 39 16z" />
    <glyph glyph-name="quotedbl" unicode="&#x22;" horiz-adv-x="330" 
d="M59 627c0 6 0.331055 12.333 0.998047 19s2.33398 12.834 5.00098 18.501s6.33398 10.167 11.001 13.5s10.667 5 18 5s13.166 -1.66699 17.499 -5s7.83301 -7.83301 10.5 -13.5s4.33398 -11.834 5.00098 -18.501s1 -13 1 -19l-17 -222l-3 -18c-1.33301 -8 -6 -12 -14 -12
s-12.667 4 -14 12l-3 18zM200.998 627c0 6 0.501953 12.333 1.50195 19s2.66699 12.834 5 18.501s5.83301 10.167 10.5 13.5s10.667 5 18 5s13.333 -1.66699 18 -5s8.16699 -7.83301 10.5 -13.5s4 -11.834 5 -18.501s1.5 -13 1.5 -19l-18 -222
c-0.666992 -4 -1.83398 -10 -3.50098 -18s-6.16699 -12 -13.5 -12c-8 0 -12.833 4 -14.5 12s-2.83398 14 -3.50098 18z" />
    <glyph glyph-name="numbersign" unicode="#" horiz-adv-x="602" 
d="M363 250l20 155h-143l-20 -155h143zM161 200h-83v50h91l20 155h-88v50h95l26 195h51l-26 -195h143l26 195h51l-25 -195h82v-50h-90l-20 -155h88v-50h-95l-26 -200h-51l26 200h-143l-26 -200h-52z" />
    <glyph glyph-name="dollar" unicode="$" horiz-adv-x="512" 
d="M236 -12c-29.333 0 -58.335 2.33301 -87.002 7s-58 11.667 -88 21v115l107 -84c17.333 -13.333 40 -20 68 -20v255c-27.333 16.667 -51.333 32.667 -72 48s-38 30.833 -52 46.5s-24.5 32.334 -31.5 50.001s-10.5 37.5 -10.5 59.5c0 46.667 14.5 85.667 43.5 117
s69.833 50.666 122.5 57.999v66h28v-64c5.33301 0 10.5 0.166992 15.5 0.5s10.167 0.5 15.5 0.5c50.667 0 97 -6.66699 139 -20v-116l-100 76c-9.33301 6.66699 -18.166 11.667 -26.499 15s-18.166 5 -29.499 5c-2 0 -4.16699 -0.166992 -6.5 -0.5s-4.83301 -0.5 -7.5 -0.5
v-244c31.333 -18 58.5 -34.5 81.5 -49.5s42.167 -30.167 57.5 -45.5s26.833 -32 34.5 -50s11.5 -38.667 11.5 -62c0 -52 -15.833 -94.167 -47.5 -126.5s-77.5 -51.5 -137.5 -57.5v-57h-28v57zM235.998 618c-56 -15.333 -84 -51.667 -84 -109c0 -24.667 7 -45.167 21 -61.5
s35 -33.5 63 -51.5v222zM263.998 30.999c32.667 7.33301 57.667 21 75 41s26 44.333 26 73c0 23.333 -8.33301 44.333 -25 63s-42 38 -76 58v-235z" />
    <glyph glyph-name="percent" unicode="%" horiz-adv-x="512" 
d="M152 662c37.333 0 67.668 -13.833 91.001 -41.5s35 -64.834 35 -111.501c0 -46 -11.667 -83.167 -35 -111.5s-54 -42.5 -92 -42.5c-18 0 -34.5 3.83301 -49.5 11.5s-28 18.167 -39 31.5s-19.5 29.333 -25.5 48s-9 39 -9 61c0 22.667 3.16699 43.5 9.5 62.5
s15 35.333 26 49s24.167 24.334 39.5 32.001s31.666 11.5 48.999 11.5zM152.002 632c-18 0 -32.833 -10.667 -44.5 -32s-17.5 -52.333 -17.5 -93c0 -39.333 5.66699 -69.333 17 -90s26.333 -31 45 -31c19.333 0 34.833 10.667 46.5 32s17.5 53 17.5 95
c0 38 -6 67.333 -18 88s-27.333 31 -46 31zM10.002 100l493 466l17 -17l-495 -465zM368.002 290c37.333 0 67.668 -13.834 91.001 -41.501s35 -64.5 35 -110.5c0 -22.667 -3.16699 -43.334 -9.5 -62.001s-15 -34.667 -26 -48s-24.167 -23.666 -39.5 -30.999s-32 -11 -50 -11
c-38 0 -68.333 13.833 -91 41.5s-34 63.5 -34 107.5c0 22.667 3.16699 43.5 9.5 62.5s15.166 35.333 26.499 49s24.5 24.334 39.5 32.001s31.167 11.5 48.5 11.5zM368.004 258.999c-18 0 -32.833 -10.4971 -44.5 -31.4971s-17.5 -51.5 -17.5 -91.5
c0 -38.667 5.5 -68.334 16.5 -89.001s26.167 -31 45.5 -31s34.833 10.667 46.5 32s17.5 52.666 17.5 93.999c0 37.333 -6 66.166 -18 86.499s-27.333 30.5 -46 30.5z" />
    <glyph glyph-name="ampersand" unicode="&#x26;" horiz-adv-x="641" 
d="M258 383c52.667 42.667 79 91.998 79 147.998c0 30 -7.16699 53.333 -21.5 70s-33.833 25 -58.5 25c-27.333 0 -48.333 -8.33301 -63 -25s-22 -40.667 -22 -72c0 -23.333 7.5 -46.166 22.5 -68.499s36.167 -48.166 63.5 -77.499zM454 38.998
c-47.333 -34 -106.666 -51.001 -177.999 -51.001c-36 0 -68.667 4.66699 -98 14s-54.5 22.166 -75.5 38.499s-37.167 35.5 -48.5 57.5s-17 45.667 -17 71c0 36.667 12 69 36 97s60.667 53.333 110 76c-28 30 -49.333 58.5 -64 85.5s-22 55.833 -22 86.5
c0 46 14.5 82.5 43.5 109.5s68.5 40.5 118.5 40.5c48 0 85.833 -12.333 113.5 -37s41.5 -57.667 41.5 -99c0 -33.333 -11.5 -64.166 -34.5 -92.499s-57.167 -52.833 -102.5 -73.5l214 -233c24 35.333 36 83.333 36 144c0 20.667 -5.66699 39.334 -17 56.001s-27 37 -47 61
h125c1.33301 -14 2.5 -27.5 3.5 -40.5s1.5 -25.5 1.5 -37.5c0 -44 -6.16699 -84.333 -18.5 -121s-30.166 -68.667 -53.499 -96c21.333 -23.333 41.666 -43 60.999 -59s38.666 -28 57.999 -36h-145zM201 321.997c-52.667 -46 -79 -95.332 -79 -147.999
c0 -21.333 3.83301 -40.833 11.5 -58.5s18.5 -32.834 32.5 -45.501s30.833 -22.667 50.5 -30s41.5 -11 65.5 -11c56.667 0 105.667 13 147 39z" />
    <glyph glyph-name="quotesingle" unicode="'" horiz-adv-x="219" 
d="M75 627c0 6 0.332031 12.333 0.999023 19s2.33398 12.834 5.00098 18.501s6.33398 10.167 11.001 13.5s10.667 5 18 5s13.166 -1.66699 17.499 -5s7.83301 -7.83301 10.5 -13.5s4.33398 -11.834 5.00098 -18.501s1 -13 1 -19l-17 -222
c-0.666992 -4 -1.83398 -10 -3.50098 -18s-6.16699 -12 -13.5 -12c-8 0 -12.667 4 -14 12l-3 18z" />
    <glyph glyph-name="parenleft" unicode="(" horiz-adv-x="269" 
d="M240 708c-34 -56 -60 -122.168 -78 -198.501s-27 -162.833 -27 -259.5s9 -183.167 27 -259.5s44 -142.5 78 -198.5c-126 88.667 -189 242.334 -189 461.001c0 108.667 16 201.167 48 277.5s79 135.5 141 177.5z" />
    <glyph glyph-name="parenright" unicode=")" horiz-adv-x="269" 
d="M30 708c62 -42 109 -101.166 141 -177.499s48 -168.833 48 -277.5c0 -218.667 -63 -372.334 -189 -461.001c34 56.667 60 123 78 199s27 162.333 27 259s-9 183 -27 259s-44 142.333 -78 199z" />
    <glyph glyph-name="asterisk" unicode="*" horiz-adv-x="322" 
d="M138 708h46l-23 -154zM259 681l35 -34l-129 -92zM165 550l155 23v-47zM166 545l126 -92l-34 -33zM161 544l23 -154h-46zM33 451l124 93l-90 -126zM1 573l155 -23l-155 -24v47zM33 648l32 32l93 -125z" />
    <glyph glyph-name="plus" unicode="+" horiz-adv-x="512" 
d="M227 298h-180v54h180v213h58v-213h180v-54h-180v-215h-58v215z" />
    <glyph glyph-name="comma" unicode="," horiz-adv-x="256" 
d="M97 -136c13.333 17.333 23.5 37 30.5 59s10.833 45.667 11.5 71c-16.667 0 -29.667 4.66699 -39 14s-14 22.333 -14 39c0 39.333 19 59 57 59c40 0 60 -27.333 60 -82c0 -38 -10 -71.833 -30 -101.5s-45.333 -49.167 -76 -58.5z" />
    <glyph glyph-name="hyphen" unicode="-" horiz-adv-x="275" 
d="M32 284h211v-75h-211v75z" />
    <glyph glyph-name="period" unicode="." horiz-adv-x="256" 
d="M88 51c0 20.667 5.33301 36.832 16 48.499s25 17.5 43 17.5c17.333 0 30.833 -5.66699 40.5 -17s14.5 -27.666 14.5 -48.999c0 -39.333 -20 -59 -60 -59c-36 0 -54 19.667 -54 59z" />
    <glyph glyph-name="slash" unicode="/" horiz-adv-x="231" 
d="M-35 -47l258 712l44 -16l-259 -711z" />
    <glyph glyph-name="zero" unicode="0" horiz-adv-x="512" 
d="M34 329c0 107.333 20.667 189.832 62 247.499s98 86.5 170 86.5c66.667 0 118.667 -29 156 -87s56 -142 56 -252c0 -109.333 -20.333 -193.166 -61 -251.499s-97 -87.5 -169 -87.5c-68.667 0 -121.5 29 -158.5 87s-55.5 143.667 -55.5 257zM256 618.999
c-42 0 -72.668 -25 -92.001 -75s-29 -125.667 -29 -227c0 -97.333 9.16699 -169.833 27.5 -217.5s47.833 -71.5 88.5 -71.5s71.834 23.667 93.501 71s32.5 118 32.5 212c0 106 -9.16699 183.833 -27.5 233.5s-49.5 74.5 -93.5 74.5z" />
    <glyph glyph-name="one" unicode="1" horiz-adv-x="512" 
d="M195 0c18.667 30 29.833 56.5 33.5 79.5s5.5 44.833 5.5 65.5v404h-148c24 8 55.667 21.833 95 41.5s86.333 45.167 141 76.5v-535c0 -17.333 1.5 -36.5 4.5 -57.5s13.833 -45.833 32.5 -74.5h-164z" />
    <glyph glyph-name="two" unicode="2" horiz-adv-x="512" 
d="M28 0c50.667 52 95.499 100.336 134.499 145.003s71.833 86.5 98.5 125.5s46.834 75.333 60.501 109s20.5 66.167 20.5 97.5c0 45.333 -10.167 80.666 -30.5 105.999s-48.166 38 -83.499 38c-12.667 0 -24.167 -2.16699 -34.5 -6.5s-21.833 -11.5 -34.5 -21.5l-93 -75
v120c64.667 16 123.667 24 177 24c65.333 0 115.666 -15.333 150.999 -46s53 -72.334 53 -125.001c0 -27.333 -6.5 -55.833 -19.5 -85.5s-32 -61.334 -57 -95.001s-55.833 -70 -92.5 -109s-79 -81.5 -127 -127.5h202c34 0 72 22 114 66l-20 -140h-419z" />
    <glyph glyph-name="three" unicode="3" horiz-adv-x="512" 
d="M46 134l97 -85.001c16.667 -14.667 36.667 -22 60 -22c22 0 42.167 3.5 60.5 10.5s34.333 16.833 48 29.5s24.334 28.167 32.001 46.5s11.5 38.5 11.5 60.5c0 92 -56 139 -168 141c51.333 29.333 89.333 58.5 114 87.5s37 63.5 37 103.5c0 33.333 -11 60.333 -33 81
s-53 31 -93 31c-14.667 0 -26.667 -2.16699 -36 -6.5s-19 -10.833 -29 -19.5l-92 -78v121c60 17.333 119.667 26 179 26c66 0 116 -13 150 -39s51 -61.667 51 -107c0 -36.667 -12.5 -69.667 -37.5 -99s-61.5 -53.333 -109.5 -72c54 -7.33301 95.333 -25.166 124 -53.499
s43 -64.5 43 -108.5c0 -62.667 -21 -111 -63 -145s-103.667 -51 -185 -51c-52.667 0 -106.334 7 -161.001 21v127z" />
    <glyph glyph-name="four" unicode="4" horiz-adv-x="512" 
d="M278 0c25.333 40.667 38.001 83.666 38.001 128.999v54h-313c97.333 158.667 204.666 311 321.999 457l72 25v-413h93v-69h-93v-59c0 -24.667 2.83301 -47.167 8.5 -67.5s15.167 -39.166 28.5 -56.499h-156zM316.001 251.999v311l-220 -311h220z" />
    <glyph glyph-name="five" unicode="5" horiz-adv-x="512" 
d="M66 133l99 -85.001c16.667 -14.667 35.667 -22 57 -22c19.333 0 37.666 4 54.999 12s32.333 19.167 45 33.5s22.667 32 30 53s11 44.5 11 70.5c0 52.667 -14.333 93.167 -43 121.5s-70 42.5 -124 42.5c-12.667 0 -28.167 -1.16699 -46.5 -3.5s-39.833 -5.5 -64.5 -9.5
v302h350v-79h-300v-181c43.333 13.333 83.333 20 120 20c64.667 0 115.334 -18.167 152.001 -54.5s55 -85.166 55 -146.499c0 -67.333 -21.5 -120.833 -64.5 -160.5s-104.167 -59.5 -183.5 -59.5c-50 0 -99.333 6.33301 -148 19v127z" />
    <glyph glyph-name="six" unicode="6" horiz-adv-x="512" 
d="M468 607c-14.667 3.33301 -28.6689 5.83203 -42.002 7.49902s-26.333 2.5 -39 2.5c-77.333 0 -135.166 -21.167 -173.499 -63.5s-61.833 -108.833 -70.5 -199.5c45.333 22.667 93 34 143 34c26.667 0 51.667 -4.66699 75 -14s43.333 -22.333 60 -39
s29.834 -36.667 39.501 -60s14.5 -49.333 14.5 -78c0 -31.333 -5.33301 -60 -16 -86s-25.5 -48.333 -44.5 -67s-41.833 -33 -68.5 -43s-56 -15 -88 -15c-71.333 0 -125.833 24 -163.5 72s-56.5 119.667 -56.5 215c0 60.667 6.83301 115 20.5 163s32.834 88.833 57.501 122.5
s53.5 59.334 86.5 77.001s69.167 26.5 108.5 26.5c32.667 0 61.667 -4.33301 87 -13s48.666 -22.667 69.999 -42zM140.998 325.999c-2 -26 -3 -47.667 -3 -65c0 -81.333 9.5 -141.333 28.5 -180s51.167 -58 96.5 -58c36 0 63.5 13.5 82.5 40.5s28.5 66.5 28.5 118.5
c0 104.667 -49 157 -147 157c-23.333 0 -52 -4.33301 -86 -13z" />
    <glyph glyph-name="seven" unicode="7" horiz-adv-x="512" 
d="M406 581l-198.001 -0.000976562c-10.667 0 -20 -0.666992 -28 -2s-15.667 -4.66602 -23 -9.99902l-97 -71v157h428l-122 -269c-19.333 -42 -41.166 -95.5 -65.499 -160.5s-50.5 -142.833 -78.5 -233.5h-100z" />
    <glyph glyph-name="eight" unicode="8" horiz-adv-x="512" 
d="M286 380c23.333 20.667 41 42.835 53 66.502s18 47.5 18 71.5c0 34 -8.66699 60.333 -26 79s-41.333 28 -72 28c-31.333 0 -56.333 -9.16699 -75 -27.5s-28 -43.5 -28 -75.5c0 -30.667 10.667 -56.834 32 -78.501s54 -42.834 98 -63.501zM312 364.001
c26.667 -13.333 49.667 -26.834 69 -40.501s35.333 -28 48 -43s22 -31.5 28 -49.5s9 -38 9 -60c0 -57.333 -19.5 -102.833 -58.5 -136.5s-93.167 -50.5 -162.5 -50.5c-29.333 0 -56.333 4.33301 -81 13s-45.667 20.5 -63 35.5s-30.833 33 -40.5 54s-14.5 43.833 -14.5 68.5
c0 40 13.167 75 39.5 105s65.5 52.667 117.5 68c-83.333 42.667 -125 100.334 -125 173.001c0 50 16 89.5 48 118.5s76.333 43.5 133 43.5s100 -12.833 130 -38.5s45 -60.5 45 -104.5c0 -68.667 -40.667 -120.667 -122 -156zM227 313
c-33.333 -24 -58.167 -48.666 -74.5 -73.999s-24.5 -52.666 -24.5 -81.999c0 -42 11.333 -74.833 34 -98.5s53 -35.5 91 -35.5c39.333 0 70.833 11.667 94.5 35s35.5 53 35.5 89c0 18 -3.33301 34.167 -10 48.5s-16.5 27.666 -29.5 39.999s-29.167 24.666 -48.5 36.999
s-42 25.833 -68 40.5z" />
    <glyph glyph-name="nine" unicode="9" horiz-adv-x="512" 
d="M366 323c2 24 3 45.333 3 64c0 80.667 -9.33301 140.667 -28 180s-49.667 59 -93 59c-77.333 0 -116 -53.333 -116 -160c0 -104 47.333 -156 142 -156c29.333 0 60 4.33301 92 13zM37 43c28.667 -5.33301 56.001 -7.99902 82.001 -7.99902
c147.333 0 228.666 86.667 243.999 260c-45.333 -22.667 -91 -34 -137 -34c-28.667 0 -55 4.66699 -79 14s-44.5 22.333 -61.5 39s-30.167 36.667 -39.5 60s-14 49.333 -14 78c0 31.333 5.33301 60 16 86s25.5 48.167 44.5 66.5s41.833 32.5 68.5 42.5s56 15 88 15
c70.667 0 124.667 -23.5 162 -70.5s56 -116.5 56 -208.5c0 -128.667 -25 -226.334 -75 -293.001s-118.333 -100 -205 -100c-56.667 0 -106.667 17.667 -150 53z" />
    <glyph glyph-name="colon" unicode=":" horiz-adv-x="241" 
d="M68 335c0 20 5.16797 35.668 15.501 47.001s24.5 17 42.5 17c36.667 0 55 -21.667 55 -65c0 -18.667 -4.83301 -33.334 -14.5 -44.001s-23.834 -16 -42.501 -16c-37.333 0 -56 20.333 -56 61zM68.001 52.001c0 20 5.16699 35.5 15.5 46.5s24.5 16.5 42.5 16.5
c36.667 0 55 -21.667 55 -65c0 -39.333 -19.667 -59 -59 -59c-36 0 -54 20.333 -54 61z" />
    <glyph glyph-name="semicolon" unicode=";" horiz-adv-x="241" 
d="M68 335c0 20 5.16797 35.668 15.501 47.001s24.5 17 42.5 17c36.667 0 55 -21.667 55 -65c0 -18.667 -4.83301 -33.334 -14.5 -44.001s-23.834 -16 -42.501 -16c-37.333 0 -56 20.333 -56 61zM77.001 -135.999c13.333 17.333 23.5 37 30.5 59s10.833 45.667 11.5 71
c-16.667 0 -29.667 4.66699 -39 14s-14 22.333 -14 39c0 39.333 18.667 59 56 59c40.667 0 61 -27.333 61 -82c0 -38 -10 -71.833 -30 -101.5s-45.333 -49.167 -76 -58.5z" />
    <glyph glyph-name="less" unicode="&#x3c;" horiz-adv-x="512" 
d="M50 298v52l412 221v-63l-344 -183v-2l344 -184v-63z" />
    <glyph glyph-name="equal" unicode="=" horiz-adv-x="512" 
d="M46 449h420v-55h-420v55zM46 253h420v-55h-420v55z" />
    <glyph glyph-name="greater" unicode="&#x3e;" horiz-adv-x="512" 
d="M50 139l345 184v2l-345 183v63l412 -221v-53l-412 -221v63z" />
    <glyph glyph-name="question" unicode="?" horiz-adv-x="449" 
d="M185 154c-0.666992 4.66699 -0.999023 8.99902 -0.999023 12.999v11c0 25.333 3.33301 45 10 59s13.667 27.333 21 40l37.5 60.5c12.333 19 23.5 37.833 33.5 56.5s18.167 37.834 24.5 57.501s9.5 40.5 9.5 62.5c0 33.333 -8.83301 59.333 -26.5 78s-41.5 28 -71.5 28
c-25.333 0 -46 -6.66699 -62 -20l-102 -83v121c33.333 9.33301 64.666 16 93.999 20s56.333 6 81 6c29.333 0 56 -4 80 -12s44.5 -19 61.5 -33s30 -30.833 39 -50.5s13.5 -41.167 13.5 -64.5c0 -24 -4.33301 -44.833 -13 -62.5s-20.334 -36.167 -35.001 -55.5
c-28 -36.667 -54.167 -66 -78.5 -88s-42.166 -41 -53.499 -57c-7.33301 -10 -11.833 -20.333 -13.5 -31s-2.5 -22.667 -2.5 -36v-20h-46zM210.001 102.999c39.333 0 59.001 -19.333 59.001 -58c0 -16.667 -5 -29.667 -15 -39s-24.667 -14 -44 -14
c-16.667 0 -29.834 4.5 -39.501 13.5s-14.5 22.167 -14.5 39.5s5 31.333 15 42s23 16 39 16z" />
    <glyph glyph-name="at" unicode="@" horiz-adv-x="1000" 
d="M830 -98c-96 -72 -203.335 -107.999 -322.002 -107.999c-125.333 0 -227 30 -305 90c-98.667 76 -148 177.667 -148 305c0 54 8.33301 104.5 25 151.5s41 90.5 73 130.5c47.333 57.333 103.833 100.833 169.5 130.5s139.834 44.5 222.501 44.5
c55.333 0 106.5 -7.33301 153.5 -22s86.833 -34.667 119.5 -60c42 -32.667 73.833 -70.167 95.5 -112.5s32.5 -88.166 32.5 -137.499c0 -56.667 -10.333 -107.334 -31 -152.001s-50.334 -82.667 -89.001 -114c-46 -36.667 -96.667 -55 -152 -55c-24 0 -45.5 5 -64.5 15
s-32.167 25 -39.5 45c-28 -15.333 -52 -27.666 -72 -36.999s-38 -14 -54 -14c-15.333 0 -29.666 3 -42.999 9s-25 14.333 -35 25s-17.833 23.167 -23.5 37.5s-8.5 29.833 -8.5 46.5c0 42.667 15.167 73.5 45.5 92.5s77.5 28.5 141.5 28.5c7.33301 0 15 -0.166992 23 -0.5
s16.333 -0.833008 25 -1.5v82c0 26 -6 46 -18 60s-28.333 21 -49 21c-12.667 0 -29.167 -7.66699 -49.5 -23l-80.5 -63v94c64 18 116.667 27 158 27c25.333 0 45.5 -2.5 60.5 -7.5s26.333 -12.667 34 -23s12.667 -23.833 15 -40.5s3.5 -36.667 3.5 -60v-156
c0 -13.333 0.333008 -26.333 1 -39s2.5 -23.834 5.5 -33.501s7.83301 -17.5 14.5 -23.5s16 -9 28 -9c13.333 0 28.833 3.5 46.5 10.5s35.167 17.833 52.5 32.5c28 24 50.5 55.333 67.5 94s25.5 80.667 25.5 126c0 42.667 -8.16699 81.667 -24.5 117
s-39.666 65.666 -69.999 90.999s-67 45 -110 59s-91.167 21 -144.5 21c-110 0 -203 -33.333 -279 -100c-46 -40 -80.5 -86.167 -103.5 -138.5s-34.5 -109.833 -34.5 -172.5c0 -56.667 9.66699 -106.167 29 -148.5s50 -79.833 92 -112.5c32 -25.333 70.5 -45.333 115.5 -60
s93.5 -22 145.5 -22c56 0 110.333 7.83301 163 23.5s101 38.5 145 68.5zM568.998 215.001c-53.333 -3.33301 -92.167 -10.667 -116.5 -22s-36.5 -31 -36.5 -59c0 -24 8.66699 -42.833 26 -56.5s42 -20.5 74 -20.5c10 0 27.667 1 53 3v155z" />
    <glyph glyph-name="A" unicode="A" horiz-adv-x="562" 
d="M-24 0c18 17.333 33.501 38.168 46.501 62.501s25.5 52.166 37.5 83.499l192 497l68 24l178 -524c10 -30 21.333 -56.833 34 -80.5s28.667 -44.5 48 -62.5h-179c20 25.333 30 44.666 30 57.999c0 8.66699 -3.66699 23.334 -11 44.001l-54 162h-201l-59 -172
c-5.33301 -14 -8 -26.333 -8 -37c0 -9.33301 2.66699 -18.333 8 -27s12.666 -18 21.999 -28h-152zM352.001 306.002l-83 259l-88 -259h171z" />
    <glyph glyph-name="B" unicode="B" horiz-adv-x="532" 
d="M57 0c18 31.333 28.667 58.333 32 81s5 43.667 5 63v367c0 19.333 -1.66699 40.333 -5 63s-14 49.667 -32 81h202c133.333 0 200 -50.667 200 -152c0 -45.333 -14 -82.333 -42 -111s-68 -46.667 -120 -54c62 -2.66699 110.167 -19.167 144.5 -49.5
s51.5 -69.5 51.5 -117.5c0 -54 -19.167 -96 -57.5 -126s-94.833 -45 -169.5 -45h-209zM237 352c37.333 0 67.5 12.668 90.5 38.001s34.5 58.666 34.5 99.999c0 40.667 -10.333 72.167 -31 94.5s-50.667 33.5 -90 33.5h-58v-266h54zM246 37.001c48 0 84.5 11.667 109.5 35
s37.5 57.333 37.5 102c0 94 -51 141 -153 141h-57v-278h63z" />
    <glyph glyph-name="C" unicode="C" horiz-adv-x="566" 
d="M540 130l-17.002 -124.002c-59.333 -14 -113.666 -21 -162.999 -21c-103.333 0 -181.666 27.667 -234.999 83s-80 136 -80 242c0 54 7.66699 102.833 23 146.5s37 81 65 112s61.833 54.833 101.5 71.5s84.167 25 133.5 25c25.333 0 51.5 -1.66699 78.5 -5
s55.5 -8.33301 85.5 -15v-116l-106 78c-9.33301 6.66699 -18.5 10.834 -27.5 12.501s-19.167 2.5 -30.5 2.5c-66.667 0 -120 -26.167 -160 -78.5s-60 -127.166 -60 -224.499c0 -93.333 19.167 -165.5 57.5 -216.5s90.833 -76.5 157.5 -76.5c28 0 47.333 4.33301 58 13z" />
    <glyph glyph-name="D" unicode="D" horiz-adv-x="646" 
d="M53 0c18 30.667 28.501 57.5 31.501 80.5s4.5 44.167 4.5 63.5v367c0 10 -0.166992 20.167 -0.5 30.5s-1.66602 21.333 -3.99902 33s-6 24.167 -11 37.5s-11.833 27.666 -20.5 42.999h232c103.333 0 181.166 -26 233.499 -78s78.5 -128 78.5 -228
c0 -113.333 -29.667 -200.666 -89 -261.999c-19.333 -20 -38.833 -35.667 -58.5 -47s-40.334 -20 -62.001 -26s-44.5 -9.83301 -68.5 -11.5s-49.667 -2.5 -77 -2.5h-189zM264.001 44c77.333 0 135.667 23.8311 175 71.498s59 118.834 59 213.501
c0 90.667 -18.5 160.334 -55.5 209.001s-90.833 73 -161.5 73h-105v-567h88z" />
    <glyph glyph-name="E" unicode="E" horiz-adv-x="509" 
d="M57 0c18.667 32.667 29.501 60.5 32.501 83.5s4.5 43.5 4.5 61.5v367c0 20.667 -1.83301 42.334 -5.5 65.001s-14.167 48.667 -31.5 78h401v-126l-94 72c-12 9.33301 -28.333 14 -49 14h-132v-267h122c4.66699 0 12 1.83301 22 5.5s19 8.16699 27 13.5l58 42v-153l-56 40
c-10.667 7.33301 -21 11.666 -31 12.999s-20.667 2 -32 2h-110v-273h144c11.333 0 20.166 2.16699 26.499 6.5l22.5 15.5l98 73l-19 -133h-398z" />
    <glyph glyph-name="F" unicode="F" horiz-adv-x="472" 
d="M57 0c18.667 32.667 29.501 60.501 32.501 83.501s4.5 43.5 4.5 61.5v367c0 20.667 -1.83301 42.334 -5.5 65.001s-14.167 48.667 -31.5 78h401v-126l-94 72c-12 9.33301 -28.333 14 -49 14h-132v-267h122c4.66699 0 12 1.83301 22 5.5s19 8.16699 27 13.5l58 42v-153
l-56 40c-10.667 7.33301 -21 11.666 -31 12.999s-20.667 2 -32 2h-110v-173c0 -18.667 1.66699 -38.834 5 -60.501s13.666 -47.5 30.999 -77.5h-162z" />
    <glyph glyph-name="G" unicode="G" horiz-adv-x="616" 
d="M455 153c0 10.667 -0.500977 20.5 -1.50098 29.5s-3.5 17.5 -7.5 25.5l-28 57h162l-24 -52l-8 -18.5c-3.33301 -7.66699 -5 -19.167 -5 -34.5v-152c-61.333 -14.667 -125.666 -22 -192.999 -22c-94.667 0 -168.334 28.167 -221.001 84.5s-79 136.166 -79 239.499
c0 55.333 7.66699 104.833 23 148.5s37.5 80.834 66.5 111.501s64.5 54 106.5 70s90 24 144 24c56.667 0 108.334 -6.33301 155.001 -19v-116l-98 73c-10 7.33301 -20.5 12.5 -31.5 15.5s-23.5 4.5 -37.5 4.5c-70 0 -125.167 -26 -165.5 -78s-60.5 -125.333 -60.5 -220
c0 -98 19.333 -172 58 -222s95.667 -75 171 -75c9.33301 0 20 0.5 32 1.5l42 3.5v121z" />
    <glyph glyph-name="H" unicode="H" horiz-adv-x="644" 
d="M57 0c18 31.333 28.667 58.3369 32 81.0039s5 43.667 5 63v367c0 19.333 -1.66699 40.333 -5 63s-14 49.667 -32 81h161c-17.333 -30 -27.666 -55.833 -30.999 -77.5s-5 -41.834 -5 -60.501v-6v-152h280v152c0 19.333 -1.66699 40.333 -5 63s-14 49.667 -32 81h161
c-17.333 -30 -27.666 -55.833 -30.999 -77.5s-5 -41.834 -5 -60.501v-6v-367v-6c0 -18.667 1.66699 -38.834 5 -60.501s13.666 -47.5 30.999 -77.5h-161c18 31.333 28.667 58.333 32 81s5 43.667 5 63v172h-280v-172v-6c0 -18.667 1.66699 -38.834 5 -60.501
s13.666 -47.5 30.999 -77.5h-161z" />
    <glyph glyph-name="I" unicode="I" horiz-adv-x="275" 
d="M57 0c18 31.333 28.667 58.335 32 81.002s5 43.667 5 63v367c0 19.333 -1.66699 40.333 -5 63s-14 49.667 -32 81h161c-17.333 -30 -27.666 -55.833 -30.999 -77.5s-5 -41.834 -5 -60.501v-6v-367v-6c0 -18.667 1.66699 -38.834 5 -60.501s13.666 -47.5 30.999 -77.5
h-161z" />
    <glyph glyph-name="J" unicode="J" horiz-adv-x="275" 
d="M-93 -86l86.001 -67c5.33301 -4 10.166 -7 14.499 -9s10.166 -3 17.499 -3c24.667 0 43.667 13 57 39s20 65.333 20 118v519c0 19.333 -1.66699 40.333 -5 63s-14 49.667 -32 81h161c-17.333 -30 -27.666 -55.833 -30.999 -77.5s-5 -41.834 -5 -60.501v-6v-472
c0 -19.333 -0.333008 -37.166 -1 -53.499s-2.66699 -32 -6 -47s-8.5 -29.333 -15.5 -43s-16.5 -27.167 -28.5 -40.5c-18.667 -20.667 -41.334 -36.5 -68.001 -47.5s-56 -16.5 -88 -16.5c-27.333 0 -52.666 2.33301 -75.999 7v116z" />
    <glyph glyph-name="K" unicode="K" horiz-adv-x="553" 
d="M55 0c18 31.333 28.667 58.335 32 81.002s5 43.667 5 63v367c0 19.333 -1.66699 40.333 -5 63s-14 49.667 -32 81h161c-17.333 -30 -27.666 -55.833 -30.999 -77.5s-5 -41.834 -5 -60.501v-6v-367v-6c0 -18.667 1.66699 -38.834 5 -60.501s13.666 -47.5 30.999 -77.5
h-161zM191 337.002l221 249.001c4.66699 5.33301 8.16699 10.833 10.5 16.5s3.5 9.16699 3.5 10.5c0 10.667 -7.66699 24.667 -23 42h172c-22.667 -13.333 -42 -27.333 -58 -42l-44 -42l-192 -200l200 -276c14 -19.333 29.167 -36.833 45.5 -52.5
s35.833 -29.834 58.5 -42.501h-160z" />
    <glyph glyph-name="L" unicode="L" horiz-adv-x="444" 
d="M55 0c18.667 32.667 29.499 60.4971 32.499 83.4971s4.5 43.5 4.5 61.5v367c0 20.667 -1.83301 42.334 -5.5 65.001s-14.167 48.667 -31.5 78h163c-9.33301 -15.333 -16.5 -29.666 -21.5 -42.999s-8.66699 -26 -11 -38s-3.66602 -23.167 -3.99902 -33.5
s-0.5 -20.166 -0.5 -29.499v-473h110c13.333 0 24 2 32 6s16.333 9.33301 25 16l98 73l-18 -133h-373z" />
    <glyph glyph-name="M" unicode="M" horiz-adv-x="794" 
d="M49 0c18 30.667 28.5 57.5039 31.5 80.5039s4.5 44.167 4.5 63.5v367c0 10 -0.166992 20.167 -0.5 30.5s-1.66602 21.333 -3.99902 33s-6 24.167 -11 37.5s-11.833 27.666 -20.5 42.999h137l209 -516l209 516h133c-17.333 -30 -27.666 -55.833 -30.999 -77.5
s-5 -41.834 -5 -60.501v-6v-367v-6c0 -18.667 1.66699 -38.834 5 -60.501s13.666 -47.5 30.999 -77.5h-158c18 31.333 28.667 58.333 32 81s5 43.667 5 63v409l-226 -553h-32l-221 553v-409v-6c0 -18.667 1.66699 -38.834 5 -60.501s13.666 -47.5 30.999 -77.5h-124z" />
    <glyph glyph-name="N" unicode="N" horiz-adv-x="625" 
d="M139 542l-0.000976562 -398v-6c0 -18.667 1.66699 -38.834 5 -60.501s13.666 -47.5 30.999 -77.5h-124c18 30.667 28.5 57.5 31.5 80.5s4.5 44.167 4.5 63.5v367c0 10 -0.166992 20.167 -0.5 30.5s-1.66602 21.333 -3.99902 33s-6 24.167 -11 37.5
s-11.833 27.666 -20.5 42.999h119l321 -491v347c0 19.333 -1.66699 40.333 -5 63s-14 49.667 -32 81h125c-9.33301 -15.333 -16.5 -29.666 -21.5 -42.999s-8.66699 -26 -11 -38s-3.66602 -23.167 -3.99902 -33.5s-0.5 -20.166 -0.5 -29.499v-516h-44z" />
    <glyph glyph-name="O" unicode="O" horiz-adv-x="676" 
d="M49 317c0 53.333 7.00098 101.333 21.001 144s34 79 60 109s57.333 53.167 94 69.5s77.667 24.5 123 24.5c42 0 80.167 -7.83301 114.5 -23.5s63.666 -37.834 87.999 -66.501s43.333 -63.5 57 -104.5s20.5 -86.833 20.5 -137.5c0 -53.333 -7.16699 -101.333 -21.5 -144
s-34.5 -79 -60.5 -109s-57.333 -53.167 -94 -69.5s-77.667 -24.5 -123 -24.5c-42 0 -80 7.83301 -114 23.5s-63.333 38 -88 67s-43.667 63.833 -57 104.5s-20 86.334 -20 137.001zM337.001 619c-28 0 -53.5 -6.33496 -76.5 -19.002s-42.667 -31.167 -59 -55.5
s-29 -54.166 -38 -89.499s-13.5 -75.666 -13.5 -120.999c0 -49.333 4.66699 -92.833 14 -130.5s22.166 -69.5 38.499 -95.5s36.166 -45.667 59.499 -59s49 -20 77 -20c56.667 0 102 24.833 136 74.5s51 120.167 51 211.5c0 48.667 -4.66699 92 -14 130
s-22.166 69.833 -38.499 95.5s-36.166 45.167 -59.499 58.5s-49 20 -77 20z" />
    <glyph glyph-name="P" unicode="P" horiz-adv-x="484" 
d="M53 0c18 30.667 28.499 57.501 31.499 80.501s4.5 44.167 4.5 63.5v367c0 10 -0.166992 20.167 -0.5 30.5s-1.66602 21.333 -3.99902 33s-6 24.167 -11 37.5s-11.833 27.666 -20.5 42.999h211c67.333 0 118.333 -16.167 153 -48.5s52 -78.5 52 -138.5
c0 -28 -5 -53.833 -15 -77.5s-24.667 -44 -44 -61s-43 -30.333 -71 -40s-60 -14.5 -96 -14.5h-29.5c-11 0 -23.167 0.666992 -36.5 2v-133c0 -19.333 1.5 -40.5 4.5 -63.5s13.833 -49.833 32.5 -80.5h-161zM176.999 316.001c10 -0.666992 18.5 -1 25.5 -1h16.5
c50 0 87.333 13 112 39s37 64 37 114c0 47.333 -11 83.833 -33 109.5s-52.333 38.5 -91 38.5h-67v-300z" />
    <glyph glyph-name="Q" unicode="Q" horiz-adv-x="676" 
d="M337 619c-28 0 -53.5 -6.33496 -76.5 -19.002s-42.667 -31.167 -59 -55.5s-29 -54.166 -38 -89.499s-13.5 -75.666 -13.5 -120.999c0 -49.333 4.66699 -92.833 14 -130.5s22.166 -69.5 38.499 -95.5s36.166 -45.667 59.499 -59s49 -20 77 -20
c56.667 0 102 24.833 136 74.5s51 120.167 51 211.5c0 48.667 -4.66699 92 -14 130s-22.166 69.833 -38.499 95.5s-36.166 45.167 -59.499 58.5s-49 20 -77 20zM298 -8.00195c-38.667 5.33301 -73.3291 16.667 -103.996 34s-56.834 40.166 -78.501 68.499
s-38.167 61.5 -49.5 99.5s-17 80.333 -17 127c0 52.667 7.16699 100.167 21.5 142.5s34.5 78.5 60.5 108.5s57.333 53 94 69s77.667 24 123 24c42 0 80 -7.83301 114 -23.5s63.333 -37.667 88 -66s43.667 -62.666 57 -102.999s20 -85.166 20 -134.499
c0 -46 -5.33301 -88.333 -16 -127s-25.834 -72.5 -45.501 -101.5s-43.167 -53 -70.5 -72s-58 -31.5 -92 -37.5l193 -116c9.33301 -5.33301 19.166 -9.5 29.499 -12.5s19.166 -4.5 26.499 -4.5c4 0 11.333 0.666992 22 2s24.667 2.66602 42 3.99902
c-25.333 -26.667 -47.833 -47 -67.5 -61s-39.167 -21 -58.5 -21c-22 0 -43.667 8.33301 -65 25z" />
    <glyph glyph-name="R" unicode="R" horiz-adv-x="549" 
d="M58 0c18 30.667 28.499 57.5 31.499 80.5s4.5 44.167 4.5 63.5v367c0 10 -0.166992 20.167 -0.5 30.5s-1.66602 21.333 -3.99902 33s-6 24.167 -11 37.5s-11.833 27.666 -20.5 42.999h198c28.667 0 54.5 -1.16699 77.5 -3.5s43.833 -9.16602 62.5 -20.499
c19.333 -11.333 34.833 -28.5 46.5 -51.5s17.5 -48.5 17.5 -76.5c0 -48 -14.5 -87.167 -43.5 -117.5s-70.833 -49.5 -125.5 -57.5l146 -199c19.333 -26.667 39.333 -50.667 60 -72s43 -40.333 67 -57h-146l-236 335v-191c0 -19.333 1.5 -40.5 4.5 -63.5
s13.833 -49.833 32.5 -80.5h-161zM231.999 353c42 0 74.333 11.668 97 35.001s34 56.666 34 99.999c0 86.667 -43.667 130 -131 130h-50v-265h50z" />
    <glyph glyph-name="S" unicode="S" horiz-adv-x="484" 
d="M59 132l106 -81.0029c9.33301 -7.33301 18.166 -12.666 26.499 -15.999s17.166 -5 26.499 -5c40 0 72.333 10.833 97 32.5s37 49.5 37 83.5c0 23.333 -6 42.5 -18 57.5s-29.333 30.167 -52 45.5l-117 81c-34 23.333 -58.833 46.833 -74.5 70.5s-23.5 53.167 -23.5 88.5
c0 24.667 4.83301 47.667 14.5 69s23.334 39.833 41.001 55.5s38.834 28 63.501 37s52 13.5 82 13.5c44 0 92.667 -6.66699 146 -20v-115l-99 76c-18 14 -36 21 -54 21c-14.667 0 -28.667 -2.66699 -42 -8s-25 -12.833 -35 -22.5s-18 -21.167 -24 -34.5s-9 -28 -9 -44
c0 -14.667 2 -27.667 6 -39s9.83301 -21.666 17.5 -30.999s17.167 -18.5 28.5 -27.5s24.333 -18.167 39 -27.5l106 -70c31.333 -20.667 54.5 -41.5 69.5 -62.5s22.5 -48.833 22.5 -83.5c0 -27.333 -5 -52.666 -15 -75.999s-24.5 -43.5 -43.5 -60.5
s-42.167 -30.333 -69.5 -40s-58.333 -14.5 -93 -14.5c-52 0 -105.333 10 -160 30v117z" />
    <glyph glyph-name="T" unicode="T" horiz-adv-x="537" 
d="M192 0c18 30.667 28.5 57.5 31.5 80.5s4.5 44.167 4.5 63.5v467h-80c-7.33301 0 -14.833 -1.33301 -22.5 -4s-14.167 -5.66699 -19.5 -9l-94 -70v127h520v-127l-91 69c-5.33301 4 -12 7.33301 -20 10s-16.333 4 -25 4h-80v-467c0 -19.333 1.5 -40.5 4.5 -63.5
s13.833 -49.833 32.5 -80.5h-161z" />
    <glyph glyph-name="U" unicode="U" horiz-adv-x="616" 
d="M75 511c0 10 -0.173828 20.166 -0.506836 30.499s-1.66602 21.333 -3.99902 33s-6 24.167 -11 37.5s-11.833 27.666 -20.5 42.999h161c-9.33301 -15.333 -16.5 -29.666 -21.5 -42.999s-8.66699 -26 -11 -38s-3.66602 -23.167 -3.99902 -33.5s-0.5 -20.166 -0.5 -29.499
v-302c0 -31.333 2.5 -58.666 7.5 -81.999s13.333 -42.5 25 -57.5s27.167 -26.167 46.5 -33.5s43 -11 71 -11c74.667 0 123.334 23.667 146.001 71c7.33301 15.333 11.833 31.666 13.5 48.999s2.5 36.333 2.5 57v41v268c0 10 -0.166992 20.167 -0.5 30.5
s-1.66602 21.333 -3.99902 33s-6 24.167 -11 37.5s-11.833 27.666 -20.5 42.999h138c-9.33301 -15.333 -16.5 -29.666 -21.5 -42.999s-8.66699 -26 -11 -38s-3.66602 -23.167 -3.99902 -33.5s-0.5 -20.166 -0.5 -29.499v-280v-14c0 -26 -1 -50.333 -3 -73s-8 -44 -18 -64
c-15.333 -30.667 -41.166 -54.334 -77.499 -71.001s-82.166 -25 -137.499 -25c-81.333 0 -139.833 16.333 -175.5 49s-53.5 84.667 -53.5 156v322z" />
    <glyph glyph-name="V" unicode="V" horiz-adv-x="551" 
d="M49 544c-6.66699 18.667 -15.1689 36.999 -25.502 54.999s-25.5 36.667 -45.5 56h180c-9.33301 -13.333 -16.666 -24.666 -21.999 -33.999s-8 -17.666 -8 -24.999s4 -23 12 -47l153 -457l160 478c4 12 6 22.333 6 31c0 8 -2.66699 16.167 -8 24.5s-12 18.166 -20 29.499
h149c-31.333 -32 -55.666 -70.667 -72.999 -116l-204 -539h-67z" />
    <glyph glyph-name="W" unicode="W" horiz-adv-x="877" 
d="M71 546c-6 20.667 -14 39.6689 -24 57.002s-24.667 34.666 -44 51.999h179c-19.333 -22 -29 -41.667 -29 -59c0 -5.33301 0.666992 -11 2 -17s3 -13 5 -21l117 -428l153 525h63l157 -525l125 445c2.66699 10.667 4 19 4 25c0 15.333 -8.66699 33.666 -26 54.999h144
c-17.333 -18.667 -31.333 -37.167 -42 -55.5s-19.667 -38.5 -27 -60.5l-172 -539h-58l-156 521l-151 -521h-64z" />
    <glyph glyph-name="X" unicode="X" horiz-adv-x="583" 
d="M21 0c23.333 23.333 42.334 44.5 57.001 63.5s26.667 35.833 36 50.5l135 205l-138 229c-11.333 18 -24.333 35.833 -39 53.5s-31.334 35.5 -50.001 53.5h187c-16 -19.333 -24 -34.666 -24 -45.999c0 -6.66699 1.83301 -13.834 5.5 -21.501s8.16699 -16.167 13.5 -25.5
l99 -165l101 174c5.33301 9.33301 9 17.5 11 24.5s3 11.5 3 13.5c0 8 -7.66699 23.333 -23 46h151c-14 -12 -28 -26.667 -42 -44s-28.667 -37.333 -44 -60l-132 -192l159 -263c7.33301 -12.667 18 -27.167 32 -43.5s31 -33.833 51 -52.5h-184l17.5 27.5
c4.33301 7 6.5 12.5 6.5 16.5c0 8.66699 -5.66699 22.334 -17 41.001l-119 195l-110 -196c-4 -7.33301 -7 -14.5 -9 -21.5s-3 -12.167 -3 -15.5c0 -10.667 8.66699 -26.334 26 -47.001h-157z" />
    <glyph glyph-name="Y" unicode="Y" horiz-adv-x="532" 
d="M183 0c18 30.667 28.501 57.502 31.501 80.502s4.5 44.167 4.5 63.5v157l-154 251c-7.33301 11.333 -17.333 25.833 -30 43.5s-31.667 37.5 -57 59.5h188c-7.33301 -10.667 -13.166 -19.834 -17.499 -27.501s-6.5 -14.167 -6.5 -19.5
c0 -8.66699 5.66699 -22.334 17 -41.001l123 -205l116 214c3.33301 5.33301 6 10.5 8 15.5s3 10.833 3 17.5c0 10 -7.33301 25.333 -22 46h155c-20.667 -18.667 -38.834 -38.167 -54.501 -58.5s-30.834 -41.833 -45.501 -64.5l-135 -207v-181c0 -19.333 1.5 -40.5 4.5 -63.5
s13.833 -49.833 32.5 -80.5h-161z" />
    <glyph glyph-name="Z" unicode="Z" horiz-adv-x="539" 
d="M381 615l-165 0.00195312c-21.333 0 -43.333 -7.66699 -66 -23s-50.667 -35.333 -84 -60v123h441l-355 -614h202c10.667 0 21.167 2.33301 31.5 7s21.5 11.167 33.5 19.5s25 18.166 39 29.499s30.333 23.666 49 36.999l-19 -134h-463z" />
    <glyph glyph-name="bracketleft" unicode="[" horiz-adv-x="269" 
d="M88 708h132.001l-33 -43c-8.66699 -11.333 -15 -20 -19 -26c-5.33301 -7.33301 -8.5 -14.833 -9.5 -22.5s-1.5 -15.834 -1.5 -24.501v-675c0 -8 0.5 -16 1.5 -24s3.66699 -16.667 8 -26s10.666 -20.166 18.999 -32.499s19.833 -26.5 34.5 -42.5h-132v916z" />
    <glyph glyph-name="backslash" unicode="\" horiz-adv-x="231" 
d="M-35 649l43 16l259 -712l-44 -15z" />
    <glyph glyph-name="bracketright" unicode="]" horiz-adv-x="269" 
d="M50 -208c14.667 16 26.168 30.001 34.501 42.001s14.5 22.833 18.5 32.5s6.5 18.5 7.5 26.5s1.5 16 1.5 24v14v638v22c0 8.66699 -0.5 17 -1.5 25s-4.16699 15.667 -9.5 23c-4.66699 7.33301 -11.334 16.666 -20.001 27.999l-31 41h131v-916h-131z" />
    <glyph glyph-name="asciicircum" unicode="^" horiz-adv-x="512" 
d="M228 663h55l175 -388h-63l-138 319h-2l-138 -319h-63z" />
    <glyph glyph-name="underscore" unicode="_" 
d="M0 -50h500v-50h-500v50z" />
    <glyph glyph-name="grave" unicode="`" 
d="M76 688h136l94 -165z" />
    <glyph glyph-name="a" unicode="a" horiz-adv-x="456" 
d="M323 -11c-10.667 18.667 -17.334 36.998 -20.001 54.998c-31.333 -16.667 -58 -30.167 -80 -40.5s-41.667 -15.5 -59 -15.5c-16.667 0 -32.5 3.33301 -47.5 10s-28 15.834 -39 27.501s-19.833 25.5 -26.5 41.5s-10 33.333 -10 52c0 46.667 17 80.5 51 101.5
s86.333 31.5 157 31.5c8 0 16.333 -0.166992 25 -0.5s17.667 -0.833008 27 -1.5v91c0 29.333 -6.5 51.666 -19.5 66.999s-30.833 23 -53.5 23c-14.667 0 -33.334 -8.5 -56.001 -25.5s-52 -40.5 -88 -70.5v105c35.333 10 67.333 17.333 96 22s54.667 7 78 7
c28 0 50.333 -2.66699 67 -8s29.334 -13.666 38.001 -24.999s14.334 -26.166 17.001 -44.499s4 -40.5 4 -66.5v-167v-7c0 -11.333 0.333008 -22.5 1 -33.5s2.16699 -22 4.5 -33s6.33301 -22.167 12 -33.5s13.5 -23 23.5 -35zM301 223.998
c-58 -4.66699 -100.667 -13.167 -128 -25.5s-41 -33.833 -41 -64.5c0 -26.667 9.5 -47.5 28.5 -62.5s46.167 -22.5 81.5 -22.5c12 0 31.667 1 59 3v172z" />
    <glyph glyph-name="b" unicode="b" horiz-adv-x="525" 
d="M82 541c0 26 -3.66895 49.834 -11.002 71.501s-18.333 44.5 -33 68.5l128 27v-296c27.333 17.333 51.666 31.166 72.999 41.499s44 15.5 68 15.5c24.667 0 47.834 -5.33301 69.501 -16s40.5 -25.5 56.5 -44.5s28.5 -42.167 37.5 -69.5s13.5 -57.333 13.5 -90
c0 -37.333 -5.66699 -71.666 -17 -102.999s-26.666 -58.333 -45.999 -81s-42 -40.334 -68 -53.001s-53.667 -19 -83 -19c-41.333 0 -76.666 10.667 -105.999 32l-82 -40v556zM165.998 53.001c14 -5.33301 27 -9.33301 39 -12s23.333 -4 34 -4c48 0 86.5 16.667 115.5 50
s43.5 79.333 43.5 138c0 60 -15 105.5 -45 136.5s-73.333 46.5 -130 46.5c-8.66699 0 -17.667 -0.333008 -27 -1s-19.333 -1.66699 -30 -3v-351z" />
    <glyph glyph-name="c" unicode="c" horiz-adv-x="428" 
d="M307 413c-16.667 11.333 -30.999 17 -42.999 17c-16 0 -31.667 -4.5 -47 -13.5s-28.833 -22 -40.5 -39s-21 -37.333 -28 -61s-10.5 -50.5 -10.5 -80.5c0 -126.667 62.667 -190 188 -190c20 0 39.167 0.666992 57.5 2s35.833 3.33301 52.5 6
c-54.667 -44.667 -115 -67 -181 -67c-30 0 -57.833 5.33301 -83.5 16s-47.834 25.667 -66.501 45s-33.167 42.333 -43.5 69s-15.5 56 -15.5 88c0 40 6 76.167 18 108.5s28.667 60 50 83s46.833 40.833 76.5 53.5s62.5 19 98.5 19c19.333 0 38.5 -1.5 57.5 -4.5
s39.167 -7.16699 60.5 -12.5v-108z" />
    <glyph glyph-name="d" unicode="d" horiz-adv-x="532" 
d="M367 45c-28.667 -20 -55.166 -34.668 -79.499 -44.001s-45.833 -14 -64.5 -14c-24.667 0 -47.834 5.5 -69.501 16.5s-40.667 26.333 -57 46s-29.166 43.334 -38.499 71.001s-14 58.167 -14 91.5c0 36 5.83301 69.5 17.5 100.5s27.167 58 46.5 81s42 41.167 68 54.5
s53 20 81 20c39.333 0 76 -10.667 110 -32v107c0 26 -4 49 -12 69s-19.667 42.333 -35 67l130 30v-551c0 -12.667 0.166992 -25 0.5 -37s1.83301 -24 4.5 -36s6.66699 -24 12 -36s12.666 -24.333 21.999 -37l-122 -26v59zM367.001 405.999
c-23.333 10.667 -48.999 16 -76.999 16c-47.333 0 -85 -16.667 -113 -50s-42 -80.333 -42 -141s14.833 -106.5 44.5 -137.5s73.167 -46.5 130.5 -46.5c9.33301 0 18.666 0.666992 27.999 2s19 3 29 5v352z" />
    <glyph glyph-name="e" unicode="e" horiz-adv-x="484" 
d="M344 304c-0.666992 85.333 -31 128 -91 128c-34 0 -61 -13 -81 -39s-31 -64 -33 -114zM138 252v-3c0 -70 16.667 -121.167 50 -153.5s85.333 -48.5 156 -48.5c30.667 0 65.667 4 105 12c-52.667 -46.667 -116 -70 -190 -70c-31.333 0 -60 5.33301 -86 16
s-48.167 26 -66.5 46s-32.5 44.333 -42.5 73s-15 61 -15 97c0 69.333 19.667 127.333 59 174c20 23.333 43.667 41.5 71 54.5s55 19.5 83 19.5c58 0 102.5 -18.333 133.5 -55s47.5 -90.667 49.5 -162h-307z" />
    <glyph glyph-name="f" unicode="f" horiz-adv-x="289" 
d="M52 0c18 30 28.832 54.6689 32.499 74.002s5.5 35.666 5.5 48.999v11v285h-63v44h63v55c0 62 17.833 108.833 53.5 140.5s86.5 47.5 152.5 47.5c28 0 59 -4.66699 93 -14v-101l-79 60c-7.33301 5.33301 -14 9.5 -20 12.5s-12.667 4.5 -20 4.5c-64 0 -96 -46 -96 -138v-67
h115v-44h-115v-294c0 -17.333 1.83301 -35.833 5.5 -55.5s14.834 -42.834 33.501 -69.501h-161z" />
    <glyph glyph-name="g" unicode="g" horiz-adv-x="505" 
d="M338 83c40 0 69.668 -6.99707 89.001 -20.9971s29 -39.333 29 -76c0 -25.333 -5.33301 -49.5 -16 -72.5s-26.667 -42.833 -48 -59.5c-24.667 -19.333 -52 -34.166 -82 -44.499s-61.667 -15.5 -95 -15.5c-29.333 0 -55.666 3.16699 -78.999 9.5s-43.166 14.5 -59.499 24.5
s-29 21.333 -38 34s-13.5 25.667 -13.5 39c0 19.333 9 37.166 27 53.499s44.333 35.833 79 58.5c-13.333 5.33301 -23.666 13 -30.999 23s-11 21.333 -11 34c0 17.333 7.66699 34.166 23 50.499s38.333 34.166 69 53.499c-40 7.33301 -70.5 23.166 -91.5 47.499
s-31.5 55.166 -31.5 92.499c0 22.667 4.16699 43.5 12.5 62.5s20.166 35.333 35.499 49s33.666 24.334 54.999 32.001s44.666 11.5 69.999 11.5c37.333 0 71.666 -10.667 102.999 -32l147 32v-72l-134 31c35.333 -30 53 -66.333 53 -109c0 -22 -4 -42 -12 -60
s-19.167 -33.667 -33.5 -47s-31.5 -23.666 -51.5 -30.999s-42.333 -11 -67 -11c-12.667 0 -28 1 -46 3c-8 -16 -12 -30 -12 -42c0 -18.667 5.83301 -31.334 17.5 -38.001s30.167 -10 55.5 -10h87zM226.001 435.003c-25.333 0 -45.333 -9.00195 -60 -27.002
s-22 -43.333 -22 -76c0 -19.333 2.33301 -36.833 7 -52.5s11.167 -29.167 19.5 -40.5s18.166 -20.166 29.499 -26.499s23.333 -9.5 36 -9.5c23.333 0 42.5 9 57.5 27s22.5 42.333 22.5 73c0 40.667 -8.66699 72.834 -26 96.501s-38.666 35.5 -63.999 35.5z
M207.001 0.000976562c-9.33301 0 -19.332 0.166992 -29.999 0.5s-22.334 2.16602 -35.001 5.49902c-23.333 -28.667 -35 -55 -35 -79c0 -26 11.5 -47.167 34.5 -63.5s54.5 -24.5 94.5 -24.5c22.667 0 43.5 2.83301 62.5 8.5s35.5 13.334 49.5 23.001
s24.833 20.834 32.5 33.501s11.5 25.667 11.5 39c0 23.333 -7.5 38.666 -22.5 45.999s-37.833 11 -68.5 11h-94z" />
    <glyph glyph-name="h" unicode="h" horiz-adv-x="521" 
d="M46 0c18 30.667 28.502 57.5 31.502 80.5s4.5 44.167 4.5 63.5v397c0 26 -3.66699 49.833 -11 71.5s-18.333 44.5 -33 68.5l128 27v-290c36 15.333 67.5 27.666 94.5 36.999s51.833 14 74.5 14c76 0 114 -56.333 114 -169v-156c0 -19.333 1.5 -40.5 4.5 -63.5
s13.833 -49.833 32.5 -80.5h-157c18 31.333 28.667 58.333 32 81s5 43.667 5 63v128c0 26 -2.33301 47.833 -7 65.5s-12.334 31.834 -23.001 42.501s-25 18.334 -43 23.001s-40.333 7 -67 7c-20 0 -40 -1 -60 -3v-263v-6c0 -18.667 1.66699 -38.834 5 -60.501
s13.666 -47.5 30.999 -77.5h-156z" />
    <glyph glyph-name="i" unicode="i" horiz-adv-x="257" 
d="M128 696c15.333 0 28 -4.99902 38 -14.999s15 -23 15 -39c0 -36 -17.667 -54 -53 -54c-16.667 0 -29.5 4.66699 -38.5 14s-13.5 22.666 -13.5 39.999c0 16 4.83301 29 14.5 39s22.167 15 37.5 15zM52 0.000976562c18 31.333 28.667 58.333 32 81s5 43.667 5 63v191
c0 35.333 -13.333 72.333 -40 111l123 27v-329c0 -19.333 1.5 -40.5 4.5 -63.5s13.833 -49.833 32.5 -80.5h-157z" />
    <glyph glyph-name="j" unicode="j" horiz-adv-x="257" 
d="M130 696c15.333 0 27.833 -4.99902 37.5 -14.999s14.5 -23 14.5 -39c0 -36 -17.333 -54 -52 -54c-16.667 0 -29.667 4.66699 -39 14s-14 22.666 -14 39.999c0 16 5 29 15 39s22.667 15 38 15zM-62 -95.999l64 -53c6 -5.33301 11.333 -9.33301 16 -12s10 -4 16 -4
c24 0 39.333 13 46 39s10 64 10 114v347c0 35.333 -13.333 72.333 -40 111l123 27v-416c0 -45.333 -2.5 -84.5 -7.5 -117.5s-14 -60.5 -27 -82.5s-30.5 -38.333 -52.5 -49s-50.333 -16 -85 -16c-18 0 -39 2 -63 6v106z" />
    <glyph glyph-name="k" unicode="k" horiz-adv-x="491" 
d="M45 0c18 30.667 28.5 57.5 31.5 80.5s4.5 44.167 4.5 63.5v426c0 35.333 -13.333 72.333 -40 111l122 27v-564c0 -19.333 1.66699 -40.333 5 -63s14 -49.667 32 -81h-155zM178 250l140 142.998c10 10 15 19.667 15 29c0 10.667 -6.33301 24.334 -19 41.001h176
c-46 -27.333 -89.667 -58.666 -131 -93.999l-101 -88l164 -212c24.667 -32 51 -55 79 -69h-141z" />
    <glyph glyph-name="l" unicode="l" horiz-adv-x="245" 
d="M44 0c18 31.333 28.667 58.333 32 81s5 43.667 5 63v426c0 35.333 -13.333 72.333 -40 111l123 27v-564c0 -19.333 1.5 -40.5 4.5 -63.5s13.833 -49.833 32.5 -80.5h-157z" />
    <glyph glyph-name="m" unicode="m" horiz-adv-x="780" 
d="M50 0c18 31.333 28.667 58.332 32 80.999s5 43.667 5 63v191c0 35.333 -13.333 72.333 -40 111l123 27v-55c30 14.667 57.333 26.834 82 36.501s49.334 14.5 74.001 14.5c18.667 0 36.167 -4.33301 52.5 -13s29.833 -21 40.5 -37c32 14.667 61 26.667 87 36
s51.667 14 77 14c46 0 78.667 -13.5 98 -40.5s29 -69.833 29 -128.5v-156v-6c0 -18.667 1.66699 -38.834 5 -60.501s13.666 -47.5 30.999 -77.5h-156c18 30.667 28.5 57.5 31.5 80.5s4.5 44.167 4.5 63.5v128c0 26.667 -2.33301 48.834 -7 66.501s-12.5 31.834 -23.5 42.501
s-25.5 18.167 -43.5 22.5s-40.333 6.5 -67 6.5c-18 0 -38.333 -1 -61 -3c6.66699 -9.33301 11 -22.833 13 -40.5s3 -39.834 3 -66.501v-156c0 -19.333 1.5 -40.5 4.5 -63.5s13.833 -49.833 32.5 -80.5h-157c18 31.333 28.667 58.333 32 81s5 43.667 5 63v128
c0 50 -9.66699 85.5 -29 106.5s-53.333 31.5 -102 31.5c-15.333 0 -34 -1 -56 -3v-263c0 -19.333 1.5 -40.5 4.5 -63.5s13.833 -49.833 32.5 -80.5h-157z" />
    <glyph glyph-name="n" unicode="n" horiz-adv-x="521" 
d="M46 0c18 30.667 28.501 57.501 31.501 80.501s4.5 44.167 4.5 63.5v191c0 20 -3.16699 38.667 -9.5 56s-16.166 35.666 -29.499 54.999l123 27v-55c36 15.333 67.5 27.666 94.5 36.999s51.833 14 74.5 14c76 0 114 -56.333 114 -169v-156c0 -19.333 1.5 -40.5 4.5 -63.5
s13.833 -49.833 32.5 -80.5h-157c18 31.333 28.667 58.333 32 81s5 43.667 5 63v128c0 26 -2.33301 47.833 -7 65.5s-12.334 31.834 -23.001 42.501s-25 18.334 -43 23.001s-40.333 7 -67 7c-20 0 -40 -1 -60 -3v-263v-6c0 -18.667 1.66699 -38.834 5 -60.501
s13.666 -47.5 30.999 -77.5h-156z" />
    <glyph glyph-name="o" unicode="o" horiz-adv-x="537" 
d="M46 227c0 35.333 5.66895 67.8311 17.002 97.498s27.166 55.167 47.499 76.5s44.333 38 72 50s57.5 18 89.5 18c31.333 0 60.333 -6 87 -18s49.834 -28.667 69.501 -50s35 -46.833 46 -76.5s16.5 -62.5 16.5 -98.5c0 -35.333 -5.66699 -67.666 -17 -96.999
s-27 -54.666 -47 -75.999s-43.833 -38 -71.5 -50s-57.834 -18 -90.501 -18c-31.333 0 -60.333 5.83301 -87 17.5s-49.834 28.167 -69.501 49.5s-35 46.833 -46 76.5s-16.5 62.5 -16.5 98.5zM265.002 431.998c-38 0 -67.8311 -16.333 -89.498 -49s-32.5 -80 -32.5 -142
c0 -70 11.667 -124 35 -162s54.666 -57 93.999 -57c38 0 67.833 16.333 89.5 49s32.5 80 32.5 142c0 70 -11.833 124 -35.5 162s-54.834 57 -93.501 57z" />
    <glyph glyph-name="p" unicode="p" horiz-adv-x="532" 
d="M46 -206c18 30.667 28.502 57.502 31.502 80.502s4.5 44.167 4.5 63.5v397c0 19.333 -3.16699 37.833 -9.5 55.5s-16.166 36.167 -29.499 55.5l123 27v-58c28 20 54.167 34.667 78.5 44s45.833 14 64.5 14c24.667 0 48 -5.5 70 -16.5s41.167 -26.333 57.5 -46
s29.166 -43.334 38.499 -71.001s14 -58.167 14 -91.5c0 -36 -5.83301 -69.667 -17.5 -101s-27.334 -58.5 -47.001 -81.5s-42.5 -41 -68.5 -54s-53 -19.5 -81 -19.5c-38.667 0 -75 11 -109 33v-87v-6c0 -18.667 1.66699 -38.834 5 -60.501s13.666 -47.5 30.999 -77.5h-156z
M166.002 54.002c23.333 -10.667 48.666 -16.001 75.999 -16.001c47.333 0 85 17 113 51s42 81 42 141c0 60.667 -14.5 106.334 -43.5 137.001s-72.5 46 -130.5 46c-9.33301 0 -18.666 -0.666992 -27.999 -2s-19 -3 -29 -5v-352z" />
    <glyph glyph-name="q" unicode="q" horiz-adv-x="525" 
d="M331 -206c18 30.667 28.502 57.499 31.502 80.499s4.5 44.167 4.5 63.5v112c-26.667 -17.333 -50.834 -31.166 -72.501 -41.499s-44.5 -15.5 -68.5 -15.5c-25.333 0 -48.666 5.16699 -69.999 15.5s-40 25.166 -56 44.499s-28.5 42.333 -37.5 69s-13.5 56.667 -13.5 90
c0 37.333 5.66699 71.833 17 103.5s26.666 58.834 45.999 81.501s42 40.334 68 53.001s53.667 19 83 19c40.667 0 76 -11 106 -33l82 40v-538v-6c0 -18.667 1.66699 -38.834 5 -60.501s13.666 -47.5 30.999 -77.5h-156zM367.002 408.999
c-14.667 5.33301 -28.001 9.16699 -40.001 11.5s-23 3.5 -33 3.5c-48 0 -86.5 -16.667 -115.5 -50s-43.5 -79.333 -43.5 -138s14.833 -103.667 44.5 -135s70.834 -47 123.501 -47c22.667 0 44 1 64 3v352z" />
    <glyph glyph-name="r" unicode="r" horiz-adv-x="352" 
d="M50 0c18 31.333 28.6689 58.332 32.002 80.999s5 43.667 5 63v191c0 35.333 -13.333 72.333 -40 111l123 27v-67c25.333 20.667 48.333 36.334 69 47.001s40.667 16 60 16c9.33301 0 22.666 -2.66699 39.999 -8v-100c-33.333 26 -72 39 -116 39
c-8.66699 0 -17.334 -0.333008 -26.001 -1s-17.667 -1.66699 -27 -3v-252c0 -19.333 1.5 -40.5 4.5 -63.5s13.833 -49.833 32.5 -80.5h-157z" />
    <glyph glyph-name="s" unicode="s" horiz-adv-x="398" 
d="M52 122c37.333 -30.667 67.8311 -54.501 91.498 -71.501s43.167 -25.5 58.5 -25.5c20 0 37.333 7.16699 52 21.5s22 32.166 22 53.499c0 19.333 -5.16699 34.5 -15.5 45.5s-26.166 21.833 -47.499 32.5l-52 26c-35.333 17.333 -61.333 36.5 -78 57.5s-25 45.5 -25 73.5
c0 39.333 14.333 71.5 43 96.5s67.667 37.5 117 37.5c16.667 0 35.334 -1.33301 56.001 -4s42.667 -6.66699 66 -12v-107c-36 27.333 -65.167 48.5 -87.5 63.5s-40.166 22.5 -53.499 22.5c-17.333 0 -32.5 -6.33301 -45.5 -19s-19.5 -28.667 -19.5 -48
c0 -15.333 5.5 -29.166 16.5 -41.499s27.5 -24.166 49.5 -35.499l67 -35c30.667 -16 53.5 -32.667 68.5 -50s22.5 -40.333 22.5 -69c0 -46 -14.833 -81.833 -44.5 -107.5s-72.834 -38.5 -129.501 -38.5c-16 0 -35 1.66699 -57 5s-47 9 -75 17v112z" />
    <glyph glyph-name="t" unicode="t" horiz-adv-x="336" 
d="M84 419l-79.9971 0.000976562c71.333 60 126 118.667 164 176v-132h153v-44h-153v-272c0 -19.333 1.16699 -35.333 3.5 -48s7.16602 -22.834 14.499 -30.501s18.166 -13.167 32.499 -16.5s33.166 -5 56.499 -5c20 0 43 2 69 6c-26 -21.333 -52.333 -37.333 -79 -48
s-51.667 -16 -75 -16c-22 0 -39.833 3 -53.5 9s-24.5 15 -32.5 27s-13.333 27.167 -16 45.5s-4 39.833 -4 64.5v284z" />
    <glyph glyph-name="u" unicode="u" horiz-adv-x="521" 
d="M355 50c-33.333 -18.667 -63.335 -32.8369 -90.002 -42.5039s-51.667 -14.5 -75 -14.5c-22.667 0 -41.5 3 -56.5 9s-27 15.333 -36 28s-15.333 28.834 -19 48.501s-5.5 42.834 -5.5 69.501v187c0 35.333 -13.333 72.333 -40 111l123 27v-276
c0 -26 1.33301 -48.167 4 -66.5s8.33398 -33.333 17.001 -45s21.334 -20 38.001 -25s38.667 -7.5 66 -7.5c10.667 0 22 0.5 34 1.5l40 3.5v277c0 35.333 -13.333 72.333 -40 111l124 27v-346c0 -19.333 3.33301 -37.666 10 -54.999s16.667 -35.666 30 -54.999l-124 -28v61z
" />
    <glyph glyph-name="v" unicode="v" horiz-adv-x="435" 
d="M66 321c-8.66699 23.333 -18.667 46.833 -30 70.5s-29.666 47.5 -54.999 71.5h179c-8 -12 -14.5 -22.167 -19.5 -30.5s-7.5 -16.833 -7.5 -25.5c0 -3.33301 0.5 -8.33301 1.5 -15s3.16699 -14.667 6.5 -24l98 -293l87 293c3.33301 11.333 5.66602 20.833 6.99902 28.5
s2 13.167 2 16.5c0 11.333 -8.33301 28 -25 50h140c-11.333 -10.667 -24 -26.167 -38 -46.5s-27 -46.5 -39 -78.5l-130 -343h-58z" />
    <glyph glyph-name="w" unicode="w" horiz-adv-x="706" 
d="M51 362c-4 11.333 -10.167 25.1689 -18.5 41.502s-24.5 36.166 -48.5 59.499h179c-19.333 -27.333 -29 -47.333 -29 -60c0 -3.33301 0.666992 -7.5 2 -12.5s3 -10.833 5 -17.5l87 -276l122 366h41l125 -372l81 283c3.33301 10 5.5 18.167 6.5 24.5s1.5 11.166 1.5 14.499
c0 11.333 -8.33301 28 -25 50h136c-20 -21.333 -35.167 -43.333 -45.5 -66s-19.5 -44.667 -27.5 -66l-127 -338h-51l-114 336l-114 -336h-56z" />
    <glyph glyph-name="x" unicode="x" horiz-adv-x="462" 
d="M8 0c11.333 10.667 22.834 22.665 34.501 35.998s23.167 27.666 34.5 42.999l106 142l-99 153c-9.33301 14 -20.333 28.5 -33 43.5s-27.667 30.167 -45 45.5h165c-10.667 -15.333 -16 -27.666 -16 -36.999c0 -5.33301 1.33301 -10.5 4 -15.5s6 -10.833 10 -17.5l67 -103
l66 106l8.5 14c2.33301 4 3.5 8.66699 3.5 14c0 4.66699 -1.66699 10 -5 16s-8 13.667 -14 23h130c-32.667 -29.333 -64.667 -65.666 -96 -108.999l-71 -98l94 -140c11.333 -17.333 24.5 -36 39.5 -56s34.167 -40 57.5 -60h-172c12.667 16 19 28.333 19 37
c0 5.33301 -1.33301 10.833 -4 16.5s-6.66699 12.167 -12 19.5l-74 114l-78 -124c-2.66699 -4 -4.83398 -7.66699 -6.50098 -11s-2.5 -7.66602 -2.5 -12.999c0 -12.667 6.33301 -25.667 19 -39h-130z" />
    <glyph glyph-name="y" unicode="y" horiz-adv-x="442" 
d="M14 -94l60.998 -52.001c5.33301 -4.66699 11 -8.16699 17 -10.5s10.667 -3.5 14 -3.5c34 0 67.667 50.667 101 152l-148 365c-6.66699 15.333 -14.5 32 -23.5 50s-24.167 36.667 -45.5 56h178c-20 -24 -30 -43 -30 -57c0 -4.66699 0.833008 -9.5 2.5 -14.5l5.5 -16.5
l104 -284l87 285c4.66699 14.667 7 26.334 7 35.001c0 7.33301 -2.16699 15 -6.5 23s-10.5 17.667 -18.5 29h137c-16.667 -16 -30.167 -33 -40.5 -51s-19.5 -37.667 -27.5 -59l-157 -425c-17.333 -46 -38.166 -80 -62.499 -102s-54.166 -33 -89.499 -33
c-8 0 -17.5 0.5 -28.5 1.5s-23.167 2.83301 -36.5 5.5v106z" />
    <glyph glyph-name="z" unicode="z" horiz-adv-x="463" 
d="M303 422l-101.999 0.000976562c-8 0 -14.833 -0.833008 -20.5 -2.5s-11.834 -4.83398 -18.501 -9.50098l-93 -64v117h358l-269 -422h124c10 0 18.833 0.833008 26.5 2.5s15.167 5.16699 22.5 10.5l90 71v-125h-387z" />
    <glyph glyph-name="braceleft" unicode="{" horiz-adv-x="269" 
d="M236 -208c-21.333 0 -40.833 2.83105 -58.5 8.49805s-32.834 15 -45.501 28s-22.5 30.333 -29.5 52s-10.5 48.5 -10.5 80.5v143c0 21.333 -1 39.833 -3 55.5s-5.83301 29.334 -11.5 41.001s-13 21.5 -22 29.5s-20.5 14.667 -34.5 20c14 5.33301 25.5 12 34.5 20
s16.333 17.667 22 29s9.5 24.833 11.5 40.5s3 34.167 3 55.5v143c0 32.667 3.5 59.834 10.5 81.501s16.833 39 29.5 52s27.834 22.333 45.501 28s37.167 8.5 58.5 8.5v-34c-12.667 -2 -23.667 -5.66699 -33 -11s-17.166 -13.333 -23.499 -24s-11.166 -24.667 -14.499 -42
s-5 -39 -5 -65v-127c0 -21.333 -0.833008 -40.166 -2.5 -56.499s-5.5 -30.833 -11.5 -43.5s-14.5 -23.5 -25.5 -32.5s-25.833 -16.167 -44.5 -21.5v-2c18.667 -5.33301 33.5 -12.5 44.5 -21.5s19.5 -19.833 25.5 -32.5s9.83301 -27.334 11.5 -44.001s2.5 -35.667 2.5 -57
v-127c0 -26 1.66699 -47.5 5 -64.5s8.16602 -30.833 14.499 -41.5s14.166 -18.667 23.499 -24s20.333 -9 33 -11v-34z" />
    <glyph glyph-name="bar" unicode="|" 
d="M214 740h72v-830h-72v830z" />
    <glyph glyph-name="braceright" unicode="}" horiz-adv-x="269" 
d="M40 -175c12.667 2.66699 23.834 6.66406 33.501 11.9971s17.667 13.5 24 24.5s11 25.333 14 43s4.5 39.834 4.5 66.501v122c0 21.333 0.833008 40.333 2.5 57s5.5 31.334 11.5 44.001s14.5 23.5 25.5 32.5s25.833 16.167 44.5 21.5v2
c-18.667 5.33301 -33.5 12.5 -44.5 21.5s-19.5 19.833 -25.5 32.5s-9.83301 27.334 -11.5 44.001s-2.5 35.667 -2.5 57v124c0 27.333 -1.5 49.833 -4.5 67.5s-7.66699 31.834 -14 42.501s-14.333 18.667 -24 24s-20.834 9.33301 -33.501 12v33
c21.333 0 40.833 -2.83301 58.5 -8.5s32.834 -15 45.501 -28s22.5 -30.667 29.5 -53s10.5 -49.833 10.5 -82.5v-140c0 -22 1 -41 3 -57s5.83301 -29.833 11.5 -41.5s13 -21.334 22 -29.001s20.5 -14.167 34.5 -19.5c-14 -5.33301 -25.5 -12 -34.5 -20
s-16.333 -17.667 -22 -29s-9.5 -25 -11.5 -41s-3 -35 -3 -57v-138c0 -33.333 -3.5 -61 -10.5 -83s-16.833 -39.5 -29.5 -52.5s-27.834 -22.333 -45.501 -28s-37.167 -8.5 -58.5 -8.5v33z" />
    <glyph glyph-name="asciitilde" unicode="~" horiz-adv-x="512" 
d="M53 262c0 22 2.83398 41 8.50098 57s13.167 29 22.5 39s20 17.5 32 22.5s24.667 7.5 38 7.5c15.333 0 32.166 -3.5 50.499 -10.5s36.666 -14.667 54.999 -23s36 -16 53 -23s32.167 -10.5 45.5 -10.5c28 0 43.667 21.667 47 65h54c-0.666992 -24 -3.66699 -44 -9 -60
s-12.5 -29 -21.5 -39s-19.333 -17 -31 -21s-24.167 -6 -37.5 -6c-16 0 -33.167 3.5 -51.5 10.5s-36.5 14.667 -54.5 23l-51.5 23c-16.333 7 -30.5 10.5 -42.5 10.5c-31.333 0 -48.666 -21.667 -51.999 -65h-55z" />
    <glyph glyph-name="uni00A0" unicode="&#xa0;" horiz-adv-x="256" 
 />
    <glyph glyph-name="exclamdown" unicode="&#xa1;" horiz-adv-x="257" 
d="M142 663c16 0 29 -4.49902 39 -13.499s15 -22.167 15 -39.5c0 -18 -5.16699 -32.167 -15.5 -42.5s-24.5 -15.5 -42.5 -15.5c-17.333 0 -30.833 4.66699 -40.5 14s-14.5 22.666 -14.5 39.999c0 38 19.667 57 59 57zM120 500.001h38l38 -500h-113z" />
    <glyph glyph-name="cent" unicode="&#xa2;" horiz-adv-x="512" 
d="M241 -13c-30 2.66699 -57 9.83301 -81 21.5s-44.5 27 -61.5 46s-30 41.333 -39 67s-13.5 53.5 -13.5 83.5c0 69.333 16.833 126.5 50.5 171.5s81.834 74.5 144.501 88.5v63h25v-60c4 0.666992 8 1 12 1h12c34.667 0 73.667 -5.66699 117 -17v-108l-100 69
c-16.667 10.667 -30.334 16 -41.001 16v-378c10.667 -1.33301 21 -2.5 31 -3.5s19.667 -1.5 29 -1.5c20.667 0 40.167 0.666992 58.5 2s35.5 3.33301 51.5 6c-28 -22 -55.833 -38.5 -83.5 -49.5s-56.5 -16.5 -86.5 -16.5v-58h-25v57zM241 426.999
c-32 -11.333 -57.167 -33.499 -75.5 -66.499s-27.5 -74.5 -27.5 -124.5c0 -92.667 34.333 -152.334 103 -179.001v370z" />
    <glyph glyph-name="sterling" unicode="&#xa3;" horiz-adv-x="512" 
d="M77 73c14.667 7.33301 24.668 19.6689 30.001 37.002s8 40.666 8 69.999v143h-72v42h72v97c0 134.667 71 202 213 202c30 0 57 -1.83301 81 -5.5s44.667 -8.5 62 -14.5v-116l-99 73c-8.66699 6.66699 -17 12 -25 16s-17.667 6 -29 6c-22.667 0 -43.167 -5 -61.5 -15
s-31.166 -22.667 -38.499 -38c-7.33301 -14.667 -11.666 -32.334 -12.999 -53.001s-2 -45 -2 -73v-21v-22c0 -9.33301 0.333008 -21.333 1 -36h159v-42h-159v-98c0 -27.333 -5.33301 -52.166 -16 -74.499s-26.667 -46.833 -48 -73.5c4 0.666992 7.83301 1.16699 11.5 1.5
s7.5 0.5 11.5 0.5c2.66699 0 8.16699 -0.333008 16.5 -1s19.5 -1.66699 33.5 -3l134 -10h7h16c20.667 0 41 5.66699 61 17s43 27.666 69 48.999l-29 -87c-14.667 -44.667 -41.334 -67 -80.001 -67c-22.667 0 -46.334 1.66699 -71.001 5l-76.5 10.5
c-26.333 3.66699 -53.333 7.16699 -81 10.5s-55.834 5 -84.501 5c-4.66699 0 -9.66699 -0.333008 -15 -1s-11 -1.66699 -17 -3z" />
    <glyph glyph-name="currency" unicode="&#xa4;" horiz-adv-x="512" 
d="M30 138l74 71.999c-10 13.333 -18.667 30.5 -26 51.5s-11 43.833 -11 68.5c0 26 3.66699 49.333 11 70s16 38.334 26 53.001l-76 71l46 47l69 -76c14 12.667 31 22.5 51 29.5s40.667 10.5 62 10.5c22 0 43 -3.5 63 -10.5s36.667 -16.833 50 -29.5l71 76l45 -47l-78 -71
c10 -14 18.167 -31.167 24.5 -51.5s9.5 -42.5 9.5 -66.5c0 -26.667 -3.5 -50.5 -10.5 -71.5s-15.167 -38.167 -24.5 -51.5l76 -74l-45 -45l-69 78c-14.667 -14 -32.5 -24.667 -53.5 -32s-41.167 -11 -60.5 -11c-20 0 -40.333 3.5 -61 10.5s-37.667 16.833 -51 29.5l-68 -75z
M255 471.999c-17.333 0 -33.168 -3.50098 -47.501 -10.501s-26.666 -16.833 -36.999 -29.5s-18.333 -27.667 -24 -45s-8.5 -36 -8.5 -56c0 -24 3.66699 -44.667 11 -62s16.5 -31.833 27.5 -43.5s23.333 -20.167 37 -25.5s27.167 -8 40.5 -8c14 0 27.833 2.66699 41.5 8
s26 13.666 37 24.999s20 26 27 44s10.5 39.667 10.5 65c0 18.667 -2.66699 36.334 -8 53.001s-12.833 31.334 -22.5 44.001s-21.667 22.667 -36 30s-30.5 11 -48.5 11z" />
    <glyph glyph-name="yen" unicode="&#xa5;" horiz-adv-x="512" 
d="M179 0c8.66699 16 15.333 30.8311 20 44.498s8 26.5 10 38.5s3.16699 23.167 3.5 33.5s0.5 20.166 0.5 29.499v151h-201v38h183l-60 109h-123v38h99l-44 77c-8 14 -18.167 29.833 -30.5 47.5s-29.5 36.5 -51.5 56.5h171c-14.667 -22 -22 -38 -22 -48
c0 -5.33301 1.5 -11.5 4.5 -18.5s6.83301 -14.833 11.5 -23.5l51 -91h132l50 100c6.66699 12 10 23.333 10 34s-7.33301 26.334 -22 47.001h148c-20 -19.333 -37.5 -39.666 -52.5 -60.999s-29.167 -42.666 -42.5 -63.999l-35 -56h108v-38h-130l-65 -109h195v-38h-200v-151
v-6c0 -18 1.5 -38.167 4.5 -60.5s12.833 -48.833 29.5 -79.5h-152zM313.999 443.998h-92l47 -86z" />
    <glyph glyph-name="brokenbar" unicode="&#xa6;" 
d="M214 260h72v-350h-72v350zM214 740h72v-350h-72v350z" />
    <glyph glyph-name="section" unicode="&#xa7;" horiz-adv-x="486" 
d="M90 -70l116.006 -73.998c12.667 -8 25 -12 37 -12c20 0 37.333 6.66699 52 20s22 30 22 50c0 25.333 -9.33301 46.666 -28 63.999s-44.334 36.666 -77.001 57.999l-70 46.5c-20.667 13.667 -38.334 27.5 -53.001 41.5s-25.834 29.333 -33.501 46s-11.5 36.667 -11.5 60
c0 72.667 47.333 126.667 142 162c-29.333 15.333 -51.333 34.5 -66 57.5s-22 48.5 -22 76.5c0 42 14.5 75.333 43.5 100s71.5 37 127.5 37c23.333 0 44.833 -1.33301 64.5 -4s38.5 -7 56.5 -13v-104l-111 74c-10 6.66699 -20.667 10 -32 10
c-21.333 0 -39.5 -6.66699 -54.5 -20s-22.5 -30.666 -22.5 -51.999c0 -13.333 3.16699 -25.333 9.5 -36s15.5 -21 27.5 -31s26.667 -20.333 44 -31l59 -37c20.667 -12.667 39.167 -24.834 55.5 -36.501s30.166 -23.834 41.499 -36.501s20 -26.667 26 -42s9 -33.333 9 -54
c0 -35.333 -12 -66.833 -36 -94.5s-59.333 -50.167 -106 -67.5c30.667 -21.333 53.167 -43.166 67.5 -65.499s21.5 -48.5 21.5 -78.5c0 -41.333 -14.833 -74.666 -44.5 -99.999s-70.834 -38 -123.501 -38c-16.667 0 -35.834 1.66699 -57.501 5s-46.167 7.66602 -73.5 12.999
v106zM277.006 104.002c27.333 19.333 47.667 38.5 61 57.5s20 39.5 20 61.5c0 38 -21.333 70.667 -64 98l-86 55c-53.333 -36 -80 -76 -80 -120c0 -34.667 19 -65 57 -91z" />
    <glyph glyph-name="dieresis" unicode="&#xa8;" 
d="M134 653c36 0 53.999 -17.668 53.999 -53.001c0 -15.333 -4.66699 -27.5 -14 -36.5s-22.666 -13.5 -39.999 -13.5c-33.333 0 -50 16.333 -50 49c0 16.667 4.5 29.834 13.5 39.501s21.167 14.5 36.5 14.5zM359.999 652.999c36 0 54 -17.668 54 -53.001
c0 -15.333 -4.66699 -27.5 -14 -36.5s-22.666 -13.5 -39.999 -13.5c-34 0 -51 16.333 -51 49c0 16.667 4.66699 29.834 14 39.501s21.666 14.5 36.999 14.5z" />
    <glyph glyph-name="copyright" unicode="&#xa9;" horiz-adv-x="833" 
d="M416 713c48.667 0 94.832 -8.83105 138.499 -26.498s82.834 -43.834 117.501 -78.501c34 -34 59.667 -72.667 77 -116s26 -89.333 26 -138c0 -49.333 -8.66699 -95.333 -26 -138s-43 -80.667 -77 -114c-36 -34.667 -75.833 -61.167 -119.5 -79.5
s-89.167 -27.5 -136.5 -27.5c-48 0 -93.333 9 -136 27s-81.334 44.333 -116.001 79s-61 73.5 -79 116.5s-27 88.5 -27 136.5s9.16699 93.667 27.5 137s44.833 82.666 79.5 117.999c33.333 34 71.333 59.833 114 77.5s88.334 26.5 137.001 26.5zM738.998 354.002
c0 44 -8 85.5 -24 124.5s-39.333 73.5 -70 103.5c-30.667 31.333 -65.5 54.833 -104.5 70.5s-80.5 23.5 -124.5 23.5s-85 -7.83301 -123 -23.5s-72 -38.834 -102 -69.501c-32 -32 -56 -67.5 -72 -106.5s-24 -79.833 -24 -122.5s8 -83.167 24 -121.5
s39.667 -73.166 71 -104.499c30.667 -31.333 65.167 -55 103.5 -71s79.166 -24 122.499 -24c42.667 0 83.667 8 123 24s75 40 107 72c30.667 30 53.834 64 69.501 102s23.5 79 23.5 123zM540.998 238.002l-9.99805 -73.999c-34.667 -8.66699 -67.334 -13 -98.001 -13
c-62.667 0 -109.834 16.5 -141.501 49.5s-47.5 81.5 -47.5 145.5c0 65.333 17.333 117.166 52 155.499s82 57.5 142 57.5c29.333 0 62 -4 98 -12v-70l-64 47c-5.33301 4 -10.666 6.5 -15.999 7.5s-11.333 1.5 -18 1.5c-40 0 -72 -15.667 -96 -47s-36 -76.333 -36 -135
c0 -56 11.5 -99.167 34.5 -129.5s54.5 -45.5 94.5 -45.5c15.333 0 26.666 2.33301 33.999 7z" />
    <glyph glyph-name="ordfeminine" unicode="&#xaa;" horiz-adv-x="342" 
d="M242 323c-7.33301 13.333 -12.334 26.333 -15.001 39l-59.5 -28c-16.333 -7.33301 -31.166 -11 -44.499 -11c-12.667 0 -24.5 2.33301 -35.5 7s-20.667 11 -29 19s-15 17.5 -20 28.5s-7.5 23.167 -7.5 36.5c0 32.667 12.667 56.334 38 71.001s64.666 22 117.999 22h18.5
c6.33301 0 13.166 -0.333008 20.499 -1v64c0 20 -4.83301 35.5 -14.5 46.5s-23.167 16.5 -40.5 16.5c-11.333 0 -25.333 -6 -42 -18l-66 -50v74c26.667 7.33301 50.834 12.5 72.501 15.5s41.167 4.5 58.5 4.5c20.667 0 37.334 -1.83301 50.001 -5.5s22.167 -9.5 28.5 -17.5
s10.5 -18.5 12.5 -31.5s3 -28.5 3 -46.5v-116v-5c0 -16.667 1.33301 -32.334 4 -47.001s11.667 -30.667 27 -48zM225.999 488c-44 -3.33301 -76.167 -9.33203 -96.5 -17.999s-30.5 -23.667 -30.5 -45c0 -18.667 7.16699 -33.334 21.5 -44.001s34.833 -16 61.5 -16
c4.66699 0 10.667 0.166992 18 0.5s16 0.833008 26 1.5v121z" />
    <glyph glyph-name="guillemotleft" unicode="&#xab;" horiz-adv-x="347" 
d="M31 241l106 173h48l-90 -173l92 -174h-45zM166 241l107 173h46l-93 -173l95 -174h-46z" />
    <glyph glyph-name="logicalnot" unicode="&#xac;" horiz-adv-x="512" 
d="M407 395h-360v54h418v-221h-58v167z" />
    <glyph glyph-name="uni00AD" unicode="&#xad;" horiz-adv-x="275" 
d="M32 284h211v-75h-211v75z" />
    <glyph glyph-name="registered" unicode="&#xae;" horiz-adv-x="414" 
d="M207 663c50 0 92.666 -17.667 127.999 -53c16.667 -16.667 29.334 -35.834 38.001 -57.501s13 -44.5 13 -68.5c0 -50 -17.333 -91.667 -52 -125c-17.333 -17.333 -37 -30.5 -59 -39.5s-44.667 -13.5 -68 -13.5c-48.667 0 -90.667 17.667 -126 53
c-34.667 34.667 -52 76.334 -52 125.001c0 49.333 18 92 54 128c34 34 75.333 51 124 51zM367.999 483c0 45.333 -15.334 83.333 -46.001 114c-31.333 32 -69.666 48 -114.999 48c-44.667 0 -81.667 -15.333 -111 -46c-32.667 -32.667 -49 -71 -49 -115
c0 -42.667 16 -80 48 -112c15.333 -16 32.5 -28 51.5 -36s39.167 -12 60.5 -12c44.667 0 82.667 16 114 48c31.333 29.333 47 66.333 47 111zM143.998 390c5.33301 9.33301 8.5 17.498 9.5 24.498s1.5 13.167 1.5 18.5v110c0 5.33301 -0.5 11.5 -1.5 18.5
s-4.16699 15.167 -9.5 24.5h59c8.66699 0 16.5 -0.5 23.5 -1.5s13.167 -3.16699 18.5 -6.5s9.83301 -8.33301 13.5 -15s5.5 -14 5.5 -22c0 -30 -16.667 -47.667 -50 -53l43 -60c6 -7.33301 12 -14.166 18 -20.499s12.667 -12.166 20 -17.499h-44l-70 100v-57
c0 -5.33301 0.5 -11.5 1.5 -18.5s4.16699 -15.167 9.5 -24.5h-48zM195.998 495.998c26 0 39 13.333 39 40c0 26 -13 39 -39 39h-15v-79h15z" />
    <glyph glyph-name="macron" unicode="&#xaf;" 
d="M83 627h331v-51h-331v51z" />
    <glyph glyph-name="degree" unicode="&#xb0;" horiz-adv-x="329" 
d="M165 710c18.667 0 36.501 -3.66699 53.501 -11s31.667 -17.166 44 -29.499s22.166 -27 29.499 -44s11 -34.833 11 -53.5s-3.66699 -36.334 -11 -53.001s-17.166 -31.334 -29.499 -44.001s-27 -22.667 -44 -30s-35.167 -11 -54.5 -11s-37.333 3.5 -54 10.5
s-31.167 16.833 -43.5 29.5s-22 27.334 -29 44.001s-10.5 34.667 -10.5 54s3.66699 37.5 11 54.5s17.166 31.667 29.499 44s26.833 22 43.5 29s34.667 10.5 54 10.5zM263.001 572c0 27.333 -9.33398 50.5 -28.001 69.5s-42 28.5 -70 28.5
c-27.333 0 -50.666 -9.33301 -69.999 -28s-29 -42 -29 -70c0 -14 2.66699 -27 8 -39s12.5 -22.5 21.5 -31.5s19.5 -16 31.5 -21s24.667 -7.5 38 -7.5c14 0 27 2.66699 39 8s22.333 12.5 31 21.5s15.5 19.5 20.5 31.5s7.5 24.667 7.5 38z" />
    <glyph glyph-name="plusminus" unicode="&#xb1;" horiz-adv-x="512" 
d="M227 318h-181v55h181v193h58v-193h181v-55h-181v-199h-58v199zM46 55h420v-55h-420v55z" />
    <glyph glyph-name="twosuperior" unicode="&#xb2;" horiz-adv-x="338" 
d="M18 259c67.333 62.667 118.833 116.669 154.5 162.002s53.5 86.666 53.5 123.999c0 27.333 -6.83301 48.666 -20.5 63.999s-32.167 23 -55.5 23c-14.667 0 -29.667 -5.66699 -45 -17l-61 -45v72c43.333 9.33301 82 14 116 14c43.333 0 76.666 -9 99.999 -27
s35 -43 35 -75c0 -33.333 -16.667 -69.5 -50 -108.5s-81.666 -86.5 -144.999 -142.5h133c22 0 47 13.333 75 40l-13 -84h-277z" />
    <glyph glyph-name="threesuperior" unicode="&#xb3;" horiz-adv-x="338" 
d="M30 339l64.001 -51.001c11.333 -8.66699 24.666 -13 39.999 -13c28.667 0 52.5 8 71.5 24s28.5 37.333 28.5 64c0 55.333 -37 83.666 -111 84.999c34 17.333 59.167 34.833 75.5 52.5s24.5 38.5 24.5 62.5c0 19.333 -7.16699 35.333 -21.5 48s-34.833 19 -61.5 19
c-9.33301 0 -17.166 -1.33301 -23.499 -4s-12.833 -6.66699 -19.5 -12l-61 -47v73c19.333 5.33301 39 9.33301 59 12s39.667 4 59 4c44 0 77.167 -7.83301 99.5 -23.5s33.5 -37.167 33.5 -64.5c0 -45.333 -32.333 -79.666 -97 -102.999c36 -4 63.333 -14.5 82 -31.5
s28 -38.833 28 -65.5c0 -37.333 -13.667 -66.166 -41 -86.499s-68 -30.5 -122 -30.5c-34.667 0 -70.334 4 -107.001 12v76z" />
    <glyph glyph-name="acute" unicode="&#xb4;" 
d="M288 688h136l-230 -165z" />
    <glyph glyph-name="mu" unicode="&#xb5;" horiz-adv-x="576" 
d="M14 -156c30.667 0 51.3359 2.83008 62.0029 8.49707s16 16.167 16 31.5v542c0 15.333 -5.33301 25.833 -16 31.5s-31.334 8.83398 -62.001 9.50098v32l170 6v-388c0 -30 7.66699 -52.333 23 -67s36.333 -22 63 -22c37.333 0 67.333 14 90 42s34 67.667 34 119v237
c0 15.333 -5.33301 25.833 -16 31.5s-30.334 8.83398 -59.001 9.50098v32l167 6v-431c0 -15.333 5.16699 -26 15.5 -32s30.5 -9 60.5 -9v-32l-167 -6v71h-2c-8 -10.667 -16 -20.5 -24 -29.5s-17.167 -16.667 -27.5 -23s-22 -11.166 -35 -14.499s-28.167 -5 -45.5 -5
c-14.667 0 -28.334 0.5 -41.001 1.5s-24.667 3.16699 -36 6.5v-190h-170v32z" />
    <glyph glyph-name="paragraph" unicode="&#xb6;" horiz-adv-x="486" 
d="M253 -194c15.333 28 24.167 52.3369 26.5 73.0039s3.5 39.667 3.5 57v349c-22.667 -15.333 -43.167 -27.666 -61.5 -36.999s-38.166 -14 -59.499 -14c-22 0 -42.333 4.66699 -61 14s-35 22.666 -49 39.999s-24.833 38.166 -32.5 62.499s-11.5 51.166 -11.5 80.499
c0 34 4.83301 65.167 14.5 93.5s23 52.833 40 73.5s36.667 36.667 59 48s46.166 17 71.499 17h286c-15.333 -26.667 -24.333 -49.834 -27 -69.501s-4 -38.167 -4 -55.5v-607c0 -17.333 1.33301 -35.833 4 -55.5s11.667 -42.834 27 -69.501h-226zM283.001 533.004
c0 11.333 -0.334961 23.5 -1.00195 36.5s-3.66699 27.167 -9 42.5c-9.33301 4 -18.666 6.83301 -27.999 8.5s-17.666 2.5 -24.999 2.5c-42 0 -75.5 -15 -100.5 -45s-37.5 -71.667 -37.5 -125c0 -52.667 12.667 -93.167 38 -121.5s61 -42.5 107 -42.5c21.333 0 40 1 56 3v241
zM373.999 545.004c0 11.333 -0.333008 23.333 -1 36s-3.33398 26.667 -8.00098 42c-4 -14 -6.33301 -26.833 -7 -38.5s-1 -23.167 -1 -34.5v-631c0 -11.333 0.333008 -22.833 1 -34.5s3 -24.5 7 -38.5c4.66699 15.333 7.33398 29.333 8.00098 42s1 24.667 1 36v621z" />
    <glyph glyph-name="periodcentered" unicode="&#xb7;" horiz-adv-x="257" 
d="M128 380c15.333 0 28.5 -5.66699 39.5 -17s16.5 -24.666 16.5 -39.999s-5.5 -28.5 -16.5 -39.5s-24.167 -16.5 -39.5 -16.5s-28.5 5.5 -39.5 16.5s-16.5 24.167 -16.5 39.5s5.5 28.666 16.5 39.999s24.167 17 39.5 17z" />
    <glyph glyph-name="cedilla" unicode="&#xb8;" 
d="M212 0h33v-32c25.333 -2 44.833 -10 58.5 -24s20.5 -32.667 20.5 -56c0 -26.667 -11.167 -49.334 -33.5 -68.001s-51.5 -28 -87.5 -28c-10 0 -19 1.33301 -27 4c25.333 14.667 44.333 30 57 46s19 31.667 19 47s-3.66699 27.833 -11 37.5s-17 15.834 -29 18.501v55z" />
    <glyph glyph-name="onesuperior" unicode="&#xb9;" horiz-adv-x="338" 
d="M129 259c12 18 19.166 33.8311 21.499 47.498s3.5 26.834 3.5 39.501v7v235h-97c32.667 10.667 84.334 34.334 155.001 71.001v-321c0 -10 1 -21.333 3 -34s9.33301 -27.667 22 -45h-108z" />
    <glyph glyph-name="ordmasculine" unicode="&#xba;" horiz-adv-x="403" 
d="M35 490c0 24.667 4.33301 47.334 13 68.001s20.5 38.5 35.5 53.5s32.833 26.667 53.5 35s43 12.5 67 12.5c23.333 0 45 -4.16699 65 -12.5s37.333 -20 52 -35s26.167 -33 34.5 -54s12.5 -43.833 12.5 -68.5s-4.33301 -47.334 -13 -68.001s-20.5 -38.334 -35.5 -53.001
s-32.833 -26.167 -53.5 -34.5s-43 -12.5 -67 -12.5c-23.333 0 -45 4.16699 -65 12.5s-37.333 19.833 -52 34.5s-26.167 32.334 -34.5 53.001s-12.5 43.667 -12.5 69zM199 633c-28 0 -50.333 -11.334 -67 -34.001s-25 -55.667 -25 -99c0 -49.333 8.83301 -87.333 26.5 -114
s41.167 -40 70.5 -40c28 0 50.333 11.5 67 34.5s25 56.167 25 99.5c0 48.667 -8.83301 86.334 -26.5 113.001s-41.167 40 -70.5 40z" />
    <glyph glyph-name="guillemotright" unicode="&#xbb;" horiz-adv-x="347" 
d="M120 241l-92 173h45l107 -173l-108 -174h-47zM252 241l-90 173h49l105 -173l-110 -174h-46z" />
    <glyph glyph-name="onequarter" unicode="&#xbc;" horiz-adv-x="812" 
d="M122 285c12 17.333 19.167 32.334 21.5 45.001s3.5 24.667 3.5 36v7v219h-93c15.333 4.66699 35.333 12.667 60 24s54 25.666 88 42.999v-300c0 -9.33301 1 -20 3 -32s9 -26 21 -42h-104zM150 102.001l494 466l16 -17l-495 -465zM664 0.000976562
c16 22 24 46.001 24 72.001v30h-197c30.667 44.667 62.667 88.167 96 130.5s69 84.166 107 125.499l45 14v-231h59v-39h-59v-33c0 -26.667 7.66699 -49.667 23 -69h-98zM688 141.002v174l-139 -174h139z" />
    <glyph glyph-name="onehalf" unicode="&#xbd;" horiz-adv-x="812" 
d="M122 285c12 17.333 19.167 32.334 21.5 45.001s3.5 24.667 3.5 36v7v219h-93c15.333 4.66699 35.333 12.667 60 24s54 25.666 88 42.999v-300c0 -9.33301 1 -20 3 -32s9 -26 21 -42h-104zM150 102.001l494 466l16 -17l-495 -465zM507 0.000976562
c64.667 58.667 113.668 109.169 147.001 151.502s50 80.833 50 115.5c0 25.333 -6.33301 45.166 -19 59.499s-30 21.5 -52 21.5c-8 0 -15.333 -1.33301 -22 -4s-14 -6.66699 -22 -12l-58 -42v67c42.667 9.33301 79.667 14 111 14c41.333 0 73.166 -8.5 95.499 -25.5
s33.5 -40.5 33.5 -70.5c0 -30.667 -16 -64.334 -48 -101.001s-78.333 -81 -139 -133h127c21.333 0 45.333 12.333 72 37l-12 -78h-264z" />
    <glyph glyph-name="threequarters" unicode="&#xbe;" horiz-adv-x="812" 
d="M29 360l61.001 -48c10.667 -8 23.334 -12 38.001 -12c28 0 51 7.5 69 22.5s27 34.833 27 59.5c0 51.333 -35.333 77.666 -106 78.999c32.667 16.667 56.667 33.167 72 49.5s23 35.5 23 57.5c0 18.667 -6.83301 33.834 -20.5 45.501s-33.167 17.5 -58.5 17.5
c-9.33301 0 -17 -1.16699 -23 -3.5s-12 -5.83301 -18 -10.5l-58 -44v68c38.667 9.33301 76 14 112 14c42 0 73.667 -7.33301 95 -22s32 -34.667 32 -60c0 -20 -7.83301 -38.333 -23.5 -55s-38.834 -30 -69.501 -40c34 -4 60.167 -14 78.5 -30s27.5 -36.333 27.5 -61
c0 -35.333 -13.333 -62.5 -40 -81.5s-65.667 -28.5 -117 -28.5c-32.667 0 -66.334 4 -101.001 12v71zM151.001 102l494 466l16 -17l-495 -465zM665.001 0c16 22 24 46.001 24 72.001v30h-197c30.667 44.667 62.667 88.167 96 130.5s69 84.166 107 125.499l45 14v-231h59v-39
h-59v-33c0 -26.667 7.66699 -49.667 23 -69h-98zM689.001 141.001v174l-139 -174h139z" />
    <glyph glyph-name="questiondown" unicode="&#xbf;" horiz-adv-x="449" 
d="M265 658c16 0 29 -4.5 39 -13.5s15 -22.167 15 -39.5c0 -18 -5.16699 -32.333 -15.5 -43s-24.5 -16 -42.5 -16c-17.333 0 -30.833 4.83301 -40.5 14.5s-14.5 23.167 -14.5 40.5c0 38 19.667 57 59 57zM417 133v-120.998c-33.333 -9.33301 -64.666 -16 -93.999 -20
s-56.333 -6 -81 -6c-29.333 0 -56 4 -80 12s-44.5 19 -61.5 33s-30 30.833 -39 50.5s-13.5 41.167 -13.5 64.5c0 24 4.33301 44.667 13 62s20.334 35.666 35.001 54.999c28 36.667 54.167 66.167 78.5 88.5s42.166 41.5 53.499 57.5c7.33301 10 11.833 20.333 13.5 31
s2.5 22.667 2.5 36v20h47c0.666992 -4 1 -8 1 -12v-11c0 -25.333 -3.5 -45.333 -10.5 -60s-14.167 -28.334 -21.5 -41.001c-12.667 -22 -25.334 -42.5 -38.001 -61.5s-24 -37.833 -34 -56.5s-18 -37.167 -24 -55.5s-9 -37.833 -9 -58.5c0 -36 8.66699 -63.5 26 -82.5
s41.333 -28.5 72 -28.5c25.333 0 46 6.66699 62 20z" />
    <glyph glyph-name="Agrave" unicode="&#xc0;" horiz-adv-x="562" 
d="M-24 0c18 17.333 33.501 38.168 46.501 62.501s25.5 52.166 37.5 83.499l192 497l68 24l178 -524c10 -30 21.333 -56.833 34 -80.5s28.667 -44.5 48 -62.5h-179c20 25.333 30 44.666 30 57.999c0 8.66699 -3.66699 23.334 -11 44.001l-54 162h-201l-59 -172
c-5.33301 -14 -8 -26.333 -8 -37c0 -9.33301 2.66699 -18.333 8 -27s12.666 -18 21.999 -28h-152zM352.001 306.002l-83 259l-88 -259h171zM107.001 884.002h136l94 -165z" />
    <glyph glyph-name="Aacute" unicode="&#xc1;" horiz-adv-x="562" 
d="M-24 0c18 17.333 33.501 38.168 46.501 62.501s25.5 52.166 37.5 83.499l192 497l68 24l178 -524c10 -30 21.333 -56.833 34 -80.5s28.667 -44.5 48 -62.5h-179c20 25.333 30 44.666 30 57.999c0 8.66699 -3.66699 23.334 -11 44.001l-54 162h-201l-59 -172
c-5.33301 -14 -8 -26.333 -8 -37c0 -9.33301 2.66699 -18.333 8 -27s12.666 -18 21.999 -28h-152zM352.001 306.002l-83 259l-88 -259h171zM319.001 884.002h136l-230 -165z" />
    <glyph glyph-name="Acircumflex" unicode="&#xc2;" horiz-adv-x="562" 
d="M-24 0c18 17.333 33.501 38.168 46.501 62.501s25.5 52.166 37.5 83.499l192 497l68 24l178 -524c10 -30 21.333 -56.833 34 -80.5s28.667 -44.5 48 -62.5h-179c20 25.333 30 44.666 30 57.999c0 8.66699 -3.66699 23.334 -11 44.001l-54 162h-201l-59 -172
c-5.33301 -14 -8 -26.333 -8 -37c0 -9.33301 2.66699 -18.333 8 -27s12.666 -18 21.999 -28h-152zM352.001 306.002l-83 259l-88 -259h171zM281.001 896.002l176 -177l-176 80l-176 -80z" />
    <glyph glyph-name="Atilde" unicode="&#xc3;" horiz-adv-x="562" 
d="M-24 0c18 17.333 33.501 38.168 46.501 62.501s25.5 52.166 37.5 83.499l192 497l68 24l178 -524c10 -30 21.333 -56.833 34 -80.5s28.667 -44.5 48 -62.5h-179c20 25.333 30 44.666 30 57.999c0 8.66699 -3.66699 23.334 -11 44.001l-54 162h-201l-59 -172
c-5.33301 -14 -8 -26.333 -8 -37c0 -9.33301 2.66699 -18.333 8 -27s12.666 -18 21.999 -28h-152zM352.001 306.002l-83 259l-88 -259h171zM220.001 795.002c-10.667 4.66699 -18.668 7 -24.001 7c-16 0 -42 -18.667 -78 -56c6.66699 33.333 18.667 59 36 77
s35.666 27 54.999 27c16.667 0 32.334 -3.33301 47.001 -10l86 -39c9.33301 -4.66699 17.333 -7 24 -7c16.667 0 42.667 18.667 78 56c-6.66699 -34 -18.667 -59.833 -36 -77.5s-35.666 -26.5 -54.999 -26.5c-17.333 0 -33 3 -47 9z" />
    <glyph glyph-name="Adieresis" unicode="&#xc4;" horiz-adv-x="562" 
d="M-24 0c18 17.333 33.501 38.168 46.501 62.501s25.5 52.166 37.5 83.499l192 497l68 24l178 -524c10 -30 21.333 -56.833 34 -80.5s28.667 -44.5 48 -62.5h-179c20 25.333 30 44.666 30 57.999c0 8.66699 -3.66699 23.334 -11 44.001l-54 162h-201l-59 -172
c-5.33301 -14 -8 -26.333 -8 -37c0 -9.33301 2.66699 -18.333 8 -27s12.666 -18 21.999 -28h-152zM352.001 306.002l-83 259l-88 -259h171zM165.001 849.002c36 0 53.999 -17.668 53.999 -53.001c0 -15.333 -4.66699 -27.5 -14 -36.5s-22.666 -13.5 -39.999 -13.5
c-33.333 0 -50 16.333 -50 49c0 16.667 4.5 29.834 13.5 39.501s21.167 14.5 36.5 14.5zM391 849.001c36 0 54 -17.668 54 -53.001c0 -15.333 -4.66699 -27.5 -14 -36.5s-22.666 -13.5 -39.999 -13.5c-34 0 -51 16.333 -51 49c0 16.667 4.66699 29.834 14 39.501
s21.666 14.5 36.999 14.5z" />
    <glyph glyph-name="Aring" unicode="&#xc5;" horiz-adv-x="562" 
d="M-24 0c18 17.333 33.501 38.168 46.501 62.501s25.5 52.166 37.5 83.499l192 497l68 24l178 -524c10 -30 21.333 -56.833 34 -80.5s28.667 -44.5 48 -62.5h-179c20 25.333 30 44.666 30 57.999c0 8.66699 -3.66699 23.334 -11 44.001l-54 162h-201l-59 -172
c-5.33301 -14 -8 -26.333 -8 -37c0 -9.33301 2.66699 -18.333 8 -27s12.666 -18 21.999 -28h-152zM352.001 306.002l-83 259l-88 -259h171zM281.001 938.002c16 0 31 -3 45 -9s26.167 -14 36.5 -24s18.5 -22 24.5 -36s9 -29 9 -45s-3 -31.167 -9 -45.5
s-14.167 -26.666 -24.5 -36.999s-22.5 -18.5 -36.5 -24.5s-29 -9 -45 -9s-31 3 -45 9s-26.167 14.167 -36.5 24.5s-18.5 22.666 -24.5 36.999s-9 29.5 -9 45.5s3 31 9 45s14.167 26 24.5 36s22.5 18 36.5 24s29 9 45 9zM281.001 888.002
c-18.667 0 -34.334 -6.33203 -47.001 -18.999s-19 -28.334 -19 -47.001s6.16699 -34.334 18.5 -47.001s27.833 -19 46.5 -19s34.334 6.33301 47.001 19s19 28.334 19 47.001c0 18 -6.33301 33.5 -19 46.5s-28 19.5 -46 19.5z" />
    <glyph glyph-name="AE" unicode="&#xc6;" horiz-adv-x="787" 
d="M-39 0c22 18 40.001 37.835 54.001 59.502s27.667 44.167 41 67.5l295 528h381v-126l-94 72c-12 9.33301 -28.333 14 -49 14h-132v-281h122c4.66699 0 12 1.83301 22 5.5s19 8.16699 27 13.5l58 42v-153l-56 40c-10.667 7.33301 -21 11.666 -31 12.999s-20.667 2 -32 2
h-110v-259h144c11.333 0 20.166 2.16699 26.499 6.5l22.5 15.5l98 73l-19 -133h-398c18.667 32.667 29.5 60.5 32.5 83.5s4.5 43.5 4.5 61.5v152h-156l-115 -223c-4.66699 -8.66699 -7 -17.334 -7 -26.001c0 -14.667 8.66699 -30.667 26 -48h-155zM368.001 334.002v270
l-136 -270h136z" />
    <glyph glyph-name="Ccedilla" unicode="&#xc7;" horiz-adv-x="566" 
d="M300 -11c-84 10 -147.501 42.166 -190.501 96.499s-64.5 129.166 -64.5 224.499c0 54 7.66699 102.833 23 146.5s37 81 65 112s61.833 54.833 101.5 71.5s84.167 25 133.5 25c25.333 0 51.5 -1.66699 78.5 -5s55.5 -8.33301 85.5 -15v-116l-106 78
c-9.33301 6.66699 -18.5 10.834 -27.5 12.501s-19.167 2.5 -30.5 2.5c-66.667 0 -120 -26.167 -160 -78.5s-60 -127.166 -60 -224.499c0 -93.333 19.167 -165.5 57.5 -216.5s90.833 -76.5 157.5 -76.5c28 0 47.333 4.33301 58 13l119 91l-17 -124
c-59.333 -14 -113.666 -21 -162.999 -21c-4.66699 0 -9.16699 0.166992 -13.5 0.5s-8.83301 0.5 -13.5 0.5v-18c25.333 -2 44.833 -10 58.5 -24s20.5 -32.667 20.5 -56c0 -26.667 -11.167 -49.334 -33.5 -68.001s-51.5 -28 -87.5 -28c-10 0 -19 1.33301 -27 4
c25.333 14.667 44.333 30 57 46s19 31.667 19 47s-3.66699 27.833 -11 37.5s-17 15.834 -29 18.501v44z" />
    <glyph glyph-name="Egrave" unicode="&#xc8;" horiz-adv-x="509" 
d="M57 0c18.667 32.667 29.501 60.5 32.501 83.5s4.5 43.5 4.5 61.5v367c0 20.667 -1.83301 42.334 -5.5 65.001s-14.167 48.667 -31.5 78h401v-126l-94 72c-12 9.33301 -28.333 14 -49 14h-132v-267h122c4.66699 0 12 1.83301 22 5.5s19 8.16699 27 13.5l58 42v-153l-56 40
c-10.667 7.33301 -21 11.666 -31 12.999s-20.667 2 -32 2h-110v-273h144c11.333 0 20.166 2.16699 26.499 6.5l22.5 15.5l98 73l-19 -133h-398zM100.001 884h136l94 -165z" />
    <glyph glyph-name="Eacute" unicode="&#xc9;" horiz-adv-x="509" 
d="M57 0c18.667 32.667 29.501 60.5 32.501 83.5s4.5 43.5 4.5 61.5v367c0 20.667 -1.83301 42.334 -5.5 65.001s-14.167 48.667 -31.5 78h401v-126l-94 72c-12 9.33301 -28.333 14 -49 14h-132v-267h122c4.66699 0 12 1.83301 22 5.5s19 8.16699 27 13.5l58 42v-153l-56 40
c-10.667 7.33301 -21 11.666 -31 12.999s-20.667 2 -32 2h-110v-273h144c11.333 0 20.166 2.16699 26.499 6.5l22.5 15.5l98 73l-19 -133h-398zM312.001 884h136l-230 -165z" />
    <glyph glyph-name="Ecircumflex" unicode="&#xca;" horiz-adv-x="509" 
d="M57 0c18.667 32.667 29.501 60.5 32.501 83.5s4.5 43.5 4.5 61.5v367c0 20.667 -1.83301 42.334 -5.5 65.001s-14.167 48.667 -31.5 78h401v-126l-94 72c-12 9.33301 -28.333 14 -49 14h-132v-267h122c4.66699 0 12 1.83301 22 5.5s19 8.16699 27 13.5l58 42v-153l-56 40
c-10.667 7.33301 -21 11.666 -31 12.999s-20.667 2 -32 2h-110v-273h144c11.333 0 20.166 2.16699 26.499 6.5l22.5 15.5l98 73l-19 -133h-398zM274.001 896l176 -177l-176 80l-176 -80z" />
    <glyph glyph-name="Edieresis" unicode="&#xcb;" horiz-adv-x="509" 
d="M57 0c18.667 32.667 29.501 60.5 32.501 83.5s4.5 43.5 4.5 61.5v367c0 20.667 -1.83301 42.334 -5.5 65.001s-14.167 48.667 -31.5 78h401v-126l-94 72c-12 9.33301 -28.333 14 -49 14h-132v-267h122c4.66699 0 12 1.83301 22 5.5s19 8.16699 27 13.5l58 42v-153l-56 40
c-10.667 7.33301 -21 11.666 -31 12.999s-20.667 2 -32 2h-110v-273h144c11.333 0 20.166 2.16699 26.499 6.5l22.5 15.5l98 73l-19 -133h-398zM158.001 849c36 0 53.999 -17.668 53.999 -53.001c0 -15.333 -4.66699 -27.5 -14 -36.5s-22.666 -13.5 -39.999 -13.5
c-33.333 0 -50 16.333 -50 49c0 16.667 4.5 29.834 13.5 39.501s21.167 14.5 36.5 14.5zM384 848.999c36 0 54 -17.668 54 -53.001c0 -15.333 -4.66699 -27.5 -14 -36.5s-22.666 -13.5 -39.999 -13.5c-34 0 -51 16.333 -51 49c0 16.667 4.66699 29.834 14 39.501
s21.666 14.5 36.999 14.5z" />
    <glyph glyph-name="Igrave" unicode="&#xcc;" horiz-adv-x="275" 
d="M57 0c18 31.333 28.667 58.335 32 81.002s5 43.667 5 63v367c0 19.333 -1.66699 40.333 -5 63s-14 49.667 -32 81h161c-17.333 -30 -27.666 -55.833 -30.999 -77.5s-5 -41.834 -5 -60.501v-6v-367v-6c0 -18.667 1.66699 -38.834 5 -60.501s13.666 -47.5 30.999 -77.5
h-161zM-36 884.002h136l94 -165z" />
    <glyph glyph-name="Iacute" unicode="&#xcd;" horiz-adv-x="275" 
d="M57 0c18 31.333 28.667 58.335 32 81.002s5 43.667 5 63v367c0 19.333 -1.66699 40.333 -5 63s-14 49.667 -32 81h161c-17.333 -30 -27.666 -55.833 -30.999 -77.5s-5 -41.834 -5 -60.501v-6v-367v-6c0 -18.667 1.66699 -38.834 5 -60.501s13.666 -47.5 30.999 -77.5
h-161zM176 884.002h136l-230 -165z" />
    <glyph glyph-name="Icircumflex" unicode="&#xce;" horiz-adv-x="275" 
d="M57 0c18 31.333 28.667 58.335 32 81.002s5 43.667 5 63v367c0 19.333 -1.66699 40.333 -5 63s-14 49.667 -32 81h161c-17.333 -30 -27.666 -55.833 -30.999 -77.5s-5 -41.834 -5 -60.501v-6v-367v-6c0 -18.667 1.66699 -38.834 5 -60.501s13.666 -47.5 30.999 -77.5
h-161zM138 896.002l176 -177l-176 80l-176 -80z" />
    <glyph glyph-name="Idieresis" unicode="&#xcf;" horiz-adv-x="275" 
d="M57 0c18 31.333 28.667 58.335 32 81.002s5 43.667 5 63v367c0 19.333 -1.66699 40.333 -5 63s-14 49.667 -32 81h161c-17.333 -30 -27.666 -55.833 -30.999 -77.5s-5 -41.834 -5 -60.501v-6v-367v-6c0 -18.667 1.66699 -38.834 5 -60.501s13.666 -47.5 30.999 -77.5
h-161zM22 849.002c36 0 53.999 -17.668 53.999 -53.001c0 -15.333 -4.66699 -27.5 -14 -36.5s-22.666 -13.5 -39.999 -13.5c-33.333 0 -50 16.333 -50 49c0 16.667 4.5 29.834 13.5 39.501s21.167 14.5 36.5 14.5zM247.999 849.001c36 0 54 -17.668 54 -53.001
c0 -15.333 -4.66699 -27.5 -14 -36.5s-22.666 -13.5 -39.999 -13.5c-34 0 -51 16.333 -51 49c0 16.667 4.66699 29.834 14 39.501s21.666 14.5 36.999 14.5z" />
    <glyph glyph-name="Eth" unicode="&#xd0;" horiz-adv-x="646" 
d="M53 0c18 30.667 28.501 57.5 31.501 80.5s4.5 44.167 4.5 63.5v180h-87v49h87v138c0 10 -0.166992 20.167 -0.5 30.5s-1.66602 21.333 -3.99902 33s-6 24.167 -11 37.5s-11.833 27.666 -20.5 42.999h232c103.333 0 181.166 -26 233.499 -78s78.5 -128 78.5 -228
c0 -113.333 -29.667 -200.666 -89 -261.999c-19.333 -20 -38.833 -35.667 -58.5 -47s-40.334 -20 -62.001 -26s-44.5 -9.83301 -68.5 -11.5s-49.667 -2.5 -77 -2.5h-189zM264.001 44c77.333 0 135.667 23.8311 175 71.498s59 118.834 59 213.501
c0 90.667 -18.5 160.334 -55.5 209.001s-90.833 73 -161.5 73h-105v-238h132v-49h-132v-280h88z" />
    <glyph glyph-name="Ntilde" unicode="&#xd1;" horiz-adv-x="625" 
d="M139 542l-0.000976562 -398v-6c0 -18.667 1.66699 -38.834 5 -60.501s13.666 -47.5 30.999 -77.5h-124c18 30.667 28.5 57.5 31.5 80.5s4.5 44.167 4.5 63.5v367c0 10 -0.166992 20.167 -0.5 30.5s-1.66602 21.333 -3.99902 33s-6 24.167 -11 37.5
s-11.833 27.666 -20.5 42.999h119l321 -491v347c0 19.333 -1.66699 40.333 -5 63s-14 49.667 -32 81h125c-9.33301 -15.333 -16.5 -29.666 -21.5 -42.999s-8.66699 -26 -11 -38s-3.66602 -23.167 -3.99902 -33.5s-0.5 -20.166 -0.5 -29.499v-516h-44zM250.999 795
c-10.667 4.66699 -18.668 7 -24.001 7c-16 0 -42 -18.667 -78 -56c6.66699 33.333 18.667 59 36 77s35.666 27 54.999 27c16.667 0 32.334 -3.33301 47.001 -10l86 -39c9.33301 -4.66699 17.333 -7 24 -7c16.667 0 42.667 18.667 78 56
c-6.66699 -34 -18.667 -59.833 -36 -77.5s-35.666 -26.5 -54.999 -26.5c-17.333 0 -33 3 -47 9z" />
    <glyph glyph-name="Ograve" unicode="&#xd2;" horiz-adv-x="676" 
d="M49 317c0 53.333 7.00098 101.333 21.001 144s34 79 60 109s57.333 53.167 94 69.5s77.667 24.5 123 24.5c42 0 80.167 -7.83301 114.5 -23.5s63.666 -37.834 87.999 -66.501s43.333 -63.5 57 -104.5s20.5 -86.833 20.5 -137.5c0 -53.333 -7.16699 -101.333 -21.5 -144
s-34.5 -79 -60.5 -109s-57.333 -53.167 -94 -69.5s-77.667 -24.5 -123 -24.5c-42 0 -80 7.83301 -114 23.5s-63.333 38 -88 67s-43.667 63.833 -57 104.5s-20 86.334 -20 137.001zM337.001 619c-28 0 -53.5 -6.33496 -76.5 -19.002s-42.667 -31.167 -59 -55.5
s-29 -54.166 -38 -89.499s-13.5 -75.666 -13.5 -120.999c0 -49.333 4.66699 -92.833 14 -130.5s22.166 -69.5 38.499 -95.5s36.166 -45.667 59.499 -59s49 -20 77 -20c56.667 0 102 24.833 136 74.5s51 120.167 51 211.5c0 48.667 -4.66699 92 -14 130
s-22.166 69.833 -38.499 95.5s-36.166 45.167 -59.499 58.5s-49 20 -77 20zM164.001 883.998h136l94 -165z" />
    <glyph glyph-name="Oacute" unicode="&#xd3;" horiz-adv-x="676" 
d="M49 317c0 53.333 7.00098 101.333 21.001 144s34 79 60 109s57.333 53.167 94 69.5s77.667 24.5 123 24.5c42 0 80.167 -7.83301 114.5 -23.5s63.666 -37.834 87.999 -66.501s43.333 -63.5 57 -104.5s20.5 -86.833 20.5 -137.5c0 -53.333 -7.16699 -101.333 -21.5 -144
s-34.5 -79 -60.5 -109s-57.333 -53.167 -94 -69.5s-77.667 -24.5 -123 -24.5c-42 0 -80 7.83301 -114 23.5s-63.333 38 -88 67s-43.667 63.833 -57 104.5s-20 86.334 -20 137.001zM337.001 619c-28 0 -53.5 -6.33496 -76.5 -19.002s-42.667 -31.167 -59 -55.5
s-29 -54.166 -38 -89.499s-13.5 -75.666 -13.5 -120.999c0 -49.333 4.66699 -92.833 14 -130.5s22.166 -69.5 38.499 -95.5s36.166 -45.667 59.499 -59s49 -20 77 -20c56.667 0 102 24.833 136 74.5s51 120.167 51 211.5c0 48.667 -4.66699 92 -14 130
s-22.166 69.833 -38.499 95.5s-36.166 45.167 -59.499 58.5s-49 20 -77 20zM376.001 883.998h136l-230 -165z" />
    <glyph glyph-name="Ocircumflex" unicode="&#xd4;" horiz-adv-x="676" 
d="M49 317c0 53.333 7.00098 101.333 21.001 144s34 79 60 109s57.333 53.167 94 69.5s77.667 24.5 123 24.5c42 0 80.167 -7.83301 114.5 -23.5s63.666 -37.834 87.999 -66.501s43.333 -63.5 57 -104.5s20.5 -86.833 20.5 -137.5c0 -53.333 -7.16699 -101.333 -21.5 -144
s-34.5 -79 -60.5 -109s-57.333 -53.167 -94 -69.5s-77.667 -24.5 -123 -24.5c-42 0 -80 7.83301 -114 23.5s-63.333 38 -88 67s-43.667 63.833 -57 104.5s-20 86.334 -20 137.001zM337.001 619c-28 0 -53.5 -6.33496 -76.5 -19.002s-42.667 -31.167 -59 -55.5
s-29 -54.166 -38 -89.499s-13.5 -75.666 -13.5 -120.999c0 -49.333 4.66699 -92.833 14 -130.5s22.166 -69.5 38.499 -95.5s36.166 -45.667 59.499 -59s49 -20 77 -20c56.667 0 102 24.833 136 74.5s51 120.167 51 211.5c0 48.667 -4.66699 92 -14 130
s-22.166 69.833 -38.499 95.5s-36.166 45.167 -59.499 58.5s-49 20 -77 20zM338.001 895.998l176 -177l-176 80l-176 -80z" />
    <glyph glyph-name="Otilde" unicode="&#xd5;" horiz-adv-x="676" 
d="M49 317c0 53.333 7.00098 101.333 21.001 144s34 79 60 109s57.333 53.167 94 69.5s77.667 24.5 123 24.5c42 0 80.167 -7.83301 114.5 -23.5s63.666 -37.834 87.999 -66.501s43.333 -63.5 57 -104.5s20.5 -86.833 20.5 -137.5c0 -53.333 -7.16699 -101.333 -21.5 -144
s-34.5 -79 -60.5 -109s-57.333 -53.167 -94 -69.5s-77.667 -24.5 -123 -24.5c-42 0 -80 7.83301 -114 23.5s-63.333 38 -88 67s-43.667 63.833 -57 104.5s-20 86.334 -20 137.001zM337.001 619c-28 0 -53.5 -6.33496 -76.5 -19.002s-42.667 -31.167 -59 -55.5
s-29 -54.166 -38 -89.499s-13.5 -75.666 -13.5 -120.999c0 -49.333 4.66699 -92.833 14 -130.5s22.166 -69.5 38.499 -95.5s36.166 -45.667 59.499 -59s49 -20 77 -20c56.667 0 102 24.833 136 74.5s51 120.167 51 211.5c0 48.667 -4.66699 92 -14 130
s-22.166 69.833 -38.499 95.5s-36.166 45.167 -59.499 58.5s-49 20 -77 20zM277.001 794.998c-10.667 4.66699 -18.668 7 -24.001 7c-16 0 -42 -18.667 -78 -56c6.66699 33.333 18.667 59 36 77s35.666 27 54.999 27c16.667 0 32.334 -3.33301 47.001 -10l86 -39
c9.33301 -4.66699 17.333 -7 24 -7c16.667 0 42.667 18.667 78 56c-6.66699 -34 -18.667 -59.833 -36 -77.5s-35.666 -26.5 -54.999 -26.5c-17.333 0 -33 3 -47 9z" />
    <glyph glyph-name="Odieresis" unicode="&#xd6;" horiz-adv-x="676" 
d="M49 317c0 53.333 7.00098 101.333 21.001 144s34 79 60 109s57.333 53.167 94 69.5s77.667 24.5 123 24.5c42 0 80.167 -7.83301 114.5 -23.5s63.666 -37.834 87.999 -66.501s43.333 -63.5 57 -104.5s20.5 -86.833 20.5 -137.5c0 -53.333 -7.16699 -101.333 -21.5 -144
s-34.5 -79 -60.5 -109s-57.333 -53.167 -94 -69.5s-77.667 -24.5 -123 -24.5c-42 0 -80 7.83301 -114 23.5s-63.333 38 -88 67s-43.667 63.833 -57 104.5s-20 86.334 -20 137.001zM337.001 619c-28 0 -53.5 -6.33496 -76.5 -19.002s-42.667 -31.167 -59 -55.5
s-29 -54.166 -38 -89.499s-13.5 -75.666 -13.5 -120.999c0 -49.333 4.66699 -92.833 14 -130.5s22.166 -69.5 38.499 -95.5s36.166 -45.667 59.499 -59s49 -20 77 -20c56.667 0 102 24.833 136 74.5s51 120.167 51 211.5c0 48.667 -4.66699 92 -14 130
s-22.166 69.833 -38.499 95.5s-36.166 45.167 -59.499 58.5s-49 20 -77 20zM222.001 848.998c36 0 53.999 -17.668 53.999 -53.001c0 -15.333 -4.66699 -27.5 -14 -36.5s-22.666 -13.5 -39.999 -13.5c-33.333 0 -50 16.333 -50 49c0 16.667 4.5 29.834 13.5 39.501
s21.167 14.5 36.5 14.5zM448 848.997c36 0 54 -17.668 54 -53.001c0 -15.333 -4.66699 -27.5 -14 -36.5s-22.666 -13.5 -39.999 -13.5c-34 0 -51 16.333 -51 49c0 16.667 4.66699 29.834 14 39.501s21.666 14.5 36.999 14.5z" />
    <glyph glyph-name="multiply" unicode="&#xd7;" horiz-adv-x="512" 
d="M53 160l165 166l-160 161l38 39l160 -162l162 163l40 -40l-161 -163l160 -161l-39 -39l-160 162l-165 -166z" />
    <glyph glyph-name="Oslash" unicode="&#xd8;" horiz-adv-x="676" 
d="M88 -26l53 85.998c-29.333 29.333 -52 66 -68 110s-24 94 -24 150c0 52.667 7.16699 100.167 21.5 142.5s34.5 78.5 60.5 108.5s57.333 53 94 69s77.667 24 123 24c48.667 0 96 -12.667 142 -38l44 71l37 -23l-47 -76c68.667 -64 103 -151.667 103 -263
c0 -54 -7.16699 -102.667 -21.5 -146s-34.5 -80.166 -60.5 -110.499s-57.333 -53.666 -94 -69.999s-77.667 -24.5 -123 -24.5c-65.333 0 -116.333 15.667 -153 47l-50 -80zM452 563.998c-30.667 36.667 -69 54.998 -115 54.998c-57.333 0 -102.833 -24.667 -136.5 -74
s-50.5 -120.333 -50.5 -213c0 -39.333 2.83301 -75.166 8.5 -107.499s15.167 -62.166 28.5 -89.499zM213 93.9961c34.667 -43.333 76.668 -65.001 126.001 -65.001c57.333 0 102.666 24.833 135.999 74.5s50 120.834 50 213.501c0 42.667 -3.33301 81.167 -10 115.5
s-18 65.833 -34 94.5z" />
    <glyph glyph-name="Ugrave" unicode="&#xd9;" horiz-adv-x="616" 
d="M75 511c0 10 -0.173828 20.166 -0.506836 30.499s-1.66602 21.333 -3.99902 33s-6 24.167 -11 37.5s-11.833 27.666 -20.5 42.999h161c-9.33301 -15.333 -16.5 -29.666 -21.5 -42.999s-8.66699 -26 -11 -38s-3.66602 -23.167 -3.99902 -33.5s-0.5 -20.166 -0.5 -29.499
v-302c0 -31.333 2.5 -58.666 7.5 -81.999s13.333 -42.5 25 -57.5s27.167 -26.167 46.5 -33.5s43 -11 71 -11c74.667 0 123.334 23.667 146.001 71c7.33301 15.333 11.833 31.666 13.5 48.999s2.5 36.333 2.5 57v41v268c0 10 -0.166992 20.167 -0.5 30.5
s-1.66602 21.333 -3.99902 33s-6 24.167 -11 37.5s-11.833 27.666 -20.5 42.999h138c-9.33301 -15.333 -16.5 -29.666 -21.5 -42.999s-8.66699 -26 -11 -38s-3.66602 -23.167 -3.99902 -33.5s-0.5 -20.166 -0.5 -29.499v-280v-14c0 -26 -1 -50.333 -3 -73s-8 -44 -18 -64
c-15.333 -30.667 -41.166 -54.334 -77.499 -71.001s-82.166 -25 -137.499 -25c-81.333 0 -139.833 16.333 -175.5 49s-53.5 84.667 -53.5 156v322zM150.993 883.999h136l94 -165z" />
    <glyph glyph-name="Uacute" unicode="&#xda;" horiz-adv-x="616" 
d="M75 511c0 10 -0.173828 20.166 -0.506836 30.499s-1.66602 21.333 -3.99902 33s-6 24.167 -11 37.5s-11.833 27.666 -20.5 42.999h161c-9.33301 -15.333 -16.5 -29.666 -21.5 -42.999s-8.66699 -26 -11 -38s-3.66602 -23.167 -3.99902 -33.5s-0.5 -20.166 -0.5 -29.499
v-302c0 -31.333 2.5 -58.666 7.5 -81.999s13.333 -42.5 25 -57.5s27.167 -26.167 46.5 -33.5s43 -11 71 -11c74.667 0 123.334 23.667 146.001 71c7.33301 15.333 11.833 31.666 13.5 48.999s2.5 36.333 2.5 57v41v268c0 10 -0.166992 20.167 -0.5 30.5
s-1.66602 21.333 -3.99902 33s-6 24.167 -11 37.5s-11.833 27.666 -20.5 42.999h138c-9.33301 -15.333 -16.5 -29.666 -21.5 -42.999s-8.66699 -26 -11 -38s-3.66602 -23.167 -3.99902 -33.5s-0.5 -20.166 -0.5 -29.499v-280v-14c0 -26 -1 -50.333 -3 -73s-8 -44 -18 -64
c-15.333 -30.667 -41.166 -54.334 -77.499 -71.001s-82.166 -25 -137.499 -25c-81.333 0 -139.833 16.333 -175.5 49s-53.5 84.667 -53.5 156v322zM362.993 883.999h136l-230 -165z" />
    <glyph glyph-name="Ucircumflex" unicode="&#xdb;" horiz-adv-x="616" 
d="M75 511c0 10 -0.173828 20.166 -0.506836 30.499s-1.66602 21.333 -3.99902 33s-6 24.167 -11 37.5s-11.833 27.666 -20.5 42.999h161c-9.33301 -15.333 -16.5 -29.666 -21.5 -42.999s-8.66699 -26 -11 -38s-3.66602 -23.167 -3.99902 -33.5s-0.5 -20.166 -0.5 -29.499
v-302c0 -31.333 2.5 -58.666 7.5 -81.999s13.333 -42.5 25 -57.5s27.167 -26.167 46.5 -33.5s43 -11 71 -11c74.667 0 123.334 23.667 146.001 71c7.33301 15.333 11.833 31.666 13.5 48.999s2.5 36.333 2.5 57v41v268c0 10 -0.166992 20.167 -0.5 30.5
s-1.66602 21.333 -3.99902 33s-6 24.167 -11 37.5s-11.833 27.666 -20.5 42.999h138c-9.33301 -15.333 -16.5 -29.666 -21.5 -42.999s-8.66699 -26 -11 -38s-3.66602 -23.167 -3.99902 -33.5s-0.5 -20.166 -0.5 -29.499v-280v-14c0 -26 -1 -50.333 -3 -73s-8 -44 -18 -64
c-15.333 -30.667 -41.166 -54.334 -77.499 -71.001s-82.166 -25 -137.499 -25c-81.333 0 -139.833 16.333 -175.5 49s-53.5 84.667 -53.5 156v322zM324.993 895.999l176 -177l-176 80l-176 -80z" />
    <glyph glyph-name="Udieresis" unicode="&#xdc;" horiz-adv-x="616" 
d="M75 511c0 10 -0.173828 20.166 -0.506836 30.499s-1.66602 21.333 -3.99902 33s-6 24.167 -11 37.5s-11.833 27.666 -20.5 42.999h161c-9.33301 -15.333 -16.5 -29.666 -21.5 -42.999s-8.66699 -26 -11 -38s-3.66602 -23.167 -3.99902 -33.5s-0.5 -20.166 -0.5 -29.499
v-302c0 -31.333 2.5 -58.666 7.5 -81.999s13.333 -42.5 25 -57.5s27.167 -26.167 46.5 -33.5s43 -11 71 -11c74.667 0 123.334 23.667 146.001 71c7.33301 15.333 11.833 31.666 13.5 48.999s2.5 36.333 2.5 57v41v268c0 10 -0.166992 20.167 -0.5 30.5
s-1.66602 21.333 -3.99902 33s-6 24.167 -11 37.5s-11.833 27.666 -20.5 42.999h138c-9.33301 -15.333 -16.5 -29.666 -21.5 -42.999s-8.66699 -26 -11 -38s-3.66602 -23.167 -3.99902 -33.5s-0.5 -20.166 -0.5 -29.499v-280v-14c0 -26 -1 -50.333 -3 -73s-8 -44 -18 -64
c-15.333 -30.667 -41.166 -54.334 -77.499 -71.001s-82.166 -25 -137.499 -25c-81.333 0 -139.833 16.333 -175.5 49s-53.5 84.667 -53.5 156v322zM208.993 848.999c36 0 53.999 -17.668 53.999 -53.001c0 -15.333 -4.66699 -27.5 -14 -36.5s-22.666 -13.5 -39.999 -13.5
c-33.333 0 -50 16.333 -50 49c0 16.667 4.5 29.834 13.5 39.501s21.167 14.5 36.5 14.5zM434.992 848.998c36 0 54 -17.668 54 -53.001c0 -15.333 -4.66699 -27.5 -14 -36.5s-22.666 -13.5 -39.999 -13.5c-34 0 -51 16.333 -51 49c0 16.667 4.66699 29.834 14 39.501
s21.666 14.5 36.999 14.5z" />
    <glyph glyph-name="Yacute" unicode="&#xdd;" horiz-adv-x="532" 
d="M183 0c18 30.667 28.501 57.502 31.501 80.502s4.5 44.167 4.5 63.5v157l-154 251c-7.33301 11.333 -17.333 25.833 -30 43.5s-31.667 37.5 -57 59.5h188c-7.33301 -10.667 -13.166 -19.834 -17.499 -27.501s-6.5 -14.167 -6.5 -19.5
c0 -8.66699 5.66699 -22.334 17 -41.001l123 -205l116 214c3.33301 5.33301 6 10.5 8 15.5s3 10.833 3 17.5c0 10 -7.33301 25.333 -22 46h155c-20.667 -18.667 -38.834 -38.167 -54.501 -58.5s-30.834 -41.833 -45.501 -64.5l-135 -207v-181c0 -19.333 1.5 -40.5 4.5 -63.5
s13.833 -49.833 32.5 -80.5h-161zM304.001 884.002h136l-230 -165z" />
    <glyph glyph-name="Thorn" unicode="&#xde;" horiz-adv-x="491" 
d="M53 0c18 30.667 28.5 57.5 31.5 80.5s4.5 44.167 4.5 63.5v367c0 10 -0.166992 20.167 -0.5 30.5s-1.66602 21.333 -3.99902 33s-6 24.167 -11 37.5s-11.833 27.666 -20.5 42.999h161c-15.333 -28 -25.5 -52.167 -30.5 -72.5s-7.5 -34.166 -7.5 -41.499
c0 -4 0.666992 -6 2 -6h95c67.333 0 118.333 -16.167 153 -48.5s52 -78.5 52 -138.5c0 -28 -5 -53.833 -15 -77.5s-24.667 -44 -44 -61s-42.833 -30.333 -70.5 -40s-59.167 -14.5 -94.5 -14.5c-9.33301 0 -20.333 0.166992 -33 0.5s-27.334 0.833008 -44.001 1.5
c-0.666992 -4 -1 -8 -1 -12v-11c0 -46 12.667 -90.667 38 -134h-161zM177 196c14 -0.666992 25 -1 33 -1h16c100.667 0 151 50.667 151 152c0 47.333 -11 83.833 -33 109.5s-52.333 38.5 -91 38.5h-76v-299z" />
    <glyph glyph-name="germandbls" unicode="&#xdf;" horiz-adv-x="568" 
d="M41 0c14 20 24.0029 41.8291 30.0029 65.4961s9 50.167 9 79.5v25v295c0 18.667 0.333008 36 1 52s2.5 31.167 5.5 45.5s8 28 15 41s16.833 26.167 29.5 39.5c19.333 20.667 43.833 36.5 73.5 47.5s62.5 16.5 98.5 16.5c50.667 0 91.667 -11.5 123 -34.5
s47 -53.167 47 -90.5c0 -14 -2.16699 -26.667 -6.5 -38s-10.5 -21.666 -18.5 -30.999s-17.5 -18.666 -28.5 -27.999l-35.5 -29c-20.667 -16.667 -36.834 -31.834 -48.501 -45.501s-17.5 -29.834 -17.5 -48.501c0 -12.667 2.83301 -23.167 8.5 -31.5
s13.667 -16.166 24 -23.499s23 -14.5 38 -21.5s31.833 -15.5 50.5 -25.5c17.333 -9.33301 32.333 -18 45 -26s23.167 -17 31.5 -27s14.5 -21.333 18.5 -34s6 -27.667 6 -45c0 -20 -3.83301 -38.167 -11.5 -54.5s-18.334 -30.5 -32.001 -42.5s-30.167 -21.333 -49.5 -28
s-40.666 -10 -63.999 -10c-40 0 -87 7.66699 -141 23v108l97 -75c7.33301 -5.33301 14.5 -10 21.5 -14s16.167 -6 27.5 -6c20.667 0 38.334 7 53.001 21s22 30.667 22 50c0 14 -2.83301 25.667 -8.5 35s-13.834 17.666 -24.501 24.999s-23.5 14.5 -38.5 21.5
s-31.833 15.5 -50.5 25.5c-30.667 16 -53.5 32.833 -68.5 50.5s-22.5 40.834 -22.5 69.501c0 20.667 4 38.834 12 54.501s19 31.834 33 48.501c10 12 20.167 23.167 30.5 33.5s19.666 21 27.999 32s15.166 22.667 20.499 35s8 26.5 8 42.5c0 30 -9.33301 53.5 -28 70.5
s-45 25.5 -79 25.5c-42.667 0 -72.167 -12.667 -88.5 -38s-24.5 -63.666 -24.5 -114.999v-516h-121z" />
    <glyph glyph-name="agrave" unicode="&#xe0;" horiz-adv-x="456" 
d="M323 -11c-10.667 18.667 -17.334 36.998 -20.001 54.998c-31.333 -16.667 -58 -30.167 -80 -40.5s-41.667 -15.5 -59 -15.5c-16.667 0 -32.5 3.33301 -47.5 10s-28 15.834 -39 27.501s-19.833 25.5 -26.5 41.5s-10 33.333 -10 52c0 46.667 17 80.5 51 101.5
s86.333 31.5 157 31.5c8 0 16.333 -0.166992 25 -0.5s17.667 -0.833008 27 -1.5v91c0 29.333 -6.5 51.666 -19.5 66.999s-30.833 23 -53.5 23c-14.667 0 -33.334 -8.5 -56.001 -25.5s-52 -40.5 -88 -70.5v105c35.333 10 67.333 17.333 96 22s54.667 7 78 7
c28 0 50.333 -2.66699 67 -8s29.334 -13.666 38.001 -24.999s14.334 -26.166 17.001 -44.499s4 -40.5 4 -66.5v-167v-7c0 -11.333 0.333008 -22.5 1 -33.5s2.16699 -22 4.5 -33s6.33301 -22.167 12 -33.5s13.5 -23 23.5 -35zM301 223.998
c-58 -4.66699 -100.667 -13.167 -128 -25.5s-41 -33.833 -41 -64.5c0 -26.667 9.5 -47.5 28.5 -62.5s46.167 -22.5 81.5 -22.5c12 0 31.667 1 59 3v172zM55 687.998h136l94 -165z" />
    <glyph glyph-name="aacute" unicode="&#xe1;" horiz-adv-x="456" 
d="M323 -11c-10.667 18.667 -17.334 36.998 -20.001 54.998c-31.333 -16.667 -58 -30.167 -80 -40.5s-41.667 -15.5 -59 -15.5c-16.667 0 -32.5 3.33301 -47.5 10s-28 15.834 -39 27.501s-19.833 25.5 -26.5 41.5s-10 33.333 -10 52c0 46.667 17 80.5 51 101.5
s86.333 31.5 157 31.5c8 0 16.333 -0.166992 25 -0.5s17.667 -0.833008 27 -1.5v91c0 29.333 -6.5 51.666 -19.5 66.999s-30.833 23 -53.5 23c-14.667 0 -33.334 -8.5 -56.001 -25.5s-52 -40.5 -88 -70.5v105c35.333 10 67.333 17.333 96 22s54.667 7 78 7
c28 0 50.333 -2.66699 67 -8s29.334 -13.666 38.001 -24.999s14.334 -26.166 17.001 -44.499s4 -40.5 4 -66.5v-167v-7c0 -11.333 0.333008 -22.5 1 -33.5s2.16699 -22 4.5 -33s6.33301 -22.167 12 -33.5s13.5 -23 23.5 -35zM301 223.998
c-58 -4.66699 -100.667 -13.167 -128 -25.5s-41 -33.833 -41 -64.5c0 -26.667 9.5 -47.5 28.5 -62.5s46.167 -22.5 81.5 -22.5c12 0 31.667 1 59 3v172zM267 687.998h136l-230 -165z" />
    <glyph glyph-name="acircumflex" unicode="&#xe2;" horiz-adv-x="456" 
d="M323 -11c-10.667 18.667 -17.334 36.998 -20.001 54.998c-31.333 -16.667 -58 -30.167 -80 -40.5s-41.667 -15.5 -59 -15.5c-16.667 0 -32.5 3.33301 -47.5 10s-28 15.834 -39 27.501s-19.833 25.5 -26.5 41.5s-10 33.333 -10 52c0 46.667 17 80.5 51 101.5
s86.333 31.5 157 31.5c8 0 16.333 -0.166992 25 -0.5s17.667 -0.833008 27 -1.5v91c0 29.333 -6.5 51.666 -19.5 66.999s-30.833 23 -53.5 23c-14.667 0 -33.334 -8.5 -56.001 -25.5s-52 -40.5 -88 -70.5v105c35.333 10 67.333 17.333 96 22s54.667 7 78 7
c28 0 50.333 -2.66699 67 -8s29.334 -13.666 38.001 -24.999s14.334 -26.166 17.001 -44.499s4 -40.5 4 -66.5v-167v-7c0 -11.333 0.333008 -22.5 1 -33.5s2.16699 -22 4.5 -33s6.33301 -22.167 12 -33.5s13.5 -23 23.5 -35zM301 223.998
c-58 -4.66699 -100.667 -13.167 -128 -25.5s-41 -33.833 -41 -64.5c0 -26.667 9.5 -47.5 28.5 -62.5s46.167 -22.5 81.5 -22.5c12 0 31.667 1 59 3v172zM229 699.998l176 -177l-176 80l-176 -80z" />
    <glyph glyph-name="atilde" unicode="&#xe3;" horiz-adv-x="456" 
d="M323 -11c-10.667 18.667 -17.334 36.998 -20.001 54.998c-31.333 -16.667 -58 -30.167 -80 -40.5s-41.667 -15.5 -59 -15.5c-16.667 0 -32.5 3.33301 -47.5 10s-28 15.834 -39 27.501s-19.833 25.5 -26.5 41.5s-10 33.333 -10 52c0 46.667 17 80.5 51 101.5
s86.333 31.5 157 31.5c8 0 16.333 -0.166992 25 -0.5s17.667 -0.833008 27 -1.5v91c0 29.333 -6.5 51.666 -19.5 66.999s-30.833 23 -53.5 23c-14.667 0 -33.334 -8.5 -56.001 -25.5s-52 -40.5 -88 -70.5v105c35.333 10 67.333 17.333 96 22s54.667 7 78 7
c28 0 50.333 -2.66699 67 -8s29.334 -13.666 38.001 -24.999s14.334 -26.166 17.001 -44.499s4 -40.5 4 -66.5v-167v-7c0 -11.333 0.333008 -22.5 1 -33.5s2.16699 -22 4.5 -33s6.33301 -22.167 12 -33.5s13.5 -23 23.5 -35zM301 223.998
c-58 -4.66699 -100.667 -13.167 -128 -25.5s-41 -33.833 -41 -64.5c0 -26.667 9.5 -47.5 28.5 -62.5s46.167 -22.5 81.5 -22.5c12 0 31.667 1 59 3v172zM168 598.998c-10.667 4.66699 -18.668 7 -24.001 7c-16 0 -42 -18.667 -78 -56c6.66699 33.333 18.667 59 36 77
s35.666 27 54.999 27c16.667 0 32.334 -3.33301 47.001 -10l86 -39c9.33301 -4.66699 17.333 -7 24 -7c16.667 0 42.667 18.667 78 56c-6.66699 -34 -18.667 -59.833 -36 -77.5s-35.666 -26.5 -54.999 -26.5c-17.333 0 -33 3 -47 9z" />
    <glyph glyph-name="adieresis" unicode="&#xe4;" horiz-adv-x="456" 
d="M323 -11c-10.667 18.667 -17.334 36.998 -20.001 54.998c-31.333 -16.667 -58 -30.167 -80 -40.5s-41.667 -15.5 -59 -15.5c-16.667 0 -32.5 3.33301 -47.5 10s-28 15.834 -39 27.501s-19.833 25.5 -26.5 41.5s-10 33.333 -10 52c0 46.667 17 80.5 51 101.5
s86.333 31.5 157 31.5c8 0 16.333 -0.166992 25 -0.5s17.667 -0.833008 27 -1.5v91c0 29.333 -6.5 51.666 -19.5 66.999s-30.833 23 -53.5 23c-14.667 0 -33.334 -8.5 -56.001 -25.5s-52 -40.5 -88 -70.5v105c35.333 10 67.333 17.333 96 22s54.667 7 78 7
c28 0 50.333 -2.66699 67 -8s29.334 -13.666 38.001 -24.999s14.334 -26.166 17.001 -44.499s4 -40.5 4 -66.5v-167v-7c0 -11.333 0.333008 -22.5 1 -33.5s2.16699 -22 4.5 -33s6.33301 -22.167 12 -33.5s13.5 -23 23.5 -35zM301 223.998
c-58 -4.66699 -100.667 -13.167 -128 -25.5s-41 -33.833 -41 -64.5c0 -26.667 9.5 -47.5 28.5 -62.5s46.167 -22.5 81.5 -22.5c12 0 31.667 1 59 3v172zM113 652.998c36 0 53.999 -17.668 53.999 -53.001c0 -15.333 -4.66699 -27.5 -14 -36.5s-22.666 -13.5 -39.999 -13.5
c-33.333 0 -50 16.333 -50 49c0 16.667 4.5 29.834 13.5 39.501s21.167 14.5 36.5 14.5zM338.999 652.997c36 0 54 -17.668 54 -53.001c0 -15.333 -4.66699 -27.5 -14 -36.5s-22.666 -13.5 -39.999 -13.5c-34 0 -51 16.333 -51 49c0 16.667 4.66699 29.834 14 39.501
s21.666 14.5 36.999 14.5z" />
    <glyph glyph-name="aring" unicode="&#xe5;" horiz-adv-x="456" 
d="M323 -11c-10.667 18.667 -17.334 36.998 -20.001 54.998c-31.333 -16.667 -58 -30.167 -80 -40.5s-41.667 -15.5 -59 -15.5c-16.667 0 -32.5 3.33301 -47.5 10s-28 15.834 -39 27.501s-19.833 25.5 -26.5 41.5s-10 33.333 -10 52c0 46.667 17 80.5 51 101.5
s86.333 31.5 157 31.5c8 0 16.333 -0.166992 25 -0.5s17.667 -0.833008 27 -1.5v91c0 29.333 -6.5 51.666 -19.5 66.999s-30.833 23 -53.5 23c-14.667 0 -33.334 -8.5 -56.001 -25.5s-52 -40.5 -88 -70.5v105c35.333 10 67.333 17.333 96 22s54.667 7 78 7
c28 0 50.333 -2.66699 67 -8s29.334 -13.666 38.001 -24.999s14.334 -26.166 17.001 -44.499s4 -40.5 4 -66.5v-167v-7c0 -11.333 0.333008 -22.5 1 -33.5s2.16699 -22 4.5 -33s6.33301 -22.167 12 -33.5s13.5 -23 23.5 -35zM301 223.998
c-58 -4.66699 -100.667 -13.167 -128 -25.5s-41 -33.833 -41 -64.5c0 -26.667 9.5 -47.5 28.5 -62.5s46.167 -22.5 81.5 -22.5c12 0 31.667 1 59 3v172zM229 741.998c16 0 31 -3 45 -9s26.167 -14 36.5 -24s18.5 -22 24.5 -36s9 -29 9 -45s-3 -31.167 -9 -45.5
s-14.167 -26.666 -24.5 -36.999s-22.5 -18.5 -36.5 -24.5s-29 -9 -45 -9s-31 3 -45 9s-26.167 14.167 -36.5 24.5s-18.5 22.666 -24.5 36.999s-9 29.5 -9 45.5s3 31 9 45s14.167 26 24.5 36s22.5 18 36.5 24s29 9 45 9zM229 691.998
c-18.667 0 -34.334 -6.33203 -47.001 -18.999s-19 -28.334 -19 -47.001s6.16699 -34.334 18.5 -47.001s27.833 -19 46.5 -19s34.334 6.33301 47.001 19s19 28.334 19 47.001c0 18 -6.33301 33.5 -19 46.5s-28 19.5 -46 19.5z" />
    <glyph glyph-name="ae" unicode="&#xe6;" horiz-adv-x="729" 
d="M383 249c0 -70 15.8311 -120.67 47.498 -152.003s82.167 -47 151.5 -47c33.333 0 70.666 3 111.999 9c-52.667 -44.667 -113 -67 -181 -67c-59.333 0 -109.666 18.333 -150.999 55c-32.667 -17.333 -62.667 -31.166 -90 -41.499s-54.333 -15.5 -81 -15.5
c-42 0 -75.5 11.833 -100.5 35.5s-37.5 55.167 -37.5 94.5c0 46.667 17.167 80.167 51.5 100.5s86.833 30.5 157.5 30.5h23c8 0 16.333 -0.333008 25 -1v93c0 27.333 -6.83301 48.833 -20.5 64.5s-30.5 23.5 -50.5 23.5c-13.333 0 -25 -4 -35 -12l-110 -84v105
c54.667 18.667 109.334 28 164.001 28c32.667 0 59 -3.66699 79 -11s34.667 -19.666 44 -36.999c32 32 74.333 48 127 48c54.667 0 98.334 -18.667 131.001 -56s49 -89.666 49 -156.999v-6h-305zM309.998 223.997c-58 -5.33301 -100.666 -14.5 -127.999 -27.5
s-41 -34.167 -41 -63.5c0 -56.667 37.333 -85 112 -85c8 0 16.667 0.666992 26 2s19.666 3 30.999 5v169zM588.999 301.997c-0.666992 42 -9.33105 74.167 -25.998 96.5s-39.334 33.5 -68.001 33.5c-32 0 -58.333 -13.667 -79 -41s-31.334 -66 -32.001 -116z" />
    <glyph glyph-name="ccedilla" unicode="&#xe7;" horiz-adv-x="428" 
d="M219 -10c-25.333 4 -48.6689 11.998 -70.002 23.998s-39.666 27.333 -54.999 46s-27.166 40.334 -35.499 65.001s-12.5 51.334 -12.5 80.001c0 40 6 76.167 18 108.5s28.667 60 50 83s46.833 40.833 76.5 53.5s62.5 19 98.5 19c19.333 0 38.5 -1.5 57.5 -4.5
s39.167 -7.16699 60.5 -12.5v-108l-100 69c-16.667 11.333 -31 17 -43 17c-16 0 -31.667 -4.5 -47 -13.5s-28.833 -22 -40.5 -39s-21 -37.333 -28 -61s-10.5 -50.5 -10.5 -80.5c0 -126.667 62.667 -190 188 -190c20 0 39.167 0.666992 57.5 2s35.833 3.33301 52.5 6
c-54.667 -44.667 -115 -67 -181 -67h-3v-19c25.333 -2 44.833 -10 58.5 -24s20.5 -32.667 20.5 -56c0 -26.667 -11.167 -49.334 -33.5 -68.001s-51.5 -28 -87.5 -28c-10 0 -19 1.33301 -27 4c25.333 14.667 44.333 30 57 46s19 31.667 19 47s-3.66699 27.833 -11 37.5
s-17 15.834 -29 18.501v45z" />
    <glyph glyph-name="egrave" unicode="&#xe8;" horiz-adv-x="484" 
d="M344 304c-0.666992 85.333 -31 128 -91 128c-34 0 -61 -13 -81 -39s-31 -64 -33 -114zM138 252v-3c0 -70 16.667 -121.167 50 -153.5s85.333 -48.5 156 -48.5c30.667 0 65.667 4 105 12c-52.667 -46.667 -116 -70 -190 -70c-31.333 0 -60 5.33301 -86 16
s-48.167 26 -66.5 46s-32.5 44.333 -42.5 73s-15 61 -15 97c0 69.333 19.667 127.333 59 174c20 23.333 43.667 41.5 71 54.5s55 19.5 83 19.5c58 0 102.5 -18.333 133.5 -55s47.5 -90.667 49.5 -162h-307zM88 688h136l94 -165z" />
    <glyph glyph-name="eacute" unicode="&#xe9;" horiz-adv-x="484" 
d="M344 304c-0.666992 85.333 -31 128 -91 128c-34 0 -61 -13 -81 -39s-31 -64 -33 -114zM138 252v-3c0 -70 16.667 -121.167 50 -153.5s85.333 -48.5 156 -48.5c30.667 0 65.667 4 105 12c-52.667 -46.667 -116 -70 -190 -70c-31.333 0 -60 5.33301 -86 16
s-48.167 26 -66.5 46s-32.5 44.333 -42.5 73s-15 61 -15 97c0 69.333 19.667 127.333 59 174c20 23.333 43.667 41.5 71 54.5s55 19.5 83 19.5c58 0 102.5 -18.333 133.5 -55s47.5 -90.667 49.5 -162h-307zM300 688h136l-230 -165z" />
    <glyph glyph-name="ecircumflex" unicode="&#xea;" horiz-adv-x="484" 
d="M344 304c-0.666992 85.333 -31 128 -91 128c-34 0 -61 -13 -81 -39s-31 -64 -33 -114zM138 252v-3c0 -70 16.667 -121.167 50 -153.5s85.333 -48.5 156 -48.5c30.667 0 65.667 4 105 12c-52.667 -46.667 -116 -70 -190 -70c-31.333 0 -60 5.33301 -86 16
s-48.167 26 -66.5 46s-32.5 44.333 -42.5 73s-15 61 -15 97c0 69.333 19.667 127.333 59 174c20 23.333 43.667 41.5 71 54.5s55 19.5 83 19.5c58 0 102.5 -18.333 133.5 -55s47.5 -90.667 49.5 -162h-307zM262 700l176 -177l-176 80l-176 -80z" />
    <glyph glyph-name="edieresis" unicode="&#xeb;" horiz-adv-x="484" 
d="M344 304c-0.666992 85.333 -31 128 -91 128c-34 0 -61 -13 -81 -39s-31 -64 -33 -114zM138 252v-3c0 -70 16.667 -121.167 50 -153.5s85.333 -48.5 156 -48.5c30.667 0 65.667 4 105 12c-52.667 -46.667 -116 -70 -190 -70c-31.333 0 -60 5.33301 -86 16
s-48.167 26 -66.5 46s-32.5 44.333 -42.5 73s-15 61 -15 97c0 69.333 19.667 127.333 59 174c20 23.333 43.667 41.5 71 54.5s55 19.5 83 19.5c58 0 102.5 -18.333 133.5 -55s47.5 -90.667 49.5 -162h-307zM146 653c36 0 53.999 -17.668 53.999 -53.001
c0 -15.333 -4.66699 -27.5 -14 -36.5s-22.666 -13.5 -39.999 -13.5c-33.333 0 -50 16.333 -50 49c0 16.667 4.5 29.834 13.5 39.501s21.167 14.5 36.5 14.5zM371.999 652.999c36 0 54 -17.668 54 -53.001c0 -15.333 -4.66699 -27.5 -14 -36.5s-22.666 -13.5 -39.999 -13.5
c-34 0 -51 16.333 -51 49c0 16.667 4.66699 29.834 14 39.501s21.666 14.5 36.999 14.5z" />
    <glyph glyph-name="igrave" unicode="&#xec;" horiz-adv-x="257" 
d="M52 0c18 31.333 28.667 58.333 32 81s5 43.667 5 63v191c0 35.333 -13.333 72.333 -40 111l123 27v-329c0 -19.333 1.5 -40.5 4.5 -63.5s13.833 -49.833 32.5 -80.5h-157zM-45 688h136l94 -165z" />
    <glyph glyph-name="iacute" unicode="&#xed;" horiz-adv-x="257" 
d="M52 0c18 31.333 28.667 58.333 32 81s5 43.667 5 63v191c0 35.333 -13.333 72.333 -40 111l123 27v-329c0 -19.333 1.5 -40.5 4.5 -63.5s13.833 -49.833 32.5 -80.5h-157zM167 688h136l-230 -165z" />
    <glyph glyph-name="icircumflex" unicode="&#xee;" horiz-adv-x="257" 
d="M52 0c18 31.333 28.667 58.333 32 81s5 43.667 5 63v191c0 35.333 -13.333 72.333 -40 111l123 27v-329c0 -19.333 1.5 -40.5 4.5 -63.5s13.833 -49.833 32.5 -80.5h-157zM129 700l176 -177l-176 80l-176 -80z" />
    <glyph glyph-name="idieresis" unicode="&#xef;" horiz-adv-x="257" 
d="M52 0c18 31.333 28.667 58.333 32 81s5 43.667 5 63v191c0 35.333 -13.333 72.333 -40 111l123 27v-329c0 -19.333 1.5 -40.5 4.5 -63.5s13.833 -49.833 32.5 -80.5h-157zM13 653c36 0 53.999 -17.668 53.999 -53.001c0 -15.333 -4.66699 -27.5 -14 -36.5
s-22.666 -13.5 -39.999 -13.5c-33.333 0 -50 16.333 -50 49c0 16.667 4.5 29.834 13.5 39.501s21.167 14.5 36.5 14.5zM238.999 652.999c36 0 54 -17.668 54 -53.001c0 -15.333 -4.66699 -27.5 -14 -36.5s-22.666 -13.5 -39.999 -13.5c-34 0 -51 16.333 -51 49
c0 16.667 4.66699 29.834 14 39.501s21.666 14.5 36.999 14.5z" />
    <glyph glyph-name="eth" unicode="&#xf0;" horiz-adv-x="537" 
d="M145 553l123 61.999c-13.333 13.333 -27.666 26.166 -42.999 38.499s-31 24.166 -47 35.499l103 24c9.33301 -8.66699 18.833 -18 28.5 -28l30.5 -32l118 62l18 -35l-113 -59c83.333 -101.333 125 -218 125 -350c0 -45.333 -5.5 -85.666 -16.5 -120.999
s-26.333 -65.166 -46 -89.499s-43.334 -43 -71.001 -56s-58.167 -19.5 -91.5 -19.5c-30.667 0 -59.167 6 -85.5 18s-49.333 28.667 -69 50s-35 47 -46 77s-16.5 63 -16.5 99c0 34 5.5 65 16.5 93s26.333 52 46 72s43 35.667 70 47s56.167 17 87.5 17
c21.333 0 41.833 -3.16699 61.5 -9.5s39.167 -16.166 58.5 -29.499c-7.33301 32 -18.833 61.5 -34.5 88.5s-35.167 53.5 -58.5 79.5l-130 -70zM389 395.999c-40 13.333 -74.668 20 -104.001 20c-43.333 0 -77.666 -16 -102.999 -48s-38 -77.667 -38 -137
c0 -66.667 11.833 -118.167 35.5 -154.5s54.5 -54.5 92.5 -54.5c42 0 74 20.833 96 62.5s33 103.167 33 184.5c0 38.667 -4 81 -12 127z" />
    <glyph glyph-name="ntilde" unicode="&#xf1;" horiz-adv-x="521" 
d="M46 0c18 30.667 28.501 57.501 31.501 80.501s4.5 44.167 4.5 63.5v191c0 20 -3.16699 38.667 -9.5 56s-16.166 35.666 -29.499 54.999l123 27v-55c36 15.333 67.5 27.666 94.5 36.999s51.833 14 74.5 14c76 0 114 -56.333 114 -169v-156c0 -19.333 1.5 -40.5 4.5 -63.5
s13.833 -49.833 32.5 -80.5h-157c18 31.333 28.667 58.333 32 81s5 43.667 5 63v128c0 26 -2.33301 47.833 -7 65.5s-12.334 31.834 -23.001 42.501s-25 18.334 -43 23.001s-40.333 7 -67 7c-20 0 -40 -1 -60 -3v-263v-6c0 -18.667 1.66699 -38.834 5 -60.501
s13.666 -47.5 30.999 -77.5h-156zM199.001 599.001c-10.667 4.66699 -18.668 7 -24.001 7c-16 0 -42 -18.667 -78 -56c6.66699 33.333 18.667 59 36 77s35.666 27 54.999 27c16.667 0 32.334 -3.33301 47.001 -10l86 -39c9.33301 -4.66699 17.333 -7 24 -7
c16.667 0 42.667 18.667 78 56c-6.66699 -34 -18.667 -59.833 -36 -77.5s-35.666 -26.5 -54.999 -26.5c-17.333 0 -33 3 -47 9z" />
    <glyph glyph-name="ograve" unicode="&#xf2;" horiz-adv-x="537" 
d="M46 227c0 35.333 5.66895 67.8311 17.002 97.498s27.166 55.167 47.499 76.5s44.333 38 72 50s57.5 18 89.5 18c31.333 0 60.333 -6 87 -18s49.834 -28.667 69.501 -50s35 -46.833 46 -76.5s16.5 -62.5 16.5 -98.5c0 -35.333 -5.66699 -67.666 -17 -96.999
s-27 -54.666 -47 -75.999s-43.833 -38 -71.5 -50s-57.834 -18 -90.501 -18c-31.333 0 -60.333 5.83301 -87 17.5s-49.834 28.167 -69.501 49.5s-35 46.833 -46 76.5s-16.5 62.5 -16.5 98.5zM265.002 431.998c-38 0 -67.8311 -16.333 -89.498 -49s-32.5 -80 -32.5 -142
c0 -70 11.667 -124 35 -162s54.666 -57 93.999 -57c38 0 67.833 16.333 89.5 49s32.5 80 32.5 142c0 70 -11.833 124 -35.5 162s-54.834 57 -93.501 57zM94.0039 687.998h136l94 -165z" />
    <glyph glyph-name="oacute" unicode="&#xf3;" horiz-adv-x="537" 
d="M46 227c0 35.333 5.66895 67.8311 17.002 97.498s27.166 55.167 47.499 76.5s44.333 38 72 50s57.5 18 89.5 18c31.333 0 60.333 -6 87 -18s49.834 -28.667 69.501 -50s35 -46.833 46 -76.5s16.5 -62.5 16.5 -98.5c0 -35.333 -5.66699 -67.666 -17 -96.999
s-27 -54.666 -47 -75.999s-43.833 -38 -71.5 -50s-57.834 -18 -90.501 -18c-31.333 0 -60.333 5.83301 -87 17.5s-49.834 28.167 -69.501 49.5s-35 46.833 -46 76.5s-16.5 62.5 -16.5 98.5zM265.002 431.998c-38 0 -67.8311 -16.333 -89.498 -49s-32.5 -80 -32.5 -142
c0 -70 11.667 -124 35 -162s54.666 -57 93.999 -57c38 0 67.833 16.333 89.5 49s32.5 80 32.5 142c0 70 -11.833 124 -35.5 162s-54.834 57 -93.501 57zM306.004 687.998h136l-230 -165z" />
    <glyph glyph-name="ocircumflex" unicode="&#xf4;" horiz-adv-x="537" 
d="M46 227c0 35.333 5.66895 67.8311 17.002 97.498s27.166 55.167 47.499 76.5s44.333 38 72 50s57.5 18 89.5 18c31.333 0 60.333 -6 87 -18s49.834 -28.667 69.501 -50s35 -46.833 46 -76.5s16.5 -62.5 16.5 -98.5c0 -35.333 -5.66699 -67.666 -17 -96.999
s-27 -54.666 -47 -75.999s-43.833 -38 -71.5 -50s-57.834 -18 -90.501 -18c-31.333 0 -60.333 5.83301 -87 17.5s-49.834 28.167 -69.501 49.5s-35 46.833 -46 76.5s-16.5 62.5 -16.5 98.5zM265.002 431.998c-38 0 -67.8311 -16.333 -89.498 -49s-32.5 -80 -32.5 -142
c0 -70 11.667 -124 35 -162s54.666 -57 93.999 -57c38 0 67.833 16.333 89.5 49s32.5 80 32.5 142c0 70 -11.833 124 -35.5 162s-54.834 57 -93.501 57zM268.004 699.998l176 -177l-176 80l-176 -80z" />
    <glyph glyph-name="otilde" unicode="&#xf5;" horiz-adv-x="537" 
d="M46 227c0 35.333 5.66895 67.8311 17.002 97.498s27.166 55.167 47.499 76.5s44.333 38 72 50s57.5 18 89.5 18c31.333 0 60.333 -6 87 -18s49.834 -28.667 69.501 -50s35 -46.833 46 -76.5s16.5 -62.5 16.5 -98.5c0 -35.333 -5.66699 -67.666 -17 -96.999
s-27 -54.666 -47 -75.999s-43.833 -38 -71.5 -50s-57.834 -18 -90.501 -18c-31.333 0 -60.333 5.83301 -87 17.5s-49.834 28.167 -69.501 49.5s-35 46.833 -46 76.5s-16.5 62.5 -16.5 98.5zM265.002 431.998c-38 0 -67.8311 -16.333 -89.498 -49s-32.5 -80 -32.5 -142
c0 -70 11.667 -124 35 -162s54.666 -57 93.999 -57c38 0 67.833 16.333 89.5 49s32.5 80 32.5 142c0 70 -11.833 124 -35.5 162s-54.834 57 -93.501 57zM207.004 598.998c-10.667 4.66699 -18.668 7 -24.001 7c-16 0 -42 -18.667 -78 -56c6.66699 33.333 18.667 59 36 77
s35.666 27 54.999 27c16.667 0 32.334 -3.33301 47.001 -10l86 -39c9.33301 -4.66699 17.333 -7 24 -7c16.667 0 42.667 18.667 78 56c-6.66699 -34 -18.667 -59.833 -36 -77.5s-35.666 -26.5 -54.999 -26.5c-17.333 0 -33 3 -47 9z" />
    <glyph glyph-name="odieresis" unicode="&#xf6;" horiz-adv-x="537" 
d="M46 227c0 35.333 5.66895 67.8311 17.002 97.498s27.166 55.167 47.499 76.5s44.333 38 72 50s57.5 18 89.5 18c31.333 0 60.333 -6 87 -18s49.834 -28.667 69.501 -50s35 -46.833 46 -76.5s16.5 -62.5 16.5 -98.5c0 -35.333 -5.66699 -67.666 -17 -96.999
s-27 -54.666 -47 -75.999s-43.833 -38 -71.5 -50s-57.834 -18 -90.501 -18c-31.333 0 -60.333 5.83301 -87 17.5s-49.834 28.167 -69.501 49.5s-35 46.833 -46 76.5s-16.5 62.5 -16.5 98.5zM265.002 431.998c-38 0 -67.8311 -16.333 -89.498 -49s-32.5 -80 -32.5 -142
c0 -70 11.667 -124 35 -162s54.666 -57 93.999 -57c38 0 67.833 16.333 89.5 49s32.5 80 32.5 142c0 70 -11.833 124 -35.5 162s-54.834 57 -93.501 57zM152.004 652.998c36 0 53.999 -17.668 53.999 -53.001c0 -15.333 -4.66699 -27.5 -14 -36.5
s-22.666 -13.5 -39.999 -13.5c-33.333 0 -50 16.333 -50 49c0 16.667 4.5 29.834 13.5 39.501s21.167 14.5 36.5 14.5zM378.003 652.997c36 0 54 -17.668 54 -53.001c0 -15.333 -4.66699 -27.5 -14 -36.5s-22.666 -13.5 -39.999 -13.5c-34 0 -51 16.333 -51 49
c0 16.667 4.66699 29.834 14 39.501s21.666 14.5 36.999 14.5z" />
    <glyph glyph-name="divide" unicode="&#xf7;" horiz-adv-x="512" 
d="M256 451c-14 0 -25.501 4.5 -34.501 13.5s-13.5 21.167 -13.5 36.5c0 14.667 4.33301 26.667 13 36s20.334 14 35.001 14c15.333 0 27.166 -4.66699 35.499 -14s12.5 -21.333 12.5 -36s-4.16699 -26.667 -12.5 -36s-20.166 -14 -35.499 -14zM45.999 350h420v-54h-420v54z
M255.999 96c-14 0 -25.501 4.5 -34.501 13.5s-13.5 20.833 -13.5 35.5c0 15.333 4.33301 27.5 13 36.5s20.334 13.5 35.001 13.5c15.333 0 27.166 -4.5 35.499 -13.5s12.5 -21.167 12.5 -36.5c0 -14.667 -4.16699 -26.5 -12.5 -35.5s-20.166 -13.5 -35.499 -13.5z" />
    <glyph glyph-name="oslash" unicode="&#xf8;" horiz-adv-x="537" 
d="M67 -52l56 89.999c-51.333 48.667 -77 111.667 -77 189c0 35.333 5.66699 67.833 17 97.5s27.166 55.167 47.499 76.5s44.333 38 72 50s57.5 18 89.5 18c36.667 0 71.334 -9.66699 104.001 -29l54 82l30 -16l-53 -86c56 -47.333 84 -111.666 84 -192.999
c0 -35.333 -5.66699 -67.833 -17 -97.5s-27.166 -55.167 -47.499 -76.5s-44.333 -38 -72 -50s-57.834 -18 -90.501 -18c-40 0 -77.333 10.333 -112 31l-56 -87zM346 391.999c-18.667 26.667 -45 39.999 -79 39.999c-38.667 0 -69 -16.167 -91 -48.5
s-33 -79.166 -33 -140.499c0 -42 7.66699 -87.667 23 -137zM184 69.998c22.667 -32 51.3311 -48 85.998 -48c38.667 0 68.834 16.5 90.501 49.5s32.5 81.167 32.5 144.5c0 28 -2.16699 53.5 -6.5 76.5s-11.166 44.167 -20.499 63.5z" />
    <glyph glyph-name="ugrave" unicode="&#xf9;" horiz-adv-x="521" 
d="M355 50c-33.333 -18.667 -63.335 -32.8369 -90.002 -42.5039s-51.667 -14.5 -75 -14.5c-22.667 0 -41.5 3 -56.5 9s-27 15.333 -36 28s-15.333 28.834 -19 48.501s-5.5 42.834 -5.5 69.501v187c0 35.333 -13.333 72.333 -40 111l123 27v-276
c0 -26 1.33301 -48.167 4 -66.5s8.33398 -33.333 17.001 -45s21.334 -20 38.001 -25s38.667 -7.5 66 -7.5c10.667 0 22 0.5 34 1.5l40 3.5v277c0 35.333 -13.333 72.333 -40 111l124 27v-346c0 -19.333 3.33301 -37.666 10 -54.999s16.667 -35.666 30 -54.999l-124 -28v61z
M85.998 687.997h136l94 -165z" />
    <glyph glyph-name="uacute" unicode="&#xfa;" horiz-adv-x="521" 
d="M355 50c-33.333 -18.667 -63.335 -32.8369 -90.002 -42.5039s-51.667 -14.5 -75 -14.5c-22.667 0 -41.5 3 -56.5 9s-27 15.333 -36 28s-15.333 28.834 -19 48.501s-5.5 42.834 -5.5 69.501v187c0 35.333 -13.333 72.333 -40 111l123 27v-276
c0 -26 1.33301 -48.167 4 -66.5s8.33398 -33.333 17.001 -45s21.334 -20 38.001 -25s38.667 -7.5 66 -7.5c10.667 0 22 0.5 34 1.5l40 3.5v277c0 35.333 -13.333 72.333 -40 111l124 27v-346c0 -19.333 3.33301 -37.666 10 -54.999s16.667 -35.666 30 -54.999l-124 -28v61z
M297.998 687.997h136l-230 -165z" />
    <glyph glyph-name="ucircumflex" unicode="&#xfb;" horiz-adv-x="521" 
d="M355 50c-33.333 -18.667 -63.335 -32.8369 -90.002 -42.5039s-51.667 -14.5 -75 -14.5c-22.667 0 -41.5 3 -56.5 9s-27 15.333 -36 28s-15.333 28.834 -19 48.501s-5.5 42.834 -5.5 69.501v187c0 35.333 -13.333 72.333 -40 111l123 27v-276
c0 -26 1.33301 -48.167 4 -66.5s8.33398 -33.333 17.001 -45s21.334 -20 38.001 -25s38.667 -7.5 66 -7.5c10.667 0 22 0.5 34 1.5l40 3.5v277c0 35.333 -13.333 72.333 -40 111l124 27v-346c0 -19.333 3.33301 -37.666 10 -54.999s16.667 -35.666 30 -54.999l-124 -28v61z
M259.998 699.997l176 -177l-176 80l-176 -80z" />
    <glyph glyph-name="udieresis" unicode="&#xfc;" horiz-adv-x="521" 
d="M355 50c-33.333 -18.667 -63.335 -32.8369 -90.002 -42.5039s-51.667 -14.5 -75 -14.5c-22.667 0 -41.5 3 -56.5 9s-27 15.333 -36 28s-15.333 28.834 -19 48.501s-5.5 42.834 -5.5 69.501v187c0 35.333 -13.333 72.333 -40 111l123 27v-276
c0 -26 1.33301 -48.167 4 -66.5s8.33398 -33.333 17.001 -45s21.334 -20 38.001 -25s38.667 -7.5 66 -7.5c10.667 0 22 0.5 34 1.5l40 3.5v277c0 35.333 -13.333 72.333 -40 111l124 27v-346c0 -19.333 3.33301 -37.666 10 -54.999s16.667 -35.666 30 -54.999l-124 -28v61z
M143.998 652.997c36 0 53.999 -17.668 53.999 -53.001c0 -15.333 -4.66699 -27.5 -14 -36.5s-22.666 -13.5 -39.999 -13.5c-33.333 0 -50 16.333 -50 49c0 16.667 4.5 29.834 13.5 39.501s21.167 14.5 36.5 14.5zM369.997 652.996c36 0 54 -17.668 54 -53.001
c0 -15.333 -4.66699 -27.5 -14 -36.5s-22.666 -13.5 -39.999 -13.5c-34 0 -51 16.333 -51 49c0 16.667 4.66699 29.834 14 39.501s21.666 14.5 36.999 14.5z" />
    <glyph glyph-name="yacute" unicode="&#xfd;" horiz-adv-x="442" 
d="M14 -94l60.998 -52.001c5.33301 -4.66699 11 -8.16699 17 -10.5s10.667 -3.5 14 -3.5c34 0 67.667 50.667 101 152l-148 365c-6.66699 15.333 -14.5 32 -23.5 50s-24.167 36.667 -45.5 56h178c-20 -24 -30 -43 -30 -57c0 -4.66699 0.833008 -9.5 2.5 -14.5l5.5 -16.5
l104 -284l87 285c4.66699 14.667 7 26.334 7 35.001c0 7.33301 -2.16699 15 -6.5 23s-10.5 17.667 -18.5 29h137c-16.667 -16 -30.167 -33 -40.5 -51s-19.5 -37.667 -27.5 -59l-157 -425c-17.333 -46 -38.166 -80 -62.499 -102s-54.166 -33 -89.499 -33
c-8 0 -17.5 0.5 -28.5 1.5s-23.167 2.83301 -36.5 5.5v106zM259.998 687.999h136l-230 -165z" />
    <glyph glyph-name="thorn" unicode="&#xfe;" horiz-adv-x="532" 
d="M46 -206c18 30.667 28.5029 57.502 31.5029 80.502s4.5 44.167 4.5 63.5v603c0 26 -3.66699 49.833 -11 71.5s-18.333 44.5 -33 68.5l128 27v-293c28 20 54.167 34.667 78.5 44s45.833 14 64.5 14c24.667 0 48 -5.5 70 -16.5s41.167 -26.333 57.5 -46
s29.166 -43.334 38.499 -71.001s14 -58.167 14 -91.5c0 -36 -5.83301 -69.667 -17.5 -101s-27.334 -58.5 -47.001 -81.5s-42.5 -41 -68.5 -54s-53 -19.5 -81 -19.5c-38.667 0 -75 11 -109 33v-87v-6c0 -18.667 1.66699 -38.834 5 -60.501s13.666 -47.5 30.999 -77.5h-156z
M166.003 54.002c23.333 -10.667 48.666 -16.001 75.999 -16.001c47.333 0 85 17 113 51s42 81 42 141c0 60.667 -14.5 106.334 -43.5 137.001s-72.5 46 -130.5 46c-9.33301 0 -18.666 -0.666992 -27.999 -2s-19 -3 -29 -5v-352z" />
    <glyph glyph-name="ydieresis" unicode="&#xff;" horiz-adv-x="442" 
d="M14 -94l60.998 -52.001c5.33301 -4.66699 11 -8.16699 17 -10.5s10.667 -3.5 14 -3.5c34 0 67.667 50.667 101 152l-148 365c-6.66699 15.333 -14.5 32 -23.5 50s-24.167 36.667 -45.5 56h178c-20 -24 -30 -43 -30 -57c0 -4.66699 0.833008 -9.5 2.5 -14.5l5.5 -16.5
l104 -284l87 285c4.66699 14.667 7 26.334 7 35.001c0 7.33301 -2.16699 15 -6.5 23s-10.5 17.667 -18.5 29h137c-16.667 -16 -30.167 -33 -40.5 -51s-19.5 -37.667 -27.5 -59l-157 -425c-17.333 -46 -38.166 -80 -62.499 -102s-54.166 -33 -89.499 -33
c-8 0 -17.5 0.5 -28.5 1.5s-23.167 2.83301 -36.5 5.5v106zM105.998 652.999c36 0 53.999 -17.668 53.999 -53.001c0 -15.333 -4.66699 -27.5 -14 -36.5s-22.666 -13.5 -39.999 -13.5c-33.333 0 -50 16.333 -50 49c0 16.667 4.5 29.834 13.5 39.501s21.167 14.5 36.5 14.5z
M331.997 652.998c36 0 54 -17.668 54 -53.001c0 -15.333 -4.66699 -27.5 -14 -36.5s-22.666 -13.5 -39.999 -13.5c-34 0 -51 16.333 -51 49c0 16.667 4.66699 29.834 14 39.501s21.666 14.5 36.999 14.5z" />
    <glyph glyph-name="Amacron" unicode="&#x100;" horiz-adv-x="562" 
d="M-24 0c18 17.333 33.501 38.168 46.501 62.501s25.5 52.166 37.5 83.499l192 497l68 24l178 -524c10 -30 21.333 -56.833 34 -80.5s28.667 -44.5 48 -62.5h-179c20 25.333 30 44.666 30 57.999c0 8.66699 -3.66699 23.334 -11 44.001l-54 162h-201l-59 -172
c-5.33301 -14 -8 -26.333 -8 -37c0 -9.33301 2.66699 -18.333 8 -27s12.666 -18 21.999 -28h-152zM352.001 306.002l-83 259l-88 -259h171zM114.001 823.002h331v-51h-331v51z" />
    <glyph glyph-name="amacron" unicode="&#x101;" horiz-adv-x="456" 
d="M323 -11c-10.667 18.667 -17.334 36.998 -20.001 54.998c-31.333 -16.667 -58 -30.167 -80 -40.5s-41.667 -15.5 -59 -15.5c-16.667 0 -32.5 3.33301 -47.5 10s-28 15.834 -39 27.501s-19.833 25.5 -26.5 41.5s-10 33.333 -10 52c0 46.667 17 80.5 51 101.5
s86.333 31.5 157 31.5c8 0 16.333 -0.166992 25 -0.5s17.667 -0.833008 27 -1.5v91c0 29.333 -6.5 51.666 -19.5 66.999s-30.833 23 -53.5 23c-14.667 0 -33.334 -8.5 -56.001 -25.5s-52 -40.5 -88 -70.5v105c35.333 10 67.333 17.333 96 22s54.667 7 78 7
c28 0 50.333 -2.66699 67 -8s29.334 -13.666 38.001 -24.999s14.334 -26.166 17.001 -44.499s4 -40.5 4 -66.5v-167v-7c0 -11.333 0.333008 -22.5 1 -33.5s2.16699 -22 4.5 -33s6.33301 -22.167 12 -33.5s13.5 -23 23.5 -35zM301 223.998
c-58 -4.66699 -100.667 -13.167 -128 -25.5s-41 -33.833 -41 -64.5c0 -26.667 9.5 -47.5 28.5 -62.5s46.167 -22.5 81.5 -22.5c12 0 31.667 1 59 3v172zM62 626.998h331v-51h-331v51z" />
    <glyph glyph-name="Abreve" unicode="&#x102;" horiz-adv-x="562" 
d="M-24 0c18 17.333 33.501 38.168 46.501 62.501s25.5 52.166 37.5 83.499l192 497l68 24l178 -524c10 -30 21.333 -56.833 34 -80.5s28.667 -44.5 48 -62.5h-179c20 25.333 30 44.666 30 57.999c0 8.66699 -3.66699 23.334 -11 44.001l-54 162h-201l-59 -172
c-5.33301 -14 -8 -26.333 -8 -37c0 -9.33301 2.66699 -18.333 8 -27s12.666 -18 21.999 -28h-152zM352.001 306.002l-83 259l-88 -259h171zM124.001 861.002c26.667 -20 52.167 -35.001 76.5 -45.001s50.5 -15 78.5 -15c30 0 57.833 4.83301 83.5 14.5
s51.167 24.834 76.5 45.501c-13.333 -42 -33.333 -73.667 -60 -95s-59 -32 -97 -32c-81.333 0 -134 42.333 -158 127z" />
    <glyph glyph-name="abreve" unicode="&#x103;" horiz-adv-x="456" 
d="M323 -11c-10.667 18.667 -17.334 36.998 -20.001 54.998c-31.333 -16.667 -58 -30.167 -80 -40.5s-41.667 -15.5 -59 -15.5c-16.667 0 -32.5 3.33301 -47.5 10s-28 15.834 -39 27.501s-19.833 25.5 -26.5 41.5s-10 33.333 -10 52c0 46.667 17 80.5 51 101.5
s86.333 31.5 157 31.5c8 0 16.333 -0.166992 25 -0.5s17.667 -0.833008 27 -1.5v91c0 29.333 -6.5 51.666 -19.5 66.999s-30.833 23 -53.5 23c-14.667 0 -33.334 -8.5 -56.001 -25.5s-52 -40.5 -88 -70.5v105c35.333 10 67.333 17.333 96 22s54.667 7 78 7
c28 0 50.333 -2.66699 67 -8s29.334 -13.666 38.001 -24.999s14.334 -26.166 17.001 -44.499s4 -40.5 4 -66.5v-167v-7c0 -11.333 0.333008 -22.5 1 -33.5s2.16699 -22 4.5 -33s6.33301 -22.167 12 -33.5s13.5 -23 23.5 -35zM301 223.998
c-58 -4.66699 -100.667 -13.167 -128 -25.5s-41 -33.833 -41 -64.5c0 -26.667 9.5 -47.5 28.5 -62.5s46.167 -22.5 81.5 -22.5c12 0 31.667 1 59 3v172zM72 664.998c26.667 -20 52.167 -35.001 76.5 -45.001s50.5 -15 78.5 -15c30 0 57.833 4.83301 83.5 14.5
s51.167 24.834 76.5 45.501c-13.333 -42 -33.333 -73.667 -60 -95s-59 -32 -97 -32c-81.333 0 -134 42.333 -158 127z" />
    <glyph glyph-name="Aogonek" unicode="&#x104;" horiz-adv-x="562" 
d="M-24 0c18 17.333 33.501 38.166 46.501 62.499s25.5 52.166 37.5 83.499l192 497l68 24l178 -524c10 -30 21.333 -56.833 34 -80.5s28.667 -44.5 48 -62.5h-108c-10 -14 -17 -28.167 -21 -42.5s-6 -30.166 -6 -47.499c0 -39.333 15.667 -72.666 47 -99.999
c-40.667 1.33301 -72.667 11.5 -96 30.5s-35 42.5 -35 70.5c0 22.667 8 41.667 24 57s39.667 26 71 32h-55c20 25.333 30 44.666 30 57.999c0 8.66699 -3.66699 23.334 -11 44.001l-54 162h-201l-59 -172c-5.33301 -14 -8 -26.333 -8 -37c0 -9.33301 2.66699 -18.333 8 -27
s12.666 -18 21.999 -28h-152zM352.001 306l-83 259l-88 -259h171z" />
    <glyph glyph-name="aogonek" unicode="&#x105;" horiz-adv-x="456" 
d="M328 -9c-7.33301 -12.667 -12.501 -25.5039 -15.501 -38.5039s-4.5 -27.167 -4.5 -42.5c0 -39.333 15.667 -72.666 47 -99.999c-40.667 1.33301 -72.667 11.5 -96 30.5s-35 42.5 -35 70.5c0 46 31 75.667 93 89c-7.33301 14.667 -12 29.334 -14 44.001
c-31.333 -16.667 -58 -30.167 -80 -40.5s-41.667 -15.5 -59 -15.5c-16.667 0 -32.5 3.33301 -47.5 10s-28 15.834 -39 27.501s-19.833 25.5 -26.5 41.5s-10 33.333 -10 52c0 46.667 17 80.5 51 101.5s86.333 31.5 157 31.5c8 0 16.333 -0.166992 25 -0.5
s17.667 -0.833008 27 -1.5v91c0 29.333 -6.5 51.666 -19.5 66.999s-30.833 23 -53.5 23c-14.667 0 -33.334 -8.5 -56.001 -25.5s-52 -40.5 -88 -70.5v105c35.333 10 67.333 17.333 96 22s54.667 7 78 7c28 0 50.333 -2.66699 67 -8s29.334 -13.666 38.001 -24.999
s14.334 -26.166 17.001 -44.499s4 -40.5 4 -66.5v-174c0 -11.333 0.333008 -22.5 1 -33.5s2.16699 -22 4.5 -33s6.33301 -22.167 12 -33.5s13.5 -23 23.5 -35zM300.999 223.996c-58 -4.66699 -100.667 -13.167 -128 -25.5s-41 -33.833 -41 -64.5
c0 -26.667 9.5 -47.5 28.5 -62.5s46.167 -22.5 81.5 -22.5c12 0 31.667 1 59 3v172z" />
    <glyph glyph-name="Cacute" unicode="&#x106;" horiz-adv-x="566" 
d="M540 130l-17.002 -124.002c-59.333 -14 -113.666 -21 -162.999 -21c-103.333 0 -181.666 27.667 -234.999 83s-80 136 -80 242c0 54 7.66699 102.833 23 146.5s37 81 65 112s61.833 54.833 101.5 71.5s84.167 25 133.5 25c25.333 0 51.5 -1.66699 78.5 -5
s55.5 -8.33301 85.5 -15v-116l-106 78c-9.33301 6.66699 -18.5 10.834 -27.5 12.501s-19.167 2.5 -30.5 2.5c-66.667 0 -120 -26.167 -160 -78.5s-60 -127.166 -60 -224.499c0 -93.333 19.167 -165.5 57.5 -216.5s90.833 -76.5 157.5 -76.5c28 0 47.333 4.33301 58 13z
M404.998 883.998h136l-230 -165z" />
    <glyph glyph-name="cacute" unicode="&#x107;" horiz-adv-x="428" 
d="M307 413c-16.667 11.333 -30.999 17 -42.999 17c-16 0 -31.667 -4.5 -47 -13.5s-28.833 -22 -40.5 -39s-21 -37.333 -28 -61s-10.5 -50.5 -10.5 -80.5c0 -126.667 62.667 -190 188 -190c20 0 39.167 0.666992 57.5 2s35.833 3.33301 52.5 6
c-54.667 -44.667 -115 -67 -181 -67c-30 0 -57.833 5.33301 -83.5 16s-47.834 25.667 -66.501 45s-33.167 42.333 -43.5 69s-15.5 56 -15.5 88c0 40 6 76.167 18 108.5s28.667 60 50 83s46.833 40.833 76.5 53.5s62.5 19 98.5 19c19.333 0 38.5 -1.5 57.5 -4.5
s39.167 -7.16699 60.5 -12.5v-108zM313.001 688h136l-230 -165z" />
    <glyph glyph-name="Ccircumflex" unicode="&#x108;" horiz-adv-x="566" 
d="M540 130l-17.002 -124.002c-59.333 -14 -113.666 -21 -162.999 -21c-103.333 0 -181.666 27.667 -234.999 83s-80 136 -80 242c0 54 7.66699 102.833 23 146.5s37 81 65 112s61.833 54.833 101.5 71.5s84.167 25 133.5 25c25.333 0 51.5 -1.66699 78.5 -5
s55.5 -8.33301 85.5 -15v-116l-106 78c-9.33301 6.66699 -18.5 10.834 -27.5 12.501s-19.167 2.5 -30.5 2.5c-66.667 0 -120 -26.167 -160 -78.5s-60 -127.166 -60 -224.499c0 -93.333 19.167 -165.5 57.5 -216.5s90.833 -76.5 157.5 -76.5c28 0 47.333 4.33301 58 13z
M366.998 895.998l176 -177l-176 80l-176 -80z" />
    <glyph glyph-name="ccircumflex" unicode="&#x109;" horiz-adv-x="428" 
d="M307 413c-16.667 11.333 -30.999 17 -42.999 17c-16 0 -31.667 -4.5 -47 -13.5s-28.833 -22 -40.5 -39s-21 -37.333 -28 -61s-10.5 -50.5 -10.5 -80.5c0 -126.667 62.667 -190 188 -190c20 0 39.167 0.666992 57.5 2s35.833 3.33301 52.5 6
c-54.667 -44.667 -115 -67 -181 -67c-30 0 -57.833 5.33301 -83.5 16s-47.834 25.667 -66.501 45s-33.167 42.333 -43.5 69s-15.5 56 -15.5 88c0 40 6 76.167 18 108.5s28.667 60 50 83s46.833 40.833 76.5 53.5s62.5 19 98.5 19c19.333 0 38.5 -1.5 57.5 -4.5
s39.167 -7.16699 60.5 -12.5v-108zM275.001 700l176 -177l-176 80l-176 -80z" />
    <glyph glyph-name="Cdotaccent" unicode="&#x10a;" horiz-adv-x="566" 
d="M540 130l-17.002 -124.002c-59.333 -14 -113.666 -21 -162.999 -21c-103.333 0 -181.666 27.667 -234.999 83s-80 136 -80 242c0 54 7.66699 102.833 23 146.5s37 81 65 112s61.833 54.833 101.5 71.5s84.167 25 133.5 25c25.333 0 51.5 -1.66699 78.5 -5
s55.5 -8.33301 85.5 -15v-116l-106 78c-9.33301 6.66699 -18.5 10.834 -27.5 12.501s-19.167 2.5 -30.5 2.5c-66.667 0 -120 -26.167 -160 -78.5s-60 -127.166 -60 -224.499c0 -93.333 19.167 -165.5 57.5 -216.5s90.833 -76.5 157.5 -76.5c28 0 47.333 4.33301 58 13z
M364.998 854.998c39.333 0 59 -20.001 59 -60.001c0 -17.333 -5 -30.666 -15 -39.999s-24.333 -14 -43 -14c-37.333 0 -56 18 -56 54c0 18 5.16699 32.5 15.5 43.5s23.5 16.5 39.5 16.5z" />
    <glyph glyph-name="cdotaccent" unicode="&#x10b;" horiz-adv-x="428" 
d="M307 413c-16.667 11.333 -30.999 17 -42.999 17c-16 0 -31.667 -4.5 -47 -13.5s-28.833 -22 -40.5 -39s-21 -37.333 -28 -61s-10.5 -50.5 -10.5 -80.5c0 -126.667 62.667 -190 188 -190c20 0 39.167 0.666992 57.5 2s35.833 3.33301 52.5 6
c-54.667 -44.667 -115 -67 -181 -67c-30 0 -57.833 5.33301 -83.5 16s-47.834 25.667 -66.501 45s-33.167 42.333 -43.5 69s-15.5 56 -15.5 88c0 40 6 76.167 18 108.5s28.667 60 50 83s46.833 40.833 76.5 53.5s62.5 19 98.5 19c19.333 0 38.5 -1.5 57.5 -4.5
s39.167 -7.16699 60.5 -12.5v-108zM273.001 659c39.333 0 59 -20.001 59 -60.001c0 -17.333 -5 -30.666 -15 -39.999s-24.333 -14 -43 -14c-37.333 0 -56 18 -56 54c0 18 5.16699 32.5 15.5 43.5s23.5 16.5 39.5 16.5z" />
    <glyph glyph-name="Ccaron" unicode="&#x10c;" horiz-adv-x="566" 
d="M540 130l-17.002 -124.002c-59.333 -14 -113.666 -21 -162.999 -21c-103.333 0 -181.666 27.667 -234.999 83s-80 136 -80 242c0 54 7.66699 102.833 23 146.5s37 81 65 112s61.833 54.833 101.5 71.5s84.167 25 133.5 25c25.333 0 51.5 -1.66699 78.5 -5
s55.5 -8.33301 85.5 -15v-116l-106 78c-9.33301 6.66699 -18.5 10.834 -27.5 12.501s-19.167 2.5 -30.5 2.5c-66.667 0 -120 -26.167 -160 -78.5s-60 -127.166 -60 -224.499c0 -93.333 19.167 -165.5 57.5 -216.5s90.833 -76.5 157.5 -76.5c28 0 47.333 4.33301 58 13z
M190.998 892.998l176 -81l176 81l-176 -177z" />
    <glyph glyph-name="ccaron" unicode="&#x10d;" horiz-adv-x="428" 
d="M307 413c-16.667 11.333 -30.999 17 -42.999 17c-16 0 -31.667 -4.5 -47 -13.5s-28.833 -22 -40.5 -39s-21 -37.333 -28 -61s-10.5 -50.5 -10.5 -80.5c0 -126.667 62.667 -190 188 -190c20 0 39.167 0.666992 57.5 2s35.833 3.33301 52.5 6
c-54.667 -44.667 -115 -67 -181 -67c-30 0 -57.833 5.33301 -83.5 16s-47.834 25.667 -66.501 45s-33.167 42.333 -43.5 69s-15.5 56 -15.5 88c0 40 6 76.167 18 108.5s28.667 60 50 83s46.833 40.833 76.5 53.5s62.5 19 98.5 19c19.333 0 38.5 -1.5 57.5 -4.5
s39.167 -7.16699 60.5 -12.5v-108zM99.001 697l176 -81l176 81l-176 -177z" />
    <glyph glyph-name="Dcaron" unicode="&#x10e;" horiz-adv-x="646" 
d="M53 0c18 30.667 28.501 57.5 31.501 80.5s4.5 44.167 4.5 63.5v367c0 10 -0.166992 20.167 -0.5 30.5s-1.66602 21.333 -3.99902 33s-6 24.167 -11 37.5s-11.833 27.666 -20.5 42.999h232c103.333 0 181.166 -26 233.499 -78s78.5 -128 78.5 -228
c0 -113.333 -29.667 -200.666 -89 -261.999c-19.333 -20 -38.833 -35.667 -58.5 -47s-40.334 -20 -62.001 -26s-44.5 -9.83301 -68.5 -11.5s-49.667 -2.5 -77 -2.5h-189zM264.001 44c77.333 0 135.667 23.8311 175 71.498s59 118.834 59 213.501
c0 90.667 -18.5 160.334 -55.5 209.001s-90.833 73 -161.5 73h-105v-567h88zM127.002 892.998l176 -81l176 81l-176 -177z" />
    <glyph glyph-name="dcaron" unicode="&#x10f;" horiz-adv-x="551" 
d="M367 45c-28.667 -20 -55.166 -34.668 -79.499 -44.001s-45.833 -14 -64.5 -14c-24.667 0 -47.834 5.5 -69.501 16.5s-40.667 26.333 -57 46s-29.166 43.334 -38.499 71.001s-14 58.167 -14 91.5c0 36 5.83301 69.5 17.5 100.5s27.167 58 46.5 81s42 41.167 68 54.5
s53 20 81 20c39.333 0 76 -10.667 110 -32v107c0 26 -4 49 -12 69s-19.667 42.333 -35 67l130 30v-551c0 -12.667 0.166992 -25 0.5 -37s1.83301 -24 4.5 -36s6.66699 -24 12 -36s12.666 -24.333 21.999 -37l-122 -26v59zM367.001 405.999
c-23.333 10.667 -48.999 16 -76.999 16c-47.333 0 -85 -16.667 -113 -50s-42 -80.333 -42 -141s14.833 -106.5 44.5 -137.5s73.167 -46.5 130.5 -46.5c9.33301 0 18.666 0.666992 27.999 2s19 3 29 5v352zM495.002 509.999c24.667 26.667 38.333 57.333 41 92
c-14.667 0 -26 4.5 -34 13.5s-12 20.5 -12 34.5c0 16 4.5 29 13.5 39s21.833 15 38.5 15c20 0 34.667 -6.16699 44 -18.5s14 -27.833 14 -46.5c0 -31.333 -10 -58.833 -30 -82.5s-45 -39.167 -75 -46.5z" />
    <glyph glyph-name="Dcroat" unicode="&#x110;" horiz-adv-x="646" 
d="M53 0c18 30.667 28.501 57.5 31.501 80.5s4.5 44.167 4.5 63.5v180h-87v49h87v138c0 10 -0.166992 20.167 -0.5 30.5s-1.66602 21.333 -3.99902 33s-6 24.167 -11 37.5s-11.833 27.666 -20.5 42.999h232c103.333 0 181.166 -26 233.499 -78s78.5 -128 78.5 -228
c0 -113.333 -29.667 -200.666 -89 -261.999c-19.333 -20 -38.833 -35.667 -58.5 -47s-40.334 -20 -62.001 -26s-44.5 -9.83301 -68.5 -11.5s-49.667 -2.5 -77 -2.5h-189zM264.001 44c77.333 0 135.667 23.8311 175 71.498s59 118.834 59 213.501
c0 90.667 -18.5 160.334 -55.5 209.001s-90.833 73 -161.5 73h-105v-238h132v-49h-132v-280h88z" />
    <glyph glyph-name="dcroat" unicode="&#x111;" horiz-adv-x="532" 
d="M367 406c-24 10.667 -49.666 16.001 -76.999 16.001c-28 0 -51.667 -5.33301 -71 -16s-35.333 -24.834 -48 -42.501s-21.834 -38 -27.501 -61s-8.5 -46.833 -8.5 -71.5c0 -58 14.333 -103.167 43 -135.5s72.667 -48.5 132 -48.5c9.33301 0 18.833 0.666992 28.5 2
s19.167 3 28.5 5v352zM367.001 45.001c-10 -6.66699 -20.832 -13.5 -32.499 -20.5s-23.667 -13.167 -36 -18.5s-25 -9.83301 -38 -13.5s-25.5 -5.5 -37.5 -5.5c-30 0 -56.167 6.66699 -78.5 20s-41 30.833 -56 52.5s-26.167 45.834 -33.5 72.501s-11 53.334 -11 80.001
c0 34 5.16699 66.167 15.5 96.5s26.166 58.166 47.499 83.499c19.333 23.333 41.333 41.833 66 55.5s52.667 20.5 84 20.5c38.667 0 75.334 -10.667 110.001 -32v108h-161v42h157c-1.33301 6.66699 -3.5 14.167 -6.5 22.5s-6.66699 16.666 -11 24.999
s-8.83301 16.5 -13.5 24.5l-12 21l130 30v-123h87v-42h-87v-416c0 -22 3.16699 -42.333 9.5 -61s16.166 -37 29.499 -55l-122 -26v59z" />
    <glyph glyph-name="Emacron" unicode="&#x112;" horiz-adv-x="509" 
d="M57 0c18.667 32.667 29.501 60.5 32.501 83.5s4.5 43.5 4.5 61.5v367c0 20.667 -1.83301 42.334 -5.5 65.001s-14.167 48.667 -31.5 78h401v-126l-94 72c-12 9.33301 -28.333 14 -49 14h-132v-267h122c4.66699 0 12 1.83301 22 5.5s19 8.16699 27 13.5l58 42v-153l-56 40
c-10.667 7.33301 -21 11.666 -31 12.999s-20.667 2 -32 2h-110v-273h144c11.333 0 20.166 2.16699 26.499 6.5l22.5 15.5l98 73l-19 -133h-398zM107.001 823h331v-51h-331v51z" />
    <glyph glyph-name="emacron" unicode="&#x113;" horiz-adv-x="484" 
d="M344 304c-0.666992 85.333 -31 128 -91 128c-34 0 -61 -13 -81 -39s-31 -64 -33 -114zM138 252v-3c0 -70 16.667 -121.167 50 -153.5s85.333 -48.5 156 -48.5c30.667 0 65.667 4 105 12c-52.667 -46.667 -116 -70 -190 -70c-31.333 0 -60 5.33301 -86 16
s-48.167 26 -66.5 46s-32.5 44.333 -42.5 73s-15 61 -15 97c0 69.333 19.667 127.333 59 174c20 23.333 43.667 41.5 71 54.5s55 19.5 83 19.5c58 0 102.5 -18.333 133.5 -55s47.5 -90.667 49.5 -162h-307zM95 627h331v-51h-331v51z" />
    <glyph glyph-name="Ebreve" unicode="&#x114;" horiz-adv-x="509" 
d="M57 0c18.667 32.667 29.501 60.5 32.501 83.5s4.5 43.5 4.5 61.5v367c0 20.667 -1.83301 42.334 -5.5 65.001s-14.167 48.667 -31.5 78h401v-126l-94 72c-12 9.33301 -28.333 14 -49 14h-132v-267h122c4.66699 0 12 1.83301 22 5.5s19 8.16699 27 13.5l58 42v-153l-56 40
c-10.667 7.33301 -21 11.666 -31 12.999s-20.667 2 -32 2h-110v-273h144c11.333 0 20.166 2.16699 26.499 6.5l22.5 15.5l98 73l-19 -133h-398zM117.001 861c26.667 -20 52.167 -35.001 76.5 -45.001s50.5 -15 78.5 -15c30 0 57.833 4.83301 83.5 14.5
s51.167 24.834 76.5 45.501c-13.333 -42 -33.333 -73.667 -60 -95s-59 -32 -97 -32c-81.333 0 -134 42.333 -158 127z" />
    <glyph glyph-name="ebreve" unicode="&#x115;" horiz-adv-x="484" 
d="M344 304c-0.666992 85.333 -31 128 -91 128c-34 0 -61 -13 -81 -39s-31 -64 -33 -114zM138 252v-3c0 -70 16.667 -121.167 50 -153.5s85.333 -48.5 156 -48.5c30.667 0 65.667 4 105 12c-52.667 -46.667 -116 -70 -190 -70c-31.333 0 -60 5.33301 -86 16
s-48.167 26 -66.5 46s-32.5 44.333 -42.5 73s-15 61 -15 97c0 69.333 19.667 127.333 59 174c20 23.333 43.667 41.5 71 54.5s55 19.5 83 19.5c58 0 102.5 -18.333 133.5 -55s47.5 -90.667 49.5 -162h-307zM105 665c26.667 -20 52.167 -35.001 76.5 -45.001
s50.5 -15 78.5 -15c30 0 57.833 4.83301 83.5 14.5s51.167 24.834 76.5 45.501c-13.333 -42 -33.333 -73.667 -60 -95s-59 -32 -97 -32c-81.333 0 -134 42.333 -158 127z" />
    <glyph glyph-name="Edotaccent" unicode="&#x116;" horiz-adv-x="509" 
d="M57 0c18.667 32.667 29.501 60.5 32.501 83.5s4.5 43.5 4.5 61.5v367c0 20.667 -1.83301 42.334 -5.5 65.001s-14.167 48.667 -31.5 78h401v-126l-94 72c-12 9.33301 -28.333 14 -49 14h-132v-267h122c4.66699 0 12 1.83301 22 5.5s19 8.16699 27 13.5l58 42v-153l-56 40
c-10.667 7.33301 -21 11.666 -31 12.999s-20.667 2 -32 2h-110v-273h144c11.333 0 20.166 2.16699 26.499 6.5l22.5 15.5l98 73l-19 -133h-398zM272.001 855c39.333 0 59 -20.001 59 -60.001c0 -17.333 -5 -30.666 -15 -39.999s-24.333 -14 -43 -14c-37.333 0 -56 18 -56 54
c0 18 5.16699 32.5 15.5 43.5s23.5 16.5 39.5 16.5z" />
    <glyph glyph-name="edotaccent" unicode="&#x117;" horiz-adv-x="484" 
d="M344 304c-0.666992 85.333 -31 128 -91 128c-34 0 -61 -13 -81 -39s-31 -64 -33 -114zM138 252v-3c0 -70 16.667 -121.167 50 -153.5s85.333 -48.5 156 -48.5c30.667 0 65.667 4 105 12c-52.667 -46.667 -116 -70 -190 -70c-31.333 0 -60 5.33301 -86 16
s-48.167 26 -66.5 46s-32.5 44.333 -42.5 73s-15 61 -15 97c0 69.333 19.667 127.333 59 174c20 23.333 43.667 41.5 71 54.5s55 19.5 83 19.5c58 0 102.5 -18.333 133.5 -55s47.5 -90.667 49.5 -162h-307zM260 659c39.333 0 59 -20.001 59 -60.001
c0 -17.333 -5 -30.666 -15 -39.999s-24.333 -14 -43 -14c-37.333 0 -56 18 -56 54c0 18 5.16699 32.5 15.5 43.5s23.5 16.5 39.5 16.5z" />
    <glyph glyph-name="Eogonek" unicode="&#x118;" horiz-adv-x="509" 
d="M57 0c18.667 32.667 29.501 60.498 32.501 83.498s4.5 43.5 4.5 61.5v367c0 20.667 -1.83301 42.334 -5.5 65.001s-14.167 48.667 -31.5 78h401v-126l-94 72c-12 9.33301 -28.333 14 -49 14h-132v-267h122c4.66699 0 12 1.83301 22 5.5s19 8.16699 27 13.5l58 42v-153
l-56 40c-10.667 7.33301 -21 11.666 -31 12.999s-20.667 2 -32 2h-110v-273h144c11.333 0 20.166 2.16699 26.499 6.5l22.5 15.5l98 73l-19 -133h-32c-10 -14 -17 -28.167 -21 -42.5s-6 -30.166 -6 -47.499c0 -39.333 15.667 -72.666 47 -99.999
c-40.667 1.33301 -72.667 11.5 -96 30.5s-35 42.5 -35 70.5c0 22.667 8 41.667 24 57s39.667 26 71 32h-350z" />
    <glyph glyph-name="eogonek" unicode="&#x119;" horiz-adv-x="484" 
d="M138 249c0 -70 16.6641 -121.169 49.9971 -153.502s85.333 -48.5 156 -48.5c30.667 0 65.667 4 105 12c-33.333 -29.333 -69.666 -49 -108.999 -59c-9.33301 -14 -16 -28.167 -20 -42.5s-6 -30.166 -6 -47.499c0 -39.333 15.667 -72.666 47 -99.999
c-40.667 1.33301 -72.667 11.5 -96 30.5s-35 42.5 -35 70.5c0 37.333 20.333 64 61 80c-5.33301 -0.666992 -10.666 -1.16699 -15.999 -1.5s-10.666 -0.5 -15.999 -0.5c-31.333 0 -60 5.33301 -86 16s-48.167 26 -66.5 46s-32.5 44.333 -42.5 73s-15 61 -15 97
c0 69.333 19.667 127.333 59 174c20 23.333 43.667 41.5 71 54.5s55 19.5 83 19.5c58 0 102.5 -18.333 133.5 -55s47.5 -90.667 49.5 -162h-307v-3zM343.997 303.998c-0.666992 85.333 -31 128 -91 128c-34 0 -61 -13 -81 -39s-31 -64 -33 -114z" />
    <glyph glyph-name="Ecaron" unicode="&#x11a;" horiz-adv-x="509" 
d="M57 0c18.667 32.667 29.501 60.5 32.501 83.5s4.5 43.5 4.5 61.5v367c0 20.667 -1.83301 42.334 -5.5 65.001s-14.167 48.667 -31.5 78h401v-126l-94 72c-12 9.33301 -28.333 14 -49 14h-132v-267h122c4.66699 0 12 1.83301 22 5.5s19 8.16699 27 13.5l58 42v-153l-56 40
c-10.667 7.33301 -21 11.666 -31 12.999s-20.667 2 -32 2h-110v-273h144c11.333 0 20.166 2.16699 26.499 6.5l22.5 15.5l98 73l-19 -133h-398zM98.001 893l176 -81l176 81l-176 -177z" />
    <glyph glyph-name="ecaron" unicode="&#x11b;" horiz-adv-x="484" 
d="M344 304c-0.666992 85.333 -31 128 -91 128c-34 0 -61 -13 -81 -39s-31 -64 -33 -114zM138 252v-3c0 -70 16.667 -121.167 50 -153.5s85.333 -48.5 156 -48.5c30.667 0 65.667 4 105 12c-52.667 -46.667 -116 -70 -190 -70c-31.333 0 -60 5.33301 -86 16
s-48.167 26 -66.5 46s-32.5 44.333 -42.5 73s-15 61 -15 97c0 69.333 19.667 127.333 59 174c20 23.333 43.667 41.5 71 54.5s55 19.5 83 19.5c58 0 102.5 -18.333 133.5 -55s47.5 -90.667 49.5 -162h-307zM86 697l176 -81l176 81l-176 -177z" />
    <glyph glyph-name="Gcircumflex" unicode="&#x11c;" horiz-adv-x="616" 
d="M455 153c0 10.667 -0.500977 20.5 -1.50098 29.5s-3.5 17.5 -7.5 25.5l-28 57h162l-24 -52l-8 -18.5c-3.33301 -7.66699 -5 -19.167 -5 -34.5v-152c-61.333 -14.667 -125.666 -22 -192.999 -22c-94.667 0 -168.334 28.167 -221.001 84.5s-79 136.166 -79 239.499
c0 55.333 7.66699 104.833 23 148.5s37.5 80.834 66.5 111.501s64.5 54 106.5 70s90 24 144 24c56.667 0 108.334 -6.33301 155.001 -19v-116l-98 73c-10 7.33301 -20.5 12.5 -31.5 15.5s-23.5 4.5 -37.5 4.5c-70 0 -125.167 -26 -165.5 -78s-60.5 -125.333 -60.5 -220
c0 -98 19.333 -172 58 -222s95.667 -75 171 -75c9.33301 0 20 0.5 32 1.5l42 3.5v121zM357.999 896l176 -177l-176 80l-176 -80z" />
    <glyph glyph-name="gcircumflex" unicode="&#x11d;" horiz-adv-x="505" 
d="M338 83c40 0 69.668 -6.99707 89.001 -20.9971s29 -39.333 29 -76c0 -25.333 -5.33301 -49.5 -16 -72.5s-26.667 -42.833 -48 -59.5c-24.667 -19.333 -52 -34.166 -82 -44.499s-61.667 -15.5 -95 -15.5c-29.333 0 -55.666 3.16699 -78.999 9.5s-43.166 14.5 -59.499 24.5
s-29 21.333 -38 34s-13.5 25.667 -13.5 39c0 19.333 9 37.166 27 53.499s44.333 35.833 79 58.5c-13.333 5.33301 -23.666 13 -30.999 23s-11 21.333 -11 34c0 17.333 7.66699 34.166 23 50.499s38.333 34.166 69 53.499c-40 7.33301 -70.5 23.166 -91.5 47.499
s-31.5 55.166 -31.5 92.499c0 22.667 4.16699 43.5 12.5 62.5s20.166 35.333 35.499 49s33.666 24.334 54.999 32.001s44.666 11.5 69.999 11.5c37.333 0 71.666 -10.667 102.999 -32l147 32v-72l-134 31c35.333 -30 53 -66.333 53 -109c0 -22 -4 -42 -12 -60
s-19.167 -33.667 -33.5 -47s-31.5 -23.666 -51.5 -30.999s-42.333 -11 -67 -11c-12.667 0 -28 1 -46 3c-8 -16 -12 -30 -12 -42c0 -18.667 5.83301 -31.334 17.5 -38.001s30.167 -10 55.5 -10h87zM226.001 435.003c-25.333 0 -45.333 -9.00195 -60 -27.002
s-22 -43.333 -22 -76c0 -19.333 2.33301 -36.833 7 -52.5s11.167 -29.167 19.5 -40.5s18.166 -20.166 29.499 -26.499s23.333 -9.5 36 -9.5c23.333 0 42.5 9 57.5 27s22.5 42.333 22.5 73c0 40.667 -8.66699 72.834 -26 96.501s-38.666 35.5 -63.999 35.5z
M207.001 0.000976562c-9.33301 0 -19.332 0.166992 -29.999 0.5s-22.334 2.16602 -35.001 5.49902c-23.333 -28.667 -35 -55 -35 -79c0 -26 11.5 -47.167 34.5 -63.5s54.5 -24.5 94.5 -24.5c22.667 0 43.5 2.83301 62.5 8.5s35.5 13.334 49.5 23.001
s24.833 20.834 32.5 33.501s11.5 25.667 11.5 39c0 23.333 -7.5 38.666 -22.5 45.999s-37.833 11 -68.5 11h-94zM252.002 700.001l176 -177l-176 80l-176 -80z" />
    <glyph glyph-name="Gbreve" unicode="&#x11e;" horiz-adv-x="616" 
d="M455 153c0 10.667 -0.500977 20.5 -1.50098 29.5s-3.5 17.5 -7.5 25.5l-28 57h162l-24 -52l-8 -18.5c-3.33301 -7.66699 -5 -19.167 -5 -34.5v-152c-61.333 -14.667 -125.666 -22 -192.999 -22c-94.667 0 -168.334 28.167 -221.001 84.5s-79 136.166 -79 239.499
c0 55.333 7.66699 104.833 23 148.5s37.5 80.834 66.5 111.501s64.5 54 106.5 70s90 24 144 24c56.667 0 108.334 -6.33301 155.001 -19v-116l-98 73c-10 7.33301 -20.5 12.5 -31.5 15.5s-23.5 4.5 -37.5 4.5c-70 0 -125.167 -26 -165.5 -78s-60.5 -125.333 -60.5 -220
c0 -98 19.333 -172 58 -222s95.667 -75 171 -75c9.33301 0 20 0.5 32 1.5l42 3.5v121zM200.999 861c26.667 -20 52.167 -35.001 76.5 -45.001s50.5 -15 78.5 -15c30 0 57.833 4.83301 83.5 14.5s51.167 24.834 76.5 45.501c-13.333 -42 -33.333 -73.667 -60 -95
s-59 -32 -97 -32c-81.333 0 -134 42.333 -158 127z" />
    <glyph glyph-name="gbreve" unicode="&#x11f;" horiz-adv-x="505" 
d="M338 83c40 0 69.668 -6.99707 89.001 -20.9971s29 -39.333 29 -76c0 -25.333 -5.33301 -49.5 -16 -72.5s-26.667 -42.833 -48 -59.5c-24.667 -19.333 -52 -34.166 -82 -44.499s-61.667 -15.5 -95 -15.5c-29.333 0 -55.666 3.16699 -78.999 9.5s-43.166 14.5 -59.499 24.5
s-29 21.333 -38 34s-13.5 25.667 -13.5 39c0 19.333 9 37.166 27 53.499s44.333 35.833 79 58.5c-13.333 5.33301 -23.666 13 -30.999 23s-11 21.333 -11 34c0 17.333 7.66699 34.166 23 50.499s38.333 34.166 69 53.499c-40 7.33301 -70.5 23.166 -91.5 47.499
s-31.5 55.166 -31.5 92.499c0 22.667 4.16699 43.5 12.5 62.5s20.166 35.333 35.499 49s33.666 24.334 54.999 32.001s44.666 11.5 69.999 11.5c37.333 0 71.666 -10.667 102.999 -32l147 32v-72l-134 31c35.333 -30 53 -66.333 53 -109c0 -22 -4 -42 -12 -60
s-19.167 -33.667 -33.5 -47s-31.5 -23.666 -51.5 -30.999s-42.333 -11 -67 -11c-12.667 0 -28 1 -46 3c-8 -16 -12 -30 -12 -42c0 -18.667 5.83301 -31.334 17.5 -38.001s30.167 -10 55.5 -10h87zM226.001 435.003c-25.333 0 -45.333 -9.00195 -60 -27.002
s-22 -43.333 -22 -76c0 -19.333 2.33301 -36.833 7 -52.5s11.167 -29.167 19.5 -40.5s18.166 -20.166 29.499 -26.499s23.333 -9.5 36 -9.5c23.333 0 42.5 9 57.5 27s22.5 42.333 22.5 73c0 40.667 -8.66699 72.834 -26 96.501s-38.666 35.5 -63.999 35.5z
M207.001 0.000976562c-9.33301 0 -19.332 0.166992 -29.999 0.5s-22.334 2.16602 -35.001 5.49902c-23.333 -28.667 -35 -55 -35 -79c0 -26 11.5 -47.167 34.5 -63.5s54.5 -24.5 94.5 -24.5c22.667 0 43.5 2.83301 62.5 8.5s35.5 13.334 49.5 23.001
s24.833 20.834 32.5 33.501s11.5 25.667 11.5 39c0 23.333 -7.5 38.666 -22.5 45.999s-37.833 11 -68.5 11h-94zM95.002 665.001c26.667 -20 52.167 -35.001 76.5 -45.001s50.5 -15 78.5 -15c30 0 57.833 4.83301 83.5 14.5s51.167 24.834 76.5 45.501
c-13.333 -42 -33.333 -73.667 -60 -95s-59 -32 -97 -32c-81.333 0 -134 42.333 -158 127z" />
    <glyph glyph-name="Gdotaccent" unicode="&#x120;" horiz-adv-x="616" 
d="M455 153c0 10.667 -0.500977 20.5 -1.50098 29.5s-3.5 17.5 -7.5 25.5l-28 57h162l-24 -52l-8 -18.5c-3.33301 -7.66699 -5 -19.167 -5 -34.5v-152c-61.333 -14.667 -125.666 -22 -192.999 -22c-94.667 0 -168.334 28.167 -221.001 84.5s-79 136.166 -79 239.499
c0 55.333 7.66699 104.833 23 148.5s37.5 80.834 66.5 111.501s64.5 54 106.5 70s90 24 144 24c56.667 0 108.334 -6.33301 155.001 -19v-116l-98 73c-10 7.33301 -20.5 12.5 -31.5 15.5s-23.5 4.5 -37.5 4.5c-70 0 -125.167 -26 -165.5 -78s-60.5 -125.333 -60.5 -220
c0 -98 19.333 -172 58 -222s95.667 -75 171 -75c9.33301 0 20 0.5 32 1.5l42 3.5v121zM355.999 855c39.333 0 59 -20.001 59 -60.001c0 -17.333 -5 -30.666 -15 -39.999s-24.333 -14 -43 -14c-37.333 0 -56 18 -56 54c0 18 5.16699 32.5 15.5 43.5s23.5 16.5 39.5 16.5z" />
    <glyph glyph-name="gdotaccent" unicode="&#x121;" horiz-adv-x="505" 
d="M338 83c40 0 69.668 -6.99707 89.001 -20.9971s29 -39.333 29 -76c0 -25.333 -5.33301 -49.5 -16 -72.5s-26.667 -42.833 -48 -59.5c-24.667 -19.333 -52 -34.166 -82 -44.499s-61.667 -15.5 -95 -15.5c-29.333 0 -55.666 3.16699 -78.999 9.5s-43.166 14.5 -59.499 24.5
s-29 21.333 -38 34s-13.5 25.667 -13.5 39c0 19.333 9 37.166 27 53.499s44.333 35.833 79 58.5c-13.333 5.33301 -23.666 13 -30.999 23s-11 21.333 -11 34c0 17.333 7.66699 34.166 23 50.499s38.333 34.166 69 53.499c-40 7.33301 -70.5 23.166 -91.5 47.499
s-31.5 55.166 -31.5 92.499c0 22.667 4.16699 43.5 12.5 62.5s20.166 35.333 35.499 49s33.666 24.334 54.999 32.001s44.666 11.5 69.999 11.5c37.333 0 71.666 -10.667 102.999 -32l147 32v-72l-134 31c35.333 -30 53 -66.333 53 -109c0 -22 -4 -42 -12 -60
s-19.167 -33.667 -33.5 -47s-31.5 -23.666 -51.5 -30.999s-42.333 -11 -67 -11c-12.667 0 -28 1 -46 3c-8 -16 -12 -30 -12 -42c0 -18.667 5.83301 -31.334 17.5 -38.001s30.167 -10 55.5 -10h87zM226.001 435.003c-25.333 0 -45.333 -9.00195 -60 -27.002
s-22 -43.333 -22 -76c0 -19.333 2.33301 -36.833 7 -52.5s11.167 -29.167 19.5 -40.5s18.166 -20.166 29.499 -26.499s23.333 -9.5 36 -9.5c23.333 0 42.5 9 57.5 27s22.5 42.333 22.5 73c0 40.667 -8.66699 72.834 -26 96.501s-38.666 35.5 -63.999 35.5z
M207.001 0.000976562c-9.33301 0 -19.332 0.166992 -29.999 0.5s-22.334 2.16602 -35.001 5.49902c-23.333 -28.667 -35 -55 -35 -79c0 -26 11.5 -47.167 34.5 -63.5s54.5 -24.5 94.5 -24.5c22.667 0 43.5 2.83301 62.5 8.5s35.5 13.334 49.5 23.001
s24.833 20.834 32.5 33.501s11.5 25.667 11.5 39c0 23.333 -7.5 38.666 -22.5 45.999s-37.833 11 -68.5 11h-94zM250.002 659.001c39.333 0 59 -20.001 59 -60.001c0 -17.333 -5 -30.666 -15 -39.999s-24.333 -14 -43 -14c-37.333 0 -56 18 -56 54
c0 18 5.16699 32.5 15.5 43.5s23.5 16.5 39.5 16.5z" />
    <glyph glyph-name="Gcommaaccent" unicode="&#x122;" horiz-adv-x="616" 
d="M455 153c0 10.667 -0.500977 20.5 -1.50098 29.5s-3.5 17.5 -7.5 25.5l-28 57h162l-24 -52l-8 -18.5c-3.33301 -7.66699 -5 -19.167 -5 -34.5v-152c-61.333 -14.667 -125.666 -22 -192.999 -22c-94.667 0 -168.334 28.167 -221.001 84.5s-79 136.166 -79 239.499
c0 55.333 7.66699 104.833 23 148.5s37.5 80.834 66.5 111.501s64.5 54 106.5 70s90 24 144 24c56.667 0 108.334 -6.33301 155.001 -19v-116l-98 73c-10 7.33301 -20.5 12.5 -31.5 15.5s-23.5 4.5 -37.5 4.5c-70 0 -125.167 -26 -165.5 -78s-60.5 -125.333 -60.5 -220
c0 -98 19.333 -172 58 -222s95.667 -75 171 -75c9.33301 0 20 0.5 32 1.5l42 3.5v121zM280.999 -226c24.667 26.667 38.333 57.333 41 92c-14.667 0 -26 4.5 -34 13.5s-12 20.5 -12 34.5c0 16 4.5 29 13.5 39s21.833 15 38.5 15c20 0 34.667 -6.16699 44 -18.5
s14 -27.833 14 -46.5c0 -31.333 -10 -58.833 -30 -82.5s-45 -39.167 -75 -46.5z" />
    <glyph glyph-name="gcommaaccent" unicode="&#x123;" horiz-adv-x="505" 
d="M338 83c40 0 69.668 -6.99707 89.001 -20.9971s29 -39.333 29 -76c0 -25.333 -5.33301 -49.5 -16 -72.5s-26.667 -42.833 -48 -59.5c-24.667 -19.333 -52 -34.166 -82 -44.499s-61.667 -15.5 -95 -15.5c-29.333 0 -55.666 3.16699 -78.999 9.5s-43.166 14.5 -59.499 24.5
s-29 21.333 -38 34s-13.5 25.667 -13.5 39c0 19.333 9 37.166 27 53.499s44.333 35.833 79 58.5c-13.333 5.33301 -23.666 13 -30.999 23s-11 21.333 -11 34c0 17.333 7.66699 34.166 23 50.499s38.333 34.166 69 53.499c-40 7.33301 -70.5 23.166 -91.5 47.499
s-31.5 55.166 -31.5 92.499c0 22.667 4.16699 43.5 12.5 62.5s20.166 35.333 35.499 49s33.666 24.334 54.999 32.001s44.666 11.5 69.999 11.5c37.333 0 71.666 -10.667 102.999 -32l147 32v-72l-134 31c35.333 -30 53 -66.333 53 -109c0 -22 -4 -42 -12 -60
s-19.167 -33.667 -33.5 -47s-31.5 -23.666 -51.5 -30.999s-42.333 -11 -67 -11c-12.667 0 -28 1 -46 3c-8 -16 -12 -30 -12 -42c0 -18.667 5.83301 -31.334 17.5 -38.001s30.167 -10 55.5 -10h87zM226.001 435.003c-25.333 0 -45.333 -9.00195 -60 -27.002
s-22 -43.333 -22 -76c0 -19.333 2.33301 -36.833 7 -52.5s11.167 -29.167 19.5 -40.5s18.166 -20.166 29.499 -26.499s23.333 -9.5 36 -9.5c23.333 0 42.5 9 57.5 27s22.5 42.333 22.5 73c0 40.667 -8.66699 72.834 -26 96.501s-38.666 35.5 -63.999 35.5z
M207.001 0.000976562c-9.33301 0 -19.332 0.166992 -29.999 0.5s-22.334 2.16602 -35.001 5.49902c-23.333 -28.667 -35 -55 -35 -79c0 -26 11.5 -47.167 34.5 -63.5s54.5 -24.5 94.5 -24.5c22.667 0 43.5 2.83301 62.5 8.5s35.5 13.334 49.5 23.001
s24.833 20.834 32.5 33.501s11.5 25.667 11.5 39c0 23.333 -7.5 38.666 -22.5 45.999s-37.833 11 -68.5 11h-94zM299.002 717.001c-24.667 -26.667 -38.333 -57.333 -41 -92c14.667 0 26 -4.5 34 -13.5s12 -20.5 12 -34.5c0 -16 -4.5 -29 -13.5 -39s-21.833 -15 -38.5 -15
c-20 0 -34.667 6.16699 -44 18.5s-14 27.833 -14 46.5c0 31.333 10 58.833 30 82.5s45 39.167 75 46.5z" />
    <glyph glyph-name="Hcircumflex" unicode="&#x124;" horiz-adv-x="644" 
d="M57 0c18 31.333 28.667 58.3369 32 81.0039s5 43.667 5 63v367c0 19.333 -1.66699 40.333 -5 63s-14 49.667 -32 81h161c-17.333 -30 -27.666 -55.833 -30.999 -77.5s-5 -41.834 -5 -60.501v-6v-152h280v152c0 19.333 -1.66699 40.333 -5 63s-14 49.667 -32 81h161
c-17.333 -30 -27.666 -55.833 -30.999 -77.5s-5 -41.834 -5 -60.501v-6v-367v-6c0 -18.667 1.66699 -38.834 5 -60.501s13.666 -47.5 30.999 -77.5h-161c18 31.333 28.667 58.333 32 81s5 43.667 5 63v172h-280v-172v-6c0 -18.667 1.66699 -38.834 5 -60.501
s13.666 -47.5 30.999 -77.5h-161zM322 896.004l176 -177l-176 80l-176 -80z" />
    <glyph glyph-name="hcircumflex" unicode="&#x125;" horiz-adv-x="521" 
d="M46 0c18 30.667 28.502 57.5 31.502 80.5s4.5 44.167 4.5 63.5v397c0 26 -3.66699 49.833 -11 71.5s-18.333 44.5 -33 68.5l128 27v-290c36 15.333 67.5 27.666 94.5 36.999s51.833 14 74.5 14c76 0 114 -56.333 114 -169v-156c0 -19.333 1.5 -40.5 4.5 -63.5
s13.833 -49.833 32.5 -80.5h-157c18 31.333 28.667 58.333 32 81s5 43.667 5 63v128c0 26 -2.33301 47.833 -7 65.5s-12.334 31.834 -23.001 42.501s-25 18.334 -43 23.001s-40.333 7 -67 7c-20 0 -40 -1 -60 -3v-263v-6c0 -18.667 1.66699 -38.834 5 -60.501
s13.666 -47.5 30.999 -77.5h-156zM260.002 896l176 -177l-176 80l-176 -80z" />
    <glyph glyph-name="Hbar" unicode="&#x126;" horiz-adv-x="644" 
d="M57 0c18 31.333 28.667 58.3369 32 81.0039s5 43.667 5 63v367c0 19.333 -1.66699 40.333 -5 63s-14 49.667 -32 81h161c-17.333 -30 -27.666 -55.833 -30.999 -77.5s-5 -41.834 -5 -60.501v-11h280v5c0 19.333 -1.66699 40.333 -5 63s-14 49.667 -32 81h161
c-17.333 -30 -27.666 -55.833 -30.999 -77.5s-5 -41.834 -5 -60.501v-379c0 -18.667 1.66699 -38.834 5 -60.501s13.666 -47.5 30.999 -77.5h-161c18 31.333 28.667 58.333 32 81s5 43.667 5 63v172h-280v-178c0 -18.667 1.66699 -38.834 5 -60.501
s13.666 -47.5 30.999 -77.5h-161zM462 359.004v104h-280v-104h280z" />
    <glyph glyph-name="hbar" unicode="&#x127;" horiz-adv-x="521" 
d="M46 0c18 30.667 28.502 57.5 31.502 80.5s4.5 44.167 4.5 63.5v400h-87v42h83c-3.33301 16 -8.33301 31.5 -15 46.5s-15 31.167 -25 48.5l128 27v-122h160v-42h-160v-126c36 15.333 67.5 27.666 94.5 36.999s51.833 14 74.5 14c76 0 114 -56.333 114 -169v-156
c0 -19.333 1.5 -40.5 4.5 -63.5s13.833 -49.833 32.5 -80.5h-157c18 31.333 28.667 58.333 32 81s5 43.667 5 63v128c0 26 -2.33301 47.833 -7 65.5s-12.334 31.834 -23.001 42.501s-25 18.334 -43 23.001s-40.333 7 -67 7c-20 0 -40 -1 -60 -3v-269
c0 -18.667 1.66699 -38.834 5 -60.501s13.666 -47.5 30.999 -77.5h-156z" />
    <glyph glyph-name="Itilde" unicode="&#x128;" horiz-adv-x="275" 
d="M57 0c18 31.333 28.667 58.335 32 81.002s5 43.667 5 63v367c0 19.333 -1.66699 40.333 -5 63s-14 49.667 -32 81h161c-17.333 -30 -27.666 -55.833 -30.999 -77.5s-5 -41.834 -5 -60.501v-6v-367v-6c0 -18.667 1.66699 -38.834 5 -60.501s13.666 -47.5 30.999 -77.5
h-161zM77 795.002c-10.667 4.66699 -18.668 7 -24.001 7c-16 0 -42 -18.667 -78 -56c6.66699 33.333 18.667 59 36 77s35.666 27 54.999 27c16.667 0 32.334 -3.33301 47.001 -10l86 -39c9.33301 -4.66699 17.333 -7 24 -7c16.667 0 42.667 18.667 78 56
c-6.66699 -34 -18.667 -59.833 -36 -77.5s-35.666 -26.5 -54.999 -26.5c-17.333 0 -33 3 -47 9z" />
    <glyph glyph-name="itilde" unicode="&#x129;" horiz-adv-x="257" 
d="M52 0c18 31.333 28.667 58.333 32 81s5 43.667 5 63v191c0 35.333 -13.333 72.333 -40 111l123 27v-329c0 -19.333 1.5 -40.5 4.5 -63.5s13.833 -49.833 32.5 -80.5h-157zM68 599c-10.667 4.66699 -18.668 7 -24.001 7c-16 0 -42 -18.667 -78 -56
c6.66699 33.333 18.667 59 36 77s35.666 27 54.999 27c16.667 0 32.334 -3.33301 47.001 -10l86 -39c9.33301 -4.66699 17.333 -7 24 -7c16.667 0 42.667 18.667 78 56c-6.66699 -34 -18.667 -59.833 -36 -77.5s-35.666 -26.5 -54.999 -26.5c-17.333 0 -33 3 -47 9z" />
    <glyph glyph-name="Imacron" unicode="&#x12a;" horiz-adv-x="275" 
d="M57 0c18 31.333 28.667 58.335 32 81.002s5 43.667 5 63v367c0 19.333 -1.66699 40.333 -5 63s-14 49.667 -32 81h161c-17.333 -30 -27.666 -55.833 -30.999 -77.5s-5 -41.834 -5 -60.501v-6v-367v-6c0 -18.667 1.66699 -38.834 5 -60.501s13.666 -47.5 30.999 -77.5
h-161zM-29 823.002h331v-51h-331v51z" />
    <glyph glyph-name="imacron" unicode="&#x12b;" horiz-adv-x="257" 
d="M52 0c18 31.333 28.667 58.333 32 81s5 43.667 5 63v191c0 35.333 -13.333 72.333 -40 111l123 27v-329c0 -19.333 1.5 -40.5 4.5 -63.5s13.833 -49.833 32.5 -80.5h-157zM-38 627h331v-51h-331v51z" />
    <glyph glyph-name="Iogonek" unicode="&#x12e;" horiz-adv-x="275" 
d="M57 0c18 31.333 28.667 58.333 32 81s5 43.667 5 63v367c0 19.333 -1.66699 40.333 -5 63s-14 49.667 -32 81h161c-17.333 -30 -27.666 -55.833 -30.999 -77.5s-5 -41.834 -5 -60.501v-379c0 -18.667 1.66699 -38.834 5 -60.501s13.666 -47.5 30.999 -77.5h-33
c-10 -14 -17 -28.167 -21 -42.5s-6 -30.166 -6 -47.499c0 -39.333 15.667 -72.666 47 -99.999c-40.667 1.33301 -72.667 11.5 -96 30.5s-35 42.5 -35 70.5c0 22.667 8 41.667 24 57s39.667 26 71 32h-112z" />
    <glyph glyph-name="iogonek" unicode="&#x12f;" horiz-adv-x="257" 
d="M52 0c18 31.333 28.667 58.3311 32 80.998s5 43.667 5 63v191c0 35.333 -13.333 72.333 -40 111l123 27v-329c0 -19.333 1.5 -40.5 4.5 -63.5s13.833 -49.833 32.5 -80.5h-33c-10 -14 -17 -28.167 -21 -42.5s-6 -30.166 -6 -47.499c0 -39.333 15.667 -72.666 47 -99.999
c-40.667 1.33301 -72.667 11.5 -96 30.5s-35 42.5 -35 70.5c0 22.667 8 41.667 24 57s39.667 26 71 32h-108zM128 695.998c15.333 0 28 -4.99902 38 -14.999s15 -23 15 -39c0 -36 -17.667 -54 -53 -54c-16.667 0 -29.5 4.66699 -38.5 14s-13.5 22.666 -13.5 39.999
c0 16 4.83301 29 14.5 39s22.167 15 37.5 15z" />
    <glyph glyph-name="Idotaccent" unicode="&#x130;" horiz-adv-x="275" 
d="M57 0c18 31.333 28.667 58.335 32 81.002s5 43.667 5 63v367c0 19.333 -1.66699 40.333 -5 63s-14 49.667 -32 81h161c-17.333 -30 -27.666 -55.833 -30.999 -77.5s-5 -41.834 -5 -60.501v-6v-367v-6c0 -18.667 1.66699 -38.834 5 -60.501s13.666 -47.5 30.999 -77.5
h-161zM136 855.002c39.333 0 59 -20.001 59 -60.001c0 -17.333 -5 -30.666 -15 -39.999s-24.333 -14 -43 -14c-37.333 0 -56 18 -56 54c0 18 5.16699 32.5 15.5 43.5s23.5 16.5 39.5 16.5z" />
    <glyph glyph-name="dotlessi" unicode="&#x131;" horiz-adv-x="257" 
d="M52 0c18 31.333 28.667 58.333 32 81s5 43.667 5 63v191c0 35.333 -13.333 72.333 -40 111l123 27v-329c0 -19.333 1.5 -40.5 4.5 -63.5s13.833 -49.833 32.5 -80.5h-157z" />
    <glyph glyph-name="IJ" unicode="&#x132;" horiz-adv-x="550" 
d="M57 0c18 31.333 28.667 58.335 32 81.002s5 43.667 5 63v367c0 19.333 -1.66699 40.333 -5 63s-14 49.667 -32 81h161c-17.333 -30 -27.666 -55.833 -30.999 -77.5s-5 -41.834 -5 -60.501v-6v-367v-6c0 -18.667 1.66699 -38.834 5 -60.501s13.666 -47.5 30.999 -77.5
h-161zM182 -85.998l86.001 -67c5.33301 -4 10.166 -7 14.499 -9s10.166 -3 17.499 -3c24.667 0 43.667 13 57 39s20 65.333 20 118v519c0 19.333 -1.66699 40.333 -5 63s-14 49.667 -32 81h161c-17.333 -30 -27.666 -55.833 -30.999 -77.5s-5 -41.834 -5 -60.501v-6v-472
c0 -19.333 -0.333008 -37.166 -1 -53.499s-2.66699 -32 -6 -47s-8.5 -29.333 -15.5 -43s-16.5 -27.167 -28.5 -40.5c-18.667 -20.667 -41.334 -36.5 -68.001 -47.5s-56 -16.5 -88 -16.5c-27.333 0 -52.666 2.33301 -75.999 7v116z" />
    <glyph glyph-name="ij" unicode="&#x133;" horiz-adv-x="514" 
d="M128 696c15.333 0 28 -4.99902 38 -14.999s15 -23 15 -39c0 -36 -17.667 -54 -53 -54c-16.667 0 -29.5 4.66699 -38.5 14s-13.5 22.666 -13.5 39.999c0 16 4.83301 29 14.5 39s22.167 15 37.5 15zM52 0.000976562c18 31.333 28.667 58.333 32 81s5 43.667 5 63v191
c0 35.333 -13.333 72.333 -40 111l123 27v-329c0 -19.333 1.5 -40.5 4.5 -63.5s13.833 -49.833 32.5 -80.5h-157zM387 696.001c15.333 0 27.833 -4.99902 37.5 -14.999s14.5 -23 14.5 -39c0 -36 -17.333 -54 -52 -54c-16.667 0 -29.667 4.66699 -39 14
s-14 22.666 -14 39.999c0 16 5 29 15 39s22.667 15 38 15zM195 -95.998l64 -53c6 -5.33301 11.333 -9.33301 16 -12s10 -4 16 -4c24 0 39.333 13 46 39s10 64 10 114v347c0 35.333 -13.333 72.333 -40 111l123 27v-416c0 -45.333 -2.5 -84.5 -7.5 -117.5
s-14 -60.5 -27 -82.5s-30.5 -38.333 -52.5 -49s-50.333 -16 -85 -16c-18 0 -39 2 -63 6v106z" />
    <glyph glyph-name="Jcircumflex" unicode="&#x134;" horiz-adv-x="275" 
d="M-93 -86l86.001 -67c5.33301 -4 10.166 -7 14.499 -9s10.166 -3 17.499 -3c24.667 0 43.667 13 57 39s20 65.333 20 118v519c0 19.333 -1.66699 40.333 -5 63s-14 49.667 -32 81h161c-17.333 -30 -27.666 -55.833 -30.999 -77.5s-5 -41.834 -5 -60.501v-6v-472
c0 -19.333 -0.333008 -37.166 -1 -53.499s-2.66699 -32 -6 -47s-8.5 -29.333 -15.5 -43s-16.5 -27.167 -28.5 -40.5c-18.667 -20.667 -41.334 -36.5 -68.001 -47.5s-56 -16.5 -88 -16.5c-27.333 0 -52.666 2.33301 -75.999 7v116zM138.001 896l176 -177l-176 80l-176 -80z
" />
    <glyph glyph-name="jcircumflex" unicode="&#x135;" horiz-adv-x="257" 
d="M-62 -96l64 -53c6 -5.33301 11.333 -9.33301 16 -12s10 -4 16 -4c24 0 39.333 13 46 39s10 64 10 114v347c0 35.333 -13.333 72.333 -40 111l123 27v-416c0 -45.333 -2.5 -84.5 -7.5 -117.5s-14 -60.5 -27 -82.5s-30.5 -38.333 -52.5 -49s-50.333 -16 -85 -16
c-18 0 -39 2 -63 6v106zM129 700l176 -177l-176 80l-176 -80z" />
    <glyph glyph-name="Kcommaaccent" unicode="&#x136;" horiz-adv-x="553" 
d="M55 0c18 31.333 28.667 58.335 32 81.002s5 43.667 5 63v367c0 19.333 -1.66699 40.333 -5 63s-14 49.667 -32 81h161c-17.333 -30 -27.666 -55.833 -30.999 -77.5s-5 -41.834 -5 -60.501v-6v-367v-6c0 -18.667 1.66699 -38.834 5 -60.501s13.666 -47.5 30.999 -77.5
h-161zM191 337.002l221 249.001c4.66699 5.33301 8.16699 10.833 10.5 16.5s3.5 9.16699 3.5 10.5c0 10.667 -7.66699 24.667 -23 42h172c-22.667 -13.333 -42 -27.333 -58 -42l-44 -42l-192 -200l200 -276c14 -19.333 29.167 -36.833 45.5 -52.5
s35.833 -29.834 58.5 -42.501h-160zM239 -225.997c24.667 26.667 38.333 57.333 41 92c-14.667 0 -26 4.5 -34 13.5s-12 20.5 -12 34.5c0 16 4.5 29 13.5 39s21.833 15 38.5 15c20 0 34.667 -6.16699 44 -18.5s14 -27.833 14 -46.5c0 -31.333 -10 -58.833 -30 -82.5
s-45 -39.167 -75 -46.5z" />
    <glyph glyph-name="kcommaaccent" unicode="&#x137;" horiz-adv-x="491" 
d="M45 0c18 30.667 28.5 57.5 31.5 80.5s4.5 44.167 4.5 63.5v426c0 35.333 -13.333 72.333 -40 111l122 27v-564c0 -19.333 1.66699 -40.333 5 -63s14 -49.667 32 -81h-155zM178 250l140 142.998c10 10 15 19.667 15 29c0 10.667 -6.33301 24.334 -19 41.001h176
c-46 -27.333 -89.667 -58.666 -131 -93.999l-101 -88l164 -212c24.667 -32 51 -55 79 -69h-141zM208 -226.002c24.667 26.667 38.333 57.333 41 92c-14.667 0 -26 4.5 -34 13.5s-12 20.5 -12 34.5c0 16 4.5 29 13.5 39s21.833 15 38.5 15c20 0 34.667 -6.16699 44 -18.5
s14 -27.833 14 -46.5c0 -31.333 -10 -58.833 -30 -82.5s-45 -39.167 -75 -46.5z" />
    <glyph glyph-name="Lacute" unicode="&#x139;" horiz-adv-x="444" 
d="M55 0c18.667 32.667 29.499 60.4971 32.499 83.4971s4.5 43.5 4.5 61.5v367c0 20.667 -1.83301 42.334 -5.5 65.001s-14.167 48.667 -31.5 78h163c-9.33301 -15.333 -16.5 -29.666 -21.5 -42.999s-8.66699 -26 -11 -38s-3.66602 -23.167 -3.99902 -33.5
s-0.5 -20.166 -0.5 -29.499v-473h110c13.333 0 24 2 32 6s16.333 9.33301 25 16l98 73l-18 -133h-373zM200.999 883.997h136l-230 -165z" />
    <glyph glyph-name="lacute" unicode="&#x13a;" horiz-adv-x="245" 
d="M44 0c18 31.333 28.667 58.333 32 81s5 43.667 5 63v426c0 35.333 -13.333 72.333 -40 111l123 27v-564c0 -19.333 1.5 -40.5 4.5 -63.5s13.833 -49.833 32.5 -80.5h-157zM161 884h136l-230 -165z" />
    <glyph glyph-name="Lcommaaccent" unicode="&#x13b;" horiz-adv-x="444" 
d="M55 0c18.667 32.667 29.499 60.4971 32.499 83.4971s4.5 43.5 4.5 61.5v367c0 20.667 -1.83301 42.334 -5.5 65.001s-14.167 48.667 -31.5 78h163c-9.33301 -15.333 -16.5 -29.666 -21.5 -42.999s-8.66699 -26 -11 -38s-3.66602 -23.167 -3.99902 -33.5
s-0.5 -20.166 -0.5 -29.499v-473h110c13.333 0 24 2 32 6s16.333 9.33301 25 16l98 73l-18 -133h-373zM195.999 -226.003c24.667 26.667 38.333 57.333 41 92c-14.667 0 -26 4.5 -34 13.5s-12 20.5 -12 34.5c0 16 4.5 29 13.5 39s21.833 15 38.5 15
c20 0 34.667 -6.16699 44 -18.5s14 -27.833 14 -46.5c0 -31.333 -10 -58.833 -30 -82.5s-45 -39.167 -75 -46.5z" />
    <glyph glyph-name="lcommaaccent" unicode="&#x13c;" horiz-adv-x="245" 
d="M44 0c18 31.333 28.667 58.333 32 81s5 43.667 5 63v426c0 35.333 -13.333 72.333 -40 111l123 27v-564c0 -19.333 1.5 -40.5 4.5 -63.5s13.833 -49.833 32.5 -80.5h-157zM76 -226c24.667 26.667 38.333 57.333 41 92c-14.667 0 -26 4.5 -34 13.5s-12 20.5 -12 34.5
c0 16 4.5 29 13.5 39s21.833 15 38.5 15c20 0 34.667 -6.16699 44 -18.5s14 -27.833 14 -46.5c0 -31.333 -10 -58.833 -30 -82.5s-45 -39.167 -75 -46.5z" />
    <glyph glyph-name="Lcaron" unicode="&#x13d;" horiz-adv-x="444" 
d="M55 0c18.667 32.667 29.499 60.4971 32.499 83.4971s4.5 43.5 4.5 61.5v367c0 20.667 -1.83301 42.334 -5.5 65.001s-14.167 48.667 -31.5 78h163c-9.33301 -15.333 -16.5 -29.666 -21.5 -42.999s-8.66699 -26 -11 -38s-3.66602 -23.167 -3.99902 -33.5
s-0.5 -20.166 -0.5 -29.499v-473h110c13.333 0 24 2 32 6s16.333 9.33301 25 16l98 73l-18 -133h-373zM245.999 509.997c24.667 26.667 38.333 57.333 41 92c-14.667 0 -26 4.5 -34 13.5s-12 20.5 -12 34.5c0 16 4.5 29 13.5 39s21.833 15 38.5 15
c20 0 34.667 -6.16699 44 -18.5s14 -27.833 14 -46.5c0 -31.333 -10 -58.833 -30 -82.5s-45 -39.167 -75 -46.5z" />
    <glyph glyph-name="lcaron" unicode="&#x13e;" horiz-adv-x="265" 
d="M44 0c18 31.333 28.667 58.333 32 81s5 43.667 5 63v426c0 35.333 -13.333 72.333 -40 111l123 27v-564c0 -19.333 1.5 -40.5 4.5 -63.5s13.833 -49.833 32.5 -80.5h-157zM209 510c24.667 26.667 38.333 57.333 41 92c-14.667 0 -26 4.5 -34 13.5s-12 20.5 -12 34.5
c0 16 4.5 29 13.5 39s21.833 15 38.5 15c20 0 34.667 -6.16699 44 -18.5s14 -27.833 14 -46.5c0 -31.333 -10 -58.833 -30 -82.5s-45 -39.167 -75 -46.5z" />
    <glyph glyph-name="Ldot" unicode="&#x13f;" horiz-adv-x="444" 
d="M55 0c18.667 32.667 29.499 60.4971 32.499 83.4971s4.5 43.5 4.5 61.5v367c0 20.667 -1.83301 42.334 -5.5 65.001s-14.167 48.667 -31.5 78h163c-9.33301 -15.333 -16.5 -29.666 -21.5 -42.999s-8.66699 -26 -11 -38s-3.66602 -23.167 -3.99902 -33.5
s-0.5 -20.166 -0.5 -29.499v-473h110c13.333 0 24 2 32 6s16.333 9.33301 25 16l98 73l-18 -133h-373zM285.999 347.997c39.333 0 59 -20.001 59 -60.001c0 -17.333 -5 -30.666 -15 -39.999s-24.333 -14 -43 -14c-37.333 0 -56 18 -56 54c0 18 5.16699 32.5 15.5 43.5
s23.5 16.5 39.5 16.5z" />
    <glyph glyph-name="ldot" unicode="&#x140;" horiz-adv-x="305" 
d="M44 0c18 31.333 28.667 58.333 32 81s5 43.667 5 63v426c0 35.333 -13.333 72.333 -40 111l123 27v-564c0 -19.333 1.5 -40.5 4.5 -63.5s13.833 -49.833 32.5 -80.5h-157zM269 348c39.333 0 59 -20.001 59 -60.001c0 -17.333 -5 -30.666 -15 -39.999s-24.333 -14 -43 -14
c-37.333 0 -56 18 -56 54c0 18 5.16699 32.5 15.5 43.5s23.5 16.5 39.5 16.5z" />
    <glyph glyph-name="Lslash" unicode="&#x141;" horiz-adv-x="444" 
d="M55 0c18.667 32.667 29.499 60.4971 32.499 83.4971s4.5 43.5 4.5 61.5v127l-56 -49l-31 34l87 77v178c0 20.667 -1.83301 42.334 -5.5 65.001s-14.167 48.667 -31.5 78h163c-9.33301 -15.333 -16.5 -29.666 -21.5 -42.999s-8.66699 -26 -11 -38
s-3.66602 -23.167 -3.99902 -33.5s-0.5 -20.166 -0.5 -29.499v-96l79 70l30 -33l-109 -98v-316h110c13.333 0 24 2 32 6s16.333 9.33301 25 16l98 73l-18 -133h-373z" />
    <glyph glyph-name="lslash" unicode="&#x142;" horiz-adv-x="245" 
d="M44 0c18 31.333 28.667 58.333 32 81s5 43.667 5 63v173l-57 -51l-27 30l84 75v199c0 35.333 -13.333 72.333 -40 111l123 27v-262l55 48l28 -29l-83 -73v-248c0 -19.333 1.5 -40.5 4.5 -63.5s13.833 -49.833 32.5 -80.5h-157z" />
    <glyph glyph-name="Nacute" unicode="&#x143;" horiz-adv-x="625" 
d="M139 542l-0.000976562 -398v-6c0 -18.667 1.66699 -38.834 5 -60.501s13.666 -47.5 30.999 -77.5h-124c18 30.667 28.5 57.5 31.5 80.5s4.5 44.167 4.5 63.5v367c0 10 -0.166992 20.167 -0.5 30.5s-1.66602 21.333 -3.99902 33s-6 24.167 -11 37.5
s-11.833 27.666 -20.5 42.999h119l321 -491v347c0 19.333 -1.66699 40.333 -5 63s-14 49.667 -32 81h125c-9.33301 -15.333 -16.5 -29.666 -21.5 -42.999s-8.66699 -26 -11 -38s-3.66602 -23.167 -3.99902 -33.5s-0.5 -20.166 -0.5 -29.499v-516h-44zM349.999 884h136
l-230 -165z" />
    <glyph glyph-name="nacute" unicode="&#x144;" horiz-adv-x="521" 
d="M46 0c18 30.667 28.501 57.501 31.501 80.501s4.5 44.167 4.5 63.5v191c0 20 -3.16699 38.667 -9.5 56s-16.166 35.666 -29.499 54.999l123 27v-55c36 15.333 67.5 27.666 94.5 36.999s51.833 14 74.5 14c76 0 114 -56.333 114 -169v-156c0 -19.333 1.5 -40.5 4.5 -63.5
s13.833 -49.833 32.5 -80.5h-157c18 31.333 28.667 58.333 32 81s5 43.667 5 63v128c0 26 -2.33301 47.833 -7 65.5s-12.334 31.834 -23.001 42.501s-25 18.334 -43 23.001s-40.333 7 -67 7c-20 0 -40 -1 -60 -3v-263v-6c0 -18.667 1.66699 -38.834 5 -60.501
s13.666 -47.5 30.999 -77.5h-156zM298.001 688.001h136l-230 -165z" />
    <glyph glyph-name="Ncommaaccent" unicode="&#x145;" horiz-adv-x="625" 
d="M139 542l-0.000976562 -398v-6c0 -18.667 1.66699 -38.834 5 -60.501s13.666 -47.5 30.999 -77.5h-124c18 30.667 28.5 57.5 31.5 80.5s4.5 44.167 4.5 63.5v367c0 10 -0.166992 20.167 -0.5 30.5s-1.66602 21.333 -3.99902 33s-6 24.167 -11 37.5
s-11.833 27.666 -20.5 42.999h119l321 -491v347c0 19.333 -1.66699 40.333 -5 63s-14 49.667 -32 81h125c-9.33301 -15.333 -16.5 -29.666 -21.5 -42.999s-8.66699 -26 -11 -38s-3.66602 -23.167 -3.99902 -33.5s-0.5 -20.166 -0.5 -29.499v-516h-44zM264.999 -226
c24.667 26.667 38.333 57.333 41 92c-14.667 0 -26 4.5 -34 13.5s-12 20.5 -12 34.5c0 16 4.5 29 13.5 39s21.833 15 38.5 15c20 0 34.667 -6.16699 44 -18.5s14 -27.833 14 -46.5c0 -31.333 -10 -58.833 -30 -82.5s-45 -39.167 -75 -46.5z" />
    <glyph glyph-name="ncommaaccent" unicode="&#x146;" horiz-adv-x="521" 
d="M46 0c18 30.667 28.501 57.501 31.501 80.501s4.5 44.167 4.5 63.5v191c0 20 -3.16699 38.667 -9.5 56s-16.166 35.666 -29.499 54.999l123 27v-55c36 15.333 67.5 27.666 94.5 36.999s51.833 14 74.5 14c76 0 114 -56.333 114 -169v-156c0 -19.333 1.5 -40.5 4.5 -63.5
s13.833 -49.833 32.5 -80.5h-157c18 31.333 28.667 58.333 32 81s5 43.667 5 63v128c0 26 -2.33301 47.833 -7 65.5s-12.334 31.834 -23.001 42.501s-25 18.334 -43 23.001s-40.333 7 -67 7c-20 0 -40 -1 -60 -3v-263v-6c0 -18.667 1.66699 -38.834 5 -60.501
s13.666 -47.5 30.999 -77.5h-156zM213.001 -225.999c24.667 26.667 38.333 57.333 41 92c-14.667 0 -26 4.5 -34 13.5s-12 20.5 -12 34.5c0 16 4.5 29 13.5 39s21.833 15 38.5 15c20 0 34.667 -6.16699 44 -18.5s14 -27.833 14 -46.5c0 -31.333 -10 -58.833 -30 -82.5
s-45 -39.167 -75 -46.5z" />
    <glyph glyph-name="Ncaron" unicode="&#x147;" horiz-adv-x="625" 
d="M139 542l-0.000976562 -398v-6c0 -18.667 1.66699 -38.834 5 -60.501s13.666 -47.5 30.999 -77.5h-124c18 30.667 28.5 57.5 31.5 80.5s4.5 44.167 4.5 63.5v367c0 10 -0.166992 20.167 -0.5 30.5s-1.66602 21.333 -3.99902 33s-6 24.167 -11 37.5
s-11.833 27.666 -20.5 42.999h119l321 -491v347c0 19.333 -1.66699 40.333 -5 63s-14 49.667 -32 81h125c-9.33301 -15.333 -16.5 -29.666 -21.5 -42.999s-8.66699 -26 -11 -38s-3.66602 -23.167 -3.99902 -33.5s-0.5 -20.166 -0.5 -29.499v-516h-44zM135.999 893l176 -81
l176 81l-176 -177z" />
    <glyph glyph-name="ncaron" unicode="&#x148;" horiz-adv-x="521" 
d="M46 0c18 30.667 28.501 57.501 31.501 80.501s4.5 44.167 4.5 63.5v191c0 20 -3.16699 38.667 -9.5 56s-16.166 35.666 -29.499 54.999l123 27v-55c36 15.333 67.5 27.666 94.5 36.999s51.833 14 74.5 14c76 0 114 -56.333 114 -169v-156c0 -19.333 1.5 -40.5 4.5 -63.5
s13.833 -49.833 32.5 -80.5h-157c18 31.333 28.667 58.333 32 81s5 43.667 5 63v128c0 26 -2.33301 47.833 -7 65.5s-12.334 31.834 -23.001 42.501s-25 18.334 -43 23.001s-40.333 7 -67 7c-20 0 -40 -1 -60 -3v-263v-6c0 -18.667 1.66699 -38.834 5 -60.501
s13.666 -47.5 30.999 -77.5h-156zM84.001 697.001l176 -81l176 81l-176 -177z" />
    <glyph glyph-name="napostrophe" unicode="&#x149;" horiz-adv-x="521" 
d="M46 0c18 30.667 28.501 57.501 31.501 80.501s4.5 44.167 4.5 63.5v191c0 20 -3.16699 38.667 -9.5 56s-16.166 35.666 -29.499 54.999l123 27v-55c36 15.333 67.5 27.666 94.5 36.999s51.833 14 74.5 14c76 0 114 -56.333 114 -169v-156c0 -19.333 1.5 -40.5 4.5 -63.5
s13.833 -49.833 32.5 -80.5h-157c18 31.333 28.667 58.333 32 81s5 43.667 5 63v128c0 26 -2.33301 47.833 -7 65.5s-12.334 31.834 -23.001 42.501s-25 18.334 -43 23.001s-40.333 7 -67 7c-20 0 -40 -1 -60 -3v-263v-6c0 -18.667 1.66699 -38.834 5 -60.501
s13.666 -47.5 30.999 -77.5h-156zM14.001 510.001c24.667 26.667 38.333 57.333 41 92c-14.667 0 -26 4.5 -34 13.5s-12 20.5 -12 34.5c0 16 4.5 29 13.5 39s21.833 15 38.5 15c20 0 34.667 -6.16699 44 -18.5s14 -27.833 14 -46.5c0 -31.333 -10 -58.833 -30 -82.5
s-45 -39.167 -75 -46.5z" />
    <glyph glyph-name="Omacron" unicode="&#x14c;" horiz-adv-x="676" 
d="M49 317c0 53.333 7.00098 101.333 21.001 144s34 79 60 109s57.333 53.167 94 69.5s77.667 24.5 123 24.5c42 0 80.167 -7.83301 114.5 -23.5s63.666 -37.834 87.999 -66.501s43.333 -63.5 57 -104.5s20.5 -86.833 20.5 -137.5c0 -53.333 -7.16699 -101.333 -21.5 -144
s-34.5 -79 -60.5 -109s-57.333 -53.167 -94 -69.5s-77.667 -24.5 -123 -24.5c-42 0 -80 7.83301 -114 23.5s-63.333 38 -88 67s-43.667 63.833 -57 104.5s-20 86.334 -20 137.001zM337.001 619c-28 0 -53.5 -6.33496 -76.5 -19.002s-42.667 -31.167 -59 -55.5
s-29 -54.166 -38 -89.499s-13.5 -75.666 -13.5 -120.999c0 -49.333 4.66699 -92.833 14 -130.5s22.166 -69.5 38.499 -95.5s36.166 -45.667 59.499 -59s49 -20 77 -20c56.667 0 102 24.833 136 74.5s51 120.167 51 211.5c0 48.667 -4.66699 92 -14 130
s-22.166 69.833 -38.499 95.5s-36.166 45.167 -59.499 58.5s-49 20 -77 20zM171.001 822.998h331v-51h-331v51z" />
    <glyph glyph-name="omacron" unicode="&#x14d;" horiz-adv-x="537" 
d="M46 227c0 35.333 5.66895 67.8311 17.002 97.498s27.166 55.167 47.499 76.5s44.333 38 72 50s57.5 18 89.5 18c31.333 0 60.333 -6 87 -18s49.834 -28.667 69.501 -50s35 -46.833 46 -76.5s16.5 -62.5 16.5 -98.5c0 -35.333 -5.66699 -67.666 -17 -96.999
s-27 -54.666 -47 -75.999s-43.833 -38 -71.5 -50s-57.834 -18 -90.501 -18c-31.333 0 -60.333 5.83301 -87 17.5s-49.834 28.167 -69.501 49.5s-35 46.833 -46 76.5s-16.5 62.5 -16.5 98.5zM265.002 431.998c-38 0 -67.8311 -16.333 -89.498 -49s-32.5 -80 -32.5 -142
c0 -70 11.667 -124 35 -162s54.666 -57 93.999 -57c38 0 67.833 16.333 89.5 49s32.5 80 32.5 142c0 70 -11.833 124 -35.5 162s-54.834 57 -93.501 57zM101.004 626.998h331v-51h-331v51z" />
    <glyph glyph-name="Obreve" unicode="&#x14e;" horiz-adv-x="676" 
d="M49 317c0 53.333 7.00098 101.333 21.001 144s34 79 60 109s57.333 53.167 94 69.5s77.667 24.5 123 24.5c42 0 80.167 -7.83301 114.5 -23.5s63.666 -37.834 87.999 -66.501s43.333 -63.5 57 -104.5s20.5 -86.833 20.5 -137.5c0 -53.333 -7.16699 -101.333 -21.5 -144
s-34.5 -79 -60.5 -109s-57.333 -53.167 -94 -69.5s-77.667 -24.5 -123 -24.5c-42 0 -80 7.83301 -114 23.5s-63.333 38 -88 67s-43.667 63.833 -57 104.5s-20 86.334 -20 137.001zM337.001 619c-28 0 -53.5 -6.33496 -76.5 -19.002s-42.667 -31.167 -59 -55.5
s-29 -54.166 -38 -89.499s-13.5 -75.666 -13.5 -120.999c0 -49.333 4.66699 -92.833 14 -130.5s22.166 -69.5 38.499 -95.5s36.166 -45.667 59.499 -59s49 -20 77 -20c56.667 0 102 24.833 136 74.5s51 120.167 51 211.5c0 48.667 -4.66699 92 -14 130
s-22.166 69.833 -38.499 95.5s-36.166 45.167 -59.499 58.5s-49 20 -77 20zM181.001 860.998c26.667 -20 52.167 -35.001 76.5 -45.001s50.5 -15 78.5 -15c30 0 57.833 4.83301 83.5 14.5s51.167 24.834 76.5 45.501c-13.333 -42 -33.333 -73.667 -60 -95s-59 -32 -97 -32
c-81.333 0 -134 42.333 -158 127z" />
    <glyph glyph-name="obreve" unicode="&#x14f;" horiz-adv-x="537" 
d="M46 227c0 35.333 5.66895 67.8311 17.002 97.498s27.166 55.167 47.499 76.5s44.333 38 72 50s57.5 18 89.5 18c31.333 0 60.333 -6 87 -18s49.834 -28.667 69.501 -50s35 -46.833 46 -76.5s16.5 -62.5 16.5 -98.5c0 -35.333 -5.66699 -67.666 -17 -96.999
s-27 -54.666 -47 -75.999s-43.833 -38 -71.5 -50s-57.834 -18 -90.501 -18c-31.333 0 -60.333 5.83301 -87 17.5s-49.834 28.167 -69.501 49.5s-35 46.833 -46 76.5s-16.5 62.5 -16.5 98.5zM265.002 431.998c-38 0 -67.8311 -16.333 -89.498 -49s-32.5 -80 -32.5 -142
c0 -70 11.667 -124 35 -162s54.666 -57 93.999 -57c38 0 67.833 16.333 89.5 49s32.5 80 32.5 142c0 70 -11.833 124 -35.5 162s-54.834 57 -93.501 57zM111.004 664.998c26.667 -20 52.167 -35.001 76.5 -45.001s50.5 -15 78.5 -15c30 0 57.833 4.83301 83.5 14.5
s51.167 24.834 76.5 45.501c-13.333 -42 -33.333 -73.667 -60 -95s-59 -32 -97 -32c-81.333 0 -134 42.333 -158 127z" />
    <glyph glyph-name="Ohungarumlaut" unicode="&#x150;" horiz-adv-x="676" 
d="M49 317c0 53.333 7.00098 101.333 21.001 144s34 79 60 109s57.333 53.167 94 69.5s77.667 24.5 123 24.5c42 0 80.167 -7.83301 114.5 -23.5s63.666 -37.834 87.999 -66.501s43.333 -63.5 57 -104.5s20.5 -86.833 20.5 -137.5c0 -53.333 -7.16699 -101.333 -21.5 -144
s-34.5 -79 -60.5 -109s-57.333 -53.167 -94 -69.5s-77.667 -24.5 -123 -24.5c-42 0 -80 7.83301 -114 23.5s-63.333 38 -88 67s-43.667 63.833 -57 104.5s-20 86.334 -20 137.001zM337.001 619c-28 0 -53.5 -6.33496 -76.5 -19.002s-42.667 -31.167 -59 -55.5
s-29 -54.166 -38 -89.499s-13.5 -75.666 -13.5 -120.999c0 -49.333 4.66699 -92.833 14 -130.5s22.166 -69.5 38.499 -95.5s36.166 -45.667 59.499 -59s49 -20 77 -20c56.667 0 102 24.833 136 74.5s51 120.167 51 211.5c0 48.667 -4.66699 92 -14 130
s-22.166 69.833 -38.499 95.5s-36.166 45.167 -59.499 58.5s-49 20 -77 20zM307.001 868.998h83l-157 -150zM452.001 868.998h83l-156 -150z" />
    <glyph glyph-name="ohungarumlaut" unicode="&#x151;" horiz-adv-x="537" 
d="M46 227c0 35.333 5.66895 67.8311 17.002 97.498s27.166 55.167 47.499 76.5s44.333 38 72 50s57.5 18 89.5 18c31.333 0 60.333 -6 87 -18s49.834 -28.667 69.501 -50s35 -46.833 46 -76.5s16.5 -62.5 16.5 -98.5c0 -35.333 -5.66699 -67.666 -17 -96.999
s-27 -54.666 -47 -75.999s-43.833 -38 -71.5 -50s-57.834 -18 -90.501 -18c-31.333 0 -60.333 5.83301 -87 17.5s-49.834 28.167 -69.501 49.5s-35 46.833 -46 76.5s-16.5 62.5 -16.5 98.5zM265.002 431.998c-38 0 -67.8311 -16.333 -89.498 -49s-32.5 -80 -32.5 -142
c0 -70 11.667 -124 35 -162s54.666 -57 93.999 -57c38 0 67.833 16.333 89.5 49s32.5 80 32.5 142c0 70 -11.833 124 -35.5 162s-54.834 57 -93.501 57zM237.004 672.998h83l-157 -150zM382.004 672.998h83l-156 -150z" />
    <glyph glyph-name="OE" unicode="&#x152;" horiz-adv-x="843" 
d="M419 0c-32.667 -7.33301 -60.332 -10.999 -82.999 -10.999c-45.333 0 -85.666 7.5 -120.999 22.5s-65.333 36.5 -90 64.5s-43.5 62.167 -56.5 102.5s-19.5 86.166 -19.5 137.499s7.16699 98.333 21.5 141s34.5 79.334 60.5 110.001s57.167 54.5 93.5 71.5
s76.166 25.5 119.499 25.5c25.333 0 51 -3 77 -9h371v-126l-94 72c-12 9.33301 -28.667 14 -50 14h-132v-267h122c4.66699 0 12 1.83301 22 5.5s19 8.16699 27 13.5l58 42v-153l-56 40c-10.667 7.33301 -21 11.666 -31 12.999s-20.667 2 -32 2h-110v-273h144
c11.333 0 20.166 2.16699 26.499 6.5l22.5 15.5l98 73l-18 -133h-370zM430.002 594.001c-33.333 16 -64.002 23.998 -92.002 23.998s-53.667 -6.66699 -77 -20s-43.166 -32.666 -59.499 -57.999s-29.166 -56 -38.499 -92s-14 -76.333 -14 -121
c0 -46 4.83301 -87.167 14.5 -123.5s23 -67.166 40 -92.499s37.167 -44.833 60.5 -58.5s48.333 -20.5 75 -20.5s57 8 91 24v538z" />
    <glyph glyph-name="oe" unicode="&#x153;" horiz-adv-x="836" 
d="M265 435c-38.667 0 -69 -16.332 -91 -48.999s-33 -80.334 -33 -143.001c0 -70.667 11.833 -125.167 35.5 -163.5s55.5 -57.5 95.5 -57.5c38.667 0 69 16.5 91 49.5s33 80.5 33 142.5c0 70.667 -11.833 125.167 -35.5 163.5s-55.5 57.5 -95.5 57.5zM487 250.001
c0 -70 15.832 -121.002 47.499 -153.002s82.834 -48 153.501 -48c33.333 0 70.666 3 111.999 9c-52.667 -44 -113 -66 -181 -66c-39.333 0 -73.833 6.66699 -103.5 20s-55.5 34 -77.5 62c-21.333 -32 -45.166 -55 -71.499 -69s-58.166 -21 -95.499 -21
c-34 0 -65 5.83301 -93 17.5s-52 28.167 -72 49.5s-35.5 47 -46.5 77s-16.5 63 -16.5 99c0 35.333 5.83301 67.833 17.5 97.5s27.667 55.334 48 77.001s44.666 38.5 72.999 50.5s59.5 18 93.5 18c70.667 0 126.334 -29.667 167.001 -89c45.333 58.667 101.666 88 168.999 88
c56 0 100.5 -18.667 133.5 -56s49.5 -89.666 49.5 -156.999v-6h-307zM694.999 303.999c0 42 -8.49805 74.5 -25.498 97.5s-40.167 34.5 -69.5 34.5c-32.667 0 -59.334 -14 -80.001 -42s-31.334 -67 -32.001 -117z" />
    <glyph glyph-name="Racute" unicode="&#x154;" horiz-adv-x="549" 
d="M58 0c18 30.667 28.499 57.5 31.499 80.5s4.5 44.167 4.5 63.5v367c0 10 -0.166992 20.167 -0.5 30.5s-1.66602 21.333 -3.99902 33s-6 24.167 -11 37.5s-11.833 27.666 -20.5 42.999h198c28.667 0 54.5 -1.16699 77.5 -3.5s43.833 -9.16602 62.5 -20.499
c19.333 -11.333 34.833 -28.5 46.5 -51.5s17.5 -48.5 17.5 -76.5c0 -48 -14.5 -87.167 -43.5 -117.5s-70.833 -49.5 -125.5 -57.5l146 -199c19.333 -26.667 39.333 -50.667 60 -72s43 -40.333 67 -57h-146l-236 335v-191c0 -19.333 1.5 -40.5 4.5 -63.5
s13.833 -49.833 32.5 -80.5h-161zM231.999 353c42 0 74.333 11.668 97 35.001s34 56.666 34 99.999c0 86.667 -43.667 130 -131 130h-50v-265h50zM301.999 884.001h136l-230 -165z" />
    <glyph glyph-name="racute" unicode="&#x155;" horiz-adv-x="352" 
d="M50 0c18 31.333 28.6689 58.332 32.002 80.999s5 43.667 5 63v191c0 35.333 -13.333 72.333 -40 111l123 27v-67c25.333 20.667 48.333 36.334 69 47.001s40.667 16 60 16c9.33301 0 22.666 -2.66699 39.999 -8v-100c-33.333 26 -72 39 -116 39
c-8.66699 0 -17.334 -0.333008 -26.001 -1s-17.667 -1.66699 -27 -3v-252c0 -19.333 1.5 -40.5 4.5 -63.5s13.833 -49.833 32.5 -80.5h-157zM215.002 687.999h136l-230 -165z" />
    <glyph glyph-name="Rcommaaccent" unicode="&#x156;" horiz-adv-x="549" 
d="M58 0c18 30.667 28.499 57.5 31.499 80.5s4.5 44.167 4.5 63.5v367c0 10 -0.166992 20.167 -0.5 30.5s-1.66602 21.333 -3.99902 33s-6 24.167 -11 37.5s-11.833 27.666 -20.5 42.999h198c28.667 0 54.5 -1.16699 77.5 -3.5s43.833 -9.16602 62.5 -20.499
c19.333 -11.333 34.833 -28.5 46.5 -51.5s17.5 -48.5 17.5 -76.5c0 -48 -14.5 -87.167 -43.5 -117.5s-70.833 -49.5 -125.5 -57.5l146 -199c19.333 -26.667 39.333 -50.667 60 -72s43 -40.333 67 -57h-146l-236 335v-191c0 -19.333 1.5 -40.5 4.5 -63.5
s13.833 -49.833 32.5 -80.5h-161zM231.999 353c42 0 74.333 11.668 97 35.001s34 56.666 34 99.999c0 86.667 -43.667 130 -131 130h-50v-265h50zM236.999 -225.999c24.667 26.667 38.333 57.333 41 92c-14.667 0 -26 4.5 -34 13.5s-12 20.5 -12 34.5c0 16 4.5 29 13.5 39
s21.833 15 38.5 15c20 0 34.667 -6.16699 44 -18.5s14 -27.833 14 -46.5c0 -31.333 -10 -58.833 -30 -82.5s-45 -39.167 -75 -46.5z" />
    <glyph glyph-name="rcommaaccent" unicode="&#x157;" horiz-adv-x="352" 
d="M50 0c18 31.333 28.6689 58.332 32.002 80.999s5 43.667 5 63v191c0 35.333 -13.333 72.333 -40 111l123 27v-67c25.333 20.667 48.333 36.334 69 47.001s40.667 16 60 16c9.33301 0 22.666 -2.66699 39.999 -8v-100c-33.333 26 -72 39 -116 39
c-8.66699 0 -17.334 -0.333008 -26.001 -1s-17.667 -1.66699 -27 -3v-252c0 -19.333 1.5 -40.5 4.5 -63.5s13.833 -49.833 32.5 -80.5h-157zM80.002 -226.001c24.667 26.667 38.333 57.333 41 92c-14.667 0 -26 4.5 -34 13.5s-12 20.5 -12 34.5c0 16 4.5 29 13.5 39
s21.833 15 38.5 15c20 0 34.667 -6.16699 44 -18.5s14 -27.833 14 -46.5c0 -31.333 -10 -58.833 -30 -82.5s-45 -39.167 -75 -46.5z" />
    <glyph glyph-name="Rcaron" unicode="&#x158;" horiz-adv-x="549" 
d="M58 0c18 30.667 28.499 57.5 31.499 80.5s4.5 44.167 4.5 63.5v367c0 10 -0.166992 20.167 -0.5 30.5s-1.66602 21.333 -3.99902 33s-6 24.167 -11 37.5s-11.833 27.666 -20.5 42.999h198c28.667 0 54.5 -1.16699 77.5 -3.5s43.833 -9.16602 62.5 -20.499
c19.333 -11.333 34.833 -28.5 46.5 -51.5s17.5 -48.5 17.5 -76.5c0 -48 -14.5 -87.167 -43.5 -117.5s-70.833 -49.5 -125.5 -57.5l146 -199c19.333 -26.667 39.333 -50.667 60 -72s43 -40.333 67 -57h-146l-236 335v-191c0 -19.333 1.5 -40.5 4.5 -63.5
s13.833 -49.833 32.5 -80.5h-161zM231.999 353c42 0 74.333 11.668 97 35.001s34 56.666 34 99.999c0 86.667 -43.667 130 -131 130h-50v-265h50zM87.999 893.001l176 -81l176 81l-176 -177z" />
    <glyph glyph-name="rcaron" unicode="&#x159;" horiz-adv-x="352" 
d="M50 0c18 31.333 28.6689 58.332 32.002 80.999s5 43.667 5 63v191c0 35.333 -13.333 72.333 -40 111l123 27v-67c25.333 20.667 48.333 36.334 69 47.001s40.667 16 60 16c9.33301 0 22.666 -2.66699 39.999 -8v-100c-33.333 26 -72 39 -116 39
c-8.66699 0 -17.334 -0.333008 -26.001 -1s-17.667 -1.66699 -27 -3v-252c0 -19.333 1.5 -40.5 4.5 -63.5s13.833 -49.833 32.5 -80.5h-157zM1.00195 696.999l176 -81l176 81l-176 -177z" />
    <glyph glyph-name="Sacute" unicode="&#x15a;" horiz-adv-x="484" 
d="M59 132l106 -81.0029c9.33301 -7.33301 18.166 -12.666 26.499 -15.999s17.166 -5 26.499 -5c40 0 72.333 10.833 97 32.5s37 49.5 37 83.5c0 23.333 -6 42.5 -18 57.5s-29.333 30.167 -52 45.5l-117 81c-34 23.333 -58.833 46.833 -74.5 70.5s-23.5 53.167 -23.5 88.5
c0 24.667 4.83301 47.667 14.5 69s23.334 39.833 41.001 55.5s38.834 28 63.501 37s52 13.5 82 13.5c44 0 92.667 -6.66699 146 -20v-115l-99 76c-18 14 -36 21 -54 21c-14.667 0 -28.667 -2.66699 -42 -8s-25 -12.833 -35 -22.5s-18 -21.167 -24 -34.5s-9 -28 -9 -44
c0 -14.667 2 -27.667 6 -39s9.83301 -21.666 17.5 -30.999s17.167 -18.5 28.5 -27.5s24.333 -18.167 39 -27.5l106 -70c31.333 -20.667 54.5 -41.5 69.5 -62.5s22.5 -48.833 22.5 -83.5c0 -27.333 -5 -52.666 -15 -75.999s-24.5 -43.5 -43.5 -60.5
s-42.167 -30.333 -69.5 -40s-58.333 -14.5 -93 -14.5c-52 0 -105.333 10 -160 30v117zM281 883.997h136l-230 -165z" />
    <glyph glyph-name="sacute" unicode="&#x15b;" horiz-adv-x="398" 
d="M52 122c37.333 -30.667 67.8311 -54.501 91.498 -71.501s43.167 -25.5 58.5 -25.5c20 0 37.333 7.16699 52 21.5s22 32.166 22 53.499c0 19.333 -5.16699 34.5 -15.5 45.5s-26.166 21.833 -47.499 32.5l-52 26c-35.333 17.333 -61.333 36.5 -78 57.5s-25 45.5 -25 73.5
c0 39.333 14.333 71.5 43 96.5s67.667 37.5 117 37.5c16.667 0 35.334 -1.33301 56.001 -4s42.667 -6.66699 66 -12v-107c-36 27.333 -65.167 48.5 -87.5 63.5s-40.166 22.5 -53.499 22.5c-17.333 0 -32.5 -6.33301 -45.5 -19s-19.5 -28.667 -19.5 -48
c0 -15.333 5.5 -29.166 16.5 -41.499s27.5 -24.166 49.5 -35.499l67 -35c30.667 -16 53.5 -32.667 68.5 -50s22.5 -40.333 22.5 -69c0 -46 -14.833 -81.833 -44.5 -107.5s-72.834 -38.5 -129.501 -38.5c-16 0 -35 1.66699 -57 5s-47 9 -75 17v112zM237.998 687.999h136
l-230 -165z" />
    <glyph glyph-name="Scircumflex" unicode="&#x15c;" horiz-adv-x="484" 
d="M59 132l106 -81.0029c9.33301 -7.33301 18.166 -12.666 26.499 -15.999s17.166 -5 26.499 -5c40 0 72.333 10.833 97 32.5s37 49.5 37 83.5c0 23.333 -6 42.5 -18 57.5s-29.333 30.167 -52 45.5l-117 81c-34 23.333 -58.833 46.833 -74.5 70.5s-23.5 53.167 -23.5 88.5
c0 24.667 4.83301 47.667 14.5 69s23.334 39.833 41.001 55.5s38.834 28 63.501 37s52 13.5 82 13.5c44 0 92.667 -6.66699 146 -20v-115l-99 76c-18 14 -36 21 -54 21c-14.667 0 -28.667 -2.66699 -42 -8s-25 -12.833 -35 -22.5s-18 -21.167 -24 -34.5s-9 -28 -9 -44
c0 -14.667 2 -27.667 6 -39s9.83301 -21.666 17.5 -30.999s17.167 -18.5 28.5 -27.5s24.333 -18.167 39 -27.5l106 -70c31.333 -20.667 54.5 -41.5 69.5 -62.5s22.5 -48.833 22.5 -83.5c0 -27.333 -5 -52.666 -15 -75.999s-24.5 -43.5 -43.5 -60.5
s-42.167 -30.333 -69.5 -40s-58.333 -14.5 -93 -14.5c-52 0 -105.333 10 -160 30v117zM243 895.997l176 -177l-176 80l-176 -80z" />
    <glyph glyph-name="scircumflex" unicode="&#x15d;" horiz-adv-x="398" 
d="M52 122c37.333 -30.667 67.8311 -54.501 91.498 -71.501s43.167 -25.5 58.5 -25.5c20 0 37.333 7.16699 52 21.5s22 32.166 22 53.499c0 19.333 -5.16699 34.5 -15.5 45.5s-26.166 21.833 -47.499 32.5l-52 26c-35.333 17.333 -61.333 36.5 -78 57.5s-25 45.5 -25 73.5
c0 39.333 14.333 71.5 43 96.5s67.667 37.5 117 37.5c16.667 0 35.334 -1.33301 56.001 -4s42.667 -6.66699 66 -12v-107c-36 27.333 -65.167 48.5 -87.5 63.5s-40.166 22.5 -53.499 22.5c-17.333 0 -32.5 -6.33301 -45.5 -19s-19.5 -28.667 -19.5 -48
c0 -15.333 5.5 -29.166 16.5 -41.499s27.5 -24.166 49.5 -35.499l67 -35c30.667 -16 53.5 -32.667 68.5 -50s22.5 -40.333 22.5 -69c0 -46 -14.833 -81.833 -44.5 -107.5s-72.834 -38.5 -129.501 -38.5c-16 0 -35 1.66699 -57 5s-47 9 -75 17v112zM199.998 699.999l176 -177
l-176 80l-176 -80z" />
    <glyph glyph-name="Scedilla" unicode="&#x15e;" horiz-adv-x="484" 
d="M205 -15c-47.333 2 -96.001 11.999 -146.001 29.999v117l106 -81c9.33301 -7.33301 18.166 -12.666 26.499 -15.999s17.166 -5 26.499 -5c40 0 72.333 10.833 97 32.5s37 49.5 37 83.5c0 23.333 -6 42.5 -18 57.5s-29.333 30.167 -52 45.5l-117 81
c-34 23.333 -58.833 46.833 -74.5 70.5s-23.5 53.167 -23.5 88.5c0 24.667 4.83301 47.667 14.5 69s23.334 39.833 41.001 55.5s38.834 28 63.501 37s52 13.5 82 13.5c44 0 92.667 -6.66699 146 -20v-115l-99 76c-18 14 -36 21 -54 21c-14.667 0 -28.667 -2.66699 -42 -8
s-25 -12.833 -35 -22.5s-18 -21.167 -24 -34.5s-9 -28 -9 -44c0 -14.667 2 -27.667 6 -39s9.83301 -21.666 17.5 -30.999s17.167 -18.5 28.5 -27.5s24.333 -18.167 39 -27.5l106 -70c31.333 -20.667 54.5 -41.5 69.5 -62.5s22.5 -48.833 22.5 -83.5
c0 -26 -4.66699 -50.333 -14 -73s-22.666 -42.334 -39.999 -59.001s-38.5 -30 -63.5 -40s-53.167 -16 -84.5 -18v-18c25.333 -2 44.833 -10 58.5 -24s20.5 -32.667 20.5 -56c0 -26.667 -11.167 -49.334 -33.5 -68.001s-51.5 -28 -87.5 -28c-10 0 -19 1.33301 -27 4
c25.333 14.667 44.333 30 57 46s19 31.667 19 47s-3.66699 27.833 -11 37.5s-17 15.834 -29 18.501v40z" />
    <glyph glyph-name="scedilla" unicode="&#x15f;" horiz-adv-x="398" 
d="M161 -11c-30 2 -66.3359 8.99707 -109.003 20.9971v112c37.333 -30.667 67.833 -54.5 91.5 -71.5s43.167 -25.5 58.5 -25.5c20 0 37.333 7.16699 52 21.5s22 32.166 22 53.499c0 19.333 -5.16699 34.5 -15.5 45.5s-26.166 21.833 -47.499 32.5l-52 26
c-35.333 17.333 -61.333 36.5 -78 57.5s-25 45.5 -25 73.5c0 39.333 14.333 71.5 43 96.5s67.667 37.5 117 37.5c16.667 0 35.334 -1.33301 56.001 -4s42.667 -6.66699 66 -12v-107c-36 27.333 -65.167 48.5 -87.5 63.5s-40.166 22.5 -53.499 22.5
c-17.333 0 -32.5 -6.33301 -45.5 -19s-19.5 -28.667 -19.5 -48c0 -15.333 5.5 -29.166 16.5 -41.499s27.5 -24.166 49.5 -35.499l67 -35c30.667 -16 53.5 -32.667 68.5 -50s22.5 -40.333 22.5 -69c0 -45.333 -14 -80.666 -42 -105.999s-68.667 -38.666 -122 -39.999v-20
c25.333 -2 44.833 -10 58.5 -24s20.5 -32.667 20.5 -56c0 -26.667 -11.167 -49.334 -33.5 -68.001s-51.5 -28 -87.5 -28c-10 0 -19 1.33301 -27 4c25.333 14.667 44.333 30 57 46s19 31.667 19 47s-3.66699 27.833 -11 37.5s-17 15.834 -29 18.501v44z" />
    <glyph glyph-name="Scaron" unicode="&#x160;" horiz-adv-x="484" 
d="M59 132l106 -81.0029c9.33301 -7.33301 18.166 -12.666 26.499 -15.999s17.166 -5 26.499 -5c40 0 72.333 10.833 97 32.5s37 49.5 37 83.5c0 23.333 -6 42.5 -18 57.5s-29.333 30.167 -52 45.5l-117 81c-34 23.333 -58.833 46.833 -74.5 70.5s-23.5 53.167 -23.5 88.5
c0 24.667 4.83301 47.667 14.5 69s23.334 39.833 41.001 55.5s38.834 28 63.501 37s52 13.5 82 13.5c44 0 92.667 -6.66699 146 -20v-115l-99 76c-18 14 -36 21 -54 21c-14.667 0 -28.667 -2.66699 -42 -8s-25 -12.833 -35 -22.5s-18 -21.167 -24 -34.5s-9 -28 -9 -44
c0 -14.667 2 -27.667 6 -39s9.83301 -21.666 17.5 -30.999s17.167 -18.5 28.5 -27.5s24.333 -18.167 39 -27.5l106 -70c31.333 -20.667 54.5 -41.5 69.5 -62.5s22.5 -48.833 22.5 -83.5c0 -27.333 -5 -52.666 -15 -75.999s-24.5 -43.5 -43.5 -60.5
s-42.167 -30.333 -69.5 -40s-58.333 -14.5 -93 -14.5c-52 0 -105.333 10 -160 30v117zM67 892.997l176 -81l176 81l-176 -177z" />
    <glyph glyph-name="scaron" unicode="&#x161;" horiz-adv-x="398" 
d="M52 122c37.333 -30.667 67.8311 -54.501 91.498 -71.501s43.167 -25.5 58.5 -25.5c20 0 37.333 7.16699 52 21.5s22 32.166 22 53.499c0 19.333 -5.16699 34.5 -15.5 45.5s-26.166 21.833 -47.499 32.5l-52 26c-35.333 17.333 -61.333 36.5 -78 57.5s-25 45.5 -25 73.5
c0 39.333 14.333 71.5 43 96.5s67.667 37.5 117 37.5c16.667 0 35.334 -1.33301 56.001 -4s42.667 -6.66699 66 -12v-107c-36 27.333 -65.167 48.5 -87.5 63.5s-40.166 22.5 -53.499 22.5c-17.333 0 -32.5 -6.33301 -45.5 -19s-19.5 -28.667 -19.5 -48
c0 -15.333 5.5 -29.166 16.5 -41.499s27.5 -24.166 49.5 -35.499l67 -35c30.667 -16 53.5 -32.667 68.5 -50s22.5 -40.333 22.5 -69c0 -46 -14.833 -81.833 -44.5 -107.5s-72.834 -38.5 -129.501 -38.5c-16 0 -35 1.66699 -57 5s-47 9 -75 17v112zM23.998 696.999l176 -81
l176 81l-176 -177z" />
    <glyph glyph-name="Tcommaaccent" unicode="&#x162;" horiz-adv-x="537" 
d="M192 0c18 30.667 28.5 57.5 31.5 80.5s4.5 44.167 4.5 63.5v467h-80c-7.33301 0 -14.833 -1.33301 -22.5 -4s-14.167 -5.66699 -19.5 -9l-94 -70v127h520v-127l-91 69c-5.33301 4 -12 7.33301 -20 10s-16.333 4 -25 4h-80v-467c0 -19.333 1.5 -40.5 4.5 -63.5
s13.833 -49.833 32.5 -80.5h-161zM221 -226c24.667 26.667 38.333 57.333 41 92c-14.667 0 -26 4.5 -34 13.5s-12 20.5 -12 34.5c0 16 4.5 29 13.5 39s21.833 15 38.5 15c20 0 34.667 -6.16699 44 -18.5s14 -27.833 14 -46.5c0 -31.333 -10 -58.833 -30 -82.5
s-45 -39.167 -75 -46.5z" />
    <glyph glyph-name="tcommaaccent" unicode="&#x163;" horiz-adv-x="336" 
d="M84 419l-79.9971 0.000976562c71.333 60 126 118.667 164 176v-132h153v-44h-153v-272c0 -19.333 1.16699 -35.333 3.5 -48s7.16602 -22.834 14.499 -30.501s18.166 -13.167 32.499 -16.5s33.166 -5 56.499 -5c20 0 43 2 69 6c-26 -21.333 -52.333 -37.333 -79 -48
s-51.667 -16 -75 -16c-22 0 -39.833 3 -53.5 9s-24.5 15 -32.5 27s-13.333 27.167 -16 45.5s-4 39.833 -4 64.5v284zM122.003 -225.999c24.667 26.667 38.333 57.333 41 92c-14.667 0 -26 4.5 -34 13.5s-12 20.5 -12 34.5c0 16 4.5 29 13.5 39s21.833 15 38.5 15
c20 0 34.667 -6.16699 44 -18.5s14 -27.833 14 -46.5c0 -31.333 -10 -58.833 -30 -82.5s-45 -39.167 -75 -46.5z" />
    <glyph glyph-name="Tcaron" unicode="&#x164;" horiz-adv-x="537" 
d="M192 0c18 30.667 28.5 57.5 31.5 80.5s4.5 44.167 4.5 63.5v467h-80c-7.33301 0 -14.833 -1.33301 -22.5 -4s-14.167 -5.66699 -19.5 -9l-94 -70v127h520v-127l-91 69c-5.33301 4 -12 7.33301 -20 10s-16.333 4 -25 4h-80v-467c0 -19.333 1.5 -40.5 4.5 -63.5
s13.833 -49.833 32.5 -80.5h-161zM92 893l176 -81l176 81l-176 -177z" />
    <glyph glyph-name="tcaron" unicode="&#x165;" horiz-adv-x="336" 
d="M84 419l-79.9971 0.000976562c71.333 60 126 118.667 164 176v-132h153v-44h-153v-272c0 -19.333 1.16699 -35.333 3.5 -48s7.16602 -22.834 14.499 -30.501s18.166 -13.167 32.499 -16.5s33.166 -5 56.499 -5c20 0 43 2 69 6c-26 -21.333 -52.333 -37.333 -79 -48
s-51.667 -16 -75 -16c-22 0 -39.833 3 -53.5 9s-24.5 15 -32.5 27s-13.333 27.167 -16 45.5s-4 39.833 -4 64.5v284zM213.003 510.001c24.667 26.667 38.333 57.333 41 92c-14.667 0 -26 4.5 -34 13.5s-12 20.5 -12 34.5c0 16 4.5 29 13.5 39s21.833 15 38.5 15
c20 0 34.667 -6.16699 44 -18.5s14 -27.833 14 -46.5c0 -31.333 -10 -58.833 -30 -82.5s-45 -39.167 -75 -46.5z" />
    <glyph glyph-name="Tbar" unicode="&#x166;" horiz-adv-x="537" 
d="M192 0c18 30.667 28.5 57.5 31.5 80.5s4.5 44.167 4.5 63.5v210h-109v49h109v208h-80c-7.33301 0 -14.833 -1.33301 -22.5 -4s-14.167 -5.66699 -19.5 -9l-94 -70v127h520v-127l-91 69c-5.33301 4 -12 7.33301 -20 10s-16.333 4 -25 4h-80v-208h109v-49h-109v-210
c0 -19.333 1.5 -40.5 4.5 -63.5s13.833 -49.833 32.5 -80.5h-161z" />
    <glyph glyph-name="tbar" unicode="&#x167;" horiz-adv-x="336" 
d="M84 286l-69.9971 0.000976562v42h70v91h-80c71.333 60 126 118.667 164 176v-132h153v-44h-153v-91h123v-42h-123v-139c0 -19.333 1.16699 -35.333 3.5 -48s7.16602 -22.834 14.499 -30.501s18.166 -13.167 32.499 -16.5s33.166 -5 56.499 -5c20 0 43 2 69 6
c-26 -21.333 -52.333 -37.333 -79 -48s-51.667 -16 -75 -16c-22 0 -39.833 3 -53.5 9s-24.5 15 -32.5 27s-13.333 27.167 -16 45.5s-4 39.833 -4 64.5v151z" />
    <glyph glyph-name="Utilde" unicode="&#x168;" horiz-adv-x="616" 
d="M75 511c0 10 -0.173828 20.166 -0.506836 30.499s-1.66602 21.333 -3.99902 33s-6 24.167 -11 37.5s-11.833 27.666 -20.5 42.999h161c-9.33301 -15.333 -16.5 -29.666 -21.5 -42.999s-8.66699 -26 -11 -38s-3.66602 -23.167 -3.99902 -33.5s-0.5 -20.166 -0.5 -29.499
v-302c0 -31.333 2.5 -58.666 7.5 -81.999s13.333 -42.5 25 -57.5s27.167 -26.167 46.5 -33.5s43 -11 71 -11c74.667 0 123.334 23.667 146.001 71c7.33301 15.333 11.833 31.666 13.5 48.999s2.5 36.333 2.5 57v41v268c0 10 -0.166992 20.167 -0.5 30.5
s-1.66602 21.333 -3.99902 33s-6 24.167 -11 37.5s-11.833 27.666 -20.5 42.999h138c-9.33301 -15.333 -16.5 -29.666 -21.5 -42.999s-8.66699 -26 -11 -38s-3.66602 -23.167 -3.99902 -33.5s-0.5 -20.166 -0.5 -29.499v-280v-14c0 -26 -1 -50.333 -3 -73s-8 -44 -18 -64
c-15.333 -30.667 -41.166 -54.334 -77.499 -71.001s-82.166 -25 -137.499 -25c-81.333 0 -139.833 16.333 -175.5 49s-53.5 84.667 -53.5 156v322zM263.993 794.999c-10.667 4.66699 -18.668 7 -24.001 7c-16 0 -42 -18.667 -78 -56c6.66699 33.333 18.667 59 36 77
s35.666 27 54.999 27c16.667 0 32.334 -3.33301 47.001 -10l86 -39c9.33301 -4.66699 17.333 -7 24 -7c16.667 0 42.667 18.667 78 56c-6.66699 -34 -18.667 -59.833 -36 -77.5s-35.666 -26.5 -54.999 -26.5c-17.333 0 -33 3 -47 9z" />
    <glyph glyph-name="utilde" unicode="&#x169;" horiz-adv-x="521" 
d="M355 50c-33.333 -18.667 -63.335 -32.8369 -90.002 -42.5039s-51.667 -14.5 -75 -14.5c-22.667 0 -41.5 3 -56.5 9s-27 15.333 -36 28s-15.333 28.834 -19 48.501s-5.5 42.834 -5.5 69.501v187c0 35.333 -13.333 72.333 -40 111l123 27v-276
c0 -26 1.33301 -48.167 4 -66.5s8.33398 -33.333 17.001 -45s21.334 -20 38.001 -25s38.667 -7.5 66 -7.5c10.667 0 22 0.5 34 1.5l40 3.5v277c0 35.333 -13.333 72.333 -40 111l124 27v-346c0 -19.333 3.33301 -37.666 10 -54.999s16.667 -35.666 30 -54.999l-124 -28v61z
M198.998 598.997c-10.667 4.66699 -18.668 7 -24.001 7c-16 0 -42 -18.667 -78 -56c6.66699 33.333 18.667 59 36 77s35.666 27 54.999 27c16.667 0 32.334 -3.33301 47.001 -10l86 -39c9.33301 -4.66699 17.333 -7 24 -7c16.667 0 42.667 18.667 78 56
c-6.66699 -34 -18.667 -59.833 -36 -77.5s-35.666 -26.5 -54.999 -26.5c-17.333 0 -33 3 -47 9z" />
    <glyph glyph-name="Umacron" unicode="&#x16a;" horiz-adv-x="616" 
d="M75 511c0 10 -0.173828 20.166 -0.506836 30.499s-1.66602 21.333 -3.99902 33s-6 24.167 -11 37.5s-11.833 27.666 -20.5 42.999h161c-9.33301 -15.333 -16.5 -29.666 -21.5 -42.999s-8.66699 -26 -11 -38s-3.66602 -23.167 -3.99902 -33.5s-0.5 -20.166 -0.5 -29.499
v-302c0 -31.333 2.5 -58.666 7.5 -81.999s13.333 -42.5 25 -57.5s27.167 -26.167 46.5 -33.5s43 -11 71 -11c74.667 0 123.334 23.667 146.001 71c7.33301 15.333 11.833 31.666 13.5 48.999s2.5 36.333 2.5 57v41v268c0 10 -0.166992 20.167 -0.5 30.5
s-1.66602 21.333 -3.99902 33s-6 24.167 -11 37.5s-11.833 27.666 -20.5 42.999h138c-9.33301 -15.333 -16.5 -29.666 -21.5 -42.999s-8.66699 -26 -11 -38s-3.66602 -23.167 -3.99902 -33.5s-0.5 -20.166 -0.5 -29.499v-280v-14c0 -26 -1 -50.333 -3 -73s-8 -44 -18 -64
c-15.333 -30.667 -41.166 -54.334 -77.499 -71.001s-82.166 -25 -137.499 -25c-81.333 0 -139.833 16.333 -175.5 49s-53.5 84.667 -53.5 156v322zM157.993 822.999h331v-51h-331v51z" />
    <glyph glyph-name="umacron" unicode="&#x16b;" horiz-adv-x="521" 
d="M355 50c-33.333 -18.667 -63.335 -32.8369 -90.002 -42.5039s-51.667 -14.5 -75 -14.5c-22.667 0 -41.5 3 -56.5 9s-27 15.333 -36 28s-15.333 28.834 -19 48.501s-5.5 42.834 -5.5 69.501v187c0 35.333 -13.333 72.333 -40 111l123 27v-276
c0 -26 1.33301 -48.167 4 -66.5s8.33398 -33.333 17.001 -45s21.334 -20 38.001 -25s38.667 -7.5 66 -7.5c10.667 0 22 0.5 34 1.5l40 3.5v277c0 35.333 -13.333 72.333 -40 111l124 27v-346c0 -19.333 3.33301 -37.666 10 -54.999s16.667 -35.666 30 -54.999l-124 -28v61z
M92.998 626.997h331v-51h-331v51z" />
    <glyph glyph-name="Ubreve" unicode="&#x16c;" horiz-adv-x="616" 
d="M75 511c0 10 -0.173828 20.166 -0.506836 30.499s-1.66602 21.333 -3.99902 33s-6 24.167 -11 37.5s-11.833 27.666 -20.5 42.999h161c-9.33301 -15.333 -16.5 -29.666 -21.5 -42.999s-8.66699 -26 -11 -38s-3.66602 -23.167 -3.99902 -33.5s-0.5 -20.166 -0.5 -29.499
v-302c0 -31.333 2.5 -58.666 7.5 -81.999s13.333 -42.5 25 -57.5s27.167 -26.167 46.5 -33.5s43 -11 71 -11c74.667 0 123.334 23.667 146.001 71c7.33301 15.333 11.833 31.666 13.5 48.999s2.5 36.333 2.5 57v41v268c0 10 -0.166992 20.167 -0.5 30.5
s-1.66602 21.333 -3.99902 33s-6 24.167 -11 37.5s-11.833 27.666 -20.5 42.999h138c-9.33301 -15.333 -16.5 -29.666 -21.5 -42.999s-8.66699 -26 -11 -38s-3.66602 -23.167 -3.99902 -33.5s-0.5 -20.166 -0.5 -29.499v-280v-14c0 -26 -1 -50.333 -3 -73s-8 -44 -18 -64
c-15.333 -30.667 -41.166 -54.334 -77.499 -71.001s-82.166 -25 -137.499 -25c-81.333 0 -139.833 16.333 -175.5 49s-53.5 84.667 -53.5 156v322zM167.993 860.999c26.667 -20 52.167 -35.001 76.5 -45.001s50.5 -15 78.5 -15c30 0 57.833 4.83301 83.5 14.5
s51.167 24.834 76.5 45.501c-13.333 -42 -33.333 -73.667 -60 -95s-59 -32 -97 -32c-81.333 0 -134 42.333 -158 127z" />
    <glyph glyph-name="ubreve" unicode="&#x16d;" horiz-adv-x="521" 
d="M355 50c-33.333 -18.667 -63.335 -32.8369 -90.002 -42.5039s-51.667 -14.5 -75 -14.5c-22.667 0 -41.5 3 -56.5 9s-27 15.333 -36 28s-15.333 28.834 -19 48.501s-5.5 42.834 -5.5 69.501v187c0 35.333 -13.333 72.333 -40 111l123 27v-276
c0 -26 1.33301 -48.167 4 -66.5s8.33398 -33.333 17.001 -45s21.334 -20 38.001 -25s38.667 -7.5 66 -7.5c10.667 0 22 0.5 34 1.5l40 3.5v277c0 35.333 -13.333 72.333 -40 111l124 27v-346c0 -19.333 3.33301 -37.666 10 -54.999s16.667 -35.666 30 -54.999l-124 -28v61z
M102.998 664.997c26.667 -20 52.167 -35.001 76.5 -45.001s50.5 -15 78.5 -15c30 0 57.833 4.83301 83.5 14.5s51.167 24.834 76.5 45.501c-13.333 -42 -33.333 -73.667 -60 -95s-59 -32 -97 -32c-81.333 0 -134 42.333 -158 127z" />
    <glyph glyph-name="Uring" unicode="&#x16e;" horiz-adv-x="616" 
d="M75 511c0 10 -0.173828 20.166 -0.506836 30.499s-1.66602 21.333 -3.99902 33s-6 24.167 -11 37.5s-11.833 27.666 -20.5 42.999h161c-9.33301 -15.333 -16.5 -29.666 -21.5 -42.999s-8.66699 -26 -11 -38s-3.66602 -23.167 -3.99902 -33.5s-0.5 -20.166 -0.5 -29.499
v-302c0 -31.333 2.5 -58.666 7.5 -81.999s13.333 -42.5 25 -57.5s27.167 -26.167 46.5 -33.5s43 -11 71 -11c74.667 0 123.334 23.667 146.001 71c7.33301 15.333 11.833 31.666 13.5 48.999s2.5 36.333 2.5 57v41v268c0 10 -0.166992 20.167 -0.5 30.5
s-1.66602 21.333 -3.99902 33s-6 24.167 -11 37.5s-11.833 27.666 -20.5 42.999h138c-9.33301 -15.333 -16.5 -29.666 -21.5 -42.999s-8.66699 -26 -11 -38s-3.66602 -23.167 -3.99902 -33.5s-0.5 -20.166 -0.5 -29.499v-280v-14c0 -26 -1 -50.333 -3 -73s-8 -44 -18 -64
c-15.333 -30.667 -41.166 -54.334 -77.499 -71.001s-82.166 -25 -137.499 -25c-81.333 0 -139.833 16.333 -175.5 49s-53.5 84.667 -53.5 156v322zM324.993 937.999c16 0 31 -3 45 -9s26.167 -14 36.5 -24s18.5 -22 24.5 -36s9 -29 9 -45s-3 -31.167 -9 -45.5
s-14.167 -26.666 -24.5 -36.999s-22.5 -18.5 -36.5 -24.5s-29 -9 -45 -9s-31 3 -45 9s-26.167 14.167 -36.5 24.5s-18.5 22.666 -24.5 36.999s-9 29.5 -9 45.5s3 31 9 45s14.167 26 24.5 36s22.5 18 36.5 24s29 9 45 9zM324.993 887.999
c-18.667 0 -34.334 -6.33203 -47.001 -18.999s-19 -28.334 -19 -47.001s6.16699 -34.334 18.5 -47.001s27.833 -19 46.5 -19s34.334 6.33301 47.001 19s19 28.334 19 47.001c0 18 -6.33301 33.5 -19 46.5s-28 19.5 -46 19.5z" />
    <glyph glyph-name="uring" unicode="&#x16f;" horiz-adv-x="521" 
d="M355 50c-33.333 -18.667 -63.335 -32.8369 -90.002 -42.5039s-51.667 -14.5 -75 -14.5c-22.667 0 -41.5 3 -56.5 9s-27 15.333 -36 28s-15.333 28.834 -19 48.501s-5.5 42.834 -5.5 69.501v187c0 35.333 -13.333 72.333 -40 111l123 27v-276
c0 -26 1.33301 -48.167 4 -66.5s8.33398 -33.333 17.001 -45s21.334 -20 38.001 -25s38.667 -7.5 66 -7.5c10.667 0 22 0.5 34 1.5l40 3.5v277c0 35.333 -13.333 72.333 -40 111l124 27v-346c0 -19.333 3.33301 -37.666 10 -54.999s16.667 -35.666 30 -54.999l-124 -28v61z
M259.998 741.997c16 0 31 -3 45 -9s26.167 -14 36.5 -24s18.5 -22 24.5 -36s9 -29 9 -45s-3 -31.167 -9 -45.5s-14.167 -26.666 -24.5 -36.999s-22.5 -18.5 -36.5 -24.5s-29 -9 -45 -9s-31 3 -45 9s-26.167 14.167 -36.5 24.5s-18.5 22.666 -24.5 36.999s-9 29.5 -9 45.5
s3 31 9 45s14.167 26 24.5 36s22.5 18 36.5 24s29 9 45 9zM259.998 691.997c-18.667 0 -34.334 -6.33203 -47.001 -18.999s-19 -28.334 -19 -47.001s6.16699 -34.334 18.5 -47.001s27.833 -19 46.5 -19s34.334 6.33301 47.001 19s19 28.334 19 47.001
c0 18 -6.33301 33.5 -19 46.5s-28 19.5 -46 19.5z" />
    <glyph glyph-name="Uhungarumlaut" unicode="&#x170;" horiz-adv-x="616" 
d="M75 511c0 10 -0.173828 20.166 -0.506836 30.499s-1.66602 21.333 -3.99902 33s-6 24.167 -11 37.5s-11.833 27.666 -20.5 42.999h161c-9.33301 -15.333 -16.5 -29.666 -21.5 -42.999s-8.66699 -26 -11 -38s-3.66602 -23.167 -3.99902 -33.5s-0.5 -20.166 -0.5 -29.499
v-302c0 -31.333 2.5 -58.666 7.5 -81.999s13.333 -42.5 25 -57.5s27.167 -26.167 46.5 -33.5s43 -11 71 -11c74.667 0 123.334 23.667 146.001 71c7.33301 15.333 11.833 31.666 13.5 48.999s2.5 36.333 2.5 57v41v268c0 10 -0.166992 20.167 -0.5 30.5
s-1.66602 21.333 -3.99902 33s-6 24.167 -11 37.5s-11.833 27.666 -20.5 42.999h138c-9.33301 -15.333 -16.5 -29.666 -21.5 -42.999s-8.66699 -26 -11 -38s-3.66602 -23.167 -3.99902 -33.5s-0.5 -20.166 -0.5 -29.499v-280v-14c0 -26 -1 -50.333 -3 -73s-8 -44 -18 -64
c-15.333 -30.667 -41.166 -54.334 -77.499 -71.001s-82.166 -25 -137.499 -25c-81.333 0 -139.833 16.333 -175.5 49s-53.5 84.667 -53.5 156v322zM293.993 868.999h83l-157 -150zM438.993 868.999h83l-156 -150z" />
    </font>
</defs>
</svg>
