<?xml version="1.0" standalone="no"?>
<!DOCTYPE svg PUBLIC "-//W3C//DTD SVG 1.1//EN" "http://www.w3.org/Graphics/SVG/1.1/DTD/svg11.dtd" >
<svg>
<metadata>
Created by FontForge 20090622 at Tue Aug  1 03:12:37 2017
 By deploy user
Generated in 2013 by FontLab Studio. Copyright info pending.
</metadata>
<defs>
<font id="Circularphd3-phd3Medium" horiz-adv-x="570" >
  <font-face 
    font-family="Circular phd3 phd3 Medium"
    font-weight="400"
    font-stretch="normal"
    units-per-em="1000"
    panose-1="2 11 6 4 2 1 1 1 1 2"
    ascent="809"
    descent="-191"
    x-height="487"
    cap-height="709"
    bbox="-171 -238 1520 979"
    underline-thickness="80"
    underline-position="-115"
    unicode-range="U+000D-U+FEFF"
  />
<missing-glyph horiz-adv-x="574" 
d="M499 0h-424v709h424v-709zM171 613v-517h232v517h-232z" />
    <glyph glyph-name=".notdef" horiz-adv-x="574" 
d="M499 0h-424v709h424v-709zM171 613v-517h232v517h-232z" />
    <glyph glyph-name="uni0000" horiz-adv-x="0" 
 />
    <glyph glyph-name="uni0000" horiz-adv-x="0" 
 />
    <glyph glyph-name="uni000D" unicode="&#xd;" horiz-adv-x="248" 
 />
    <glyph glyph-name="space" unicode=" " horiz-adv-x="248" 
 />
    <glyph glyph-name="exclam" unicode="!" horiz-adv-x="324" 
d="M91 709h141l-28 -499h-84zM110 15q-21 21 -21 51t21 52t51 22q31 0 52.5 -22t21.5 -52t-21.5 -51.5t-52.5 -21.5q-30 0 -51 22z" />
    <glyph glyph-name="quotedbl" unicode="&#x22;" horiz-adv-x="390" 
d="M37 591q0 30 19 49.5t49 19.5t49 -19.5t19 -49.5q0 -14 -3 -23l-45 -185h-41l-44 185q-3 15 -3 23zM217 591q0 30 19 49.5t49 19.5t49 -19.5t19 -49.5q0 -14 -3 -23l-45 -185h-41l-44 185q-3 15 -3 23z" />
    <glyph glyph-name="numbersign" unicode="#" horiz-adv-x="740" 
d="M219 400h-125v87h144l35 161h95l-35 -161h136l35 161h96l-35 -161h130v-87h-149l-32 -149h132v-87h-150l-35 -164h-96l35 164h-136l-35 -164h-95l35 164h-124v87h142zM450 400h-136l-32 -149h136z" />
    <glyph glyph-name="dollar" unicode="$" horiz-adv-x="595" 
d="M354 -11v-106h-92v105q-93 11 -149.5 68.5t-65.5 133.5l112 31q4 -49 30.5 -83.5t72.5 -45.5v184l-18 4q-82 18 -127 65.5t-45 118.5q0 74 53.5 129.5t136.5 66.5v106h92v-107q77 -12 123 -58t59 -109l-108 -34q-12 71 -74 95v-179l9 -2q86 -18 133 -69t47 -121
q0 -73 -51 -127t-138 -66zM189 471q0 -29 19 -50t54 -28v164q-35 -9 -54 -32t-19 -54zM427 176q0 61 -73 80v-164q35 7 54 30t19 54z" />
    <glyph glyph-name="percent" unicode="%" horiz-adv-x="837" 
d="M97 383q-48 47 -48 113t48.5 113.5t115.5 47.5t115.5 -47.5t48.5 -113.5q0 -67 -48.5 -113.5t-116.5 -46.5q-66 0 -115 47zM705 648l-461 -648h-105l462 648h104zM163 549q-21 -21 -21 -53t20.5 -53t50.5 -21t50 21t20 53t-20 52.5t-50 20.5t-50 -20zM515 38
q-48 47 -48 113t48.5 113.5t115.5 47.5t115.5 -47.5t48.5 -113.5q0 -67 -48.5 -113.5t-116.5 -46.5q-66 0 -115 47zM581 204q-21 -21 -21 -53t20.5 -53t50.5 -21t50 21t20 53t-20 52.5t-50 20.5t-50 -20z" />
    <glyph glyph-name="ampersand" unicode="&#x26;" horiz-adv-x="708" 
d="M708 0h-155l-80 84q-90 -97 -194 -97q-94 0 -152.5 54.5t-58.5 131.5q0 61 28.5 103.5t94.5 92.5l7 5l-12 13q-81 83 -81 156q0 81 56 131t134 50q85 0 139.5 -49t54.5 -127q0 -84 -100 -160l-31 -23l118 -123l169 182v-150l-97 -107zM219 550q0 -37 47 -89l20 -22l41 30
q48 36 48 81q0 32 -22.5 54t-56.5 22q-32 0 -54.5 -20.5t-22.5 -55.5zM281 92q57 0 118 67l1 1l-131 139l-24 -18q-58 -43 -58 -100q0 -36 26.5 -62.5t67.5 -26.5z" />
    <glyph glyph-name="quotesingle" unicode="'" horiz-adv-x="210" 
d="M37 591q0 30 19 49.5t49 19.5t49 -19.5t19 -49.5q0 -14 -3 -23l-45 -185h-41l-44 185q-3 15 -3 23z" />
    <glyph glyph-name="parenleft" unicode="(" horiz-adv-x="317" 
d="M317 -107l-68 -61q-201 201 -201 488t201 488l68 -62q-171 -188 -171 -426q0 -240 171 -427z" />
    <glyph glyph-name="parenright" unicode=")" horiz-adv-x="317" 
d="M0 746l68 62q201 -200 201 -488t-201 -488l-68 61q171 186 171 427q0 240 -171 426z" />
    <glyph glyph-name="asterisk" unicode="*" horiz-adv-x="448" 
d="M177 709h94v-130l119 40l29 -86l-121 -40l78 -102l-73 -54l-80 105l-75 -104l-74 54l76 101l-121 40l29 86l119 -41v131z" />
    <glyph glyph-name="plus" unicode="+" horiz-adv-x="579" 
d="M52 244v95h188v195h99v-195h188v-95h-188v-197h-99v197h-188z" />
    <glyph glyph-name="comma" unicode="," horiz-adv-x="304" 
d="M65 73q0 32 24 54t59 22q40 0 65.5 -29t25.5 -77q0 -90 -47.5 -144.5t-115.5 -63.5v59q36 8 62 39t27 69q-12 -5 -24 -5q-33 0 -54.5 21t-21.5 55z" />
    <glyph glyph-name="hyphen" unicode="-" horiz-adv-x="372" 
d="M327 344v-103h-282v103h282z" />
    <glyph glyph-name="period" unicode="." horiz-adv-x="296" 
d="M91 18q-24 22 -24 57q0 34 23.5 58t57.5 24t58 -24t24 -58t-24 -57.5t-58 -23.5t-57 24z" />
    <glyph glyph-name="slash" unicode="/" horiz-adv-x="456" 
d="M349 714h107l-349 -719h-107z" />
    <glyph glyph-name="zero" unicode="0" horiz-adv-x="619" 
d="M103 91q-58 86 -58 233q0 153 67 246t198 93q130 0 197 -93t67 -246t-67 -246t-197 -93q-137 0 -207 106zM164 324q0 -120 39 -176.5t107 -56.5q67 0 106 56t39 177t-39 177t-106 56q-64 0 -100 -48q-46 -56 -46 -185z" />
    <glyph glyph-name="one" unicode="1" horiz-adv-x="376" 
d="M303 648v-648h-118v444h-157v82q67 1 113 35t58 87h104z" />
    <glyph glyph-name="two" unicode="2" horiz-adv-x="537" 
d="M155 438l3 -33l-116 8q-3 27 -3 37q0 90 64 151.5t167 61.5q102 0 165 -58t63 -146q0 -124 -125 -201l-126 -78q-55 -33 -66 -74h321v-106h-469q2 89 38 153.5t116 114.5l107 67q83 53 83 122q0 44 -29.5 72.5t-79.5 28.5q-54 0 -83.5 -33t-29.5 -87z" />
    <glyph glyph-name="three" unicode="3" horiz-adv-x="551" 
d="M251 658q94 0 151.5 -68.5t36.5 -150.5l-92 26q1 6 2 16t-8 32t-32 35q-22 13 -43 14.5t-31 -3.5l-10 -5q19 -42 -5 -82q-19 -31 -54 -39.5t-66 10.5q-31 20 -39.5 54.5t10.5 66.5q2 4 6.5 10t20.5 22.5t35 29t51 22.5t67 10zM253 372q219 0 219 -194q0 -94 -65 -144.5
t-154 -50.5q-71 0 -134.5 35.5t-86.5 98.5l91 47q12 -34 50 -57.5t74 -23.5q50 0 84.5 25t34.5 81q0 42 -32 73.5t-87 31.5q-9 0 -13 -1l-43 71q34 8 62 8z" />
    <glyph glyph-name="four" unicode="4" horiz-adv-x="587" 
d="M345 142h-312v130l276 376h154v-400h109v-106h-109v-142h-118v142zM141 248h204v279z" />
    <glyph glyph-name="five" unicode="5" horiz-adv-x="551" 
d="M32 179l113 29q4 -53 40 -87t91 -34q53 0 88 33t35 85q0 56 -35 88t-90 32q-68 0 -108 -45l-113 41l80 327h355v-105h-274l-40 -164q44 45 124 45q100 0 161 -58.5t61 -157.5q0 -96 -68 -160t-176 -64q-100 0 -169 56.5t-75 138.5z" />
    <glyph glyph-name="six" unicode="6" horiz-adv-x="581" 
d="M532 631l-34 -98q-49 26 -111 26q-92 0 -152.5 -56.5t-68.5 -150.5q50 77 165 77q99 0 159.5 -60t60.5 -159q0 -98 -70.5 -161.5t-175.5 -63.5q-118 0 -188.5 84.5t-70.5 216.5q0 172 96.5 274.5t251.5 102.5q88 0 138 -32zM179 208q0 -53 37 -87t89 -34q54 0 90 33.5
t36 87.5t-36 87.5t-90 33.5t-90 -33.5t-36 -87.5z" />
    <glyph glyph-name="seven" unicode="7" horiz-adv-x="494" 
d="M5 648h484v-105q-57 -48 -108 -114q-79 -103 -123 -248q-28 -89 -35 -181h-124q8 98 36 192t66 157q76 127 129 173l23 21h-348v105z" />
    <glyph glyph-name="eight" unicode="8" horiz-adv-x="565" 
d="M282 -15q-108 0 -174 52.5t-66 135.5q0 54 33 97.5t87 61.5q-46 17 -75.5 58.5t-29.5 89.5q0 81 63 132t162 51t162.5 -51t63.5 -132q0 -47 -29.5 -89t-75.5 -59q53 -19 86.5 -62.5t33.5 -96.5q0 -83 -66 -135.5t-175 -52.5zM282 378q48 1 77.5 27.5t29.5 67.5
q0 39 -30 65.5t-77 26.5t-76.5 -26.5t-29.5 -65.5q0 -41 29 -67.5t77 -27.5zM282 86q56 0 89 28t33 71t-33 71.5t-89 28.5q-55 0 -88 -28.5t-33 -71.5t33 -71t88 -28z" />
    <glyph glyph-name="nine" unicode="9" horiz-adv-x="582" 
d="M55 22l33 98q47 -30 116 -30q98 0 154 54.5t61 149.5q-19 -34 -61 -54.5t-97 -20.5q-95 0 -159.5 60.5t-64.5 157.5q0 98 69.5 162t174.5 64q113 0 184.5 -80t71.5 -223q0 -180 -85 -277.5t-247 -97.5q-95 0 -150 37zM403 441q0 51 -36.5 85.5t-87.5 34.5q-52 0 -88 -34
t-36 -86q0 -54 35.5 -87.5t88.5 -33.5q52 0 88 34t36 87z" />
    <glyph glyph-name="colon" unicode=":" horiz-adv-x="302" 
d="M70 412q0 34 23.5 57.5t57.5 23.5q33 0 57 -23.5t24 -57.5q0 -33 -24 -56.5t-57 -23.5q-34 0 -57.5 23.5t-23.5 56.5zM71 74q0 34 23.5 57.5t57.5 23.5q33 0 57 -23.5t24 -57.5q0 -33 -24 -56.5t-57 -23.5q-34 0 -57.5 23.5t-23.5 56.5z" />
    <glyph glyph-name="semicolon" unicode=";" horiz-adv-x="307" 
d="M70 412q0 34 23.5 57.5t57.5 23.5q33 0 57 -23.5t24 -57.5q0 -33 -24 -56.5t-57 -23.5q-34 0 -57.5 23.5t-23.5 56.5zM71 69q0 30 23 51.5t56 21.5q38 0 62 -28t24 -73q0 -85 -45.5 -137t-109.5 -61v56q34 8 59 38t26 65q-12 -5 -23 -5q-32 0 -52 20t-20 52z" />
    <glyph glyph-name="less" unicode="&#x3c;" horiz-adv-x="490" 
d="M457 33l-422 211v94l422 212v-111l-302 -147l302 -148v-111z" />
    <glyph glyph-name="equal" unicode="=" horiz-adv-x="598" 
d="M537 437v-94h-475v94h475zM537 241v-95h-475v95h475z" />
    <glyph glyph-name="greater" unicode="&#x3e;" horiz-adv-x="490" 
d="M33 550l422 -212v-94l-422 -211v110l304 148l-304 147v112z" />
    <glyph glyph-name="question" unicode="?" horiz-adv-x="520" 
d="M295 210h-100q-2 34 -2 38q0 92 81 151l46 33q47 35 47 87q0 44 -29 72.5t-79 28.5q-51 0 -82 -33t-31 -81q0 -28 6 -45l-113 8q-6 21 -6 46q0 86 62 147.5t164 61.5q103 0 165.5 -58t62.5 -142q0 -106 -100 -176l-43 -30q-50 -35 -50 -95q0 -9 1 -13zM194 15
q-21 21 -21 51t21.5 52t51.5 22t51.5 -22t21.5 -52t-21.5 -51.5t-51.5 -21.5q-31 0 -52 22z" />
    <glyph glyph-name="at" unicode="@" horiz-adv-x="826" 
d="M594 138q-38 0 -64 16.5t-34 45.5q-42 -64 -117 -64q-66 0 -109 48t-43 124q0 97 58 163t140 66q34 0 62 -16t39 -45l9 48h88l-53 -248q-3 -15 -3 -21q0 -38 34 -38q40 0 71.5 53.5t31.5 125.5q0 108 -75 177t-195 69q-131 0 -215.5 -86.5t-84.5 -223.5
q0 -133 84.5 -215.5t224.5 -82.5q110 0 193 64l45 -61q-41 -38 -107.5 -61t-130.5 -23q-177 0 -289 105.5t-112 273.5q0 170 112.5 281t278.5 111q153 0 255.5 -93.5t102.5 -233.5q0 -110 -58 -184t-139 -75zM504 368q0 40 -19.5 62.5t-55.5 22.5q-47 0 -78 -41.5t-31 -96.5
q0 -44 19.5 -70t57.5 -26q45 0 75 41.5t32 107.5z" />
    <glyph glyph-name="A" unicode="A" horiz-adv-x="711" 
d="M701 0h-131l-67 178h-300l-66 -178h-127l276 709h139zM461 289l-108 290l-108 -290h216z" />
    <glyph glyph-name="B" unicode="B" horiz-adv-x="607" 
d="M85 0v709h244q99 0 157.5 -52.5t58.5 -138.5q0 -54 -28.5 -94.5t-76.5 -58.5q57 -15 92 -61t35 -108q0 -87 -61 -141.5t-159 -54.5h-262zM204 607v-198h109q52 0 82 27t30 72q0 46 -30.5 72.5t-84.5 26.5h-106zM204 308v-206h122q54 0 86.5 27.5t32.5 74.5q0 48 -30.5 76
t-84.5 28h-126z" />
    <glyph glyph-name="C" unicode="C" horiz-adv-x="758" 
d="M400 -15q-152 0 -255 102.5t-103 266.5q0 162 104.5 266t252.5 104q124 0 208 -63.5t111 -166.5l-113 -38q-18 71 -71 113t-135 42q-99 0 -166.5 -69.5t-67.5 -187.5q0 -116 67.5 -185t167.5 -69q80 0 135 43.5t76 112.5l110 -36q-27 -103 -112 -169t-209 -66z" />
    <glyph glyph-name="D" unicode="D" horiz-adv-x="722" 
d="M335 0h-250v709h251q153 0 249 -96.5t96 -259.5q0 -162 -96.5 -257.5t-249.5 -95.5zM205 599v-489h126q101 0 163 64t62 179q0 117 -61.5 181.5t-162.5 64.5h-127z" />
    <glyph glyph-name="E" unicode="E" horiz-adv-x="582" 
d="M523 112v-112h-438v709h438v-112h-318v-188h288v-109h-288v-188h318z" />
    <glyph glyph-name="F" unicode="F" horiz-adv-x="557" 
d="M205 286v-286h-120v709h441v-113h-321v-199h288v-111h-288z" />
    <glyph glyph-name="G" unicode="G" horiz-adv-x="774" 
d="M714 359v-359h-97l-9 90q-28 -47 -84.5 -76t-132.5 -29q-148 0 -248.5 102.5t-100.5 267.5q0 109 50.5 196t132.5 131q79 42 174 42q120 0 204.5 -59.5t115.5 -156.5l-113 -43q-19 66 -74 107t-133 41q-100 0 -167.5 -69.5t-67.5 -188.5q0 -120 66.5 -190t167.5 -70
q90 0 143 47.5t60 111.5h-234v105h347z" />
    <glyph glyph-name="H" unicode="H" horiz-adv-x="744" 
d="M659 709v-709h-121v303h-333v-303h-120v709h120v-293h333v293h121z" />
    <glyph glyph-name="I" unicode="I" horiz-adv-x="292" 
d="M207 709v-709h-122v709h122z" />
    <glyph glyph-name="J" unicode="J" horiz-adv-x="547" 
d="M20 214v46l117 24v-66q0 -58 29.5 -89t79.5 -31q48 0 76 30.5t28 84.5v496h120v-493q0 -98 -62.5 -164.5t-160.5 -66.5q-104 0 -165.5 62.5t-61.5 166.5z" />
    <glyph glyph-name="K" unicode="K" horiz-adv-x="685" 
d="M671 0h-151l-221 307l-94 -103v-204h-120v709h120v-340l305 340h158l-287 -313z" />
    <glyph glyph-name="L" unicode="L" horiz-adv-x="555" 
d="M530 114v-114h-445v709h120v-595h325z" />
    <glyph glyph-name="M" unicode="M" horiz-adv-x="950" 
d="M865 709v-709h-119v522l-221 -522h-104l-219 520v-520h-117v709h160l230 -541l227 541h163z" />
    <glyph glyph-name="N" unicode="N" horiz-adv-x="765" 
d="M680 709v-709h-125l-350 537v-537h-120v709h153l322 -503v503h120z" />
    <glyph glyph-name="O" unicode="O" horiz-adv-x="805" 
d="M94 157q-52 85 -52 198q0 109 50.5 195.5t133.5 130.5q80 43 176 43q97 0 177.5 -43.5t131.5 -127.5q52 -85 52 -198q0 -109 -51 -196t-134 -131q-80 -43 -176 -43q-97 0 -177.5 43.5t-130.5 128.5zM235 544q-70 -67 -70 -189q0 -117 68.5 -186.5t168.5 -69.5
q101 0 169.5 69.5t68.5 186.5t-68.5 186.5t-169.5 69.5q-97 0 -167 -67z" />
    <glyph glyph-name="P" unicode="P" horiz-adv-x="602" 
d="M348 277h-143v-277h-120v709h263q101 0 163.5 -61t62.5 -155q0 -96 -62.5 -156t-163.5 -60zM205 603v-220h125q57 0 89.5 29.5t32.5 79.5q0 51 -32.5 81t-89.5 30h-125z" />
    <glyph glyph-name="Q" unicode="Q" horiz-adv-x="805" 
d="M94 157q-52 85 -52 198q0 109 50.5 195.5t133.5 130.5q80 43 176 43q97 0 177.5 -43.5t131.5 -127.5q52 -85 52 -198q0 -150 -92 -253l84 -94l-81 -69l-87 95q-83 -49 -185 -49q-97 0 -177.5 43.5t-130.5 128.5zM235 544q-70 -67 -70 -189q0 -117 68.5 -186.5
t168.5 -69.5q58 0 106 23l-117 130l82 70l118 -131q49 67 49 164q0 117 -68.5 186.5t-169.5 69.5q-97 0 -167 -67z" />
    <glyph glyph-name="R" unicode="R" horiz-adv-x="622" 
d="M579 0h-136l-149 280h-88v-280h-121v709h272q99 0 160.5 -61t61.5 -154q0 -76 -43 -130t-117 -72zM206 603v-217h129q55 0 88.5 29.5t33.5 78.5q0 50 -33.5 79.5t-88.5 29.5h-129z" />
    <glyph glyph-name="S" unicode="S" horiz-adv-x="599" 
d="M551 543l-108 -34q-7 45 -43 77t-96 32q-53 0 -87.5 -29.5t-34.5 -72.5q0 -73 83 -91l102 -21q91 -18 141.5 -72.5t50.5 -131.5q0 -91 -69 -153t-182 -62q-120 0 -192 63t-82 155l112 32q6 -62 49 -102t113 -40q61 0 95 27t34 71q0 35 -25 60.5t-70 35.5l-100 21
q-84 17 -132 69.5t-48 129.5q0 89 71 153t170 64q107 0 169.5 -51t78.5 -130z" />
    <glyph glyph-name="T" unicode="T" horiz-adv-x="607" 
d="M594 709v-113h-231v-596h-120v596h-230v113h581z" />
    <glyph glyph-name="U" unicode="U" horiz-adv-x="683" 
d="M532 54q-75 -69 -191 -69q-118 0 -191 70t-73 192v462h119v-455q0 -74 38 -114.5t107 -40.5t107 40t38 115v455h120v-462q0 -124 -74 -193z" />
    <glyph glyph-name="V" unicode="V" horiz-adv-x="674" 
d="M140 709l198 -552l199 552h127l-268 -709h-122l-264 709h130z" />
    <glyph glyph-name="W" unicode="W" horiz-adv-x="1017" 
d="M572 709l169 -522l139 522h124l-199 -709h-124l-172 536l-172 -536h-123l-201 709h126l142 -518l166 518h125z" />
    <glyph glyph-name="X" unicode="X" horiz-adv-x="646" 
d="M490 709h141l-236 -355l235 -354h-144l-165 259l-167 -259h-141l237 355l-235 354h144l165 -260z" />
    <glyph glyph-name="Y" unicode="Y" horiz-adv-x="638" 
d="M258 0v300l-248 409h142l170 -297l171 297h135l-250 -409v-300h-120z" />
    <glyph glyph-name="Z" unicode="Z" horiz-adv-x="636" 
d="M595 114v-114h-553v118l393 478h-382v113h537v-114l-398 -481h403z" />
    <glyph glyph-name="bracketleft" unicode="[" horiz-adv-x="304" 
d="M299 -66v-91h-214v956h214v-90h-116v-775h116z" />
    <glyph glyph-name="backslash" unicode="\" horiz-adv-x="457" 
d="M457 -5h-109l-348 719h110z" />
    <glyph glyph-name="bracketright" unicode="]" horiz-adv-x="304" 
d="M219 799v-956h-214v91h116v775h-116v90h214z" />
    <glyph glyph-name="asciicircum" unicode="^" horiz-adv-x="526" 
d="M310 710l196 -358h-113l-129 244l-130 -244h-114l196 358h94z" />
    <glyph glyph-name="underscore" unicode="_" horiz-adv-x="531" 
d="M521 0v-96h-511v96h511z" />
    <glyph glyph-name="grave" unicode="`" horiz-adv-x="285" 
d="M256 548h-95l-132 148h139z" />
    <glyph glyph-name="a" unicode="a" horiz-adv-x="532" 
d="M45 132q0 61 39.5 99t107.5 48l125 19q36 4 36 35q0 34 -23.5 54t-68.5 20q-43 0 -69.5 -24t-30.5 -64l-106 24q7 68 64 113.5t141 45.5q102 0 154.5 -49.5t52.5 -132.5v-242q0 -48 6 -78h-108q-5 17 -5 62q-48 -77 -150 -77q-73 0 -119 43t-46 104zM232 76q57 0 89 31
t32 95v22l-127 -19q-65 -11 -65 -66q0 -27 19.5 -45t51.5 -18z" />
    <glyph glyph-name="b" unicode="b" horiz-adv-x="604" 
d="M188 65v-65h-113v724h114v-297q19 32 60 52.5t93 20.5q104 0 164.5 -70.5t60.5 -183.5q0 -114 -63 -186t-166 -72t-150 77zM414 133q36 41 36 112t-35.5 111.5t-95.5 40.5q-58 0 -94.5 -41t-36.5 -111q0 -69 36.5 -111.5t94.5 -42.5q57 0 95 42z" />
    <glyph glyph-name="c" unicode="c" horiz-adv-x="541" 
d="M287 395q-58 0 -96 -41.5t-38 -109.5q0 -70 38.5 -111.5t97.5 -41.5q48 0 79.5 26t42.5 64l102 -37q-22 -69 -80.5 -114t-143.5 -45q-107 0 -179.5 74t-72.5 185t71.5 184.5t177.5 73.5q87 0 146 -45t77 -115l-104 -38q-10 41 -40 66t-78 25z" />
    <glyph glyph-name="d" unicode="d" horiz-adv-x="602" 
d="M412 724h113v-635q0 -44 5 -89h-111q-5 32 -5 63q-18 -34 -56.5 -54.5t-86.5 -20.5q-104 0 -169 72.5t-65 184.5q0 108 66 181.5t166 73.5q54 0 90.5 -20t52.5 -50v294zM153 245q0 -70 36 -112.5t95 -42.5q57 0 93 43t36 113q0 69 -35 110t-93 41t-95 -42t-37 -110z" />
    <glyph glyph-name="e" unicode="e" horiz-adv-x="548" 
d="M408 170l98 -31q-22 -69 -80 -111.5t-140 -42.5q-107 0 -178 72t-71 189q0 110 69.5 183t167.5 73q111 0 174.5 -68t63.5 -185q0 -31 -3 -37h-356q2 -54 40.5 -90.5t92.5 -36.5q94 0 122 85zM156 297h239q-2 48 -33.5 78t-86.5 30q-50 0 -83 -31.5t-36 -76.5z" />
    <glyph glyph-name="f" unicode="f" horiz-adv-x="350" 
d="M291 625q-72 0 -72 -74v-64h113v-101h-113v-386h-117v386h-85v101h85v67q0 80 47 127.5t123 47.5q42 0 61 -10v-99q-18 5 -42 5z" />
    <glyph glyph-name="g" unicode="g" horiz-adv-x="589" 
d="M40 -27l107 28q6 -46 40 -75.5t82 -29.5q138 0 138 146v51q-18 -32 -55 -51.5t-86 -19.5q-98 0 -161.5 67t-63.5 170q0 100 63.5 168.5t161.5 68.5q106 0 144 -71v62h112v-441q0 -113 -63.5 -182t-186.5 -69q-93 0 -157.5 50.5t-74.5 127.5zM285 121q56 0 90.5 37.5
t34.5 100.5q0 62 -35 99.5t-90 37.5q-57 0 -92 -37.5t-35 -99.5q0 -63 35 -100.5t92 -37.5z" />
    <glyph glyph-name="h" unicode="h" horiz-adv-x="574" 
d="M191 286v-286h-116v724h116v-284q46 61 139 61q84 0 131 -53t47 -140v-308h-116v288q0 51 -25 79.5t-75 28.5q-45 0 -72 -30.5t-29 -79.5z" />
    <glyph glyph-name="i" unicode="i" horiz-adv-x="265" 
d="M79 605q-22 22 -22 53t22 53.5t53 22.5q32 0 54 -22t22 -54q0 -31 -22 -53t-54 -22q-31 0 -53 22zM190 487v-487h-115v487h115z" />
    <glyph glyph-name="j" unicode="j" horiz-adv-x="266" 
d="M79 606q-22 22 -22 53t22 53.5t53 22.5q32 0 54 -22.5t22 -53.5t-22.5 -53t-53.5 -22t-53 22zM75 -40v527h116v-536q0 -70 -39.5 -113t-105.5 -43q-44 0 -66 9v96q15 -3 35 -3q60 0 60 63z" />
    <glyph glyph-name="k" unicode="k" horiz-adv-x="544" 
d="M377 487h154l-200 -206l204 -281h-142l-143 199l-60 -63v-136h-115v724h115v-434z" />
    <glyph glyph-name="l" unicode="l" horiz-adv-x="266" 
d="M191 724v-724h-116v724h116z" />
    <glyph glyph-name="m" unicode="m" horiz-adv-x="873" 
d="M190 289v-289h-115v487h111v-62q20 35 60 55.5t84 20.5q50 0 89 -22.5t57 -63.5q51 86 158 86q75 0 123.5 -48.5t48.5 -136.5v-316h-112v297q0 46 -24 73t-70 27q-44 0 -72.5 -31t-28.5 -77v-289h-114v297q0 46 -24 73t-70 27q-45 0 -73 -30t-28 -78z" />
    <glyph glyph-name="n" unicode="n" horiz-adv-x="574" 
d="M191 281v-281h-116v487h113v-65q46 79 144 79q84 0 130 -53t46 -140v-308h-116v288q0 51 -25 79.5t-75 28.5q-47 0 -74 -32t-27 -83z" />
    <glyph glyph-name="o" unicode="o" horiz-adv-x="579" 
d="M289 502q110 0 181.5 -73t71.5 -185t-71.5 -185.5t-181.5 -73.5q-109 0 -180.5 73.5t-71.5 185.5t71.5 185t180.5 73zM193 131q39 -42 96 -42q59 0 97.5 42t38.5 113q0 70 -38.5 111.5t-97.5 41.5t-97.5 -41.5t-38.5 -111.5q0 -73 40 -113z" />
    <glyph glyph-name="p" unicode="p" horiz-adv-x="604" 
d="M190 55v-217h-115v649h112v-66q19 34 60.5 55.5t94.5 21.5q103 0 164 -70.5t61 -183.5q0 -112 -63.5 -184t-165.5 -72q-49 0 -88 18.5t-60 48.5zM451 244q0 68 -36 109.5t-95 41.5q-58 0 -94.5 -41.5t-36.5 -109.5q0 -69 36.5 -111t94.5 -42t94.5 42t36.5 111z" />
    <glyph glyph-name="q" unicode="q" horiz-adv-x="596" 
d="M528 487v-677h-114v248q-39 -70 -143 -70q-102 0 -168 73t-66 184q0 110 64 182t167 72q55 0 94 -22t55 -55v65h111zM190 355q-36 -40 -36 -110q0 -69 36.5 -112t93.5 -43t94 43t37 112q0 68 -36.5 109.5t-94.5 41.5t-94 -41z" />
    <glyph glyph-name="r" unicode="r" horiz-adv-x="380" 
d="M360 490v-118q-20 3 -38 3q-131 0 -131 -143v-232h-116v487h113v-78q17 39 55 61.5t86 22.5q16 0 31 -3z" />
    <glyph glyph-name="s" unicode="s" horiz-adv-x="457" 
d="M32 132l101 28q3 -36 29.5 -59.5t69.5 -23.5q33 0 53 16t20 40q0 42 -57 54l-72 16q-62 14 -96.5 52t-34.5 90q0 64 52.5 110.5t126.5 46.5q96 0 143 -50q39 -43 45 -86l-98 -28q-4 31 -27 52t-63 21q-30 0 -50 -16.5t-20 -39.5q0 -41 49 -51l74 -15q68 -15 104 -54
t36 -94q0 -64 -50 -110t-134 -46q-100 0 -151 54q-46 47 -50 93z" />
    <glyph glyph-name="t" unicode="t" horiz-adv-x="365" 
d="M117 636h105v-149h101v-103h-101v-226q0 -32 15 -46.5t47 -14.5q23 0 40 4v-96q-27 -11 -71 -11q-68 0 -107 38.5t-39 106.5v245h-90v103h25q36 0 55.5 20.5t19.5 55.5v73z" />
    <glyph glyph-name="u" unicode="u" horiz-adv-x="577" 
d="M392 54q-17 -32 -55 -50t-83 -18q-84 0 -134 54.5t-50 139.5v307h116v-286q0 -51 24.5 -81t73.5 -30q48 0 75 29.5t27 79.5v288h116v-398q0 -39 5 -89h-111q-4 20 -4 54z" />
    <glyph glyph-name="v" unicode="v" horiz-adv-x="525" 
d="M393 487h122l-191 -487h-116l-198 487h128l129 -348z" />
    <glyph glyph-name="w" unicode="w" horiz-adv-x="814" 
d="M236 150l115 337h120l115 -337l97 337h118l-156 -487h-116l-121 350l-118 -350h-119l-158 487h124z" />
    <glyph glyph-name="x" unicode="x" horiz-adv-x="513" 
d="M144 0h-133l177 246l-174 241h138q3 -5 55 -79l52 -77l106 156h132l-171 -239l177 -248h-136l-113 163l-29 -43l-52 -76z" />
    <glyph glyph-name="y" unicode="y" horiz-adv-x="543" 
d="M533 487l-310 -684h-124l117 255l-208 429h131l140 -308l131 308h123z" />
    <glyph glyph-name="z" unicode="z" horiz-adv-x="474" 
d="M436 102v-102h-398v101l247 284h-242v102h388v-98l-250 -287h255z" />
    <glyph glyph-name="braceleft" unicode="{" horiz-adv-x="365" 
d="M45 273v100q49 0 77 24.5t28 71.5v140q0 94 48 142t139 48h23v-89h-22q-46 0 -68 -23t-22 -74v-166q0 -48 -27 -80.5t-75 -43.5q48 -11 75 -44t27 -81v-166q0 -50 22 -73t68 -23h22v-89h-23q-91 0 -139 48t-48 142v139q0 49 -28 73t-77 24z" />
    <glyph glyph-name="bar" unicode="|" horiz-adv-x="268" 
d="M183 799v-952h-98v952h98z" />
    <glyph glyph-name="braceright" unicode="}" horiz-adv-x="365" 
d="M320 373v-100q-49 0 -77 -24t-28 -73v-139q0 -94 -48 -142t-139 -48h-23v89h22q46 0 68 23t22 73v166q0 48 27 81t75 44q-48 11 -75 43.5t-27 80.5v166q0 51 -22 74t-68 23h-22v89h23q91 0 139 -48t48 -142v-140q0 -47 28 -71.5t77 -24.5z" />
    <glyph glyph-name="asciitilde" unicode="~" horiz-adv-x="577" 
d="M287 236l-47 25q-30 14 -52 14q-52 0 -92 -54l-66 53q57 100 159 100q53 0 101 -27l46 -25q27 -15 55 -15q55 0 90 53l66 -53q-55 -99 -158 -99q-50 0 -102 28z" />
    <glyph glyph-name="uni00A0" unicode="&#xa0;" horiz-adv-x="248" 
 />
    <glyph glyph-name="exclamdown" unicode="&#xa1;" horiz-adv-x="291" 
d="M72 429q0 30 21.5 51.5t51.5 21.5t52 -21.5t22 -51.5t-22 -51.5t-52 -21.5t-51.5 21t-21.5 52zM104 285h83l29 -498h-142z" />
    <glyph glyph-name="cent" unicode="&#xa2;" horiz-adv-x="546" 
d="M325 87v-87h-91v90q-84 17 -136.5 81.5t-52.5 153.5q0 88 52.5 152.5t136.5 81.5v90h91v-88q67 -11 112 -51t60 -94l-100 -35q-17 61 -72 78v-271q29 9 50 31t28 48l98 -35q-18 -56 -64 -96t-112 -49zM154 325q0 -99 80 -132v262q-80 -32 -80 -130z" />
    <glyph glyph-name="sterling" unicode="&#xa3;" horiz-adv-x="593" 
d="M67 273v95h64q-23 54 -23 105q0 81 58.5 135.5t147.5 54.5q100 0 153 -52t56 -131l-110 -18q-1 48 -26.5 74.5t-70.5 26.5q-40 0 -66.5 -25t-26.5 -67q0 -39 27 -103h188v-95h-159q2 -22 2 -24q0 -99 -83 -146h177q41 0 64.5 26.5t23.5 67.5l108 -12q0 -82 -48 -133.5
t-125 -51.5h-336v104q49 19 78 54.5t29 78.5q0 15 -4 36h-98z" />
    <glyph glyph-name="currency" unicode="&#xa4;" horiz-adv-x="585" 
d="M80 242q0 62 33 114l-74 75l72 71l74 -76q51 30 110 30t106 -28l73 74l71 -71l-70 -72q35 -53 35 -117t-34 -116l69 -70l-70 -70l-71 72q-50 -29 -109 -29q-62 0 -112 31l-73 -74l-71 70l73 74q-32 50 -32 112zM212 326q-33 -33 -33 -84t33 -84t83 -33t82.5 33t32.5 84
t-32.5 84t-82.5 33t-83 -33z" />
    <glyph glyph-name="yen" unicode="&#xa5;" horiz-adv-x="600" 
d="M535 228v-84h-174v-144h-116v144h-171v84h171v74h-171v84h111l-162 262h135l146 -251l142 251h130l-158 -262h117v-84h-174v-74h174z" />
    <glyph glyph-name="brokenbar" unicode="&#xa6;" horiz-adv-x="268" 
d="M85 400v399h98v-399h-98zM85 -154v399h98v-399h-98z" />
    <glyph glyph-name="section" unicode="&#xa7;" horiz-adv-x="566" 
d="M488 246q0 -40 -22.5 -73.5t-57.5 -51.5q82 -57 82 -144q0 -82 -61.5 -135.5t-147.5 -53.5q-94 0 -148.5 50.5t-56.5 136.5l109 20q0 -52 25 -80.5t72 -28.5q40 0 65 21.5t25 59.5q0 48 -50 74l-103 53q-72 36 -106 75t-34 98q0 40 22.5 73.5t57.5 51.5q-82 55 -82 144
q0 82 61 135t148 53q92 0 147.5 -51.5t57.5 -134.5l-110 -20q0 52 -25 80t-71 28q-40 0 -65.5 -22.5t-25.5 -58.5q0 -47 51 -73l102 -53q72 -38 106.5 -77t34.5 -96zM327 301l-102 54q-38 -26 -38 -67q0 -49 52 -76l101 -54q39 27 39 67q0 48 -52 76z" />
    <glyph glyph-name="dieresis" unicode="&#xa8;" horiz-adv-x="393" 
d="M32 625q0 27 18.5 46t45.5 19q28 0 47 -19t19 -46q0 -28 -19 -46.5t-47 -18.5q-27 0 -45.5 18.5t-18.5 46.5zM232 625q0 27 18.5 46t45.5 19t46 -19t19 -46q0 -28 -19 -46.5t-46 -18.5t-45.5 18.5t-18.5 46.5z" />
    <glyph glyph-name="copyright" unicode="&#xa9;" horiz-adv-x="818" 
d="M149 94q-107 109 -107 261q0 153 107 261t259 108t260 -108.5t108 -260.5q0 -153 -108 -261.5t-260 -108.5q-153 0 -259 109zM206 564q-82 -85 -82 -209t82 -209t202 -85q119 0 201.5 85t82.5 209t-82.5 208.5t-201.5 84.5q-120 0 -202 -84zM412 473q-45 0 -75.5 -32.5
t-30.5 -85.5q0 -55 30.5 -87.5t76.5 -32.5q73 0 96 70l80 -29q-16 -54 -62.5 -89.5t-113.5 -35.5q-84 0 -141 58.5t-57 145.5t56 145t140 58q69 0 114.5 -35.5t60.5 -90.5l-82 -30q-7 32 -30.5 51.5t-61.5 19.5z" />
    <glyph glyph-name="ordfeminine" unicode="&#xaa;" horiz-adv-x="425" 
d="M59 399q0 43 28 70t75 33l86 13q26 5 26 24q0 21 -16 34t-45 13t-46.5 -16t-19.5 -41l-81 17q5 48 45 80.5t102 32.5q73 0 110.5 -35.5t37.5 -94.5v-169q0 -40 4 -55h-82q-4 11 -4 42q-33 -52 -102 -52q-52 0 -85 30t-33 74zM196 363q36 0 57 20.5t21 61.5v15l-82 -12
q-43 -7 -43 -44q0 -18 12.5 -29.5t34.5 -11.5z" />
    <glyph glyph-name="guillemotleft" unicode="&#xab;" horiz-adv-x="500" 
d="M141 292l133 -192h-111l-135 193l136 194h111zM348 292l133 -192h-111l-135 193l136 194h111z" />
    <glyph glyph-name="logicalnot" unicode="&#xac;" horiz-adv-x="583" 
d="M523 434v-292h-101v195h-377v97h478z" />
    <glyph glyph-name="uni00AD" unicode="&#xad;" horiz-adv-x="372" 
d="M327 344v-103h-282v103h282z" />
    <glyph glyph-name="registered" unicode="&#xae;" horiz-adv-x="818" 
d="M149 94q-107 109 -107 261q0 153 107 261t259 108t260 -108.5t108 -260.5q0 -153 -108 -261.5t-260 -108.5q-153 0 -259 109zM206 564q-82 -85 -82 -209t82 -209t202 -85q119 0 201.5 85t82.5 209t-82.5 208.5t-201.5 84.5q-120 0 -202 -84zM569 157h-98l-76 144h-29
v-144h-86v401h149q58 0 97.5 -37t39.5 -91q0 -41 -22.5 -72.5t-59.5 -45.5zM366 485v-111h49q63 0 63 55q0 26 -16.5 41t-46.5 15h-49z" />
    <glyph glyph-name="macron" unicode="&#xaf;" horiz-adv-x="338" 
d="M308 667v-90h-278v90h278z" />
    <glyph glyph-name="degree" unicode="&#xb0;" horiz-adv-x="372" 
d="M70 387q-48 47 -48 113t48.5 113.5t115.5 47.5t115.5 -47.5t48.5 -113.5q0 -67 -48.5 -113.5t-116.5 -46.5q-66 0 -115 47zM136 553q-21 -21 -21 -53t20.5 -53t50.5 -21t50 21t20 53t-20 52.5t-50 20.5t-50 -20z" />
    <glyph glyph-name="plusminus" unicode="&#xb1;" horiz-adv-x="581" 
d="M63 311v94h178v129h99v-129h178v-94h-178v-128h-99v128h-178zM63 47v96h455v-96h-455z" />
    <glyph glyph-name="uni00B2" unicode="&#xb2;" horiz-adv-x="392" 
d="M146 567l-84 -1q-3 15 -3 30q0 52 38 86.5t100 34.5t99.5 -34t37.5 -85q0 -66 -75 -111l-71 -43q-17 -13 -20 -25h169v-76h-281v12q0 99 87 152l60 36q41 24 41 56q0 19 -13 31.5t-36 12.5q-24 0 -38 -14.5t-14 -37.5q0 -12 3 -24z" />
    <glyph glyph-name="uni00B3" unicode="&#xb3;" horiz-adv-x="412" 
d="M55 444l80 24q4 -25 23 -41.5t46 -16.5t44 14t17 35q0 25 -16.5 38t-44.5 13q-16 0 -31 -6l-32 61l91 69h-164v75h279v-72l-94 -69q47 -5 75 -34.5t28 -75.5q0 -53 -42 -88t-109 -35q-61 0 -101 31t-49 78z" />
    <glyph glyph-name="acute" unicode="&#xb4;" horiz-adv-x="286" 
d="M119 696h137l-131 -148h-95z" />
    <glyph glyph-name="uni00B5" unicode="&#xb5;" horiz-adv-x="584" 
d="M397 54q-17 -32 -55 -50t-83 -18q-38 0 -68 12v-188h-116v677h116v-286q0 -51 24.5 -81t73.5 -30q48 0 75 29.5t27 79.5v288h116v-398q0 -39 5 -89h-111q-4 20 -4 54z" />
    <glyph glyph-name="paragraph" unicode="&#xb6;" horiz-adv-x="648" 
d="M436 616h-95v-813h-95v507h-17q-82 0 -140.5 57t-58.5 138q0 93 65.5 148.5t166.5 55.5h366v-93h-97v-813h-95v813z" />
    <glyph glyph-name="periodcentered" unicode="&#xb7;" horiz-adv-x="284" 
d="M65 298q0 32 23 55t55 23q33 0 56 -23t23 -55q0 -33 -23 -55t-56 -22t-55.5 22t-22.5 55z" />
    <glyph glyph-name="cedilla" unicode="&#xb8;" horiz-adv-x="296" 
d="M117 -105l-35 43l48 75h78l-39 -60q43 -1 70 -24t27 -60q0 -41 -31.5 -66.5t-91.5 -25.5q-36 0 -67.5 13.5t-47.5 34.5l41 50q35 -35 73 -35q44 0 44 30q0 13 -11.5 21.5t-29.5 8.5q-13 0 -28 -5z" />
    <glyph glyph-name="uni00B9" unicode="&#xb9;" horiz-adv-x="298" 
d="M223 709v-366h-91v233h-89v60q38 1 65 22t33 51h82z" />
    <glyph glyph-name="ordmasculine" unicode="&#xba;" horiz-adv-x="483" 
d="M113 608q51 51 129 51t129 -51.5t51 -130.5t-51 -130.5t-129 -51.5t-129 51.5t-51 130.5t51 131zM242 376q39 0 64 27t25 74t-25 73.5t-64 26.5t-64 -26.5t-25 -73.5q0 -46 25.5 -73.5t63.5 -27.5z" />
    <glyph glyph-name="guillemotright" unicode="&#xbb;" horiz-adv-x="500" 
d="M265 293l-135 -193h-111l133 192l-134 195h111zM472 293l-135 -193h-111l133 192l-134 195h111z" />
    <glyph glyph-name="onequarter" unicode="&#xbc;" horiz-adv-x="796" 
d="M230 648v-366h-91v233h-89v60q38 1 65 22t33 51h82zM656 648l-461 -648h-105l462 648h104zM598 71h-181v88l172 207h99v-222h62v-73h-62v-71h-90v71zM495 144h103v125z" />
    <glyph glyph-name="onehalf" unicode="&#xbd;" horiz-adv-x="805" 
d="M230 648v-366h-91v233h-89v60q38 1 65 22t33 51h82zM655 648l-461 -648h-105l462 648h104zM567 224l-84 -1q-3 15 -3 30q0 52 38 86.5t100 34.5t99.5 -34t37.5 -85q0 -66 -75 -111l-71 -43q-17 -13 -20 -25h169v-76h-281v12q0 99 87 152l60 36q41 24 41 56q0 19 -13 31.5
t-36 12.5q-24 0 -38 -14.5t-14 -37.5q0 -12 3 -24z" />
    <glyph glyph-name="threequarters" unicode="&#xbe;" horiz-adv-x="869" 
d="M52 383l80 24q4 -25 23 -41.5t46 -16.5t44 14t17 35q0 25 -16.5 38t-44.5 13q-16 0 -31 -6l-32 61l91 69h-164v75h279v-72l-94 -69q47 -5 75 -34.5t28 -75.5q0 -53 -42 -88t-109 -35q-61 0 -101 31t-49 78zM741 648l-461 -648h-105l462 648h104zM672 71h-181v88l172 207
h99v-222h62v-73h-62v-71h-90v71zM569 144h103v125z" />
    <glyph glyph-name="questiondown" unicode="&#xbf;" horiz-adv-x="487" 
d="M205 378q-21 21 -21 51t21 51.5t52 21.5q30 0 51.5 -21.5t21.5 -51.5t-21.5 -51.5t-51.5 -21.5q-31 0 -52 22zM208 276v10h99q3 -18 3 -38q0 -93 -80 -150l-46 -33q-47 -35 -47 -88q0 -43 29 -71.5t79 -28.5q52 0 82 33t30 83q0 27 -6 45l114 -12q5 -20 5 -46
q0 -86 -61.5 -147t-163.5 -61q-103 0 -165.5 58t-62.5 142q0 105 99 176l43 30q49 34 49 98z" />
    <glyph glyph-name="Agrave" unicode="&#xc0;" horiz-adv-x="711" 
d="M414 759h-108l-143 124h148zM701 0h-131l-67 178h-300l-66 -178h-127l276 709h139zM461 289l-108 290l-108 -290h216z" />
    <glyph glyph-name="Aacute" unicode="&#xc1;" horiz-adv-x="711" 
d="M397 883h149l-142 -124h-109zM701 0h-131l-67 178h-300l-66 -178h-127l276 709h139zM461 289l-108 290l-108 -290h216z" />
    <glyph glyph-name="Acircumflex" unicode="&#xc2;" horiz-adv-x="711" 
d="M350 823l-72 -64h-107l116 124h129l119 -124h-110zM701 0h-131l-67 178h-300l-66 -178h-127l276 709h139zM461 289l-108 290l-108 -290h216z" />
    <glyph glyph-name="Atilde" unicode="&#xc3;" horiz-adv-x="711" 
d="M443 886h74v-23q0 -52 -27.5 -81t-71.5 -29q-35 0 -73 23l-10 7q-28 17 -45 17q-13 0 -21.5 -9t-8.5 -24v-10h-75v22q0 52 27.5 81t72.5 29q36 0 74 -23l10 -6q31 -17 43 -17q31 0 31 33v10zM701 0h-131l-67 178h-300l-66 -178h-127l276 709h139zM461 289l-108 290
l-108 -290h216z" />
    <glyph glyph-name="Adieresis" unicode="&#xc4;" horiz-adv-x="711" 
d="M153 774q-19 19 -19 47t19 47.5t47 19.5t47.5 -19.5t19.5 -47.5t-19.5 -47t-47.5 -19t-47 19zM460 774q-19 19 -19 47t18.5 47.5t46.5 19.5t47.5 -19.5t19.5 -47.5t-19.5 -47t-47.5 -19t-46 19zM701 0h-131l-67 178h-300l-66 -178h-127l276 709h139zM461 289l-108 290
l-108 -290h216z" />
    <glyph glyph-name="Aring" unicode="&#xc5;" horiz-adv-x="711" 
d="M483 759q0 -55 -42 -93l260 -666h-131l-67 178h-300l-66 -178h-127l258 663q-44 38 -44 96q0 53 37.5 89.5t91.5 36.5t92 -36.5t38 -89.5zM318 723q14 -14 35 -14t35.5 14t14.5 36q0 21 -14.5 35t-35.5 14t-35.5 -14t-14.5 -35q0 -23 15 -36zM461 289l-108 290l-108 -290
h216z" />
    <glyph glyph-name="AE" unicode="&#xc6;" horiz-adv-x="1044" 
d="M986 112v-112h-438v180h-277l-115 -180h-149l470 709h509v-112h-318v-188h288v-109h-288v-188h318zM548 611l-211 -328h211v328z" />
    <glyph glyph-name="Ccedilla" unicode="&#xc7;" horiz-adv-x="758" 
d="M370 -105l-35 43l31 49q-141 12 -232.5 112.5t-91.5 254.5q0 162 104.5 266t252.5 104q124 0 208 -63.5t111 -166.5l-113 -38q-18 71 -71 113t-135 42q-99 0 -166.5 -69.5t-67.5 -187.5q0 -116 67.5 -185t167.5 -69q80 0 135 43.5t76 112.5l110 -36q-25 -93 -98 -157
t-179 -75l-22 -35q43 -1 70 -24t27 -60q0 -41 -31.5 -66.5t-91.5 -25.5q-36 0 -67.5 13.5t-47.5 34.5l41 50q35 -35 73 -35q44 0 44 30q0 13 -11.5 21.5t-29.5 8.5q-13 0 -28 -5z" />
    <glyph glyph-name="Egrave" unicode="&#xc8;" horiz-adv-x="582" 
d="M388 759h-108l-143 124h148zM523 112v-112h-438v709h438v-112h-318v-188h288v-109h-288v-188h318z" />
    <glyph glyph-name="Eacute" unicode="&#xc9;" horiz-adv-x="582" 
d="M325 883h149l-142 -124h-109zM523 112v-112h-438v709h438v-112h-318v-188h288v-109h-288v-188h318z" />
    <glyph glyph-name="Ecircumflex" unicode="&#xca;" horiz-adv-x="582" 
d="M300 823l-72 -64h-107l116 124h129l119 -124h-110zM523 112v-112h-438v709h438v-112h-318v-188h288v-109h-288v-188h318z" />
    <glyph glyph-name="Edieresis" unicode="&#xcb;" horiz-adv-x="582" 
d="M144 774q-19 19 -19 47t19 47.5t47 19.5t47.5 -19.5t19.5 -47.5t-19.5 -47t-47.5 -19t-47 19zM372 774q-19 19 -19 47t19 47.5t47 19.5t47 -19.5t19 -47.5t-19 -47t-47 -19t-47 19zM523 112v-112h-438v709h438v-112h-318v-188h288v-109h-288v-188h318z" />
    <glyph glyph-name="Igrave" unicode="&#xcc;" horiz-adv-x="292" 
d="M204 759h-108l-143 124h148zM207 709v-709h-122v709h122z" />
    <glyph glyph-name="Iacute" unicode="&#xcd;" horiz-adv-x="292" 
d="M190 883h149l-142 -124h-109zM207 709v-709h-122v709h122z" />
    <glyph glyph-name="Icircumflex" unicode="&#xce;" horiz-adv-x="292" 
d="M148 823l-72 -64h-107l116 124h129l119 -124h-110zM207 709v-709h-122v709h122z" />
    <glyph glyph-name="Idieresis" unicode="&#xcf;" horiz-adv-x="292" 
d="M16 777q-18 18 -18 44t18 44.5t44 18.5t44.5 -18.5t18.5 -44.5t-18.5 -44.5t-44.5 -18.5t-44 19zM189 777q-18 18 -18 44t18 44.5t45 18.5q26 0 44 -18.5t18 -44.5t-18 -44.5t-44 -18.5q-27 0 -45 19zM207 709v-709h-122v709h122z" />
    <glyph glyph-name="Eth" unicode="&#xd0;" horiz-adv-x="740" 
d="M349 0h-250v319h-82v93h82v297h251q153 0 249 -96.5t96 -259.5q0 -162 -96.5 -257.5t-249.5 -95.5zM219 319v-209h126q101 0 163 64t62 179q0 117 -61.5 181.5t-162.5 64.5h-127v-187h131v-93h-131z" />
    <glyph glyph-name="Ntilde" unicode="&#xd1;" horiz-adv-x="765" 
d="M476 886h74v-23q0 -52 -27.5 -81t-71.5 -29q-35 0 -73 23l-10 7q-28 17 -45 17q-13 0 -21.5 -9t-8.5 -24v-10h-75v22q0 52 27.5 81t72.5 29q36 0 74 -23l10 -6q31 -17 43 -17q31 0 31 33v10zM680 709v-709h-125l-350 537v-537h-120v709h153l322 -503v503h120z" />
    <glyph glyph-name="Ograve" unicode="&#xd2;" horiz-adv-x="805" 
d="M461 759h-108l-143 124h148zM94 157q-52 85 -52 198q0 109 50.5 195.5t133.5 130.5q80 43 176 43q97 0 177.5 -43.5t131.5 -127.5q52 -85 52 -198q0 -109 -51 -196t-134 -131q-80 -43 -176 -43q-97 0 -177.5 43.5t-130.5 128.5zM235 544q-70 -67 -70 -189
q0 -117 68.5 -186.5t168.5 -69.5q101 0 169.5 69.5t68.5 186.5t-68.5 186.5t-169.5 69.5q-97 0 -167 -67z" />
    <glyph glyph-name="Oacute" unicode="&#xd3;" horiz-adv-x="805" 
d="M441 883h149l-142 -124h-109zM94 157q-52 85 -52 198q0 109 50.5 195.5t133.5 130.5q80 43 176 43q97 0 177.5 -43.5t131.5 -127.5q52 -85 52 -198q0 -109 -51 -196t-134 -131q-80 -43 -176 -43q-97 0 -177.5 43.5t-130.5 128.5zM235 544q-70 -67 -70 -189
q0 -117 68.5 -186.5t168.5 -69.5q101 0 169.5 69.5t68.5 186.5t-68.5 186.5t-169.5 69.5q-97 0 -167 -67z" />
    <glyph glyph-name="Ocircumflex" unicode="&#xd4;" horiz-adv-x="805" 
d="M400 823l-72 -64h-107l116 124h129l119 -124h-110zM94 157q-52 85 -52 198q0 109 50.5 195.5t133.5 130.5q80 43 176 43q97 0 177.5 -43.5t131.5 -127.5q52 -85 52 -198q0 -109 -51 -196t-134 -131q-80 -43 -176 -43q-97 0 -177.5 43.5t-130.5 128.5zM235 544
q-70 -67 -70 -189q0 -117 68.5 -186.5t168.5 -69.5q101 0 169.5 69.5t68.5 186.5t-68.5 186.5t-169.5 69.5q-97 0 -167 -67z" />
    <glyph glyph-name="Otilde" unicode="&#xd5;" horiz-adv-x="805" 
d="M495 887h74v-23q0 -52 -27.5 -81t-71.5 -29q-35 0 -73 23l-10 7q-28 17 -45 17q-13 0 -21.5 -9t-8.5 -24v-10h-75v22q0 52 27.5 81t72.5 29q36 0 74 -23l10 -6q31 -17 43 -17q31 0 31 33v10zM94 157q-52 85 -52 198q0 109 50.5 195.5t133.5 130.5q80 43 176 43
q97 0 177.5 -43.5t131.5 -127.5q52 -85 52 -198q0 -109 -51 -196t-134 -131q-80 -43 -176 -43q-97 0 -177.5 43.5t-130.5 128.5zM235 544q-70 -67 -70 -189q0 -117 68.5 -186.5t168.5 -69.5q101 0 169.5 69.5t68.5 186.5t-68.5 186.5t-169.5 69.5q-97 0 -167 -67z" />
    <glyph glyph-name="Odieresis" unicode="&#xd6;" horiz-adv-x="805" 
d="M194 774q-19 19 -19 47t19 47.5t47 19.5t47.5 -19.5t19.5 -47.5t-19.5 -47t-47.5 -19t-47 19zM517 774q-19 19 -19 47t19 47.5t47 19.5t47.5 -19.5t19.5 -47.5t-19.5 -47t-47.5 -19t-47 19zM94 157q-52 85 -52 198q0 109 50.5 195.5t133.5 130.5q80 43 176 43
q97 0 177.5 -43.5t131.5 -127.5q52 -85 52 -198q0 -109 -51 -196t-134 -131q-80 -43 -176 -43q-97 0 -177.5 43.5t-130.5 128.5zM235 544q-70 -67 -70 -189q0 -117 68.5 -186.5t168.5 -69.5q101 0 169.5 69.5t68.5 186.5t-68.5 186.5t-169.5 69.5q-97 0 -167 -67z" />
    <glyph glyph-name="multiply" unicode="&#xd7;" horiz-adv-x="548" 
d="M510 120l-69 -69l-167 171l-167 -171l-69 69l168 172l-167 171l69 69l166 -171l166 171l69 -69l-167 -171z" />
    <glyph glyph-name="Oslash" unicode="&#xd8;" horiz-adv-x="805" 
d="M42 355q0 109 50.5 195.5t133.5 130.5q80 43 176 43q97 0 186 -50l71 91l78 -60l-72 -92q98 -104 98 -258q0 -109 -51 -196t-134 -131q-80 -43 -176 -43q-101 0 -185 48l-68 -88l-80 59l71 91q-98 104 -98 260zM165 355q0 -100 49 -164l303 391q-53 29 -115 29
q-100 0 -168.5 -69.5t-68.5 -186.5zM640 355q0 95 -48 162l-303 -391q53 -27 113 -27q101 0 169.5 69.5t68.5 186.5z" />
    <glyph glyph-name="Ugrave" unicode="&#xd9;" horiz-adv-x="683" 
d="M415 759h-108l-143 124h148zM532 54q-75 -69 -191 -69q-118 0 -191 70t-73 192v462h119v-455q0 -74 38 -114.5t107 -40.5t107 40t38 115v455h120v-462q0 -124 -74 -193z" />
    <glyph glyph-name="Uacute" unicode="&#xda;" horiz-adv-x="683" 
d="M364 883h149l-142 -124h-109zM532 54q-75 -69 -191 -69q-118 0 -191 70t-73 192v462h119v-455q0 -74 38 -114.5t107 -40.5t107 40t38 115v455h120v-462q0 -124 -74 -193z" />
    <glyph glyph-name="Ucircumflex" unicode="&#xdb;" horiz-adv-x="683" 
d="M339 823l-72 -64h-107l116 124h129l119 -124h-110zM532 54q-75 -69 -191 -69q-118 0 -191 70t-73 192v462h119v-455q0 -74 38 -114.5t107 -40.5t107 40t38 115v455h120v-462q0 -124 -74 -193z" />
    <glyph glyph-name="Udieresis" unicode="&#xdc;" horiz-adv-x="683" 
d="M177 774q-19 19 -19 47t19 47.5t47 19.5t47 -19.5t19 -47.5t-19 -47t-47 -19t-47 19zM413 774q-19 19 -19 47t19 47.5t47 19.5t47 -19.5t19 -47.5t-19 -47t-47 -19t-47 19zM532 54q-75 -69 -191 -69q-118 0 -191 70t-73 192v462h119v-455q0 -74 38 -114.5t107 -40.5
t107 40t38 115v455h120v-462q0 -124 -74 -193z" />
    <glyph glyph-name="Yacute" unicode="&#xdd;" horiz-adv-x="638" 
d="M345 883h149l-142 -124h-109zM258 0v300l-248 409h142l170 -297l171 297h135l-250 -409v-300h-120z" />
    <glyph glyph-name="Thorn" unicode="&#xde;" horiz-adv-x="599" 
d="M343 147h-138v-147h-120v709h120v-133h137q100 0 166 -61.5t66 -153.5t-65.5 -153t-165.5 -61zM205 472v-221h125q57 0 89.5 29.5t32.5 79.5q0 52 -32.5 82t-89.5 30h-125z" />
    <glyph glyph-name="germandbls" unicode="&#xdf;" horiz-adv-x="583" 
d="M381 343q1 -15 10 -23.5t31 -17.5l33 -15q49 -22 78.5 -61.5t29.5 -89.5q0 -61 -46.5 -106t-124.5 -45q-77 0 -121.5 42t-45.5 100l96 22q1 -30 19 -51.5t52 -21.5q28 0 44.5 15.5t16.5 36.5q0 40 -50 63l-32 14q-34 14 -53 27.5t-36 39.5q-18 27 -18 63q0 71 65 113
l25 17q53 33 53 77q0 35 -27.5 57.5t-74.5 22.5q-51 0 -83.5 -37t-32.5 -103v-482h-114v489q0 109 64.5 172t165.5 63q96 0 156.5 -50.5t60.5 -126.5q0 -92 -88 -149l-24 -15q-29 -17 -29 -40z" />
    <glyph glyph-name="agrave" unicode="&#xe0;" horiz-adv-x="532" 
d="M325 548h-95l-132 148h139zM45 132q0 61 39.5 99t107.5 48l125 19q36 4 36 35q0 34 -23.5 54t-68.5 20q-43 0 -69.5 -24t-30.5 -64l-106 24q7 68 64 113.5t141 45.5q102 0 154.5 -49.5t52.5 -132.5v-242q0 -48 6 -78h-108q-5 17 -5 62q-48 -77 -150 -77q-73 0 -119 43
t-46 104zM232 76q57 0 89 31t32 95v22l-127 -19q-65 -11 -65 -66q0 -27 19.5 -45t51.5 -18z" />
    <glyph glyph-name="aacute" unicode="&#xe1;" horiz-adv-x="532" 
d="M285 696h137l-131 -148h-95zM45 132q0 61 39.5 99t107.5 48l125 19q36 4 36 35q0 34 -23.5 54t-68.5 20q-43 0 -69.5 -24t-30.5 -64l-106 24q7 68 64 113.5t141 45.5q102 0 154.5 -49.5t52.5 -132.5v-242q0 -48 6 -78h-108q-5 17 -5 62q-48 -77 -150 -77q-73 0 -119 43
t-46 104zM232 76q57 0 89 31t32 95v22l-127 -19q-65 -11 -65 -66q0 -27 19.5 -45t51.5 -18z" />
    <glyph glyph-name="acircumflex" unicode="&#xe2;" horiz-adv-x="532" 
d="M263 626l-70 -77h-97l107 143h121l108 -143h-99zM45 132q0 61 39.5 99t107.5 48l125 19q36 4 36 35q0 34 -23.5 54t-68.5 20q-43 0 -69.5 -24t-30.5 -64l-106 24q7 68 64 113.5t141 45.5q102 0 154.5 -49.5t52.5 -132.5v-242q0 -48 6 -78h-108q-5 17 -5 62
q-48 -77 -150 -77q-73 0 -119 43t-46 104zM232 76q57 0 89 31t32 95v22l-127 -19q-65 -11 -65 -66q0 -27 19.5 -45t51.5 -18z" />
    <glyph glyph-name="atilde" unicode="&#xe3;" horiz-adv-x="532" 
d="M178 556h-76l-1 18q0 55 28 85t75 30q33 0 70 -22l10 -6q29 -17 43 -17q31 0 31 44h76v-17q0 -55 -28 -86t-74 -31q-33 0 -71 23l-10 6q-26 16 -43 16q-30 0 -30 -43zM45 132q0 61 39.5 99t107.5 48l125 19q36 4 36 35q0 34 -23.5 54t-68.5 20q-43 0 -69.5 -24t-30.5 -64
l-106 24q7 68 64 113.5t141 45.5q102 0 154.5 -49.5t52.5 -132.5v-242q0 -48 6 -78h-108q-5 17 -5 62q-48 -77 -150 -77q-73 0 -119 43t-46 104zM232 76q57 0 89 31t32 95v22l-127 -19q-65 -11 -65 -66q0 -27 19.5 -45t51.5 -18z" />
    <glyph glyph-name="adieresis" unicode="&#xe4;" horiz-adv-x="532" 
d="M99 625q0 27 18.5 46t45.5 19q28 0 47 -19t19 -46q0 -28 -19 -46.5t-47 -18.5q-27 0 -45.5 18.5t-18.5 46.5zM299 625q0 27 18.5 46t45.5 19t46 -19t19 -46q0 -28 -19 -46.5t-46 -18.5t-45.5 18.5t-18.5 46.5zM45 132q0 61 39.5 99t107.5 48l125 19q36 4 36 35
q0 34 -23.5 54t-68.5 20q-43 0 -69.5 -24t-30.5 -64l-106 24q7 68 64 113.5t141 45.5q102 0 154.5 -49.5t52.5 -132.5v-242q0 -48 6 -78h-108q-5 17 -5 62q-48 -77 -150 -77q-73 0 -119 43t-46 104zM232 76q57 0 89 31t32 95v22l-127 -19q-65 -11 -65 -66q0 -27 19.5 -45
t51.5 -18z" />
    <glyph glyph-name="aring" unicode="&#xe5;" horiz-adv-x="532" 
d="M340 727q33 -31 33 -79q0 -47 -33 -78.5t-81 -31.5q-46 0 -79.5 32.5t-33.5 77.5q0 47 33.5 79t79.5 32t81 -32zM303 648q0 20 -12.5 32.5t-32.5 12.5q-18 0 -30.5 -13t-12.5 -32t12.5 -31.5t30.5 -12.5q19 0 32 12.5t13 31.5zM45 132q0 61 39.5 99t107.5 48l125 19
q36 4 36 35q0 34 -23.5 54t-68.5 20q-43 0 -69.5 -24t-30.5 -64l-106 24q7 68 64 113.5t141 45.5q102 0 154.5 -49.5t52.5 -132.5v-242q0 -48 6 -78h-108q-5 17 -5 62q-48 -77 -150 -77q-73 0 -119 43t-46 104zM232 76q57 0 89 31t32 95v22l-127 -19q-65 -11 -65 -66
q0 -27 19.5 -45t51.5 -18z" />
    <glyph glyph-name="ae" unicode="&#xe6;" horiz-adv-x="872" 
d="M731 171l98 -32q-21 -67 -81.5 -110.5t-140.5 -43.5q-59 0 -110 25t-85 70q-63 -95 -188 -95q-81 0 -130 42t-49 105q0 61 39.5 99t107.5 48l132 19q37 4 37 35q0 33 -26 54t-71 21q-44 0 -73.5 -24.5t-33.5 -61.5l-102 21q6 66 66.5 112.5t143.5 46.5q114 0 168 -71
q68 71 165 71q111 0 173.5 -68t62.5 -185q0 -13 -2 -37h-358q2 -56 40.5 -91.5t93.5 -35.5q93 0 123 86zM477 297h241q-2 48 -34 78t-87 30q-50 0 -83.5 -32t-36.5 -76zM236 76q55 0 90 31.5t35 93.5v23l-135 -19q-65 -9 -65 -68q0 -26 20.5 -43.5t54.5 -17.5z" />
    <glyph glyph-name="ccedilla" unicode="&#xe7;" horiz-adv-x="541" 
d="M255 -106l-35 43l33 51q-94 12 -155 83.5t-61 172.5q0 111 71.5 184.5t177.5 73.5q87 0 146 -45t77 -115l-104 -38q-10 41 -40 66t-78 25q-58 0 -96 -41.5t-38 -109.5q0 -70 38.5 -111.5t97.5 -41.5q48 0 79.5 26t42.5 64l102 -37q-19 -60 -66.5 -103.5t-116.5 -52.5
l-23 -36q43 -1 70 -24t27 -60q0 -41 -31.5 -66.5t-91.5 -25.5q-36 0 -67.5 13.5t-47.5 34.5l41 50q35 -35 73 -35q44 0 44 30q0 13 -11.5 21.5t-29.5 8.5q-13 0 -28 -5z" />
    <glyph glyph-name="egrave" unicode="&#xe8;" horiz-adv-x="548" 
d="M339 548h-95l-132 148h139zM408 170l98 -31q-22 -69 -80 -111.5t-140 -42.5q-107 0 -178 72t-71 189q0 110 69.5 183t167.5 73q111 0 174.5 -68t63.5 -185q0 -31 -3 -37h-356q2 -54 40.5 -90.5t92.5 -36.5q94 0 122 85zM156 297h239q-2 48 -33.5 78t-86.5 30
q-50 0 -83 -31.5t-36 -76.5z" />
    <glyph glyph-name="eacute" unicode="&#xe9;" horiz-adv-x="548" 
d="M311 696h137l-131 -148h-95zM408 170l98 -31q-22 -69 -80 -111.5t-140 -42.5q-107 0 -178 72t-71 189q0 110 69.5 183t167.5 73q111 0 174.5 -68t63.5 -185q0 -31 -3 -37h-356q2 -54 40.5 -90.5t92.5 -36.5q94 0 122 85zM156 297h239q-2 48 -33.5 78t-86.5 30
q-50 0 -83 -31.5t-36 -76.5z" />
    <glyph glyph-name="ecircumflex" unicode="&#xea;" horiz-adv-x="548" 
d="M280 626l-70 -77h-97l107 143h121l108 -143h-99zM408 170l98 -31q-22 -69 -80 -111.5t-140 -42.5q-107 0 -178 72t-71 189q0 110 69.5 183t167.5 73q111 0 174.5 -68t63.5 -185q0 -31 -3 -37h-356q2 -54 40.5 -90.5t92.5 -36.5q94 0 122 85zM156 297h239q-2 48 -33.5 78
t-86.5 30q-50 0 -83 -31.5t-36 -76.5z" />
    <glyph glyph-name="edieresis" unicode="&#xeb;" horiz-adv-x="548" 
d="M115 625q0 27 18.5 46t45.5 19q28 0 47 -19t19 -46q0 -28 -19 -46.5t-47 -18.5q-27 0 -45.5 18.5t-18.5 46.5zM315 625q0 27 18.5 46t45.5 19t46 -19t19 -46q0 -28 -19 -46.5t-46 -18.5t-45.5 18.5t-18.5 46.5zM408 170l98 -31q-22 -69 -80 -111.5t-140 -42.5
q-107 0 -178 72t-71 189q0 110 69.5 183t167.5 73q111 0 174.5 -68t63.5 -185q0 -31 -3 -37h-356q2 -54 40.5 -90.5t92.5 -36.5q94 0 122 85zM156 297h239q-2 48 -33.5 78t-86.5 30q-50 0 -83 -31.5t-36 -76.5z" />
    <glyph glyph-name="igrave" unicode="&#xec;" horiz-adv-x="265" 
d="M188 548h-95l-132 148h139zM190 487v-487h-115v487h115z" />
    <glyph glyph-name="iacute" unicode="&#xed;" horiz-adv-x="265" 
d="M170 696h137l-131 -148h-95zM190 487v-487h-115v487h115z" />
    <glyph glyph-name="icircumflex" unicode="&#xee;" horiz-adv-x="265" 
d="M132 626l-70 -77h-97l107 143h121l108 -143h-99zM190 487v-487h-115v487h115z" />
    <glyph glyph-name="idieresis" unicode="&#xef;" horiz-adv-x="265" 
d="M8 582q-18 16 -18 43q0 26 17.5 44t43.5 18t44 -18t18 -44t-18 -43.5t-44 -17.5q-27 0 -43 18zM170 582q-18 16 -18 43q0 26 17.5 44t43.5 18t44 -18t18 -44t-18 -43.5t-44 -17.5q-27 0 -43 18zM190 487v-487h-115v487h115z" />
    <glyph glyph-name="eth" unicode="&#xf0;" horiz-adv-x="576" 
d="M463 702l32 -73l-78 -35q123 -128 123 -324q0 -125 -68 -204.5t-184 -79.5q-109 0 -180 69t-71 173q0 105 69.5 170t166.5 65q89 0 127 -44q-26 74 -85 129l-135 -61l-31 72l92 42q-41 24 -113 46l36 89q102 -25 187 -85zM288 89q58 0 96.5 38t38.5 102t-38 102t-97 38
q-58 0 -97 -38t-39 -102t39 -102t97 -38z" />
    <glyph glyph-name="ntilde" unicode="&#xf1;" horiz-adv-x="574" 
d="M209 556h-76l-1 18q0 55 28 85t75 30q33 0 70 -22l10 -6q29 -17 43 -17q31 0 31 44h76v-17q0 -55 -28 -86t-74 -31q-33 0 -71 23l-10 6q-26 16 -43 16q-30 0 -30 -43zM191 281v-281h-116v487h113v-65q46 79 144 79q84 0 130 -53t46 -140v-308h-116v288q0 51 -25 79.5
t-75 28.5q-47 0 -74 -32t-27 -83z" />
    <glyph glyph-name="ograve" unicode="&#xf2;" horiz-adv-x="579" 
d="M342 548h-95l-132 148h139zM289 502q110 0 181.5 -73t71.5 -185t-71.5 -185.5t-181.5 -73.5q-109 0 -180.5 73.5t-71.5 185.5t71.5 185t180.5 73zM193 131q39 -42 96 -42q59 0 97.5 42t38.5 113q0 70 -38.5 111.5t-97.5 41.5t-97.5 -41.5t-38.5 -111.5q0 -73 40 -113z
" />
    <glyph glyph-name="oacute" unicode="&#xf3;" horiz-adv-x="579" 
d="M321 696h137l-131 -148h-95zM289 502q110 0 181.5 -73t71.5 -185t-71.5 -185.5t-181.5 -73.5q-109 0 -180.5 73.5t-71.5 185.5t71.5 185t180.5 73zM193 131q39 -42 96 -42q59 0 97.5 42t38.5 113q0 70 -38.5 111.5t-97.5 41.5t-97.5 -41.5t-38.5 -111.5q0 -73 40 -113z
" />
    <glyph glyph-name="ocircumflex" unicode="&#xf4;" horiz-adv-x="579" 
d="M290 626l-70 -77h-97l107 143h121l108 -143h-99zM289 502q110 0 181.5 -73t71.5 -185t-71.5 -185.5t-181.5 -73.5q-109 0 -180.5 73.5t-71.5 185.5t71.5 185t180.5 73zM193 131q39 -42 96 -42q59 0 97.5 42t38.5 113q0 70 -38.5 111.5t-97.5 41.5t-97.5 -41.5
t-38.5 -111.5q0 -73 40 -113z" />
    <glyph glyph-name="otilde" unicode="&#xf5;" horiz-adv-x="579" 
d="M202 556h-76l-1 18q0 55 28 85t75 30q33 0 70 -22l10 -6q29 -17 43 -17q31 0 31 44h76v-17q0 -55 -28 -86t-74 -31q-33 0 -71 23l-10 6q-26 16 -43 16q-30 0 -30 -43zM289 502q110 0 181.5 -73t71.5 -185t-71.5 -185.5t-181.5 -73.5q-109 0 -180.5 73.5t-71.5 185.5
t71.5 185t180.5 73zM193 131q39 -42 96 -42q59 0 97.5 42t38.5 113q0 70 -38.5 111.5t-97.5 41.5t-97.5 -41.5t-38.5 -111.5q0 -73 40 -113z" />
    <glyph glyph-name="odieresis" unicode="&#xf6;" horiz-adv-x="579" 
d="M124 625q0 27 18.5 46t45.5 19q28 0 47 -19t19 -46q0 -28 -19 -46.5t-47 -18.5q-27 0 -45.5 18.5t-18.5 46.5zM324 625q0 27 18.5 46t45.5 19t46 -19t19 -46q0 -28 -19 -46.5t-46 -18.5t-45.5 18.5t-18.5 46.5zM289 502q110 0 181.5 -73t71.5 -185t-71.5 -185.5
t-181.5 -73.5q-109 0 -180.5 73.5t-71.5 185.5t71.5 185t180.5 73zM193 131q39 -42 96 -42q59 0 97.5 42t38.5 113q0 70 -38.5 111.5t-97.5 41.5t-97.5 -41.5t-38.5 -111.5q0 -73 40 -113z" />
    <glyph glyph-name="divide" unicode="&#xf7;" horiz-adv-x="578" 
d="M237 422q-22 21 -22 50t21.5 50.5t50.5 21.5q30 0 51 -21.5t21 -50.5t-21 -50.5t-51 -21.5q-29 0 -50 22zM526 242h-474v99h474v-99zM237 61q-22 21 -22 50t21.5 50t50.5 21q30 0 51 -21t21 -50t-21 -50.5t-51 -21.5q-29 0 -50 22z" />
    <glyph glyph-name="oslash" unicode="&#xf8;" horiz-adv-x="579" 
d="M289 502q71 0 129 -33l52 65l62 -51l-52 -65q62 -73 62 -174q0 -112 -71.5 -185.5t-181.5 -73.5q-70 0 -126 32l-50 -63l-63 51l50 63q-63 70 -63 176q0 112 71.5 185t180.5 73zM153 244q0 -50 19 -85l178 224q-31 14 -61 14q-59 0 -97.5 -41.5t-38.5 -111.5zM289 89
q59 0 97.5 42t38.5 113q0 46 -18 82l-177 -224q25 -13 59 -13z" />
    <glyph glyph-name="ugrave" unicode="&#xf9;" horiz-adv-x="577" 
d="M352 548h-95l-132 148h139zM392 54q-17 -32 -55 -50t-83 -18q-84 0 -134 54.5t-50 139.5v307h116v-286q0 -51 24.5 -81t73.5 -30q48 0 75 29.5t27 79.5v288h116v-398q0 -39 5 -89h-111q-4 20 -4 54z" />
    <glyph glyph-name="uacute" unicode="&#xfa;" horiz-adv-x="577" 
d="M298 696h137l-131 -148h-95zM392 54q-17 -32 -55 -50t-83 -18q-84 0 -134 54.5t-50 139.5v307h116v-286q0 -51 24.5 -81t73.5 -30q48 0 75 29.5t27 79.5v288h116v-398q0 -39 5 -89h-111q-4 20 -4 54z" />
    <glyph glyph-name="ucircumflex" unicode="&#xfb;" horiz-adv-x="577" 
d="M286 626l-70 -77h-97l107 143h121l108 -143h-99zM392 54q-17 -32 -55 -50t-83 -18q-84 0 -134 54.5t-50 139.5v307h116v-286q0 -51 24.5 -81t73.5 -30q48 0 75 29.5t27 79.5v288h116v-398q0 -39 5 -89h-111q-4 20 -4 54z" />
    <glyph glyph-name="udieresis" unicode="&#xfc;" horiz-adv-x="577" 
d="M122 625q0 27 18.5 46t45.5 19q28 0 47 -19t19 -46q0 -28 -19 -46.5t-47 -18.5q-27 0 -45.5 18.5t-18.5 46.5zM322 625q0 27 18.5 46t45.5 19t46 -19t19 -46q0 -28 -19 -46.5t-46 -18.5t-45.5 18.5t-18.5 46.5zM392 54q-17 -32 -55 -50t-83 -18q-84 0 -134 54.5
t-50 139.5v307h116v-286q0 -51 24.5 -81t73.5 -30q48 0 75 29.5t27 79.5v288h116v-398q0 -39 5 -89h-111q-4 20 -4 54z" />
    <glyph glyph-name="yacute" unicode="&#xfd;" horiz-adv-x="543" 
d="M294 696h137l-131 -148h-95zM533 487l-310 -684h-124l117 255l-208 429h131l140 -308l131 308h123z" />
    <glyph glyph-name="thorn" unicode="&#xfe;" horiz-adv-x="604" 
d="M190 55v-245h-115v914h116v-297q22 32 62 51.5t89 19.5q103 0 164 -70.5t61 -183.5q0 -112 -63.5 -184t-165.5 -72q-49 0 -88 18.5t-60 48.5zM451 244q0 68 -36 109.5t-95 41.5q-58 0 -94.5 -41.5t-36.5 -109.5q0 -69 36.5 -111t94.5 -42t94.5 42t36.5 111z" />
    <glyph glyph-name="ydieresis" unicode="&#xff;" horiz-adv-x="543" 
d="M108 625q0 27 18.5 46t45.5 19q28 0 47 -19t19 -46q0 -28 -19 -46.5t-47 -18.5q-27 0 -45.5 18.5t-18.5 46.5zM308 625q0 27 18.5 46t45.5 19t46 -19t19 -46q0 -28 -19 -46.5t-46 -18.5t-45.5 18.5t-18.5 46.5zM533 487l-310 -684h-124l117 255l-208 429h131l140 -308
l131 308h123z" />
    <glyph glyph-name="dotlessi" unicode="&#x131;" horiz-adv-x="265" 
d="M190 487v-487h-115v487h115z" />
    <glyph glyph-name="Lslash" unicode="&#x141;" horiz-adv-x="572" 
d="M547 114v-114h-445v273l-94 -42v100l94 42v336h120v-282l159 71v-100l-159 -71v-213h325z" />
    <glyph glyph-name="lslash" unicode="&#x142;" horiz-adv-x="309" 
d="M211 316v-316h-116v264l-87 -39v101l87 39v359h116v-307l90 40v-100z" />
    <glyph glyph-name="OE" unicode="&#x152;" horiz-adv-x="1136" 
d="M1078 112v-112h-438v81q-93 -96 -238 -96q-97 0 -177.5 43.5t-130.5 128.5q-52 85 -52 198q0 109 50.5 195.5t133.5 130.5q80 43 176 43q147 0 238 -97v82h437v-112h-317v-188h288v-109h-288v-188h318zM235 544q-70 -67 -70 -189q0 -117 68.5 -186.5t168.5 -69.5
q101 0 169.5 69.5t68.5 186.5t-68.5 186.5t-169.5 69.5q-97 0 -167 -67z" />
    <glyph glyph-name="oe" unicode="&#x153;" horiz-adv-x="937" 
d="M289 502q121 0 194 -87q33 40 81 63.5t99 23.5q111 0 174.5 -68t63.5 -185q0 -31 -3 -37h-356q2 -54 40.5 -90.5t92.5 -36.5q94 0 122 85l98 -31q-22 -69 -80 -111.5t-140 -42.5q-119 0 -192 88q-72 -88 -194 -88q-109 0 -180.5 73.5t-71.5 185.5t71.5 185t180.5 73z
M545 297h239q-2 48 -33.5 78t-86.5 30q-50 0 -83 -31.5t-36 -76.5zM193 131q39 -42 96 -42q59 0 97.5 42t38.5 113q0 70 -38.5 111.5t-97.5 41.5t-97.5 -41.5t-38.5 -111.5q0 -73 40 -113z" />
    <glyph glyph-name="Scaron" unicode="&#x160;" horiz-adv-x="599" 
d="M243 759l-116 124h109l72 -65l75 65h108l-119 -124h-129zM551 543l-108 -34q-7 45 -43 77t-96 32q-53 0 -87.5 -29.5t-34.5 -72.5q0 -73 83 -91l102 -21q91 -18 141.5 -72.5t50.5 -131.5q0 -91 -69 -153t-182 -62q-120 0 -192 63t-82 155l112 32q6 -62 49 -102t113 -40
q61 0 95 27t34 71q0 35 -25 60.5t-70 35.5l-100 21q-84 17 -132 69.5t-48 129.5q0 89 71 153t170 64q107 0 169.5 -51t78.5 -130z" />
    <glyph glyph-name="scaron" unicode="&#x161;" horiz-adv-x="457" 
d="M167 549l-106 145h98l70 -77l70 77h98l-106 -145h-124zM32 132l101 28q3 -36 29.5 -59.5t69.5 -23.5q33 0 53 16t20 40q0 42 -57 54l-72 16q-62 14 -96.5 52t-34.5 90q0 64 52.5 110.5t126.5 46.5q96 0 143 -50q39 -43 45 -86l-98 -28q-4 31 -27 52t-63 21
q-30 0 -50 -16.5t-20 -39.5q0 -41 49 -51l74 -15q68 -15 104 -54t36 -94q0 -64 -50 -110t-134 -46q-100 0 -151 54q-46 47 -50 93z" />
    <glyph glyph-name="Ydieresis" unicode="&#x178;" horiz-adv-x="638" 
d="M154 774q-19 19 -19 47t19 47.5t47 19.5t47 -19.5t19 -47.5t-19 -47t-47 -19t-47 19zM393 774q-19 19 -19 47t19 47.5t47 19.5t47.5 -19.5t19.5 -47.5t-19.5 -47t-47.5 -19t-47 19zM258 0v300l-248 409h142l170 -297l171 297h135l-250 -409v-300h-120z" />
    <glyph glyph-name="Zcaron" unicode="&#x17d;" horiz-adv-x="636" 
d="M259 759l-116 124h109l72 -65l75 65h108l-119 -124h-129zM595 114v-114h-553v118l393 478h-382v113h537v-114l-398 -481h403z" />
    <glyph glyph-name="zcaron" unicode="&#x17e;" horiz-adv-x="474" 
d="M179 549l-106 145h98l70 -77l70 77h98l-106 -145h-124zM436 102v-102h-398v101l247 284h-242v102h388v-98l-250 -287h255z" />
    <glyph glyph-name="florin" unicode="&#x192;" horiz-adv-x="498" 
d="M120 24l73 364h-103v99h123l21 101q15 73 63.5 112.5t113.5 39.5q43 0 82 -12v-101q-27 8 -57 8q-74 0 -90 -84l-13 -64h122v-99h-142l-81 -401q-15 -73 -63 -112.5t-114 -39.5q-45 0 -85 12v101q27 -7 61 -7q72 0 89 83z" />
    <glyph glyph-name="circumflex" unicode="&#x2c6;" horiz-adv-x="396" 
d="M197 626l-70 -77h-97l107 143h121l108 -143h-99z" />
    <glyph glyph-name="caron" unicode="&#x2c7;" horiz-adv-x="396" 
d="M136 549l-106 145h98l70 -77l70 77h98l-106 -145h-124z" />
    <glyph glyph-name="uni02C9" unicode="&#x2c9;" horiz-adv-x="338" 
d="M308 667v-90h-278v90h278z" />
    <glyph glyph-name="breve" unicode="&#x2d8;" horiz-adv-x="369" 
d="M184 547q-69 0 -110.5 42t-43.5 105h82q2 -27 20.5 -44t51.5 -17t52 17.5t21 43.5h82q-2 -63 -43.5 -105t-111.5 -42z" />
    <glyph glyph-name="dotaccent" unicode="&#x2d9;" horiz-adv-x="184" 
d="M20 622q0 30 21 51t51 21t51 -21t21 -51q0 -29 -21 -50t-51 -21t-51 21t-21 50z" />
    <glyph glyph-name="ring" unicode="&#x2da;" horiz-adv-x="287" 
d="M224 724q33 -32 33 -79t-33 -78.5t-81 -31.5q-46 0 -79.5 32.5t-33.5 77.5q0 47 33.5 79t79.5 32t81 -32zM174 614q13 12 13 31t-12.5 32t-32.5 13q-18 0 -30.5 -13t-12.5 -32t12.5 -31.5t30.5 -12.5q19 0 32 13z" />
    <glyph glyph-name="ogonek" unicode="&#x2db;" horiz-adv-x="228" 
d="M147 -220q-52 0 -85.5 28.5t-33.5 75.5q0 87 102 132l68 -16q-82 -39 -82 -95q0 -22 14 -34t37 -12q16 0 31 3v-74q-22 -8 -51 -8z" />
    <glyph glyph-name="tilde" unicode="&#x2dc;" horiz-adv-x="385" 
d="M103 556h-76l-1 18q0 55 28 85t75 30q33 0 70 -22l10 -6q29 -17 43 -17q31 0 31 44h76v-17q0 -55 -28 -86t-74 -31q-33 0 -71 23l-10 6q-26 16 -43 16q-30 0 -30 -43z" />
    <glyph glyph-name="hungarumlaut" unicode="&#x2dd;" horiz-adv-x="383" 
d="M81 696h118l-94 -148h-76zM235 696h119l-107 -148h-76z" />
    <glyph glyph-name="uni0326" unicode="&#x326;" horiz-adv-x="0" 
d="M-154 632q-17 15 -17 41t19.5 42.5t47.5 16.5q32 0 53 -22t21 -58q0 -60 -37 -90.5t-92 -30.5v45q31 0 51 13t22 33q-12 -6 -25 -6q-27 0 -43 16z" />
    <glyph glyph-name="uni0394" unicode="&#x394;" horiz-adv-x="678" 
d="M678 0h-678l274 709h129zM510 111l-172 465l-171 -465h343z" />
    <glyph glyph-name="uni03A9" unicode="&#x3a9;" horiz-adv-x="788" 
d="M552 554q-68 60 -158 60q-93 0 -159.5 -62t-66.5 -161q0 -87 54 -148.5t133 -78.5v-164h-304v109h189q-85 34 -140 111t-55 176q0 145 101 236.5t248 91.5t248 -91.5t101 -236.5q0 -99 -55 -176t-140 -111h189v-109h-304v164q79 17 133 78.5t54 148.5q0 101 -68 163z" />
    <glyph glyph-name="uni03BC" unicode="&#x3bc;" horiz-adv-x="584" 
d="M397 54q-17 -32 -55 -50t-83 -18q-38 0 -68 12v-188h-116v677h116v-286q0 -51 24.5 -81t73.5 -30q48 0 75 29.5t27 79.5v288h116v-398q0 -39 5 -89h-111q-4 20 -4 54z" />
    <glyph glyph-name="pi" unicode="&#x3c0;" horiz-adv-x="628" 
d="M582 95v-90q-33 -13 -65 -13q-64 0 -98 36t-34 97v262h-147v-387h-115v387h-83v100h540v-100h-80v-248q0 -48 51 -48q20 0 31 4z" />
    <glyph glyph-name="uni2007" unicode="&#x2007;" horiz-adv-x="619" 
 />
    <glyph glyph-name="uni2008" unicode="&#x2008;" horiz-adv-x="296" 
 />
    <glyph glyph-name="uni200B" unicode="&#x200b;" horiz-adv-x="0" 
 />
    <glyph glyph-name="endash" unicode="&#x2013;" horiz-adv-x="641" 
d="M577 343v-101h-514v101h514z" />
    <glyph glyph-name="emdash" unicode="&#x2014;" horiz-adv-x="1092" 
d="M1019 343v-101h-946v101h946z" />
    <glyph glyph-name="quoteleft" unicode="&#x2018;" horiz-adv-x="226" 
d="M190 509q0 -27 -21 -46.5t-52 -19.5q-35 0 -57.5 25t-22.5 66q0 80 42.5 127.5t101.5 53.5v-55q-31 -6 -54.5 -31.5t-24.5 -57.5q12 5 21 5q29 0 48 -18.5t19 -48.5z" />
    <glyph glyph-name="quoteright" unicode="&#x2019;" horiz-adv-x="230" 
d="M37 649q0 28 21 48t53 20q36 0 59.5 -26t23.5 -67q0 -83 -43.5 -131t-104.5 -55v55q31 6 55 33t25 59q-12 -5 -21 -5q-30 0 -49 19t-19 50z" />
    <glyph glyph-name="quotesinglbase" unicode="&#x201a;" horiz-adv-x="230" 
d="M37 65q0 28 21 48t53 20q36 0 59.5 -25.5t23.5 -67.5q0 -82 -43.5 -130.5t-104.5 -55.5v56q31 5 55 32t25 60q-5 -5 -21 -5q-30 0 -49 18.5t-19 49.5z" />
    <glyph glyph-name="quotedblleft" unicode="&#x201c;" horiz-adv-x="412" 
d="M190 512q0 -27 -21 -46.5t-52 -19.5q-35 0 -57.5 25t-22.5 66q0 80 42.5 127.5t101.5 53.5v-55q-31 -5 -54.5 -31t-24.5 -58q12 5 21 5q29 0 48 -18.5t19 -48.5zM375 512q0 -27 -21 -46.5t-52 -19.5q-35 0 -57.5 25t-22.5 66q0 80 42.5 127t101.5 54v-55q-31 -5 -54 -31
t-24 -58q12 5 20 5q30 0 48.5 -18.5t18.5 -48.5z" />
    <glyph glyph-name="quotedblright" unicode="&#x201d;" horiz-adv-x="411" 
d="M37 648q0 28 20.5 47.5t51.5 19.5q36 0 58.5 -25t22.5 -66q0 -80 -42.5 -127t-102.5 -54v54q33 6 55.5 31.5t23.5 58.5q-5 -5 -21 -5q-29 0 -47.5 18t-18.5 48zM221 648q0 28 21 47.5t52 19.5q35 0 57.5 -25t22.5 -66q0 -80 -42 -127t-102 -54v54q32 6 54.5 31.5
t23.5 58.5q-5 -5 -20 -5q-30 0 -48.5 18t-18.5 48z" />
    <glyph glyph-name="quotedblbase" unicode="&#x201e;" horiz-adv-x="411" 
d="M37 63q0 28 20.5 47.5t51.5 19.5q36 0 58.5 -25t22.5 -66q0 -80 -42.5 -127t-102.5 -54v54q33 6 55.5 31.5t23.5 58.5q-5 -5 -21 -5q-29 0 -47.5 18t-18.5 48zM221 63q0 28 21 47.5t52 19.5q35 0 57.5 -25t22.5 -66q0 -80 -42 -127t-102 -54v54q32 6 54.5 31.5t23.5 58.5
q-5 -5 -20 -5q-30 0 -48.5 18t-18.5 48z" />
    <glyph glyph-name="dagger" unicode="&#x2020;" horiz-adv-x="401" 
d="M250 470v-308h-99v308h-124v94h124v145h99v-145h124v-94h-124z" />
    <glyph glyph-name="daggerdbl" unicode="&#x2021;" horiz-adv-x="441" 
d="M47 146v93h124v231h-124v93h124v146h99v-146h124v-93h-124v-231h124v-93h-124v-146h-99v146h-124z" />
    <glyph glyph-name="bullet" unicode="&#x2022;" horiz-adv-x="542" 
d="M63 294q0 87 61 148t147 61t147 -61t61 -148q0 -85 -61.5 -146t-146.5 -61t-146.5 61t-61.5 146z" />
    <glyph glyph-name="ellipsis" unicode="&#x2026;" horiz-adv-x="926" 
d="M229 65q0 -30 -21.5 -51.5t-52.5 -21.5q-30 0 -51.5 21.5t-21.5 51.5q0 31 21.5 52.5t51.5 21.5q31 0 52.5 -21.5t21.5 -52.5zM536 65q0 -30 -21 -51.5t-52 -21.5t-52.5 21.5t-21.5 51.5q0 31 21.5 52.5t52.5 21.5t52 -21.5t21 -52.5zM844 65q0 -30 -21 -51.5t-52 -21.5
t-52.5 21.5t-21.5 51.5q0 31 21.5 52.5t52.5 21.5t52 -21.5t21 -52.5z" />
    <glyph glyph-name="perthousand" unicode="&#x2030;" horiz-adv-x="1070" 
d="M49 497q0 66 48 113t115 47t115.5 -47t48.5 -113q0 -68 -47.5 -114.5t-116.5 -46.5q-67 0 -115 46.5t-48 114.5zM705 648l-461 -648h-105l462 648h104zM141 497q0 -33 20.5 -53.5t50.5 -20.5q31 0 51 20.5t20 53.5q0 32 -20 52.5t-51 20.5q-30 0 -50.5 -21t-20.5 -52z
M467 152q0 66 48.5 113t115.5 47q73 0 116 -55q43 55 116 55q67 0 116 -47t49 -113q0 -68 -48 -114.5t-117 -46.5q-73 0 -116 55q-43 -55 -117 -55q-67 0 -115 46.5t-48 114.5zM559 152q0 -32 20.5 -53t51.5 -21t51 20.5t20 53.5q0 32 -20 52.5t-51 20.5q-30 0 -51 -21
t-21 -52zM792 152q0 -33 20.5 -53.5t50.5 -20.5q31 0 51.5 20.5t20.5 53.5q0 31 -20.5 52t-51.5 21q-30 0 -50.5 -21t-20.5 -52z" />
    <glyph glyph-name="guilsinglleft" unicode="&#x2039;" horiz-adv-x="293" 
d="M141 292l133 -192h-111l-135 193l136 194h111z" />
    <glyph glyph-name="guilsinglright" unicode="&#x203a;" horiz-adv-x="293" 
d="M265 293l-135 -193h-111l133 192l-134 195h112z" />
    <glyph glyph-name="uni2042" unicode="&#x2042;" horiz-adv-x="836" 
d="M375 708h83v-114l106 35l25 -76l-107 -35l69 -91l-64 -47l-71 93l-66 -92l-66 47l68 90l-107 35l25 76l105 -36v115zM165 317h83v-114l106 35l25 -76l-107 -35l69 -91l-64 -47l-71 93l-66 -92l-66 47l68 90l-107 35l25 76l105 -36v115zM589 317h83v-114l106 35l25 -76
l-107 -35l69 -91l-64 -47l-71 93l-66 -92l-66 47l68 90l-107 35l25 76l105 -36v115z" />
    <glyph glyph-name="fraction" unicode="&#x2044;" horiz-adv-x="566" 
d="M566 648l-461 -648h-105l462 648h104z" />
    <glyph glyph-name="uni2051" unicode="&#x2051;" horiz-adv-x="426" 
d="M171 708h83v-114l106 35l25 -76l-107 -35l69 -91l-64 -47l-71 93l-66 -92l-66 47l68 90l-107 35l25 76l105 -36v115zM171 319h83v-114l106 35l25 -76l-107 -35l69 -91l-64 -47l-71 93l-66 -92l-66 47l68 90l-107 35l25 76l105 -36v115z" />
    <glyph glyph-name="uni2070" unicode="&#x2070;" horiz-adv-x="431" 
d="M55 526q0 76 34 130q37 61 126 61t128 -62q33 -55 33 -129q0 -71 -33 -127q-37 -63 -128 -63q-56 0 -94.5 28.5t-52.5 71.5q-13 39 -13 90zM147 526q0 -114 68 -114t68 114q0 115 -68 115t-68 -115z" />
    <glyph glyph-name="uni2074" unicode="&#x2074;" horiz-adv-x="443" 
d="M236 414h-181v88l172 207h99v-222h62v-73h-62v-71h-90v71zM133 487h103v125z" />
    <glyph glyph-name="uni2075" unicode="&#x2075;" horiz-adv-x="404" 
d="M55 439l79 25q4 -24 22.5 -38t43.5 -14q27 0 43 14t16 39q0 27 -16 41.5t-44 14.5q-34 0 -58 -24l-74 24l47 188h214v-75h-158l-19 -73q25 25 72 25q57 0 91.5 -32t34.5 -87q0 -57 -40.5 -94t-108.5 -37q-55 0 -95.5 29.5t-49.5 73.5z" />
    <glyph glyph-name="uni2076" unicode="&#x2076;" horiz-adv-x="418" 
d="M347 699l-18 -68q-29 12 -64 12q-46 0 -78 -24t-41 -68q30 37 87 37q59 0 94.5 -32.5t35.5 -89.5q0 -58 -43 -94.5t-109 -36.5q-67 0 -111.5 45.5t-44.5 122.5q0 96 57.5 155t146.5 59q49 0 88 -18zM169 505q-18 -17 -18 -41t18 -39.5t43 -15.5t42.5 15.5t17.5 39.5
t-17.5 40t-42.5 16t-43 -15z" />
    <glyph glyph-name="uni2077" unicode="&#x2077;" horiz-adv-x="413" 
d="M55 709h303v-77q-37 -28 -79 -85q-57 -77 -69 -204h-96q7 103 54 185q35 63 66 94l12 11h-191v76z" />
    <glyph glyph-name="uni2078" unicode="&#x2078;" horiz-adv-x="415" 
d="M208 335q-69 0 -110 30t-41 79q0 29 19 52.5t52 34.5q-27 10 -43.5 32t-16.5 49q0 46 38.5 75.5t101.5 29.5q62 0 100.5 -29.5t38.5 -75.5q0 -27 -16 -49t-43 -32q32 -11 51.5 -34t19.5 -51q0 -50 -40.5 -80.5t-110.5 -30.5zM171 574q13 -12 37 -12q23 0 36.5 12t13.5 31
q0 18 -13.5 29t-36.5 11q-24 0 -37.5 -11t-13.5 -29q0 -19 14 -31zM163 421q14 -13 45 -13q60 0 60 46q0 19 -16 31.5t-44 12.5t-44.5 -12.5t-16.5 -31.5q0 -20 16 -33z" />
    <glyph glyph-name="uni2079" unicode="&#x2079;" horiz-adv-x="417" 
d="M74 352l17 70q33 -13 62 -13q50 0 82 23t39 69q-30 -37 -88 -37q-57 0 -94 33.5t-37 88.5q0 58 42.5 94.5t109.5 36.5q66 0 110.5 -44t44.5 -119q0 -102 -54.5 -160.5t-144.5 -58.5q-50 0 -89 17zM248 547q17 15 17 40t-17.5 40.5t-43.5 15.5q-25 0 -42.5 -16t-17.5 -40
t17.5 -40t42.5 -16q27 0 44 16z" />
    <glyph glyph-name="uni2080" unicode="&#x2080;" horiz-adv-x="431" 
d="M55 110q0 76 34 130q37 61 126 61t128 -62q33 -55 33 -129q0 -71 -33 -127q-37 -63 -128 -63q-56 0 -94.5 28.5t-52.5 71.5q-13 39 -13 90zM147 110q0 -114 68 -114t68 114q0 115 -68 115t-68 -115z" />
    <glyph glyph-name="uni2081" unicode="&#x2081;" horiz-adv-x="305" 
d="M223 276v-366h-91v233h-89v60q38 1 65 22t33 51h82z" />
    <glyph glyph-name="uni2082" unicode="&#x2082;" horiz-adv-x="392" 
d="M146 134l-84 -1q-3 15 -3 30q0 52 38 86.5t100 34.5t99.5 -34t37.5 -85q0 -66 -75 -111l-71 -43q-17 -13 -20 -25h169v-76h-281v12q0 100 87 152l60 36q41 24 41 56q0 19 -13 31.5t-36 12.5q-24 0 -38 -14.5t-14 -37.5q0 -12 3 -24z" />
    <glyph glyph-name="uni2083" unicode="&#x2083;" horiz-adv-x="412" 
d="M55 12l80 24q4 -25 23 -41.5t46 -16.5t44 14t17 35q0 25 -16.5 38t-44.5 13q-16 0 -31 -6l-32 61l91 69h-164v75h279v-72l-94 -69q47 -5 75 -34.5t28 -75.5q0 -53 -42 -88t-109 -35q-61 0 -101 31t-49 78z" />
    <glyph glyph-name="uni2084" unicode="&#x2084;" horiz-adv-x="443" 
d="M236 -19h-181v88l172 207h99v-222h62v-73h-62v-71h-90v71zM133 54h103v125z" />
    <glyph glyph-name="uni2085" unicode="&#x2085;" horiz-adv-x="404" 
d="M55 6l79 25q4 -24 22.5 -38t43.5 -14q27 0 43 14t16 39q0 27 -16 41.5t-44 14.5q-34 0 -58 -24l-74 24l47 188h214v-75h-158l-19 -73q25 25 72 25q57 0 91.5 -32t34.5 -87q0 -57 -40.5 -94t-108.5 -37q-55 0 -95.5 29.5t-49.5 73.5z" />
    <glyph glyph-name="uni2086" unicode="&#x2086;" horiz-adv-x="418" 
d="M347 267l-18 -68q-29 12 -64 12q-46 0 -78 -24t-41 -68q30 37 87 37q59 0 94.5 -32.5t35.5 -89.5q0 -58 -43 -94.5t-109 -36.5q-67 0 -111.5 45.5t-44.5 122.5q0 96 57.5 155t146.5 59q49 0 88 -18zM169 73q-18 -16 -18 -41q0 -24 18 -39.5t43 -15.5t42.5 15.5t17.5 39.5
t-17.5 40t-42.5 16t-43 -15z" />
    <glyph glyph-name="uni2087" unicode="&#x2087;" horiz-adv-x="413" 
d="M55 276h303v-77q-37 -28 -79 -85q-57 -77 -69 -204h-96q7 103 54 185q36 65 66 93l12 12h-191v76z" />
    <glyph glyph-name="uni2088" unicode="&#x2088;" horiz-adv-x="415" 
d="M208 -98q-69 0 -110 30t-41 79q0 29 19 52.5t52 34.5q-27 10 -43.5 32t-16.5 49q0 46 38.5 75.5t101.5 29.5q62 0 100.5 -29.5t38.5 -75.5q0 -27 -16 -49t-43 -32q32 -11 51.5 -34t19.5 -51q0 -50 -40.5 -80.5t-110.5 -30.5zM171 141q13 -12 37 -12q23 0 36.5 12t13.5 31
q0 18 -13.5 29t-36.5 11q-24 0 -37.5 -11t-13.5 -29q0 -19 14 -31zM163 -12q14 -13 45 -13q60 0 60 46q0 19 -16 31.5t-44 12.5t-44.5 -12.5t-16.5 -31.5q0 -20 16 -33z" />
    <glyph glyph-name="uni2089" unicode="&#x2089;" horiz-adv-x="417" 
d="M74 -80l17 70q33 -13 62 -13q50 0 82 23t39 69q-30 -37 -88 -37q-57 0 -94 33.5t-37 88.5q0 58 42.5 94.5t109.5 36.5q66 0 110.5 -44t44.5 -119q0 -102 -54.5 -160.5t-144.5 -58.5q-50 0 -89 17zM248 115q17 15 17 40t-17.5 40.5t-43.5 15.5q-25 0 -42.5 -16t-17.5 -40
t17.5 -40t42.5 -16q27 0 44 16z" />
    <glyph glyph-name="Euro" unicode="&#x20ac;" horiz-adv-x="683" 
d="M63 199v88h77q-2 24 -2 36q0 10 2 36h-77v87h94q35 100 120.5 158.5t191.5 58.5q104 0 171 -46l-46 -93q-49 35 -125 35q-62 0 -111.5 -29t-75.5 -84h275l-42 -87h-256q-2 -22 -2 -35q0 -19 2 -37h226l-41 -88h-161q27 -52 75.5 -80t109.5 -28q88 0 139 48l56 -86
q-80 -68 -195 -68q-106 0 -190.5 57t-119.5 157h-95z" />
    <glyph glyph-name="uni2113" unicode="&#x2113;" horiz-adv-x="419" 
d="M32 162v104q25 3 68 24v211q0 74 40 118.5t104 44.5q67 0 105 -41t38 -115q0 -76 -47 -151.5t-130 -128.5v-52q0 -37 19.5 -57.5t48.5 -20.5q56 0 90 27v-100q-2 -3 -11 -10q-27 -20 -89 -20q-79 0 -123.5 43.5t-44.5 117.5v22q-30 -10 -68 -16zM278 511q0 52 -33 52
q-35 0 -35 -59v-145q68 66 68 152z" />
    <glyph glyph-name="trademark" unicode="&#x2122;" horiz-adv-x="868" 
d="M332 709v-77h-107v-288h-86v288h-107v77h300zM808 709v-365h-82v227l-95 -227h-64l-93 224v-224h-84v365h115l97 -232l95 232h111z" />
    <glyph glyph-name="uni2126" unicode="&#x2126;" horiz-adv-x="788" 
d="M552 554q-68 60 -158 60q-93 0 -159.5 -62t-66.5 -161q0 -87 54 -148.5t133 -78.5v-164h-304v109h189q-85 34 -140 111t-55 176q0 145 101 236.5t248 91.5t248 -91.5t101 -236.5q0 -99 -55 -176t-140 -111h189v-109h-304v164q79 17 133 78.5t54 148.5q0 101 -68 163z" />
    <glyph glyph-name="uni2160" unicode="&#x2160;" horiz-adv-x="501" 
d="M50 648h401v-104h-141v-440h141v-104h-401v104h142v440h-142v104z" />
    <glyph glyph-name="uni2161" unicode="&#x2161;" horiz-adv-x="779" 
d="M591 104h138v-104h-679v104h138v440h-138v104h679v-104h-138v-440zM307 104h165v440h-165v-440z" />
    <glyph glyph-name="uni2162" unicode="&#x2162;" horiz-adv-x="1053" 
d="M865 104h138v-104h-953v104h138v440h-138v104h953v-104h-138v-440zM467 544h-160v-440h160v440zM586 104h160v440h-160v-440z" />
    <glyph glyph-name="uni2163" unicode="&#x2163;" horiz-adv-x="1032" 
d="M723 104h259v-104h-932v104h131v440h-131v104h931v-104h-112zM379 544h-80v-440h226zM504 544l122 -389l122 389h-244z" />
    <glyph glyph-name="uni2164" unicode="&#x2164;" horiz-adv-x="806" 
d="M50 648h706v-104h-109l-146 -440h252v-104h-700v104h250l-147 440h-106v104zM282 544l122 -389l122 389h-244z" />
    <glyph glyph-name="uni2165" unicode="&#x2165;" horiz-adv-x="1030" 
d="M849 104h131v-104h-930v104h256l-147 440h-109v104h930v-104h-131v-440zM284 544l123 -389l123 389h-246zM731 544h-79l-148 -440h227v440z" />
    <glyph glyph-name="uni2166" unicode="&#x2166;" horiz-adv-x="1313" 
d="M1125 104h138v-104h-1213v104h255l-146 440h-109v104h1213v-104h-138v-440zM284 544l122 -389l123 389h-245zM730 544h-79l-148 -440h227v440zM849 104h158v440h-158v-440z" />
    <glyph glyph-name="uni2167" unicode="&#x2167;" horiz-adv-x="1570" 
d="M1386 104h134v-104h-1470v104h253l-143 440h-110v104h1470v-104h-134v-440zM284 544l120 -389l119 389h-239zM726 544h-82l-144 -440h226v440zM997 544h-152v-440h152v440zM1268 544h-153v-440h153v440z" />
    <glyph glyph-name="uni2168" unicode="&#x2168;" horiz-adv-x="1004" 
d="M843 104h111v-104h-904v104h131v440h-131v104h903v-104h-104l-161 -226zM386 104l158 215l-162 225h-83v-440h87zM712 544h-191l95 -138zM704 104l-90 129l-91 -129h181z" />
    <glyph glyph-name="uni2169" unicode="&#x2169;" horiz-adv-x="774" 
d="M50 648h674v-104h-105l-161 -226l155 -214h111v-104h-674v104h107l158 215l-162 225h-103v104zM483 544h-191l95 -138zM475 104l-90 129l-92 -129h182z" />
    <glyph glyph-name="uni216C" unicode="&#x216c;" horiz-adv-x="656" 
d="M491 287h115v-287h-556v104h123v440h-123v104h375v-104h-133v-440h199v183z" />
    <glyph glyph-name="uni216D" unicode="&#x216d;" horiz-adv-x="730" 
d="M563 239h117v-239h-117v64q-67 -79 -187 -79q-137 0 -231.5 95t-94.5 244q0 150 94.5 245t230.5 95q120 0 184 -75v61h117v-234h-117q-7 63 -54.5 102.5t-126.5 39.5q-91 0 -151 -62t-60 -172q0 -107 59.5 -169t152.5 -62q82 0 130 42.5t54 103.5z" />
    <glyph glyph-name="uni216E" unicode="&#x216e;" horiz-adv-x="739" 
d="M50 648h331q137 -2 222.5 -89.5t85.5 -235.5q0 -149 -87.5 -236t-227.5 -87h-324v104h128v440h-128v104zM297 544v-440h76q87 0 141.5 58.5t54.5 160.5q0 103 -55.5 162t-144.5 59h-72z" />
    <glyph glyph-name="uni216F" unicode="&#x216f;" horiz-adv-x="1059" 
d="M287 104h90v-104h-327v104h121v440h-121v104h288l189 -469l188 469h294v-104h-124v-440h124v-104h-331v104h91v374l-197 -475h-90l-195 474v-373z" />
    <glyph glyph-name="arrowleft" unicode="&#x2190;" horiz-adv-x="1046" 
d="M239 242v-156l-244 206l244 208v-157h742v-101h-742z" />
    <glyph glyph-name="arrowup" unicode="&#x2191;" horiz-adv-x="469" 
d="M35 543l217 257l215 -257h-165v-690h-100v690h-167z" />
    <glyph glyph-name="arrowright" unicode="&#x2192;" horiz-adv-x="1058" 
d="M745 517l274 -225l-274 -224v174h-716v100h716v175z" />
    <glyph glyph-name="arrowdown" unicode="&#x2193;" horiz-adv-x="465" 
d="M269 105h174l-224 -262l-225 262h174v686h101v-686z" />
    <glyph glyph-name="uni2196" unicode="&#x2196;" horiz-adv-x="875" 
d="M60 393v316h314l-121 -122l527 -526l-71 -71l-527 526z" />
    <glyph glyph-name="uni2197" unicode="&#x2197;" horiz-adv-x="764" 
d="M476 587l-121 122h314v-316l-123 123l-526 -526l-71 71z" />
    <glyph glyph-name="uni2198" unicode="&#x2198;" horiz-adv-x="865" 
d="M770 316v-316h-314l121 122l-527 526l71 71l526 -527z" />
    <glyph glyph-name="uni2199" unicode="&#x2199;" horiz-adv-x="755" 
d="M233 122l121 -122h-314v316l122 -124l527 527l71 -71z" />
    <glyph glyph-name="uni21A9" unicode="&#x21a9;" horiz-adv-x="848" 
d="M590 557h-189v100h193q102 0 167.5 -60.5t65.5 -153.5q0 -91 -65.5 -152.5t-164.5 -61.5h-366v-156l-244 207l244 208v-158h362q58 0 95 32t37 81q0 51 -37.5 82.5t-97.5 31.5z" />
    <glyph glyph-name="uni21B0" unicode="&#x21b0;" horiz-adv-x="791" 
d="M288 467v-157l-245 207l245 207v-157h418v-567h-100v467h-318z" />
    <glyph glyph-name="uni21B1" unicode="&#x21b1;" horiz-adv-x="736" 
d="M135 467v-467h-100v567h452v157l244 -207l-244 -207v157h-352z" />
    <glyph glyph-name="uni21B2" unicode="&#x21b2;" horiz-adv-x="766" 
d="M584 242v467h101v-567h-453v-157l-244 207l244 207v-157h352z" />
    <glyph glyph-name="uni21B3" unicode="&#x21b3;" horiz-adv-x="846" 
d="M531 242v157l244 -207l-244 -207v157h-453v567h101v-467h352z" />
    <glyph glyph-name="uni21B4" unicode="&#x21b4;" horiz-adv-x="806" 
d="M530 609h-472v100h572v-484h157l-206 -241l-207 241h156v384z" />
    <glyph glyph-name="uni21C6" unicode="&#x21c6;" horiz-adv-x="1139" 
d="M304 498v-156l-244 207l244 208v-158h756v-101h-756zM840 373l244 -207l-244 -207v157h-755v100h755v157z" />
    <glyph glyph-name="partialdiff" unicode="&#x2202;" horiz-adv-x="617" 
d="M250 617q-76 0 -143 -33l-40 92q82 46 191 46q92 0 164 -42q93 -54 129 -174q21 -69 21 -158q0 -169 -73.5 -266t-209.5 -97q-106 0 -177 65t-71 175q0 102 71 166.5t173 64.5q114 0 165 -57q-23 218 -200 218zM308 356q-71 0 -110.5 -38t-39.5 -99q0 -57 39.5 -92.5
t96.5 -35.5q75 0 116.5 58t41.5 144q-50 63 -144 63z" />
    <glyph glyph-name="uni2206" unicode="&#x2206;" horiz-adv-x="678" 
d="M678 0h-678l274 709h129zM510 111l-172 465l-171 -465h343z" />
    <glyph glyph-name="product" unicode="&#x220f;" horiz-adv-x="686" 
d="M601 709v-709h-118v600h-278v-600h-120v709h516z" />
    <glyph glyph-name="summation" unicode="&#x2211;" horiz-adv-x="568" 
d="M547 0h-507v107l263 248l-263 247v107h507v-111h-344l260 -243l-269 -244h353v-111z" />
    <glyph glyph-name="minus" unicode="&#x2212;" horiz-adv-x="555" 
d="M503 340v-96h-451v96h451z" />
    <glyph glyph-name="uni2215" unicode="&#x2215;" horiz-adv-x="426" 
d="M319 653h107l-319 -658h-107z" />
    <glyph glyph-name="uni2219" unicode="&#x2219;" horiz-adv-x="284" 
d="M65 298q0 32 23 55t55 23q33 0 56 -23t23 -55q0 -33 -23 -55t-56 -22t-55.5 22t-22.5 55z" />
    <glyph glyph-name="radical" unicode="&#x221a;" horiz-adv-x="683" 
d="M716 874v-101h-126l-261 -773h-106l-190 534h120l124 -364l231 704h208z" />
    <glyph glyph-name="infinity" unicode="&#x221e;" horiz-adv-x="818" 
d="M408 213q-92 -101 -181 -101q-79 0 -131.5 50.5t-52.5 127.5t52.5 128t131.5 51q98 0 183 -103q91 103 181 103q80 0 131.5 -50.5t51.5 -128.5q0 -77 -52 -127.5t-132 -50.5q-99 0 -182 101zM229 369q-36 0 -59.5 -23t-23.5 -57t23.5 -56.5t59.5 -22.5q54 0 117 77
q-38 45 -63 63.5t-54 18.5zM588 210q38 0 60.5 22.5t22.5 56.5q0 36 -22.5 58t-60.5 22q-29 0 -54 -17.5t-63 -61.5q66 -80 117 -80z" />
    <glyph glyph-name="integral" unicode="&#x222b;" horiz-adv-x="332" 
d="M109 -24v560q0 80 46.5 126.5t126.5 46.5h45v-103h-38q-30 0 -47.5 -18.5t-17.5 -52.5v-561q0 -81 -45 -127.5t-125 -46.5h-49v103h39q29 0 47 19.5t18 53.5z" />
    <glyph glyph-name="approxequal" unicode="&#x2248;" horiz-adv-x="583" 
d="M488 447l62 -52q-59 -92 -155 -92q-53 0 -105 30l-47 26q-29 15 -58 15q-51 0 -88 -46l-64 54q59 93 153 93q49 0 106 -30l47 -25q33 -18 65 -18q48 0 84 45zM488 250l62 -53q-59 -92 -153 -92q-55 0 -107 30l-47 26q-24 14 -55 15q-54 0 -91 -46l-64 54q59 93 154 93
q49 0 105 -30l47 -25q35 -18 63 -18q52 0 86 46z" />
    <glyph glyph-name="notequal" unicode="&#x2260;" horiz-adv-x="598" 
d="M537 241v-95h-281l-67 -98h-110l67 98h-84v95h150l70 102h-220v94h285l66 95h109l-66 -95h81v-94h-145l-70 -102h215z" />
    <glyph glyph-name="lessequal" unicode="&#x2264;" horiz-adv-x="544" 
d="M482 171l-422 140v97l422 141v-99l-292 -89l292 -91v-99zM60 47v96h422v-96h-422z" />
    <glyph glyph-name="greaterequal" unicode="&#x2265;" horiz-adv-x="544" 
d="M62 549l422 -141v-97l-422 -140v98l292 90l-292 90v100zM62 47v96h422v-96h-422z" />
    <glyph glyph-name="dotmath" unicode="&#x22c5;" horiz-adv-x="284" 
d="M65 298q0 32 23 55t55 23q33 0 56 -23t23 -55q0 -33 -23 -55t-56 -22t-55.5 22t-22.5 55z" />
    <glyph glyph-name="uni24C5" unicode="&#x24c5;" horiz-adv-x="818" 
d="M149 94q-107 109 -107 261q0 153 107 261t259 108t260 -108.5t108 -260.5q0 -153 -108 -261.5t-260 -108.5q-153 0 -259 109zM206 564q-82 -85 -82 -209t82 -209t202 -85q119 0 201.5 85t82.5 209t-82.5 208.5t-201.5 84.5q-120 0 -202 -84zM447 296h-76v-140h-86v401
h162q57 0 97 -38.5t40 -92.5t-39.5 -92t-97.5 -38zM371 484v-115h61q30 0 47 15.5t17 41.5t-17 42t-47 16h-61z" />
    <glyph glyph-name="filledbox" unicode="&#x25a0;" horiz-adv-x="914" 
d="M809 0h-704v709h704v-709z" />
    <glyph glyph-name="uni25A1" unicode="&#x25a1;" horiz-adv-x="914" 
d="M809 709v-709h-704v709h704zM708 613h-503v-518h503v518z" />
    <glyph glyph-name="triagup" unicode="&#x25b2;" horiz-adv-x="838" 
d="M0 0l420 724l418 -724h-838z" />
    <glyph glyph-name="uni25B3" unicode="&#x25b3;" horiz-adv-x="837" 
d="M0 0l420 724l417 -724h-837zM172 95h493l-246 430z" />
    <glyph glyph-name="lozenge" unicode="&#x25ca;" horiz-adv-x="590" 
d="M237 0l-205 354l205 355h116l205 -355l-205 -354h-116zM295 586l-135 -232l135 -231l134 231z" />
    <glyph glyph-name="circle" unicode="&#x25cb;" horiz-adv-x="821" 
d="M148 92q-108 108 -108 262t108 262.5t262 108.5t262.5 -108.5t108.5 -262.5t-108.5 -262t-262.5 -108t-262 108zM220 547q-79 -79 -79 -193q0 -113 78.5 -193t190.5 -80t190.5 80t78.5 193t-78.5 193t-190.5 80t-190 -80z" />
    <glyph glyph-name="uni25CF" unicode="&#x25cf;" horiz-adv-x="821" 
d="M148 92q-108 108 -108 262t108 262.5t262 108.5t262.5 -108.5t108.5 -262.5t-108.5 -262t-262.5 -108t-262 108z" />
    <glyph glyph-name="uni262E" unicode="&#x262e;" horiz-adv-x="818" 
d="M669 616q107 -109 107 -261q0 -153 -107.5 -261.5t-260.5 -108.5q-152 0 -259 108.5t-107 261.5t107 261t259 108q153 0 261 -108zM677 355q0 102 -62.5 178.5t-158.5 93.5v-215l192 -179q29 60 29 122zM138 355q0 -67 28 -120l191 177v214q-96 -17 -157.5 -93
t-61.5 -178zM357 282l-136 -129q56 -57 136 -71v200zM456 282v-200q78 14 136 70z" />
    <glyph glyph-name="uni2713" unicode="&#x2713;" horiz-adv-x="954" 
d="M863 727l71 -71l-626 -673l-288 321l73 68l219 -239z" />
    <glyph glyph-name="uni2715" unicode="&#x2715;" horiz-adv-x="756" 
d="M734 66l-71 -71l-286 289l-285 -289l-70 71l284 289l-284 287l72 71l283 -287l282 287l71 -71l-283 -287z" />
    <glyph glyph-name="uni2780" unicode="&#x2780;" horiz-adv-x="821" 
d="M43 355q0 152 107.5 260.5t259.5 108.5t260 -108.5t108 -260.5q0 -153 -108 -261.5t-260 -108.5t-259.5 108.5t-107.5 261.5zM208 564q-83 -86 -83 -209q0 -124 82.5 -209t202.5 -85q119 0 201.5 85t82.5 209t-82.5 208.5t-201.5 84.5q-120 0 -202 -84zM471 538v-366h-91
v233h-89v60q38 1 65 22t33 51h82z" />
    <glyph glyph-name="uni2781" unicode="&#x2781;" horiz-adv-x="821" 
d="M43 355q0 152 107.5 260.5t259.5 108.5t260 -108.5t108 -260.5q0 -153 -108 -261.5t-260 -108.5t-259.5 108.5t-107.5 261.5zM208 564q-83 -86 -83 -209q0 -124 82.5 -209t202.5 -85q119 0 201.5 85t82.5 209t-82.5 208.5t-201.5 84.5q-120 0 -202 -84zM355 404l-84 -1
q-3 15 -3 30q0 52 38 86.5t100 34.5t99.5 -34t37.5 -85q0 -66 -75 -111l-71 -43q-17 -13 -20 -25h169v-76h-281v12q0 100 87 152l60 36q41 24 41 56q0 19 -13 31.5t-36 12.5q-24 0 -38 -14.5t-14 -37.5q0 -12 3 -24z" />
    <glyph glyph-name="uni2782" unicode="&#x2782;" horiz-adv-x="821" 
d="M43 355q0 152 107.5 260.5t259.5 108.5t260 -108.5t108 -260.5q0 -153 -108 -261.5t-260 -108.5t-259.5 108.5t-107.5 261.5zM208 564q-83 -86 -83 -209q0 -124 82.5 -209t202.5 -85q119 0 201.5 85t82.5 209t-82.5 208.5t-201.5 84.5q-120 0 -202 -84zM254 271l80 24
q4 -25 23 -41.5t46 -16.5t44 14t17 35q0 25 -16.5 38t-44.5 13q-16 0 -31 -6l-32 61l91 69h-164v75h279v-72l-94 -69q47 -5 75 -34.5t28 -75.5q0 -53 -42 -88t-109 -35q-61 0 -101 31t-49 78z" />
    <glyph glyph-name="uni2783" unicode="&#x2783;" horiz-adv-x="821" 
d="M43 355q0 152 107.5 260.5t259.5 108.5t260 -108.5t108 -260.5q0 -153 -108 -261.5t-260 -108.5t-259.5 108.5t-107.5 261.5zM208 564q-83 -86 -83 -209q0 -124 82.5 -209t202.5 -85q119 0 201.5 85t82.5 209t-82.5 208.5t-201.5 84.5q-120 0 -202 -84zM414 249h-181v88
l172 207h99v-222h62v-73h-62v-71h-90v71zM311 322h103v125z" />
    <glyph glyph-name="uni2784" unicode="&#x2784;" horiz-adv-x="821" 
d="M43 355q0 152 107.5 260.5t259.5 108.5t260 -108.5t108 -260.5q0 -153 -108 -261.5t-260 -108.5t-259.5 108.5t-107.5 261.5zM208 564q-83 -86 -83 -209q0 -124 82.5 -209t202.5 -85q119 0 201.5 85t82.5 209t-82.5 208.5t-201.5 84.5q-120 0 -202 -84zM254 263l79 25
q4 -24 22.5 -38t43.5 -14q27 0 43 14t16 39q0 27 -16 41.5t-44 14.5q-34 0 -58 -24l-74 24l47 188h214v-75h-158l-19 -73q25 25 72 25q57 0 91.5 -32t34.5 -87q0 -57 -40.5 -94t-108.5 -37q-55 0 -95.5 29.5t-49.5 73.5z" />
    <glyph glyph-name="uni2785" unicode="&#x2785;" horiz-adv-x="821" 
d="M43 355q0 152 107.5 260.5t259.5 108.5t260 -108.5t108 -260.5q0 -153 -108 -261.5t-260 -108.5t-259.5 108.5t-107.5 261.5zM208 564q-83 -86 -83 -209q0 -124 82.5 -209t202.5 -85q119 0 201.5 85t82.5 209t-82.5 208.5t-201.5 84.5q-120 0 -202 -84zM535 529l-18 -68
q-29 12 -64 12q-46 0 -78 -24t-41 -68q30 37 87 37q59 0 94.5 -32.5t35.5 -89.5q0 -58 -43 -94.5t-109 -36.5q-67 0 -111.5 45.5t-44.5 122.5q0 96 57.5 155t146.5 59q49 0 88 -18zM357 335q-18 -17 -18 -41t18 -39.5t43 -15.5t42.5 15.5t17.5 39.5t-17.5 40t-42.5 16
t-43 -15z" />
    <glyph glyph-name="uni2786" unicode="&#x2786;" horiz-adv-x="821" 
d="M43 355q0 152 107.5 260.5t259.5 108.5t260 -108.5t108 -260.5q0 -153 -108 -261.5t-260 -108.5t-259.5 108.5t-107.5 261.5zM208 564q-83 -86 -83 -209q0 -124 82.5 -209t202.5 -85q119 0 201.5 85t82.5 209t-82.5 208.5t-201.5 84.5q-120 0 -202 -84zM258 531h303v-77
q-37 -28 -79 -85q-57 -77 -69 -204h-96q7 103 54 185q35 63 66 94l12 11h-191v76z" />
    <glyph glyph-name="uni2787" unicode="&#x2787;" horiz-adv-x="821" 
d="M43 355q0 152 107.5 260.5t259.5 108.5t260 -108.5t108 -260.5q0 -153 -108 -261.5t-260 -108.5t-259.5 108.5t-107.5 261.5zM208 564q-83 -86 -83 -209q0 -124 82.5 -209t202.5 -85q119 0 201.5 85t82.5 209t-82.5 208.5t-201.5 84.5q-120 0 -202 -84zM410 165
q-69 0 -110 30t-41 79q0 29 19 52.5t52 34.5q-27 10 -43.5 32t-16.5 49q0 46 38.5 75.5t101.5 29.5q62 0 100.5 -29.5t38.5 -75.5q0 -27 -16 -49t-43 -32q32 -11 51.5 -34t19.5 -51q0 -50 -40.5 -80.5t-110.5 -30.5zM373 404q13 -12 37 -12q23 0 36.5 12t13.5 31
q0 18 -13.5 29t-36.5 11q-24 0 -37.5 -11t-13.5 -29q0 -19 14 -31zM365 251q14 -13 45 -13q60 0 60 46q0 19 -16 31.5t-44 12.5t-44.5 -12.5t-16.5 -31.5q0 -20 16 -33z" />
    <glyph glyph-name="uni2788" unicode="&#x2788;" horiz-adv-x="821" 
d="M43 355q0 152 107.5 260.5t259.5 108.5t260 -108.5t108 -260.5q0 -153 -108 -261.5t-260 -108.5t-259.5 108.5t-107.5 261.5zM208 564q-83 -86 -83 -209q0 -124 82.5 -209t202.5 -85q119 0 201.5 85t82.5 209t-82.5 208.5t-201.5 84.5q-120 0 -202 -84zM280 181l17 70
q33 -13 62 -13q50 0 82 23t39 69q-30 -37 -88 -37q-57 0 -94 33.5t-37 88.5q0 58 42.5 94.5t109.5 36.5q66 0 110.5 -44t44.5 -119q0 -102 -54.5 -160.5t-144.5 -58.5q-50 0 -89 17zM454 376q17 15 17 40t-17.5 40.5t-43.5 15.5q-25 0 -42.5 -16t-17.5 -40t17.5 -40
t42.5 -16q27 0 44 16z" />
    <glyph glyph-name="uniE020" unicode="&#xe020;" horiz-adv-x="776" 
d="M429 225l-207 -241l-207 241h157v484h572v-100h-471v-384h156z" />
    <glyph glyph-name="uniE021" unicode="&#xe021;" horiz-adv-x="1097" 
d="M437 355l-198 -233l-199 233h143q1 154 109 261.5t261 107.5q94 0 177 -44l-45 -90q-61 34 -131 34q-112 0 -191 -78.5t-79 -190.5h153zM1067 353h-146q-1 -153 -109 -260.5t-261 -107.5q-94 0 -177 44l45 90q61 -34 132 -34q112 0 190 78.5t78 190.5h-150l199 232z" />
    <glyph glyph-name="uniE022" unicode="&#xe022;" horiz-adv-x="953" 
d="M685 354h-154l198 232l199 -232h-142q0 -153 -108 -261t-262 -108q-153 0 -261 108t-108 261q0 154 108 262t261 108q92 0 169 -40l-42 -91q-58 31 -126 31q-112 0 -190.5 -78.5t-78.5 -191.5t78.5 -192t190.5 -79t190 79t78 192z" />
    <glyph glyph-name="uniFB00" unicode="&#xfb00;" horiz-adv-x="670" 
d="M611 625q-31 0 -51.5 -18.5t-20.5 -55.5v-64h113v-101h-113v-386h-117v386h-203v-386h-117v386h-85v101h85v67q0 80 47 127.5t123 47.5q42 0 61 -10v-99q-18 5 -42 5q-31 0 -51.5 -18.5t-20.5 -55.5v-64h203v67q0 80 47 127.5t123 47.5q42 0 61 -10v-99q-20 5 -42 5z" />
    <glyph glyph-name="fi" unicode="&#xfb01;" horiz-adv-x="619" 
d="M411 659q0 32 22 54t53 22q32 0 54 -22.5t22 -53.5t-22.5 -53t-53.5 -22t-53 22t-22 53zM272 729q42 0 61 -10v-99q-18 5 -42 5q-31 0 -51.5 -18.5t-20.5 -55.5v-64h324v-487h-114v386h-210v-386h-117v386h-85v101h85v67q0 80 47 127.5t123 47.5z" />
    <glyph glyph-name="fl" unicode="&#xfb02;" horiz-adv-x="617" 
d="M291 625q-31 0 -51.5 -18.5t-20.5 -55.5v-64h208v237h115v-724h-115v386h-208v-386h-117v386h-85v101h85v67q0 80 47 127.5t123 47.5q42 0 61 -10v-99q-18 5 -42 5z" />
    <glyph glyph-name="uniFB03" unicode="&#xfb03;" horiz-adv-x="940" 
d="M754 606q-22 22 -22 53t22 53.5t53 22.5t53.5 -22.5t22.5 -53.5t-22.5 -53t-53.5 -22t-53 22zM611 625q-31 0 -51.5 -18.5t-20.5 -55.5v-64h326v-487h-115v386h-211v-386h-117v386h-203v-386h-117v386h-85v101h85v67q0 80 47 127.5t123 47.5q42 0 61 -10v-99q-18 5 -42 5
q-72 0 -72 -74v-64h203v67q0 80 47 127.5t123 47.5q42 0 61 -10v-99q-20 5 -42 5z" />
    <glyph glyph-name="uniFB04" unicode="&#xfb04;" horiz-adv-x="940" 
d="M611 625q-31 0 -51.5 -18.5t-20.5 -55.5v-64h211v237h115v-724h-115v386h-211v-386h-117v386h-203v-386h-117v386h-85v101h85v67q0 80 47 127.5t123 47.5q42 0 61 -10v-99q-18 5 -42 5q-31 0 -51.5 -18.5t-20.5 -55.5v-64h203v67q0 80 47 127.5t123 47.5q42 0 61 -10v-99
q-20 5 -42 5z" />
    <glyph glyph-name="uniFEFF" unicode="&#xfeff;" horiz-adv-x="0" 
 />
    <glyph glyph-name="zero.numr" horiz-adv-x="431" 
d="M55 465q0 76 34 130q37 61 126 61t128 -62q33 -55 33 -129q0 -71 -33 -127q-37 -63 -128 -63q-56 0 -94.5 28.5t-52.5 71.5q-13 39 -13 90zM147 465q0 -114 68 -114t68 114q0 115 -68 115t-68 -115z" />
    <glyph glyph-name="one.numr" horiz-adv-x="308" 
d="M223 648v-366h-91v233h-89v60q38 1 65 22t33 51h82z" />
    <glyph glyph-name="two.numr" horiz-adv-x="392" 
d="M146 506l-84 -1q-3 15 -3 30q0 52 38 86.5t100 34.5t99.5 -34t37.5 -85q0 -66 -75 -111l-71 -43q-17 -13 -20 -25h169v-76h-281v12q0 99 87 152l60 36q41 24 41 56q0 19 -13 31.5t-36 12.5q-24 0 -38 -14.5t-14 -37.5q0 -12 3 -24z" />
    <glyph glyph-name="three.numr" horiz-adv-x="412" 
d="M55 383l80 24q4 -25 23 -41.5t46 -16.5t44 14t17 35q0 25 -16.5 38t-44.5 13q-16 0 -31 -6l-32 61l91 69h-164v75h279v-72l-94 -69q47 -5 75 -34.5t28 -75.5q0 -53 -42 -88t-109 -35q-61 0 -101 31t-49 78z" />
    <glyph glyph-name="four.numr" horiz-adv-x="443" 
d="M236 353h-181v88l172 207h99v-222h62v-73h-62v-71h-90v71zM133 426h103v125z" />
    <glyph glyph-name="five.numr" horiz-adv-x="388" 
d="M55 378l79 25q4 -24 22.5 -38t43.5 -14q27 0 43 14t16 39q0 27 -16 41.5t-44 14.5q-34 0 -58 -24l-74 24l47 188h214v-75h-158l-19 -73q25 25 72 25q57 0 91.5 -32t34.5 -87q0 -57 -40.5 -94t-108.5 -37q-55 0 -95.5 29.5t-49.5 73.5z" />
    <glyph glyph-name="six.numr" horiz-adv-x="418" 
d="M347 638l-18 -68q-29 12 -64 12q-46 0 -78 -24t-41 -68q30 37 87 37q59 0 94.5 -32.5t35.5 -89.5q0 -58 -43 -94.5t-109 -36.5q-67 0 -111.5 45.5t-44.5 122.5q0 96 57.5 155t146.5 59q49 0 88 -18zM169 444q-18 -16 -18 -41q0 -24 18 -39.5t43 -15.5t42.5 15.5
t17.5 39.5t-17.5 40t-42.5 16t-43 -15z" />
    <glyph glyph-name="seven.numr" horiz-adv-x="413" 
d="M55 648h303v-77q-37 -28 -79 -85q-57 -77 -69 -204h-96q7 103 54 185q36 65 66 93l12 12h-191v76z" />
    <glyph glyph-name="eight.numr" horiz-adv-x="415" 
d="M208 274q-69 0 -110 30t-41 79q0 29 19 52.5t52 34.5q-27 10 -43.5 32t-16.5 49q0 46 38.5 75.5t101.5 29.5q62 0 100.5 -29.5t38.5 -75.5q0 -27 -16 -49t-43 -32q32 -11 51.5 -34t19.5 -51q0 -50 -40.5 -80.5t-110.5 -30.5zM171 513q13 -12 37 -12q23 0 36.5 12t13.5 31
q0 18 -13.5 29t-36.5 11q-24 0 -37.5 -11t-13.5 -29q0 -19 14 -31zM163 360q14 -13 45 -13q60 0 60 46q0 19 -16 31.5t-44 12.5t-44.5 -12.5t-16.5 -31.5q0 -20 16 -33z" />
    <glyph glyph-name="nine.numr" horiz-adv-x="417" 
d="M74 290l17 70q33 -13 62 -13q50 0 82 23t39 69q-30 -37 -88 -37q-57 0 -94 33.5t-37 88.5q0 58 42.5 94.5t109.5 36.5q66 0 110.5 -44t44.5 -119q0 -102 -54.5 -160.5t-144.5 -58.5q-50 0 -89 17zM248 485q17 15 17 40t-17.5 40.5t-43.5 15.5q-25 0 -42.5 -16t-17.5 -40
t17.5 -40t42.5 -16q27 0 44 16z" />
    <glyph glyph-name="zero.dnom" horiz-adv-x="431" 
d="M55 183q0 76 34 130q37 61 126 61t128 -62q33 -55 33 -129q0 -71 -33 -127q-37 -63 -128 -63q-56 0 -94.5 28.5t-52.5 71.5q-13 39 -13 90zM147 183q0 -114 68 -114t68 114q0 115 -68 115t-68 -115z" />
    <glyph glyph-name="one.dnom" horiz-adv-x="305" 
d="M223 366v-366h-91v233h-89v60q38 1 65 22t33 51h82z" />
    <glyph glyph-name="two.dnom" horiz-adv-x="392" 
d="M146 224l-84 -1q-3 15 -3 30q0 52 38 86.5t100 34.5t99.5 -34t37.5 -85q0 -66 -75 -111l-71 -43q-17 -13 -20 -25h169v-76h-281v12q0 99 87 152l60 36q41 24 41 56q0 19 -13 31.5t-36 12.5q-24 0 -38 -14.5t-14 -37.5q0 -12 3 -24z" />
    <glyph glyph-name="three.dnom" horiz-adv-x="412" 
d="M55 102l80 24q4 -25 23 -41.5t46 -16.5t44 14t17 35q0 25 -16.5 38t-44.5 13q-16 0 -31 -6l-32 61l91 69h-164v75h279v-72l-94 -69q47 -5 75 -34.5t28 -75.5q0 -53 -42 -88t-109 -35q-61 0 -101 31t-49 78z" />
    <glyph glyph-name="four.dnom" horiz-adv-x="443" 
d="M236 71h-181v88l172 207h99v-222h62v-73h-62v-71h-90v71zM133 144h103v125z" />
    <glyph glyph-name="five.dnom" horiz-adv-x="404" 
d="M55 96l79 25q4 -24 22.5 -38t43.5 -14q27 0 43 14t16 39q0 27 -16 41.5t-44 14.5q-34 0 -58 -24l-74 24l47 188h214v-75h-158l-19 -73q25 25 72 25q57 0 91.5 -32t34.5 -87q0 -57 -40.5 -94t-108.5 -37q-55 0 -95.5 29.5t-49.5 73.5z" />
    <glyph glyph-name="six.dnom" horiz-adv-x="418" 
d="M347 357l-18 -68q-29 12 -64 12q-46 0 -78 -24t-41 -68q30 37 87 37q59 0 94.5 -32.5t35.5 -89.5q0 -58 -43 -94.5t-109 -36.5q-67 0 -111.5 45.5t-44.5 122.5q0 96 57.5 155t146.5 59q49 0 88 -18zM169 163q-18 -17 -18 -41t18 -39.5t43 -15.5t42.5 15.5t17.5 39.5
t-17.5 40t-42.5 16t-43 -15z" />
    <glyph glyph-name="seven.dnom" horiz-adv-x="413" 
d="M55 366h303v-77q-37 -28 -79 -85q-57 -77 -69 -204h-96q7 103 54 185q36 65 66 93l12 12h-191v76z" />
    <glyph glyph-name="eight.dnom" horiz-adv-x="415" 
d="M208 -8q-69 0 -110 30t-41 79q0 29 19 52.5t52 34.5q-27 10 -43.5 32t-16.5 49q0 46 38.5 75.5t101.5 29.5q62 0 100.5 -29.5t38.5 -75.5q0 -27 -16 -49t-43 -32q32 -11 51.5 -34t19.5 -51q0 -50 -40.5 -80.5t-110.5 -30.5zM171 231q13 -12 37 -12q23 0 36.5 12t13.5 31
q0 18 -13.5 29t-36.5 11q-24 0 -37.5 -11t-13.5 -29q0 -19 14 -31zM163 78q14 -13 45 -13q60 0 60 46q0 19 -16 31.5t-44 12.5t-44.5 -12.5t-16.5 -31.5q0 -20 16 -33z" />
    <glyph glyph-name="nine.dnom" horiz-adv-x="417" 
d="M74 9l17 70q33 -13 62 -13q50 0 82 23t39 69q-30 -37 -88 -37q-57 0 -94 33.5t-37 88.5q0 58 42.5 94.5t109.5 36.5q66 0 110.5 -44t44.5 -119q0 -102 -54.5 -160.5t-144.5 -58.5q-50 0 -89 17zM248 204q17 15 17 40t-17.5 40.5t-43.5 15.5q-25 0 -42.5 -16t-17.5 -40
t17.5 -40t42.5 -16q27 0 44 16z" />
    <glyph glyph-name="space.frac" horiz-adv-x="49" 
 />
    <glyph glyph-name="a.ordn" horiz-adv-x="425" 
d="M59 399q0 43 28 70t75 33l86 13q26 5 26 24q0 21 -16 34t-45 13t-46.5 -16t-19.5 -41l-81 17q5 48 45 80.5t102 32.5q73 0 110.5 -35.5t37.5 -94.5v-169q0 -40 4 -55h-82q-4 11 -4 42q-33 -52 -102 -52q-52 0 -85 30t-33 74zM196 363q36 0 57 20.5t21 61.5v15l-82 -12
q-43 -7 -43 -44q0 -18 12.5 -29.5t34.5 -11.5z" />
    <glyph glyph-name="b.ordn" horiz-adv-x="499" 
d="M173 348v-43h-88v507h89v-203q12 21 40.5 34.5t64.5 13.5q73 0 115.5 -49.5t42.5 -129.5q0 -79 -44.5 -130t-116.5 -51t-103 51zM323 404q24 27 24 74q0 46 -24 72.5t-63 26.5t-63 -27t-24 -72q0 -46 24.5 -73.5t62.5 -27.5t63 27z" />
    <glyph glyph-name="c.ordn" horiz-adv-x="461" 
d="M241 576q-39 0 -64 -27t-25 -73q0 -45 25.5 -72t64.5 -27q31 0 52.5 16.5t28.5 42.5l80 -27q-13 -49 -56 -81.5t-105 -32.5q-76 0 -128 51.5t-52 129.5q0 80 51 131.5t127 51.5q63 0 105 -32t55 -83l-81 -28q-15 60 -78 60z" />
    <glyph glyph-name="d.ordn" horiz-adv-x="501" 
d="M325 812h88v-445q0 -34 4 -62h-87q-3 10 -3 40q-30 -48 -98 -48q-73 0 -120 51.5t-47 129.5q0 76 47 127.5t118 51.5q75 0 98 -44v199zM178 550q-25 -26 -25 -73q0 -46 24 -73.5t63 -27.5q37 0 61.5 28.5t24.5 73.5t-23.5 72t-62.5 27q-38 0 -62 -27z" />
    <glyph glyph-name="e.ordn" horiz-adv-x="457" 
d="M317 426l76 -22q-15 -49 -56.5 -79t-100.5 -30q-76 0 -126.5 51t-50.5 133q0 78 49.5 129t119.5 51q79 0 124 -47.5t45 -130.5v-13q-1 -5 -1 -11l-1 -4h-247q1 -35 27 -58.5t62 -23.5q61 0 80 55zM150 516h158q-1 31 -21.5 50.5t-57.5 19.5q-33 0 -55 -21t-24 -49z" />
    <glyph glyph-name="f.ordn" horiz-adv-x="346" 
d="M286 649v-77h-78v-267h-90v267h-58v77h58v41q0 58 33.5 92.5t89.5 34.5q31 0 46 -7v-76q-15 4 -30 4q-21 0 -35 -12t-14 -37v-40h78z" />
    <glyph glyph-name="g.ordn" horiz-adv-x="466" 
d="M62 286l81 22q5 -30 27.5 -48.5t55.5 -18.5q92 0 92 97v28q-27 -46 -97 -46q-68 0 -113 47.5t-45 119.5q0 71 45 119.5t113 48.5q75 0 100 -48v42h86v-308q0 -81 -45.5 -130t-133.5 -49q-65 0 -111.5 35.5t-54.5 88.5zM237 397q37 0 60 24.5t23 65.5t-23.5 65.5
t-59.5 24.5q-37 0 -60.5 -24.5t-23.5 -65.5t23 -65.5t61 -24.5z" />
    <glyph glyph-name="h.ordn" horiz-adv-x="481" 
d="M176 507v-202h-91v507h91v-193q32 39 93 39t94.5 -37.5t33.5 -99.5v-216h-90v201q0 71 -66 71q-29 0 -46.5 -19.5t-18.5 -50.5z" />
    <glyph glyph-name="i.ordn" horiz-adv-x="282" 
d="M102 724q-17 17 -17 39q0 23 16.5 39.5t39.5 16.5t39.5 -16.5t16.5 -39.5t-16.5 -39.5t-39.5 -16.5q-22 0 -39 17zM186 649v-344h-90v344h90z" />
    <glyph glyph-name="j.ordn" horiz-adv-x="314" 
d="M126 763q0 24 16.5 40.5t39.5 16.5t39.5 -16.5t16.5 -40.5q0 -23 -16.5 -39t-39.5 -16t-39.5 16t-16.5 39zM137 282v367h91v-375q0 -50 -29 -81t-78 -31q-37 0 -50 7v75q12 -3 27 -3q39 0 39 41z" />
    <glyph glyph-name="k.ordn" horiz-adv-x="448" 
d="M297 649h119l-139 -145l142 -199h-111l-94 134l-39 -42v-92h-90v507h90v-294z" />
    <glyph glyph-name="l.ordn" horiz-adv-x="260" 
d="M176 812v-507h-91v507h91z" />
    <glyph glyph-name="m.ordn" horiz-adv-x="692" 
d="M175 507v-202h-90v344h86v-43q14 24 42 38t59 14q75 0 102 -58q36 58 110 58q54 0 89 -34t35 -96v-223h-88v206q0 31 -16 48.5t-46 17.5t-47.5 -19.5t-17.5 -50.5v-202h-90v206q0 30 -16 48t-46 18t-48 -19.5t-18 -50.5z" />
    <glyph glyph-name="n.ordn" horiz-adv-x="481" 
d="M176 502v-197h-91v344h88v-44q30 53 100 53q59 0 91.5 -37.5t32.5 -99.5v-216h-90v201q0 71 -66 71q-30 0 -47.5 -20.5t-17.5 -54.5z" />
    <glyph glyph-name="o.ordn" horiz-adv-x="483" 
d="M113 608q51 51 129 51t129 -51.5t51 -130.5t-51 -130.5t-129 -51.5t-129 51.5t-51 130.5t51 131zM242 376q39 0 64 27t25 74t-25 73.5t-64 26.5t-64 -26.5t-25 -73.5q0 -46 25.5 -73.5t63.5 -27.5z" />
    <glyph glyph-name="p.ordn" horiz-adv-x="499" 
d="M175 340v-168h-90v477h87v-44q13 22 42 36.5t65 14.5q72 0 115 -49.5t43 -129.5q0 -79 -45 -129.5t-116 -50.5t-101 43zM349 477q0 45 -24.5 72t-63.5 27t-63 -27t-24 -72t24 -72.5t63 -27.5t63.5 27.5t24.5 72.5z" />
    <glyph glyph-name="q.ordn" horiz-adv-x="490" 
d="M415 649v-477h-89v169q-26 -44 -97 -44q-73 0 -120 51.5t-47 129.5q0 77 46 128t118 51q39 0 65.5 -14.5t36.5 -35.5v42h87zM178 550q-25 -26 -25 -73q0 -45 24 -73t63 -28t63 28t24 73t-24 72.5t-63 27.5q-38 0 -62 -27z" />
    <glyph glyph-name="r.ordn" horiz-adv-x="297" 
d="M283 650v-91q-13 3 -26 3q-91 0 -91 -98v-159h-91v344h88v-52q25 55 98 55q4 0 22 -2z" />
    <glyph glyph-name="s.ordn" horiz-adv-x="400" 
d="M63 399l78 19q2 -24 19 -39t45 -15q23 0 35 9.5t12 25.5q0 28 -38 36l-47 10q-46 10 -70.5 37t-24.5 65q0 46 36.5 79t90.5 33q61 0 95 -29t40 -70l-76 -18q-7 49 -58 49q-19 0 -32 -11t-13 -26q0 -24 32 -32l45 -9q49 -9 77.5 -37.5t28.5 -69.5q0 -46 -35.5 -78.5
t-96.5 -32.5q-64 0 -101.5 31.5t-41.5 72.5z" />
    <glyph glyph-name="t.ordn" horiz-adv-x="326" 
d="M117 752h81v-103h70v-80h-70v-149q0 -40 42 -40q13 0 28 3v-75q-21 -8 -52 -8q-50 0 -78.5 28t-28.5 77v164h-63v80h18q26 0 39.5 14.5t13.5 39.5v49z" />
    <glyph glyph-name="u.ordn" horiz-adv-x="452" 
d="M376 305h-85q-3 11 -3 36q-28 -45 -96 -45q-59 0 -94.5 38.5t-35.5 97.5v217h90v-200q0 -32 16.5 -51.5t48.5 -19.5q31 0 48.5 19t17.5 51v201h90v-282q0 -32 3 -62z" />
    <glyph glyph-name="v.ordn" horiz-adv-x="413" 
d="M293 649h95l-134 -344h-90l-140 344h99l86 -235z" />
    <glyph glyph-name="w.ordn" horiz-adv-x="617" 
d="M187 423l76 226h94l77 -226l64 226h90l-108 -344h-90l-82 238l-79 -238h-93l-110 344h96z" />
    <glyph glyph-name="x.ordn" horiz-adv-x="419" 
d="M135 305h-102l123 173l-122 171h107q6 -10 35 -52q31 -45 35 -53l69 105h103l-120 -169l124 -175h-106l-74 108q-3 -4 -34.5 -51t-37.5 -57z" />
    <glyph glyph-name="y.ordn" horiz-adv-x="426" 
d="M401 649l-215 -480h-96l81 179l-146 301h101l93 -206l87 206h95z" />
    <glyph glyph-name="z.ordn" horiz-adv-x="407" 
d="M345 383v-78h-283v79l166 186h-162v79h276v-76l-170 -190h173z" />
    <glyph glyph-name="space.tf" 
 />
    <glyph glyph-name="numbersign.tf" 
d="M406 648h98l-35 -161h92v-90h-111l-31 -142h93v-91h-112l-35 -164h-98l35 164h-110l-35 -164h-98l35 164h-85v91h104l31 142h-86v90h105l35 161h98l-35 -161h110zM352 397h-110l-31 -142h110z" />
    <glyph glyph-name="dollar.tf" 
d="M341 -5v-104h-90v103q-91 12 -146.5 67.5t-64.5 130.5l110 31q4 -48 29.5 -82t71.5 -45v180l-18 4q-81 18 -124.5 64t-43.5 117q0 73 52.5 127t133.5 65v104h90v-105q76 -12 121 -57t57 -107l-106 -33q-12 71 -72 93v-176l9 -1q84 -19 130 -68.5t46 -118.5
q0 -71 -50 -124t-135 -65zM179 468q0 -62 72 -77v161q-33 -9 -52.5 -31.5t-19.5 -52.5zM412 178q0 59 -71 79v-161q34 7 52.5 29t18.5 53z" />
    <glyph glyph-name="percent.tf" 
d="M61 422q-41 41 -41 97q0 57 41 96.5t98 39.5t98 -39.5t41 -96.5t-41 -97t-98 -40q-58 0 -98 40zM102 519q0 -26 16.5 -42.5t40.5 -16.5q25 0 41 16.5t16 42.5q0 25 -16 41.5t-41 16.5q-24 0 -40.5 -16.5t-16.5 -41.5zM44 209l482 329v-95l-482 -327v93zM312 32
q-41 41 -41 97q0 57 41 97t98 40t98 -40t41 -97t-41 -97t-98 -40q-58 0 -98 40zM370 171q-17 -17 -17 -42q0 -26 16.5 -42.5t40.5 -16.5q25 0 41 16.5t16 42.5t-16 42t-41 16q-24 0 -40 -16z" />
    <glyph glyph-name="plus.tf" 
d="M48 244v95h188v195h99v-195h188v-95h-188v-197h-99v197h-188z" />
    <glyph glyph-name="comma.tf" 
d="M187 83q0 36 27 61t67 25q45 0 74 -33t29 -87q0 -102 -54.5 -164t-130.5 -72v67q40 8 70 44t31 78q-13 -5 -27 -5q-38 0 -62 23.5t-24 62.5z" />
    <glyph glyph-name="period.tf" 
d="M220 20q-27 27 -27 65t27 65.5t65 27.5t65.5 -27.5t27.5 -65.5t-27.5 -65t-65.5 -27t-65 27z" />
    <glyph glyph-name="zero.tf" 
d="M32 324q0 162 62.5 250.5t190.5 88.5q129 0 191 -88.5t62 -250.5q0 -339 -253 -339t-253 339zM152 324q0 -49 7 -104q7 -52 36 -91q30 -39 90 -39q68 0 101 53q23 38 30 118q2 36 2 63q0 88 -20 153q-25 80 -113 80q-67 0 -100 -52q-27 -43 -31 -117q-2 -36 -2 -64z" />
    <glyph glyph-name="one.tf" 
d="M94 0v104h163v340h-153v82q66 1 111 34.5t56 87.5h104v-544h153v-104h-434z" />
    <glyph glyph-name="two.tf" 
d="M172 438l3 -33l-116 8q-3 27 -3 37q0 90 64 151.5t167 61.5q102 0 165 -58t63 -146q0 -124 -125 -201l-126 -78q-55 -33 -66 -74h321v-106h-469q2 89 38 153.5t116 114.5l107 67q83 53 83 122q0 44 -29.5 72.5t-79.5 28.5q-54 0 -83.5 -33t-29.5 -87z" />
    <glyph glyph-name="three.tf" 
d="M221 294l-55 89l179 160h-295v105h450v-100l-176 -154q81 -2 137.5 -56.5t56.5 -140.5q0 -90 -67 -151t-176 -61q-106 0 -173.5 58.5t-73.5 146.5l117 24q2 -56 38.5 -91t90.5 -35q56 0 89.5 31.5t33.5 78.5q0 50 -33.5 78.5t-81.5 28.5q-37 0 -61 -11z" />
    <glyph glyph-name="four.tf" 
d="M344 142h-310v130l274 376h154v-400h97v-106h-97v-142h-118v142zM142 248h202v279z" />
    <glyph glyph-name="five.tf" 
d="M44 179l113 29q4 -53 40 -87t91 -34q53 0 88 33t35 85q0 56 -35 88t-90 32q-68 0 -108 -45l-113 41l80 327h355v-105h-274l-40 -164q44 45 124 45q100 0 161 -58.5t61 -157.5q0 -96 -68 -160t-176 -64q-100 0 -169 56.5t-75 138.5z" />
    <glyph glyph-name="six.tf" 
d="M524 631l-34 -98q-51 25 -113 25q-91 0 -151 -56t-68 -150q22 34 64.5 55.5t97.5 21.5q97 0 158.5 -60.5t61.5 -158.5t-70.5 -161.5t-174.5 -63.5q-113 0 -185.5 79t-72.5 219q0 173 96 276.5t253 103.5q88 0 138 -32zM170 208q0 -52 37 -86.5t88 -34.5q53 0 88.5 33.5
t35.5 87.5t-35.5 87.5t-88.5 33.5t-89 -33.5t-36 -87.5z" />
    <glyph glyph-name="seven.tf" 
d="M30 648h506v-105q-245 -202 -277 -543h-124q8 98 37.5 192t68.5 157q78 125 133 173l25 21h-369v105z" />
    <glyph glyph-name="eight.tf" 
d="M285 -15q-108 0 -174 52.5t-66 135.5q0 54 33 97.5t87 61.5q-46 17 -75.5 58.5t-29.5 89.5q0 81 63 132t162 51t162.5 -51t63.5 -132q0 -47 -29.5 -89t-75.5 -59q53 -19 86.5 -62.5t33.5 -96.5q0 -83 -66 -135.5t-175 -52.5zM285 378q48 1 77.5 27.5t29.5 67.5
q0 39 -30 65.5t-77 26.5t-76.5 -26.5t-29.5 -65.5q0 -41 29 -67.5t77 -27.5zM285 86q56 0 89 28t33 71t-33 71.5t-89 28.5q-55 0 -88 -28.5t-33 -71.5t33 -71t88 -28z" />
    <glyph glyph-name="nine.tf" 
d="M44 22l33 98q46 -30 116 -30q98 0 154 54.5t61 149.5q-19 -33 -61.5 -54t-95.5 -21q-94 0 -158.5 60.5t-64.5 157.5q0 98 69.5 162t173.5 64q111 0 183 -80.5t72 -222.5q0 -179 -85.5 -277t-246.5 -98q-95 0 -150 37zM392 441q0 51 -36 85t-87 34t-87 -33.5t-36 -85.5
q0 -54 35 -87t88 -33q51 0 87 33.5t36 86.5z" />
    <glyph glyph-name="colon.tf" 
d="M196 412q0 37 25.5 63t61.5 26q37 0 63 -26t26 -63q0 -36 -26 -62t-63 -26q-36 0 -61.5 26t-25.5 62zM196 74q0 37 25.5 63t61.5 26q37 0 63 -26t26 -63q0 -36 -26 -62t-63 -26q-36 0 -61.5 26t-25.5 62z" />
    <glyph glyph-name="semicolon.tf" 
d="M198 412q0 37 25.5 63t61.5 26q37 0 63 -26t26 -63q0 -36 -26 -62t-63 -26q-36 0 -61.5 26t-25.5 62zM195 79q0 33 25 56t62 23q42 0 69 -30.5t27 -80.5q0 -105 -59 -161q-54 -50 -112 -57v62q37 8 64.5 41t28.5 72q-12 -5 -25 -5q-35 0 -57.5 22t-22.5 58z" />
    <glyph glyph-name="less.tf" 
d="M495 33l-422 211v94l422 212v-111l-302 -147l302 -148v-111z" />
    <glyph glyph-name="equal.tf" 
d="M523 437v-94h-475v94h475zM523 241v-95h-475v95h475z" />
    <glyph glyph-name="greater.tf" 
d="M75 550l422 -212v-94l-422 -211v110l304 148l-304 147v112z" />
    <glyph glyph-name="cent.tf" 
d="M342 87v-87h-91v90q-84 17 -136.5 81.5t-52.5 153.5q0 88 52.5 152.5t136.5 81.5v90h91v-88q67 -11 112 -51t60 -94l-100 -35q-16 61 -72 78v-271q29 9 50 31t28 48l98 -35q-18 -56 -64 -96t-112 -49zM171 325q0 -99 80 -132v262q-80 -32 -80 -130z" />
    <glyph glyph-name="sterling.tf" 
d="M61 273v95h64q-22 54 -22 105q0 81 57 135.5t146 54.5q111 0 161 -62q42 -52 44 -121l-111 -18q0 48 -24.5 74.5t-67.5 26.5q-40 0 -65 -24.5t-25 -67.5q0 -36 26 -103h182v-95h-152q2 -22 2 -24q0 -98 -83 -146h149q41 0 64.5 26t23.5 68l108 -12q0 -82 -48 -133.5
t-125 -51.5h-309v104q50 19 79 54.5t29 78.5q0 21 -4 36h-99z" />
    <glyph glyph-name="currency.tf" 
d="M73 242q0 62 33 114l-74 75l72 71l74 -76q51 30 110 30t106 -28l73 74l71 -71l-70 -72q35 -53 35 -117t-34 -116l69 -70l-70 -70l-71 72q-50 -29 -109 -29q-62 0 -112 31l-73 -74l-71 70l73 74q-32 50 -32 112zM205 326q-33 -33 -33 -84t33 -84t83 -33t82.5 33t32.5 84
t-32.5 84t-82.5 33t-83 -33z" />
    <glyph glyph-name="yen.tf" 
d="M513 228v-84h-167v-144h-116v144h-164v84h164v74h-164v84h105l-158 262h135l141 -251l137 251h131l-154 -262h110v-84h-167v-74h167z" />
    <glyph glyph-name="section.tf" 
d="M488 249q0 -40 -22.5 -73t-56.5 -51q81 -59 81 -143q0 -82 -60.5 -134.5t-146.5 -52.5q-93 0 -147.5 50t-56.5 135l108 20q0 -51 25 -79.5t72 -28.5q40 0 64.5 21.5t24.5 58.5q0 48 -50 74l-102 52q-71 36 -105 75t-34 97q0 40 22.5 73t57.5 51q-82 55 -82 143
q0 82 60.5 134t147.5 52q92 0 146.5 -50.5t56.5 -133.5l-109 -20q0 51 -25 79t-70 28q-40 0 -65.5 -22.5t-25.5 -57.5q0 -48 51 -73l101 -52q72 -36 106 -75t34 -97zM328 304l-101 53q-38 -26 -38 -66q0 -49 52 -76l100 -53q39 27 39 66q0 48 -52 76z" />
    <glyph glyph-name="logicalnot.tf" 
d="M508 434v-292h-101v195h-377v97h478z" />
    <glyph glyph-name="plusminus.tf" 
d="M58 311v94h178v129h99v-129h178v-94h-178v-128h-99v128h-178zM58 47v96h455v-96h-455z" />
    <glyph glyph-name="multiply.tf" 
d="M521 120l-69 -69l-167 171l-167 -171l-69 69l168 172l-167 171l69 69l166 -171l166 171l69 -69l-167 -171z" />
    <glyph glyph-name="divide.tf" 
d="M233 422q-22 22 -22 51t21.5 50t50.5 21t50.5 -21t21.5 -50t-21.5 -51t-50.5 -22t-50 22zM522 243h-475v98h475v-98zM233 61q-22 21 -22 50t21.5 50.5t50.5 21.5t50.5 -21.5t21.5 -50.5t-21.5 -50.5t-50.5 -21.5t-50 22z" />
    <glyph glyph-name="florin.tf" 
d="M168 24l73 364h-103v99h123l21 101q15 73 63.5 112.5t113.5 39.5q43 0 82 -12v-101q-27 8 -57 8q-74 0 -90 -84l-13 -64h122v-99h-142l-81 -401q-15 -73 -63 -112.5t-114 -39.5q-45 0 -85 12v101q27 -7 61 -7q72 0 89 83z" />
    <glyph glyph-name="uni2007.tf" 
 />
    <glyph glyph-name="uni2008.tf" 
 />
    <glyph glyph-name="perthousand.tf" 
d="M55 451q-36 35 -36 85t36.5 85.5t86.5 35.5t86 -35.5t36 -85.5t-36 -85t-86 -35t-87 35zM45 259l486 363v-95l-486 -362v94zM105 574q-15 -15 -15 -38t15 -38t37 -15t36 15t14 38t-14 37.5t-36 14.5q-21 0 -37 -14zM132 110q0 51 35.5 86t86.5 35q52 0 86 -37
q37 37 87 37t86.5 -35.5t36.5 -85.5t-36 -85t-87 -35q-53 0 -87 37q-34 -37 -86 -37q-50 0 -86 35t-36 85zM290 148q-14 15 -36 15t-36.5 -15t-14.5 -38t14.5 -37.5t36.5 -14.5t36 14.5t14 37.5q0 22 -14 38zM463 148q-13 15 -36 15q-22 0 -36.5 -15t-14.5 -38t14.5 -37.5
t36.5 -14.5t36 14.5t14 37.5q0 22 -14 38z" />
    <glyph glyph-name="Euro.tf" 
d="M44 199v88h70q-2 30 -2 37q0 17 2 35h-70v87h87q35 100 120.5 158.5t191.5 58.5q67 0 115 -19l-28 -99q-37 14 -87 14q-61 0 -110.5 -29t-75.5 -84h244l-26 -87h-241q-2 -16 -2 -35q0 -13 2 -37h225l-25 -88h-175q27 -51 75.5 -79t109.5 -28q48 0 87 13l27 -98
q-50 -21 -114 -21q-107 0 -192 56.5t-120 156.5h-88z" />
    <glyph glyph-name="minus.tf" 
d="M510 340v-96h-451v96h451z" />
    <glyph glyph-name="approxequal.tf" 
d="M481 447l62 -52q-59 -92 -155 -92q-52 0 -105 30l-47 26q-28 15 -58 15q-51 0 -88 -46l-64 54q59 93 154 93q50 0 105 -30l47 -25q34 -18 63 -18q51 0 86 45zM481 250l62 -53q-59 -92 -155 -92q-51 0 -105 30l-47 26q-24 14 -58 15q-52 0 -88 -46l-64 54q59 93 152 93
q50 0 107 -30l47 -25q34 -18 63 -18q52 0 86 46z" />
    <glyph glyph-name="notequal.tf" 
d="M522 241v-95h-274l-68 -98h-109l68 98h-92v95h157l71 102h-228v94h292l66 95h109l-66 -95h74v-94h-138l-71 -102h209z" />
    <glyph glyph-name="lessequal.tf" 
d="M496 171l-422 140v97l422 141v-99l-292 -89l292 -91v-99zM74 47v96h422v-96h-422z" />
    <glyph glyph-name="greaterequal.tf" 
d="M74 549l422 -141v-97l-422 -140v98l292 90l-292 90v100zM74 47v96h422v-96h-422z" />
    <glyph glyph-name="parenleft.case" horiz-adv-x="307" 
d="M307 -44l-68 -58q-191 194 -191 455t191 455l68 -58q-84 -95 -122.5 -187.5t-38.5 -209.5t38.5 -209.5t122.5 -187.5z" />
    <glyph glyph-name="parenright.case" horiz-adv-x="307" 
d="M0 750l68 58q191 -194 191 -455t-191 -455l-68 58q84 95 122.5 187.5t38.5 209.5t-38.5 209.5t-122.5 187.5z" />
    <glyph glyph-name="hyphen.case" horiz-adv-x="372" 
d="M327 394v-103h-282v103h282z" />
    <glyph glyph-name="bracketleft.case" horiz-adv-x="304" 
d="M299 -10v-90h-214v909h214v-90h-116v-729h116z" />
    <glyph glyph-name="bracketright.case" horiz-adv-x="304" 
d="M219 809v-909h-214v90h116v729h-116v90h214z" />
    <glyph glyph-name="braceleft.case" horiz-adv-x="365" 
d="M45 304v100q49 0 77 24t28 73v118q0 94 48 142t139 48h23v-89h-22q-46 0 -68 -23t-22 -74v-144q0 -48 -27 -81t-75 -44q48 -11 75 -43.5t27 -80.5v-144q0 -50 22 -73t68 -23h22v-89h-23q-91 0 -139 48t-48 142v117q0 47 -28 71.5t-77 24.5z" />
    <glyph glyph-name="braceright.case" horiz-adv-x="365" 
d="M320 404v-100q-49 0 -77 -24.5t-28 -71.5v-117q0 -94 -48 -142t-139 -48h-23v89h22q46 0 68 23t22 73v144q0 48 27 80.5t75 43.5q-48 11 -75 44t-27 81v144q0 51 -22 74t-68 23h-22v89h23q91 0 139 -48t48 -142v-118q0 -49 28 -73t77 -24z" />
    <glyph glyph-name="exclamdown.case" horiz-adv-x="314" 
d="M83 642q0 30 21.5 51.5t51.5 21.5t52 -21.5t22 -51.5t-22 -51.5t-52 -21.5t-51.5 21t-21.5 52zM115 498h83l29 -498h-142z" />
    <glyph glyph-name="guillemotleft.case" horiz-adv-x="500" 
d="M141 342l133 -192h-111l-135 193l136 194h111zM348 342l133 -192h-111l-135 193l136 194h111z" />
    <glyph glyph-name="uni00AD.case" horiz-adv-x="372" 
d="M327 405v-103h-282v103h282z" />
    <glyph glyph-name="guillemotright.case" horiz-adv-x="500" 
d="M265 343l-135 -193h-111l133 192l-134 195h111zM472 343l-135 -193h-111l133 192l-134 195h111z" />
    <glyph glyph-name="questiondown.case" horiz-adv-x="514" 
d="M218 592q-21 21 -21 51t21 51.5t52 21.5q30 0 51.5 -21.5t21.5 -51.5t-21.5 -51.5t-51.5 -21.5q-31 0 -52 22zM221 490v10h99q3 -18 3 -38q0 -93 -80 -150l-46 -33q-47 -35 -47 -88q0 -43 29 -71.5t79 -28.5q52 0 82 33t30 83q0 27 -6 45l114 -12q5 -20 5 -46
q0 -86 -61.5 -147t-163.5 -61q-103 0 -165.5 58t-62.5 142q0 106 99 176l43 30q49 34 49 98z" />
    <glyph glyph-name="endash.case" horiz-adv-x="627" 
d="M570 393v-101h-514v101h514z" />
    <glyph glyph-name="emdash.case" horiz-adv-x="1079" 
d="M1012 393v-101h-946v101h946z" />
    <glyph glyph-name="guilsinglleft.case" horiz-adv-x="293" 
d="M141 342l133 -192h-111l-135 193l136 194h111z" />
    <glyph glyph-name="guilsinglright.case" horiz-adv-x="293" 
d="M265 343l-135 -193h-111l133 192l-134 195h112z" />
    <glyph glyph-name="G.ss01" horiz-adv-x="771" 
d="M403 -15q-151 0 -256 104t-105 266t105 265.5t255 103.5q123 0 209.5 -63.5t111.5 -164.5l-115 -35q-19 70 -72 111t-134 41q-103 0 -170.5 -68.5t-67.5 -189.5q0 -120 68 -190t171 -70q81 0 138 42.5t68 110.5h-267v106h390q2 -18 2 -40q-1 -144 -90.5 -236.5
t-240.5 -92.5z" />
    <glyph glyph-name="a.ss02" horiz-adv-x="599" 
d="M415 70q-18 -38 -55.5 -60.5t-87.5 -22.5q-104 0 -169.5 73t-65.5 186q0 109 65.5 182t167.5 73q54 0 92 -22.5t51 -55.5v64h113v-398q0 -34 5 -89h-111q-5 32 -5 70zM153 246q0 -71 36 -115t96 -44q57 0 93 44.5t36 114.5t-35.5 112t-93.5 42q-59 0 -95.5 -42
t-36.5 -112z" />
    <glyph glyph-name="agrave.ss02" horiz-adv-x="599" 
d="M342 548h-95l-132 148h139zM415 70q-18 -38 -55.5 -60.5t-87.5 -22.5q-104 0 -169.5 73t-65.5 186q0 109 65.5 182t167.5 73q54 0 92 -22.5t51 -55.5v64h113v-398q0 -34 5 -89h-111q-5 32 -5 70zM153 246q0 -71 36 -115t96 -44q57 0 93 44.5t36 114.5t-35.5 112t-93.5 42
q-59 0 -95.5 -42t-36.5 -112z" />
    <glyph glyph-name="aacute.ss02" horiz-adv-x="599" 
d="M300 696h137l-131 -148h-95zM415 70q-18 -38 -55.5 -60.5t-87.5 -22.5q-104 0 -169.5 73t-65.5 186q0 109 65.5 182t167.5 73q54 0 92 -22.5t51 -55.5v64h113v-398q0 -34 5 -89h-111q-5 32 -5 70zM153 246q0 -71 36 -115t96 -44q57 0 93 44.5t36 114.5t-35.5 112
t-93.5 42q-59 0 -95.5 -42t-36.5 -112z" />
    <glyph glyph-name="acircumflex.ss02" horiz-adv-x="599" 
d="M292 626l-70 -77h-97l107 143h121l108 -143h-99zM415 70q-18 -38 -55.5 -60.5t-87.5 -22.5q-104 0 -169.5 73t-65.5 186q0 109 65.5 182t167.5 73q54 0 92 -22.5t51 -55.5v64h113v-398q0 -34 5 -89h-111q-5 32 -5 70zM153 246q0 -71 36 -115t96 -44q57 0 93 44.5
t36 114.5t-35.5 112t-93.5 42q-59 0 -95.5 -42t-36.5 -112z" />
    <glyph glyph-name="atilde.ss02" horiz-adv-x="599" 
d="M202 556h-76l-1 18q0 55 28 85t75 30q33 0 70 -22l10 -6q29 -17 43 -17q31 0 31 44h76v-17q0 -55 -28 -86t-74 -31q-33 0 -71 23l-10 6q-26 16 -43 16q-30 0 -30 -43zM415 70q-18 -38 -55.5 -60.5t-87.5 -22.5q-104 0 -169.5 73t-65.5 186q0 109 65.5 182t167.5 73
q54 0 92 -22.5t51 -55.5v64h113v-398q0 -34 5 -89h-111q-5 32 -5 70zM153 246q0 -71 36 -115t96 -44q57 0 93 44.5t36 114.5t-35.5 112t-93.5 42q-59 0 -95.5 -42t-36.5 -112z" />
    <glyph glyph-name="adieresis.ss02" horiz-adv-x="599" 
d="M120 625q0 27 18.5 46t45.5 19q28 0 47 -19t19 -46q0 -28 -19 -46.5t-47 -18.5q-27 0 -45.5 18.5t-18.5 46.5zM320 625q0 27 18.5 46t45.5 19t46 -19t19 -46q0 -28 -19 -46.5t-46 -18.5t-45.5 18.5t-18.5 46.5zM415 70q-18 -38 -55.5 -60.5t-87.5 -22.5q-104 0 -169.5 73
t-65.5 186q0 109 65.5 182t167.5 73q54 0 92 -22.5t51 -55.5v64h113v-398q0 -34 5 -89h-111q-5 32 -5 70zM153 246q0 -71 36 -115t96 -44q57 0 93 44.5t36 114.5t-35.5 112t-93.5 42q-59 0 -95.5 -42t-36.5 -112z" />
    <glyph glyph-name="aring.ss02" horiz-adv-x="599" 
d="M361 717q33 -32 33 -79t-33 -78.5t-81 -31.5q-46 0 -79.5 32.5t-33.5 77.5q0 47 33.5 79t79.5 32t81 -32zM324 638q0 20 -13 32.5t-32 12.5q-18 0 -30.5 -13t-12.5 -32t12.5 -31.5t30.5 -12.5q19 0 32 12.5t13 31.5zM415 70q-18 -38 -55.5 -60.5t-87.5 -22.5
q-104 0 -169.5 73t-65.5 186q0 109 65.5 182t167.5 73q54 0 92 -22.5t51 -55.5v64h113v-398q0 -34 5 -89h-111q-5 32 -5 70zM153 246q0 -71 36 -115t96 -44q57 0 93 44.5t36 114.5t-35.5 112t-93.5 42q-59 0 -95.5 -42t-36.5 -112z" />
    <glyph glyph-name="r.ss03" horiz-adv-x="367" 
d="M215 355q-23 23 -23 57t23 57.5t57 23.5t57.5 -23.5t23.5 -57.5t-23.5 -57t-57.5 -23t-57 23zM75 487h116v-487h-116v487z" />
    <glyph glyph-name="ampersand.ss04" horiz-adv-x="694" 
d="M469 237h-83v103h283v-103h-79v-6q-2 -108 -74 -177t-192 -69q-118 0 -191 59t-73 153q0 69 41 120t104 69q-49 18 -79.5 58.5t-30.5 93.5q0 79 61.5 132.5t154.5 53.5q106 0 164 -53.5t64 -141.5l-117 -16q-2 52 -30.5 80.5t-79.5 28.5q-41 0 -69.5 -25.5t-28.5 -63.5
q0 -43 30.5 -68.5t69.5 -25.5h12v-103q-61 0 -102.5 -33t-41.5 -95q0 -50 38.5 -84t105.5 -34q65 0 103.5 37.5t39.5 103.5v6z" />
    <glyph glyph-name="one.ss05" horiz-adv-x="477" 
d="M42 0v104h157v340h-153v82q66 1 111 34.5t56 87.5h104v-544h152v-104h-427z" />
    <glyph glyph-name="registered.ss06" horiz-adv-x="429" 
d="M80 392q-56 56 -56 134q0 79 55.5 134.5t134.5 55.5t135 -55.5t56 -134.5t-56 -134.5t-135 -55.5q-78 0 -134 56zM116 627q-41 -43 -41 -101q0 -59 40.5 -100.5t98.5 -41.5t99 41.5t41 100.5t-41 100.5t-99 41.5q-57 0 -98 -41zM297 430h-57l-29 65h-13v-65h-54v196h84
q28 0 48 -19t20 -46q0 -38 -35 -56zM198 582v-43h17q26 0 26 22q0 21 -26 21h-17z" />
    <glyph glyph-name="caron.alt" horiz-adv-x="208" 
d="M59 709h119l-68 -189h-80z" />
    <glyph glyph-name="commaturn" horiz-adv-x="180" 
d="M161 596q0 -25 -19 -41.5t-48 -16.5q-30 0 -52 22t-22 58q0 55 39 87.5t90 32.5v-44q-29 0 -50 -14t-23 -33q7 7 25 7q27 0 43.5 -16t16.5 -42z" />
    <glyph glyph-name="f_f" horiz-adv-x="670" 
d="M611 625q-31 0 -51.5 -18.5t-20.5 -55.5v-64h113v-101h-113v-386h-117v386h-203v-386h-117v386h-85v101h85v67q0 80 47 127.5t123 47.5q42 0 61 -10v-99q-18 5 -42 5q-31 0 -51.5 -18.5t-20.5 -55.5v-64h203v67q0 80 47 127.5t123 47.5q42 0 61 -10v-99q-20 5 -42 5z" />
    <glyph glyph-name="f_f_i" horiz-adv-x="940" 
d="M754 606q-22 22 -22 53t22 53.5t53 22.5t53.5 -22.5t22.5 -53.5t-22.5 -53t-53.5 -22t-53 22zM611 625q-31 0 -51.5 -18.5t-20.5 -55.5v-64h326v-487h-115v386h-211v-386h-117v386h-203v-386h-117v386h-85v101h85v67q0 80 47 127.5t123 47.5q42 0 61 -10v-99q-18 5 -42 5
q-72 0 -72 -74v-64h203v67q0 80 47 127.5t123 47.5q42 0 61 -10v-99q-20 5 -42 5z" />
    <glyph glyph-name="f_f_l" horiz-adv-x="940" 
d="M611 625q-31 0 -51.5 -18.5t-20.5 -55.5v-64h211v237h115v-724h-115v386h-211v-386h-117v386h-203v-386h-117v386h-85v101h85v67q0 80 47 127.5t123 47.5q42 0 61 -10v-99q-18 5 -42 5q-31 0 -51.5 -18.5t-20.5 -55.5v-64h203v67q0 80 47 127.5t123 47.5q42 0 61 -10v-99
q-20 5 -42 5z" />
    <glyph glyph-name="f_i" horiz-adv-x="619" 
d="M411 659q0 32 22 54t53 22q32 0 54 -22.5t22 -53.5t-22.5 -53t-53.5 -22t-53 22t-22 53zM272 729q42 0 61 -10v-99q-18 5 -42 5q-31 0 -51.5 -18.5t-20.5 -55.5v-64h324v-487h-114v386h-210v-386h-117v386h-85v101h85v67q0 80 47 127.5t123 47.5z" />
    <glyph glyph-name="f_l" horiz-adv-x="617" 
d="M291 625q-31 0 -51.5 -18.5t-20.5 -55.5v-64h208v237h115v-724h-115v386h-208v-386h-117v386h-85v101h85v67q0 80 47 127.5t123 47.5q42 0 61 -10v-99q-18 5 -42 5z" />
    <glyph glyph-name="dieresis.narrow" horiz-adv-x="315" 
d="M37 582q-18 16 -18 43q0 26 17.5 44t43.5 18q25 0 43 -18t18 -44q0 -25 -17.5 -43t-43.5 -18q-27 0 -43 18zM174 625q0 26 17.5 44t42.5 18q26 0 44 -18t18 -44t-18 -43.5t-44 -17.5q-25 0 -42.5 18t-17.5 43z" />
    <glyph glyph-name="dieresis.uc.narrow" horiz-adv-x="334" 
d="M38 777q-18 18 -18 44t17.5 44t43.5 18t44.5 -18t18.5 -44t-18.5 -44t-44.5 -18q-27 0 -43 18zM208 777q-18 18 -18 44t18 44t44 18t44 -18t18 -44t-18 -44t-44 -18t-44 18z" />
    <glyph glyph-name="grave.uc" horiz-adv-x="283" 
d="M264 759h-108l-143 124h148z" />
    <glyph glyph-name="dieresis.uc" horiz-adv-x="427" 
d="M43 774q-19 19 -19 47t19 47.5t47 19.5t47.5 -19.5t19.5 -47.5t-19.5 -47t-47.5 -19t-47 19zM290 774q-19 19 -19 47t18.5 47.5t46.5 19.5t47.5 -19.5t19.5 -47.5t-19.5 -47t-47.5 -19t-46 19z" />
    <glyph glyph-name="macron.uc" horiz-adv-x="340" 
d="M320 869v-93h-300v93h300z" />
    <glyph glyph-name="acute.uc" horiz-adv-x="283" 
d="M121 883h149l-142 -124h-109z" />
    <glyph glyph-name="circumflex.uc" horiz-adv-x="408" 
d="M203 823l-72 -64h-107l116 124h129l119 -124h-110z" />
    <glyph glyph-name="caron.uc" horiz-adv-x="408" 
d="M140 759l-116 124h109l72 -65l75 65h108l-119 -124h-129z" />
    <glyph glyph-name="breve.uc" horiz-adv-x="369" 
d="M301 793q-42 -39 -116 -39q-72 0 -115 38t-46 94h93q2 -23 19.5 -38.5t48.5 -15.5t48.5 15.5t18.5 38.5h93q-1 -54 -44 -93z" />
    <glyph glyph-name="dotaccent.uc" horiz-adv-x="186" 
d="M20 826q0 31 21.5 52t51.5 21t51.5 -21t21.5 -52q0 -29 -21.5 -50t-51.5 -21t-51.5 21t-21.5 50z" />
    <glyph glyph-name="ring.uc" horiz-adv-x="285" 
d="M229 945q36 -35 36 -85t-36 -84.5t-87 -34.5t-86.5 34.5t-35.5 84.5t35.5 84.5t86.5 34.5q50 0 87 -34zM176 826q13 13 13 34t-13.5 34t-33.5 13t-33.5 -13t-13.5 -34t13.5 -34t33.5 -13q21 0 34 13z" />
    <glyph glyph-name="tilde.uc" horiz-adv-x="372" 
d="M279 886h74v-23q0 -52 -27.5 -81t-71.5 -29q-35 0 -73 23l-10 7q-28 17 -45 17q-13 0 -21.5 -9t-8.5 -24v-10h-75v22q0 52 27.5 81t72.5 29q36 0 74 -23l10 -6q31 -17 43 -17q31 0 31 33v10z" />
    <glyph glyph-name="hungarumlaut.uc" horiz-adv-x="376" 
d="M76 883h118l-95 -124h-79zM238 883h118l-107 -124h-80z" />
    <glyph glyph-name="caron.alt.uc" horiz-adv-x="208" 
d="M61 709h126l-72 -200h-85z" />
    <glyph glyph-name="undercommaaccent" horiz-adv-x="181" 
d="M20 -96q0 25 19.5 42t47.5 17q31 0 52.5 -22t21.5 -59q0 -59 -37.5 -89.5t-91.5 -30.5v44q29 0 50 14.5t23 33.5q-7 -7 -25 -7q-27 0 -43.5 15.5t-16.5 41.5z" />
    </font>
</defs>
</svg>
