<?xml version="1.0" standalone="no"?>
<!DOCTYPE svg PUBLIC "-//W3C//DTD SVG 1.1//EN" "http://www.w3.org/Graphics/SVG/1.1/DTD/svg11.dtd" >
<svg>
<metadata>
Created by FontForge 20090622 at Thu Jul 27 21:28:06 2017
 By deploy user
Copyright (c) 2014 by Grilli Type. All rights reserved.
</metadata>
<defs>
<font id="GTWalsheimProTrial-Regular" horiz-adv-x="565" >
  <font-face 
    font-family="GT Walsheim Pro Trial Regular"
    font-weight="400"
    font-stretch="normal"
    units-per-em="1000"
    panose-1="2 0 5 3 4 0 0 2 0 3"
    ascent="740"
    descent="-260"
    x-height="454"
    cap-height="700"
    bbox="-12 -256 1274 716"
    underline-thickness="50"
    underline-position="-25"
    unicode-range="U+0020-U+FB01"
  />
<missing-glyph horiz-adv-x="550" 
d="M422 342v158h-30v-158h30zM302 452v-110h30v110h-30zM50 0v700h450v-700h-450zM303 260h-30v-109h30v109zM295 453q-6 2 -11 2q-18 0 -31 -21v18h-27v-110h29v50q0 35 30 35q7 0 10 -1v27zM439 452v-110h30v110h-30zM89 307v-29h44v-127h30v127h44v29h-118zM427 151h29
v158h-29v-158zM266 234v28q-3 1 -10 1q-20 0 -30 -21v18h-28v-109h30v49q0 35 28 35q6 0 10 -1zM301 500v-29h32v29h-32zM438 500v-29h32v29h-32zM181 399q0 -12 -9 -22.5t-27 -10.5q-41 0 -41 53q0 25 10.5 40t29.5 15q24 0 31 -23l30 12q-14 39 -60 39q-35 0 -54.5 -23
t-19.5 -59q0 -35 18 -58t49 -23q32 0 43 20l4 -17h23v87h-67v-28h40v-2zM304 309h-32v-30h32v30zM376 342v158h-29v-158h29zM385 151h29q-3 15 -3 21v40q0 27 -10 39t-36 12q-49 0 -51 -37h29q1 15 21 15q18 0 18 -22q-32 -3 -50 -8q-21 -9 -21 -29q0 -16 10.5 -25t27.5 -9
q25 0 35 19q0 -11 1 -16zM382 201v-3q0 -28 -24 -28q-17 0 -17 13t23 16z" />
    <glyph glyph-name=".notdef" horiz-adv-x="550" 
d="M422 342v158h-30v-158h30zM302 452v-110h30v110h-30zM50 0v700h450v-700h-450zM303 260h-30v-109h30v109zM295 453q-6 2 -11 2q-18 0 -31 -21v18h-27v-110h29v50q0 35 30 35q7 0 10 -1v27zM439 452v-110h30v110h-30zM89 307v-29h44v-127h30v127h44v29h-118zM427 151h29
v158h-29v-158zM266 234v28q-3 1 -10 1q-20 0 -30 -21v18h-28v-109h30v49q0 35 28 35q6 0 10 -1zM301 500v-29h32v29h-32zM438 500v-29h32v29h-32zM181 399q0 -12 -9 -22.5t-27 -10.5q-41 0 -41 53q0 25 10.5 40t29.5 15q24 0 31 -23l30 12q-14 39 -60 39q-35 0 -54.5 -23
t-19.5 -59q0 -35 18 -58t49 -23q32 0 43 20l4 -17h23v87h-67v-28h40v-2zM304 309h-32v-30h32v30zM376 342v158h-29v-158h29zM385 151h29q-3 15 -3 21v40q0 27 -10 39t-36 12q-49 0 -51 -37h29q1 15 21 15q18 0 18 -22q-32 -3 -50 -8q-21 -9 -21 -29q0 -16 10.5 -25t27.5 -9
q25 0 35 19q0 -11 1 -16zM382 201v-3q0 -28 -24 -28q-17 0 -17 13t23 16z" />
    <glyph glyph-name=".null" horiz-adv-x="0" 
 />
    <glyph glyph-name=".null" horiz-adv-x="0" 
 />
    <glyph glyph-name="nonmarkingreturn" horiz-adv-x="333" 
 />
    <glyph glyph-name="space" unicode=" " horiz-adv-x="253" 
 />
    <glyph glyph-name="exclam" unicode="!" horiz-adv-x="255" 
d="M58 64q0 30 20 50.5t49 20.5t50 -20.5t21 -50.5q0 -28 -21 -48.5t-50 -20.5t-49 20.5t-20 48.5z" />
    <glyph glyph-name="comma" unicode="," horiz-adv-x="270" 
d="M58 64q0 30 20.5 50.5t50.5 20.5q37 0 60.5 -28.5t23.5 -72.5q0 -79 -38.5 -114t-111.5 -36v43q52 0 72 31q15 22 15 44q-8 -8 -23 -8q-31 0 -50 20.5t-19 49.5z" />
    <glyph glyph-name="hyphen" unicode="-" horiz-adv-x="294" 
d="M264 324v-78h-234v78h234z" />
    <glyph glyph-name="period" unicode="." horiz-adv-x="255" 
d="M58 64q0 30 20 50.5t49 20.5t50 -20.5t21 -50.5q0 -28 -21 -48.5t-50 -20.5t-49 20.5t-20 48.5z" />
    <glyph glyph-name="zero" unicode="0" horiz-adv-x="579" 
d="M50 226v248q0 99 66.5 168.5t171.5 69.5q107 0 174 -69t67 -169v-248q0 -99 -67 -168.5t-174 -69.5q-105 0 -171.5 69.5t-66.5 168.5zM438 226v248q0 65 -41.5 110.5t-108.5 45.5q-65 0 -106 -45.5t-41 -110.5v-248q0 -65 41 -110.5t106 -45.5q66 0 108 45.5t42 110.5z
" />
    <glyph glyph-name="one" unicode="1" horiz-adv-x="345" 
d="M31 511v73q90 0 119.5 25t29.5 91h87v-700h-94v511h-142z" />
    <glyph glyph-name="two" unicode="2" horiz-adv-x="527" 
d="M47 0q0 81 12.5 138t41 96t60 63.5t83.5 51.5q38 19 55.5 29.5t44 31t38 47t11.5 59.5q0 54 -33 83.5t-90 29.5q-59 0 -95.5 -36t-36.5 -101h-91q0 100 64.5 159.5t159.5 59.5q96 0 154.5 -53.5t58.5 -149.5q0 -37 -15 -71t-33 -55.5t-49.5 -44.5t-47 -32t-44.5 -24
q-88 -49 -116 -88.5t-28 -110.5h333v-82h-437z" />
    <glyph glyph-name="three" unicode="3" horiz-adv-x="559" 
d="M33 221h91q0 -68 42.5 -109t107.5 -41q63 0 100.5 36t37.5 89q0 59 -35 94t-107 35h-50v81h50q127 0 127 116q0 50 -33 78.5t-89 28.5q-66 0 -98 -34t-32 -93h-92q0 93 60.5 151t155.5 58q93 0 156 -52.5t63 -136.5q0 -60 -29 -100.5t-79 -56.5q57 -18 90.5 -61
t33.5 -108q0 -91 -67 -149t-166 -58q-101 0 -169.5 63t-68.5 169z" />
    <glyph glyph-name="four" unicode="4" horiz-adv-x="552" 
d="M328 0v225h-260v475h91v-393h169v216h91v-216h105v-82h-105v-225h-91z" />
    <glyph glyph-name="five" unicode="5" horiz-adv-x="598" 
d="M81 298v402h412v-82h-330v-234q20 39 65.5 59.5t91.5 20.5q106 0 166 -68t60 -169q0 -99 -67 -168.5t-174 -69.5q-105 0 -171.5 69.5t-66.5 168.5h91q0 -65 41 -110.5t106 -45.5q67 0 108 45.5t41 110.5q0 66 -41 110.5t-108 44.5q-92 0 -131 -84h-93z" />
    <glyph glyph-name="six" unicode="6" horiz-adv-x="556" 
d="M275 -11q-105 0 -171.5 69.5t-66.5 168.5q0 73 41 139l209 334h105l-160 -246q15 12 43 12q107 0 174 -69.5t67 -169.5q0 -99 -67 -168.5t-174 -69.5zM275 71q67 0 108.5 45.5t41.5 110.5t-41.5 110.5t-108.5 45.5q-65 0 -106 -45.5t-41 -110.5t41 -110.5t106 -45.5z" />
    <glyph glyph-name="seven" unicode="7" horiz-adv-x="467" 
d="M38 700h434l-311 -700h-97l278 618h-304v82z" />
    <glyph glyph-name="eight" unicode="8" horiz-adv-x="580" 
d="M290 -11q-107 0 -171 59.5t-64 148.5q0 59 30 106t86 63q-51 18 -76 59t-25 92q0 83 60 138.5t160 55.5t160 -56t60 -138q0 -51 -25 -92t-76 -59q56 -16 86 -64t30 -105q0 -87 -64 -147.5t-171 -60.5zM290 397q59 0 93.5 33t34.5 83t-35 83t-93 33t-93 -33.5t-35 -82.5
q0 -50 34.5 -83t93.5 -33zM290 71q66 0 105 36t39 90q0 53 -38.5 89.5t-105.5 36.5t-105.5 -36t-38.5 -90t39.5 -90t104.5 -36z" />
    <glyph glyph-name="nine" unicode="9" horiz-adv-x="556" 
d="M281 711q105 0 171.5 -69.5t66.5 -168.5q0 -70 -42 -139l-208 -334h-105l159 244q-9 -9 -31 -9q-113 0 -182.5 67t-69.5 171q0 100 67 169t174 69zM281 629q-67 0 -108.5 -45.5t-41.5 -110.5t41.5 -110.5t108.5 -45.5q65 0 106 45.5t41 110.5t-41 110.5t-106 45.5z" />
    <glyph glyph-name="colon" unicode=":" horiz-adv-x="255" 
d="M58 64q0 30 20 50.5t49 20.5t50 -20.5t21 -50.5q0 -28 -21 -48.5t-50 -20.5t-49 20.5t-20 48.5z" />
    <glyph glyph-name="semicolon" unicode=";" horiz-adv-x="270" 
d="M58 64q0 30 20.5 50.5t50.5 20.5q37 0 60.5 -28.5t23.5 -72.5q0 -79 -38.5 -114t-111.5 -36v43q52 0 72 31q15 22 15 44q-8 -8 -23 -8q-31 0 -50 20.5t-19 49.5z" />
    <glyph glyph-name="question" unicode="?" horiz-adv-x="255" 
d="M58 64q0 30 20 50.5t49 20.5t50 -20.5t21 -50.5q0 -28 -21 -48.5t-50 -20.5t-49 20.5t-20 48.5z" />
    <glyph glyph-name="A" unicode="A" horiz-adv-x="559" 
d="M554 0h-96l-37 107h-284l-36 -107h-96l241 700h66zM393 190l-113 361l-115 -361h228z" />
    <glyph glyph-name="B" unicode="B" horiz-adv-x="591" 
d="M78 0v700h239q60 0 104 -17.5t66.5 -46.5t32.5 -59.5t10 -63.5q0 -61 -37 -104.5t-88 -53.5q46 -3 88 -47.5t42 -113.5q0 -33 -10.5 -64.5t-34 -62t-68 -49t-104.5 -18.5h-240zM324 312h-155v-230h153q63 0 92.5 34t29.5 81q0 42 -30.5 78.5t-89.5 36.5zM169 395h150
q62 0 91 34t29 77q0 44 -29.5 78t-92.5 34h-148v-223z" />
    <glyph glyph-name="C" unicode="C" horiz-adv-x="775" 
d="M636 216h100q-27 -101 -116.5 -166.5t-211.5 -65.5q-166 0 -266.5 107t-100.5 260q0 149 98 257t256 108q146 0 233 -72.5t108 -188.5h-96q-16 79 -78 129t-156 50q-124 0 -198 -83.5t-74 -199.5q0 -120 77 -202.5t208 -82.5q72 0 133.5 42.5t83.5 107.5z" />
    <glyph glyph-name="D" unicode="D" horiz-adv-x="697" 
d="M78 700h216q84 0 154 -29.5t115 -79t69.5 -112t24.5 -129.5t-24.5 -129.5t-69.5 -112t-115 -79t-154 -29.5h-216v700zM294 618h-125v-536h125q123 0 196 80t73 188t-73 188t-196 80z" />
    <glyph glyph-name="E" unicode="E" horiz-adv-x="544" 
d="M471 618h-302v-229h302v-82h-302v-225h302v-82h-393v700h393v-82z" />
    <glyph glyph-name="F" unicode="F" horiz-adv-x="538" 
d="M471 618h-302v-250h302v-82h-302v-286h-91v700h393v-82z" />
    <glyph glyph-name="G" unicode="G" horiz-adv-x="836" 
d="M473 255v82h337v-82h-75q-21 -125 -107 -198t-228 -73q-84 0 -153 30.5t-113.5 81.5t-68.5 116.5t-24 137.5q0 149 99.5 257.5t259.5 108.5q116 0 198 -61t95 -150h-92q-14 55 -69.5 92t-131.5 37q-120 0 -193 -84t-73 -200q0 -118 73 -201t204 -83q98 0 157 53t70 136
h-165z" />
    <glyph glyph-name="H" unicode="H" horiz-adv-x="664" 
d="M495 0v307h-326v-307h-91v700h91v-311h326v311h91v-700h-91z" />
    <glyph glyph-name="I" unicode="I" horiz-adv-x="250" 
d="M78 0v700h94v-700h-94z" />
    <glyph glyph-name="J" unicode="J" horiz-adv-x="536" 
d="M465 700v-478q0 -105 -60.5 -171.5t-163.5 -66.5t-165 67t-62 171h91q0 -70 37 -113t99 -43t97.5 42.5t35.5 113.5v478h91z" />
    <glyph glyph-name="K" unicode="K" horiz-adv-x="590" 
d="M463 0l-294 318v-318h-91v700h91v-318l294 318h115l-320 -350l320 -350h-115z" />
    <glyph glyph-name="L" unicode="L" horiz-adv-x="425" 
d="M169 82h229v-82h-320v700h91v-618z" />
    <glyph glyph-name="M" unicode="M" horiz-adv-x="812" 
d="M734 700v-700h-92v488l-201 -488h-70l-202 488v-488h-91v700h88l240 -560l240 560h88z" />
    <glyph glyph-name="N" unicode="N" horiz-adv-x="663" 
d="M179 700l315 -541v541h91v-700h-101l-315 541v-541h-91v700h101z" />
    <glyph glyph-name="O" unicode="O" horiz-adv-x="803" 
d="M402 -16q-162 0 -261.5 108.5t-99.5 257.5t99.5 257.5t261.5 108.5t261.5 -108.5t99.5 -257.5q0 -96 -42.5 -178.5t-126.5 -135t-192 -52.5zM402 66q118 0 191.5 84.5t73.5 199.5t-73.5 199.5t-191.5 84.5q-119 0 -192.5 -84t-73.5 -200q0 -115 73.5 -199.5t192.5 -84.5z
" />
    <glyph glyph-name="P" unicode="P" horiz-adv-x="596" 
d="M78 0v700h246q107 0 173.5 -69.5t66.5 -168.5q0 -100 -66.5 -169.5t-173.5 -69.5h-155v-223h-91zM324 306q67 0 108 45t41 111q0 65 -41.5 110.5t-107.5 45.5h-155v-312h155z" />
    <glyph glyph-name="Q" unicode="Q" horiz-adv-x="803" 
d="M763 350q0 -126 -72 -223t-191 -128l62 -87l-81 -40l-80 112q-162 1 -261 109t-99 257t99.5 257.5t261.5 108.5t261.5 -108.5t99.5 -257.5zM402 66q118 0 191.5 84.5t73.5 199.5t-73.5 199.5t-191.5 84.5q-119 0 -192.5 -84t-73.5 -200q0 -115 73.5 -199.5t192.5 -84.5z
" />
    <glyph glyph-name="R" unicode="R" horiz-adv-x="606" 
d="M78 0v700h246q107 0 173.5 -69.5t66.5 -168.5q0 -77 -42 -138t-113 -86l147 -238h-104l-139 223h-144v-223h-91zM324 306q67 0 108 45t41 111q0 65 -41.5 110.5t-107.5 45.5h-155v-312h155z" />
    <glyph glyph-name="S" unicode="S" horiz-adv-x="571" 
d="M45 223h91q0 -72 43 -114.5t115 -42.5q62 0 100.5 32.5t38.5 86.5q0 30 -11 52.5t-33.5 37t-40.5 21.5t-48 16q-48 15 -73.5 24.5t-60.5 28t-52.5 38.5t-30.5 52.5t-13 73.5q0 83 61.5 135t156.5 52q96 0 157.5 -59t62.5 -155h-91q-1 60 -35 96t-92 36t-93.5 -28.5
t-35.5 -76.5q0 -51 33.5 -76.5t96.5 -44.5q43 -14 67 -23t60.5 -28t56 -39t34.5 -52t15 -71q0 -100 -66.5 -155.5t-170.5 -55.5t-173 65t-69 174z" />
    <glyph glyph-name="T" unicode="T" horiz-adv-x="478" 
d="M193 0v618h-181v82h454v-82h-182v-618h-91z" />
    <glyph glyph-name="U" unicode="U" horiz-adv-x="629" 
d="M71 227v473h91v-473q0 -67 42 -114t109 -47q69 0 111.5 47t42.5 114v473h91v-473q0 -102 -67.5 -172.5t-177.5 -70.5q-107 0 -174.5 70.5t-67.5 172.5z" />
    <glyph glyph-name="V" unicode="V" horiz-adv-x="563" 
d="M559 700l-244 -700h-66l-245 700h96l182 -550l181 550h96z" />
    <glyph glyph-name="W" unicode="W" horiz-adv-x="964" 
d="M652 0l-170 542l-169 -542h-68l-239 700h96l176 -542l170 542h69l170 -542l176 542h96l-240 -700h-67z" />
    <glyph glyph-name="X" unicode="X" horiz-adv-x="548" 
d="M274 429l161 271h104l-213 -350l213 -350h-104l-161 271l-161 -271h-103l212 350l-212 350h103z" />
    <glyph glyph-name="Y" unicode="Y" horiz-adv-x="591" 
d="M586 700l-352 -700h-100l140 278l-264 422h106l205 -327l165 327h100z" />
    <glyph glyph-name="Z" unicode="Z" 
d="M35 618v82h521l-389 -618h392v-82h-545l389 618h-368z" />
    <glyph glyph-name="underscore" unicode="_" horiz-adv-x="294" 
d="M264 324v-78h-234v78h234z" />
    <glyph glyph-name="a" unicode="a" horiz-adv-x="597" 
d="M433 454h86v-454h-86v79q-22 -41 -65.5 -65.5t-93.5 -24.5q-102 0 -167.5 70t-65.5 168q0 99 65.5 169t167.5 70q50 0 93.5 -24.5t65.5 -65.5v78zM279 67q69 0 111.5 46.5t42.5 113.5t-42.5 114t-111.5 47q-67 0 -109.5 -47t-42.5 -114t42.5 -113.5t109.5 -46.5z" />
    <glyph glyph-name="b" unicode="b" horiz-adv-x="599" 
d="M165 79v-79h-87v700h87v-324q22 41 65 65.5t93 24.5q103 0 168.5 -70t65.5 -169t-65.5 -168.5t-168.5 -69.5q-50 0 -93 24.5t-65 65.5zM319 67q67 0 109 46.5t42 113.5t-42 114t-109 47q-69 0 -111.5 -47t-42.5 -114t42.5 -113.5t111.5 -46.5z" />
    <glyph glyph-name="c" unicode="c" horiz-adv-x="529" 
d="M484 289h-87q-12 99 -126 99q-67 0 -104 -46.5t-37 -114.5q0 -69 37 -114.5t109 -45.5q99 0 122 89h87q-11 -75 -65.5 -121t-149.5 -46q-106 0 -166.5 70t-60.5 168t60.5 168.5t165.5 70.5q102 0 155 -51.5t60 -125.5z" />
    <glyph glyph-name="d" unicode="d" horiz-adv-x="597" 
d="M433 0v79q-22 -41 -65.5 -65.5t-93.5 -24.5q-102 0 -167.5 70t-65.5 168q0 99 65.5 169t167.5 70q50 0 93.5 -24.5t65.5 -65.5v324h86v-700h-86zM279 67q69 0 111.5 46.5t42.5 113.5t-42.5 114t-111.5 47q-67 0 -109.5 -47t-42.5 -114t42.5 -113.5t109.5 -46.5z" />
    <glyph glyph-name="e" unicode="e" horiz-adv-x="525" 
d="M265 399q-60 0 -97 -34.5t-38 -94.5h263q0 58 -36 93.5t-92 35.5zM473 204h-344q3 -64 37 -103t104 -39q89 0 115 72h88q-12 -61 -66.5 -103t-136.5 -42q-110 0 -168.5 67t-58.5 171q0 106 59.5 172.5t164.5 66.5q89 0 149.5 -59t60.5 -146q0 -32 -4 -57z" />
    <glyph glyph-name="f" unicode="f" horiz-adv-x="347" 
d="M336 694v-74q-26 8 -51 8q-17 0 -28.5 -2t-24.5 -10t-19.5 -26.5t-6.5 -47.5v-88h130v-73h-130v-381h-87v381h-98v73h98v79q0 47 11.5 81t27 51.5t39 27t40 11.5t37.5 2q40 0 62 -12z" />
    <glyph glyph-name="g" unicode="g" horiz-adv-x="595" 
d="M279 388q-67 0 -109.5 -47t-42.5 -114t42.5 -113.5t109.5 -46.5q69 0 111.5 46.5t42.5 113.5t-42.5 114t-111.5 47zM519 454v-483q0 -227 -242 -227q-109 0 -167 57t-63 141h88q4 -52 39.5 -86.5t102.5 -34.5q156 0 156 150v108q-22 -41 -65.5 -65.5t-93.5 -24.5
q-102 0 -167.5 70t-65.5 168q0 99 65.5 169t167.5 70q50 0 93.5 -24.5t65.5 -65.5v78h86z" />
    <glyph glyph-name="h" unicode="h" 
d="M78 0v700h87v-326q21 43 62.5 67.5t97.5 24.5q93 0 136 -60q35 -48 35 -138v-268h-87v241q0 148 -115 148q-62 0 -95.5 -45t-33.5 -110v-234h-87z" />
    <glyph glyph-name="i" unicode="i" horiz-adv-x="243" 
d="M78 0v454h87v-454h-87zM52 626q0 29 20.5 50t48.5 21q29 0 50 -21t21 -50q0 -28 -21 -48.5t-50 -20.5t-49 20.5t-20 48.5z" />
    <glyph glyph-name="j" unicode="j" horiz-adv-x="243" 
d="M165 454v-576q0 -69 -30 -101t-76 -32q-45 0 -71 12v77q25 -6 44 -6q46 0 46 63v563h87zM52 626q0 29 20.5 50t48.5 21q30 0 50.5 -21t20.5 -50t-20.5 -49t-50.5 -20q-29 0 -49 20.5t-20 48.5z" />
    <glyph glyph-name="k" unicode="k" horiz-adv-x="477" 
d="M465 454l-207 -227l207 -227h-110l-190 206v-206h-87v700h87v-453l190 207h110z" />
    <glyph glyph-name="l" unicode="l" horiz-adv-x="243" 
d="M78 0v700h87v-700h-87z" />
    <glyph glyph-name="m" unicode="m" horiz-adv-x="824" 
d="M753 0h-87v261q0 128 -96 128q-52 0 -81.5 -40t-29.5 -118v-231h-87v256q0 133 -95 133q-51 0 -81.5 -40.5t-30.5 -117.5v-231h-87v454h87v-81q13 40 49.5 66.5t84.5 26.5q118 0 146 -97q15 41 55 69t91 28q162 0 162 -179v-287z" />
    <glyph glyph-name="n" unicode="n" 
d="M78 0v454h87v-80q21 43 62.5 67.5t97.5 24.5q93 0 136 -60q35 -48 35 -138v-268h-87v241q0 148 -115 148q-62 0 -95.5 -45t-33.5 -110v-234h-87z" />
    <glyph glyph-name="o" unicode="o" horiz-adv-x="560" 
d="M279 -11q-105 0 -171.5 69.5t-66.5 168.5q0 100 66.5 169.5t171.5 69.5q107 0 173.5 -69.5t66.5 -169.5q0 -99 -66.5 -168.5t-173.5 -69.5zM279 67q69 0 111.5 46.5t42.5 113.5t-42.5 114t-111.5 47q-67 0 -109.5 -47t-42.5 -114t42.5 -113.5t109.5 -46.5z" />
    <glyph glyph-name="p" unicode="p" horiz-adv-x="599" 
d="M165 454v-78q22 41 65 65.5t93 24.5q103 0 168.5 -70t65.5 -169t-65.5 -168.5t-168.5 -69.5q-50 0 -93 24.5t-65 65.5v-325h-87v700h87zM319 388q-69 0 -111.5 -47t-42.5 -114t42.5 -113.5t111.5 -46.5q67 0 109 46.5t42 113.5t-42 114t-109 47z" />
    <glyph glyph-name="q" unicode="q" horiz-adv-x="599" 
d="M434 376v78h87v-700h-87v325q-22 -41 -65 -65.5t-93 -24.5q-103 0 -168.5 69.5t-65.5 168.5t65.5 169t168.5 70q50 0 93 -24.5t65 -65.5zM280 388q-67 0 -109 -47t-42 -114t42 -113.5t109 -46.5q69 0 111.5 46.5t42.5 113.5t-42.5 114t-111.5 47z" />
    <glyph glyph-name="r" unicode="r" horiz-adv-x="365" 
d="M359 454v-80q-23 5 -43 5q-74 0 -112.5 -48t-38.5 -132v-199h-87v454h87v-89q18 42 60.5 69t90.5 27q26 0 43 -7z" />
    <glyph glyph-name="s" unicode="s" horiz-adv-x="452" 
d="M270 253q35 -11 51.5 -18t40.5 -21.5t34 -36t10 -52.5q0 -66 -49 -101t-129 -35t-134 42.5t-54 121.5h85q0 -95 107 -95q91 0 91 65q0 12 -5 22t-11.5 16t-22 13t-27.5 11t-37 11.5t-42 13.5q-63 20 -93 44.5t-30 80.5q0 62 48 96.5t121 34.5q75 0 125 -43t50 -110h-84
q0 40 -23.5 61.5t-68.5 21.5q-37 0 -60.5 -16.5t-23.5 -46.5q0 -9 2.5 -16t6 -12t11 -10.5t14 -8.5t19.5 -8t22 -7.5t27 -8t29 -9.5z" />
    <glyph glyph-name="t" unicode="t" horiz-adv-x="340" 
d="M325 77v-77q-34 -6 -78 -6q-21 0 -37 2t-37 11t-35 25.5t-24 47t-10 73.5v228h-84v73h84v153h87v-153h118v-73h-118v-209q0 -61 18.5 -80t56.5 -19q33 0 59 4z" />
    <glyph glyph-name="u" unicode="u" 
d="M400 454h87v-454h-87v81q-21 -42 -62.5 -67t-97.5 -25q-94 0 -137 59q-34 46 -34 138v268h87v-240q0 -148 114 -148q63 0 96.5 44.5t33.5 110.5v233z" />
    <glyph glyph-name="v" unicode="v" horiz-adv-x="482" 
d="M4 454h94l142 -330l144 330h94l-208 -454h-60z" />
    <glyph glyph-name="w" unicode="w" horiz-adv-x="734" 
d="M494 0l-127 359l-127 -359h-60l-176 454h93l113 -320l114 320h86l113 -320l114 320h93l-176 -454h-60z" />
    <glyph glyph-name="x" unicode="x" horiz-adv-x="440" 
d="M270 229l154 -229h-100l-104 161l-104 -161h-100l154 229l-152 225h100l102 -158l102 158h100z" />
    <glyph glyph-name="y" unicode="y" horiz-adv-x="573" 
d="M282 -256q-98 0 -154 50t-58 147h88q8 -123 126 -123q63 0 95 30.5t32 104.5v128q-21 -43 -62 -67.5t-97 -24.5q-94 0 -138 58q-34 46 -34 142v265h87v-238q0 -72 26 -111t90 -39q62 0 95 44.5t33 110.5v233h87v-501q0 -209 -216 -209z" />
    <glyph glyph-name="z" unicode="z" horiz-adv-x="434" 
d="M32 454h382l-243 -376h244v-78h-391l243 377h-235v77z" />
    <glyph glyph-name="Agrave" unicode="&#xc0;" horiz-adv-x="559" 
d="M554 0h-96l-37 107h-284l-36 -107h-96l241 700h66zM393 190l-113 361l-115 -361h228z" />
    <glyph glyph-name="Aacute" unicode="&#xc1;" horiz-adv-x="559" 
d="M554 0h-96l-37 107h-284l-36 -107h-96l241 700h66zM393 190l-113 361l-115 -361h228z" />
    <glyph glyph-name="Acircumflex" unicode="&#xc2;" horiz-adv-x="559" 
d="M554 0h-96l-37 107h-284l-36 -107h-96l241 700h66zM393 190l-113 361l-115 -361h228z" />
    <glyph glyph-name="Atilde" unicode="&#xc3;" horiz-adv-x="559" 
d="M554 0h-96l-37 107h-284l-36 -107h-96l241 700h66zM393 190l-113 361l-115 -361h228z" />
    <glyph glyph-name="Adieresis" unicode="&#xc4;" horiz-adv-x="559" 
d="M554 0h-96l-37 107h-284l-36 -107h-96l241 700h66zM393 190l-113 361l-115 -361h228z" />
    <glyph glyph-name="Aring" unicode="&#xc5;" horiz-adv-x="559" 
d="M554 0h-96l-37 107h-284l-36 -107h-96l241 700h66zM393 190l-113 361l-115 -361h228z" />
    <glyph glyph-name="AE" unicode="&#xc6;" horiz-adv-x="1103" 
d="M554 0h-96l-37 107h-284l-36 -107h-96l241 700h66zM393 190l-113 361l-115 -361h228zM1030 618h-302v-229h302v-82h-302v-225h302v-82h-393v700h393v-82z" />
    <glyph glyph-name="Ccedilla" unicode="&#xc7;" horiz-adv-x="775" 
d="M636 216h100q-27 -101 -116.5 -166.5t-211.5 -65.5q-166 0 -266.5 107t-100.5 260q0 149 98 257t256 108q146 0 233 -72.5t108 -188.5h-96q-16 79 -78 129t-156 50q-124 0 -198 -83.5t-74 -199.5q0 -120 77 -202.5t208 -82.5q72 0 133.5 42.5t83.5 107.5z" />
    <glyph glyph-name="Egrave" unicode="&#xc8;" horiz-adv-x="544" 
d="M471 618h-302v-229h302v-82h-302v-225h302v-82h-393v700h393v-82z" />
    <glyph glyph-name="Eacute" unicode="&#xc9;" horiz-adv-x="544" 
d="M471 618h-302v-229h302v-82h-302v-225h302v-82h-393v700h393v-82z" />
    <glyph glyph-name="Ecircumflex" unicode="&#xca;" horiz-adv-x="544" 
d="M471 618h-302v-229h302v-82h-302v-225h302v-82h-393v700h393v-82z" />
    <glyph glyph-name="Edieresis" unicode="&#xcb;" horiz-adv-x="544" 
d="M471 618h-302v-229h302v-82h-302v-225h302v-82h-393v700h393v-82z" />
    <glyph glyph-name="Igrave" unicode="&#xcc;" horiz-adv-x="250" 
d="M78 0v700h94v-700h-94z" />
    <glyph glyph-name="Iacute" unicode="&#xcd;" horiz-adv-x="250" 
d="M78 0v700h94v-700h-94z" />
    <glyph glyph-name="Icircumflex" unicode="&#xce;" horiz-adv-x="250" 
d="M78 0v700h94v-700h-94z" />
    <glyph glyph-name="Idieresis" unicode="&#xcf;" horiz-adv-x="250" 
d="M78 0v700h94v-700h-94z" />
    <glyph glyph-name="Eth" unicode="&#xd0;" horiz-adv-x="697" 
d="M78 700h216q84 0 154 -29.5t115 -79t69.5 -112t24.5 -129.5t-24.5 -129.5t-69.5 -112t-115 -79t-154 -29.5h-216v700zM294 618h-125v-536h125q123 0 196 80t73 188t-73 188t-196 80z" />
    <glyph glyph-name="Ntilde" unicode="&#xd1;" horiz-adv-x="663" 
d="M179 700l315 -541v541h91v-700h-101l-315 541v-541h-91v700h101z" />
    <glyph glyph-name="Ograve" unicode="&#xd2;" horiz-adv-x="803" 
d="M402 -16q-162 0 -261.5 108.5t-99.5 257.5t99.5 257.5t261.5 108.5t261.5 -108.5t99.5 -257.5q0 -96 -42.5 -178.5t-126.5 -135t-192 -52.5zM402 66q118 0 191.5 84.5t73.5 199.5t-73.5 199.5t-191.5 84.5q-119 0 -192.5 -84t-73.5 -200q0 -115 73.5 -199.5t192.5 -84.5z
" />
    <glyph glyph-name="Oacute" unicode="&#xd3;" horiz-adv-x="803" 
d="M402 -16q-162 0 -261.5 108.5t-99.5 257.5t99.5 257.5t261.5 108.5t261.5 -108.5t99.5 -257.5q0 -96 -42.5 -178.5t-126.5 -135t-192 -52.5zM402 66q118 0 191.5 84.5t73.5 199.5t-73.5 199.5t-191.5 84.5q-119 0 -192.5 -84t-73.5 -200q0 -115 73.5 -199.5t192.5 -84.5z
" />
    <glyph glyph-name="Ocircumflex" unicode="&#xd4;" horiz-adv-x="803" 
d="M402 -16q-162 0 -261.5 108.5t-99.5 257.5t99.5 257.5t261.5 108.5t261.5 -108.5t99.5 -257.5q0 -96 -42.5 -178.5t-126.5 -135t-192 -52.5zM402 66q118 0 191.5 84.5t73.5 199.5t-73.5 199.5t-191.5 84.5q-119 0 -192.5 -84t-73.5 -200q0 -115 73.5 -199.5t192.5 -84.5z
" />
    <glyph glyph-name="Otilde" unicode="&#xd5;" horiz-adv-x="803" 
d="M402 -16q-162 0 -261.5 108.5t-99.5 257.5t99.5 257.5t261.5 108.5t261.5 -108.5t99.5 -257.5q0 -96 -42.5 -178.5t-126.5 -135t-192 -52.5zM402 66q118 0 191.5 84.5t73.5 199.5t-73.5 199.5t-191.5 84.5q-119 0 -192.5 -84t-73.5 -200q0 -115 73.5 -199.5t192.5 -84.5z
" />
    <glyph glyph-name="Odieresis" unicode="&#xd6;" horiz-adv-x="803" 
d="M402 -16q-162 0 -261.5 108.5t-99.5 257.5t99.5 257.5t261.5 108.5t261.5 -108.5t99.5 -257.5q0 -96 -42.5 -178.5t-126.5 -135t-192 -52.5zM402 66q118 0 191.5 84.5t73.5 199.5t-73.5 199.5t-191.5 84.5q-119 0 -192.5 -84t-73.5 -200q0 -115 73.5 -199.5t192.5 -84.5z
" />
    <glyph glyph-name="Oslash" unicode="&#xd8;" horiz-adv-x="803" 
d="M402 -16q-162 0 -261.5 108.5t-99.5 257.5t99.5 257.5t261.5 108.5t261.5 -108.5t99.5 -257.5q0 -96 -42.5 -178.5t-126.5 -135t-192 -52.5zM402 66q118 0 191.5 84.5t73.5 199.5t-73.5 199.5t-191.5 84.5q-119 0 -192.5 -84t-73.5 -200q0 -115 73.5 -199.5t192.5 -84.5z
" />
    <glyph glyph-name="Ugrave" unicode="&#xd9;" horiz-adv-x="629" 
d="M71 227v473h91v-473q0 -67 42 -114t109 -47q69 0 111.5 47t42.5 114v473h91v-473q0 -102 -67.5 -172.5t-177.5 -70.5q-107 0 -174.5 70.5t-67.5 172.5z" />
    <glyph glyph-name="Uacute" unicode="&#xda;" horiz-adv-x="629" 
d="M71 227v473h91v-473q0 -67 42 -114t109 -47q69 0 111.5 47t42.5 114v473h91v-473q0 -102 -67.5 -172.5t-177.5 -70.5q-107 0 -174.5 70.5t-67.5 172.5z" />
    <glyph glyph-name="Ucircumflex" unicode="&#xdb;" horiz-adv-x="629" 
d="M71 227v473h91v-473q0 -67 42 -114t109 -47q69 0 111.5 47t42.5 114v473h91v-473q0 -102 -67.5 -172.5t-177.5 -70.5q-107 0 -174.5 70.5t-67.5 172.5z" />
    <glyph glyph-name="Udieresis" unicode="&#xdc;" horiz-adv-x="629" 
d="M71 227v473h91v-473q0 -67 42 -114t109 -47q69 0 111.5 47t42.5 114v473h91v-473q0 -102 -67.5 -172.5t-177.5 -70.5q-107 0 -174.5 70.5t-67.5 172.5z" />
    <glyph glyph-name="Yacute" unicode="&#xdd;" horiz-adv-x="591" 
d="M586 700l-352 -700h-100l140 278l-264 422h106l205 -327l165 327h100z" />
    <glyph glyph-name="Thorn" unicode="&#xde;" horiz-adv-x="596" 
d="M78 0v700h246q107 0 173.5 -69.5t66.5 -168.5q0 -100 -66.5 -169.5t-173.5 -69.5h-155v-223h-91zM324 306q67 0 108 45t41 111q0 65 -41.5 110.5t-107.5 45.5h-155v-312h155z" />
    <glyph glyph-name="germandbls" unicode="&#xdf;" horiz-adv-x="904" 
d="M270 253q35 -11 51.5 -18t40.5 -21.5t34 -36t10 -52.5q0 -66 -49 -101t-129 -35t-134 42.5t-54 121.5h85q0 -95 107 -95q91 0 91 65q0 12 -5 22t-11.5 16t-22 13t-27.5 11t-37 11.5t-42 13.5q-63 20 -93 44.5t-30 80.5q0 62 48 96.5t121 34.5q75 0 125 -43t50 -110h-84
q0 40 -23.5 61.5t-68.5 21.5q-37 0 -60.5 -16.5t-23.5 -46.5q0 -9 2.5 -16t6 -12t11 -10.5t14 -8.5t19.5 -8t22 -7.5t27 -8t29 -9.5zM722 253q35 -11 51.5 -18t40.5 -21.5t34 -36t10 -52.5q0 -66 -49 -101t-129 -35t-134 42.5t-54 121.5h85q0 -95 107 -95q91 0 91 65
q0 12 -5 22t-11.5 16t-22 13t-27.5 11t-37 11.5t-42 13.5q-63 20 -93 44.5t-30 80.5q0 62 48 96.5t121 34.5q75 0 125 -43t50 -110h-84q0 40 -23.5 61.5t-68.5 21.5q-37 0 -60.5 -16.5t-23.5 -46.5q0 -9 2.5 -16t6 -12t11 -10.5t14 -8.5t19.5 -8t22 -7.5t27 -8t29 -9.5z" />
    <glyph glyph-name="agrave" unicode="&#xe0;" horiz-adv-x="597" 
d="M433 454h86v-454h-86v79q-22 -41 -65.5 -65.5t-93.5 -24.5q-102 0 -167.5 70t-65.5 168q0 99 65.5 169t167.5 70q50 0 93.5 -24.5t65.5 -65.5v78zM279 67q69 0 111.5 46.5t42.5 113.5t-42.5 114t-111.5 47q-67 0 -109.5 -47t-42.5 -114t42.5 -113.5t109.5 -46.5z" />
    <glyph glyph-name="aacute" unicode="&#xe1;" horiz-adv-x="597" 
d="M433 454h86v-454h-86v79q-22 -41 -65.5 -65.5t-93.5 -24.5q-102 0 -167.5 70t-65.5 168q0 99 65.5 169t167.5 70q50 0 93.5 -24.5t65.5 -65.5v78zM279 67q69 0 111.5 46.5t42.5 113.5t-42.5 114t-111.5 47q-67 0 -109.5 -47t-42.5 -114t42.5 -113.5t109.5 -46.5z" />
    <glyph glyph-name="acircumflex" unicode="&#xe2;" horiz-adv-x="597" 
d="M433 454h86v-454h-86v79q-22 -41 -65.5 -65.5t-93.5 -24.5q-102 0 -167.5 70t-65.5 168q0 99 65.5 169t167.5 70q50 0 93.5 -24.5t65.5 -65.5v78zM279 67q69 0 111.5 46.5t42.5 113.5t-42.5 114t-111.5 47q-67 0 -109.5 -47t-42.5 -114t42.5 -113.5t109.5 -46.5z" />
    <glyph glyph-name="atilde" unicode="&#xe3;" horiz-adv-x="597" 
d="M433 454h86v-454h-86v79q-22 -41 -65.5 -65.5t-93.5 -24.5q-102 0 -167.5 70t-65.5 168q0 99 65.5 169t167.5 70q50 0 93.5 -24.5t65.5 -65.5v78zM279 67q69 0 111.5 46.5t42.5 113.5t-42.5 114t-111.5 47q-67 0 -109.5 -47t-42.5 -114t42.5 -113.5t109.5 -46.5z" />
    <glyph glyph-name="adieresis" unicode="&#xe4;" horiz-adv-x="597" 
d="M433 454h86v-454h-86v79q-22 -41 -65.5 -65.5t-93.5 -24.5q-102 0 -167.5 70t-65.5 168q0 99 65.5 169t167.5 70q50 0 93.5 -24.5t65.5 -65.5v78zM279 67q69 0 111.5 46.5t42.5 113.5t-42.5 114t-111.5 47q-67 0 -109.5 -47t-42.5 -114t42.5 -113.5t109.5 -46.5z" />
    <glyph glyph-name="aring" unicode="&#xe5;" horiz-adv-x="597" 
d="M433 454h86v-454h-86v79q-22 -41 -65.5 -65.5t-93.5 -24.5q-102 0 -167.5 70t-65.5 168q0 99 65.5 169t167.5 70q50 0 93.5 -24.5t65.5 -65.5v78zM279 67q69 0 111.5 46.5t42.5 113.5t-42.5 114t-111.5 47q-67 0 -109.5 -47t-42.5 -114t42.5 -113.5t109.5 -46.5z" />
    <glyph glyph-name="ae" unicode="&#xe6;" horiz-adv-x="1122" 
d="M433 454h86v-454h-86v79q-22 -41 -65.5 -65.5t-93.5 -24.5q-102 0 -167.5 70t-65.5 168q0 99 65.5 169t167.5 70q50 0 93.5 -24.5t65.5 -65.5v78zM279 67q69 0 111.5 46.5t42.5 113.5t-42.5 114t-111.5 47q-67 0 -109.5 -47t-42.5 -114t42.5 -113.5t109.5 -46.5zM862 399
q-60 0 -97 -34.5t-38 -94.5h263q0 58 -36 93.5t-92 35.5zM1070 204h-344q3 -64 37 -103t104 -39q89 0 115 72h88q-12 -61 -66.5 -103t-136.5 -42q-110 0 -168.5 67t-58.5 171q0 106 59.5 172.5t164.5 66.5q89 0 149.5 -59t60.5 -146q0 -32 -4 -57z" />
    <glyph glyph-name="ccedilla" unicode="&#xe7;" horiz-adv-x="529" 
d="M484 289h-87q-12 99 -126 99q-67 0 -104 -46.5t-37 -114.5q0 -69 37 -114.5t109 -45.5q99 0 122 89h87q-11 -75 -65.5 -121t-149.5 -46q-106 0 -166.5 70t-60.5 168t60.5 168.5t165.5 70.5q102 0 155 -51.5t60 -125.5z" />
    <glyph glyph-name="egrave" unicode="&#xe8;" horiz-adv-x="525" 
d="M265 399q-60 0 -97 -34.5t-38 -94.5h263q0 58 -36 93.5t-92 35.5zM473 204h-344q3 -64 37 -103t104 -39q89 0 115 72h88q-12 -61 -66.5 -103t-136.5 -42q-110 0 -168.5 67t-58.5 171q0 106 59.5 172.5t164.5 66.5q89 0 149.5 -59t60.5 -146q0 -32 -4 -57z" />
    <glyph glyph-name="eacute" unicode="&#xe9;" horiz-adv-x="525" 
d="M265 399q-60 0 -97 -34.5t-38 -94.5h263q0 58 -36 93.5t-92 35.5zM473 204h-344q3 -64 37 -103t104 -39q89 0 115 72h88q-12 -61 -66.5 -103t-136.5 -42q-110 0 -168.5 67t-58.5 171q0 106 59.5 172.5t164.5 66.5q89 0 149.5 -59t60.5 -146q0 -32 -4 -57z" />
    <glyph glyph-name="ecircumflex" unicode="&#xea;" horiz-adv-x="525" 
d="M265 399q-60 0 -97 -34.5t-38 -94.5h263q0 58 -36 93.5t-92 35.5zM473 204h-344q3 -64 37 -103t104 -39q89 0 115 72h88q-12 -61 -66.5 -103t-136.5 -42q-110 0 -168.5 67t-58.5 171q0 106 59.5 172.5t164.5 66.5q89 0 149.5 -59t60.5 -146q0 -32 -4 -57z" />
    <glyph glyph-name="edieresis" unicode="&#xeb;" horiz-adv-x="525" 
d="M265 399q-60 0 -97 -34.5t-38 -94.5h263q0 58 -36 93.5t-92 35.5zM473 204h-344q3 -64 37 -103t104 -39q89 0 115 72h88q-12 -61 -66.5 -103t-136.5 -42q-110 0 -168.5 67t-58.5 171q0 106 59.5 172.5t164.5 66.5q89 0 149.5 -59t60.5 -146q0 -32 -4 -57z" />
    <glyph glyph-name="igrave" unicode="&#xec;" horiz-adv-x="243" 
d="M78 0v454h87v-454h-87zM52 626q0 29 20.5 50t48.5 21q29 0 50 -21t21 -50q0 -28 -21 -48.5t-50 -20.5t-49 20.5t-20 48.5z" />
    <glyph glyph-name="iacute" unicode="&#xed;" horiz-adv-x="243" 
d="M78 0v454h87v-454h-87zM52 626q0 29 20.5 50t48.5 21q29 0 50 -21t21 -50q0 -28 -21 -48.5t-50 -20.5t-49 20.5t-20 48.5z" />
    <glyph glyph-name="icircumflex" unicode="&#xee;" horiz-adv-x="243" 
d="M78 0v454h87v-454h-87zM52 626q0 29 20.5 50t48.5 21q29 0 50 -21t21 -50q0 -28 -21 -48.5t-50 -20.5t-49 20.5t-20 48.5z" />
    <glyph glyph-name="idieresis" unicode="&#xef;" horiz-adv-x="243" 
d="M78 0v454h87v-454h-87zM52 626q0 29 20.5 50t48.5 21q29 0 50 -21t21 -50q0 -28 -21 -48.5t-50 -20.5t-49 20.5t-20 48.5z" />
    <glyph glyph-name="ntilde" unicode="&#xf1;" 
d="M78 0v454h87v-80q21 43 62.5 67.5t97.5 24.5q93 0 136 -60q35 -48 35 -138v-268h-87v241q0 148 -115 148q-62 0 -95.5 -45t-33.5 -110v-234h-87z" />
    <glyph glyph-name="ograve" unicode="&#xf2;" horiz-adv-x="560" 
d="M279 -11q-105 0 -171.5 69.5t-66.5 168.5q0 100 66.5 169.5t171.5 69.5q107 0 173.5 -69.5t66.5 -169.5q0 -99 -66.5 -168.5t-173.5 -69.5zM279 67q69 0 111.5 46.5t42.5 113.5t-42.5 114t-111.5 47q-67 0 -109.5 -47t-42.5 -114t42.5 -113.5t109.5 -46.5z" />
    <glyph glyph-name="oacute" unicode="&#xf3;" horiz-adv-x="560" 
d="M279 -11q-105 0 -171.5 69.5t-66.5 168.5q0 100 66.5 169.5t171.5 69.5q107 0 173.5 -69.5t66.5 -169.5q0 -99 -66.5 -168.5t-173.5 -69.5zM279 67q69 0 111.5 46.5t42.5 113.5t-42.5 114t-111.5 47q-67 0 -109.5 -47t-42.5 -114t42.5 -113.5t109.5 -46.5z" />
    <glyph glyph-name="ocircumflex" unicode="&#xf4;" horiz-adv-x="560" 
d="M279 -11q-105 0 -171.5 69.5t-66.5 168.5q0 100 66.5 169.5t171.5 69.5q107 0 173.5 -69.5t66.5 -169.5q0 -99 -66.5 -168.5t-173.5 -69.5zM279 67q69 0 111.5 46.5t42.5 113.5t-42.5 114t-111.5 47q-67 0 -109.5 -47t-42.5 -114t42.5 -113.5t109.5 -46.5z" />
    <glyph glyph-name="otilde" unicode="&#xf5;" horiz-adv-x="560" 
d="M279 -11q-105 0 -171.5 69.5t-66.5 168.5q0 100 66.5 169.5t171.5 69.5q107 0 173.5 -69.5t66.5 -169.5q0 -99 -66.5 -168.5t-173.5 -69.5zM279 67q69 0 111.5 46.5t42.5 113.5t-42.5 114t-111.5 47q-67 0 -109.5 -47t-42.5 -114t42.5 -113.5t109.5 -46.5z" />
    <glyph glyph-name="odieresis" unicode="&#xf6;" horiz-adv-x="560" 
d="M279 -11q-105 0 -171.5 69.5t-66.5 168.5q0 100 66.5 169.5t171.5 69.5q107 0 173.5 -69.5t66.5 -169.5q0 -99 -66.5 -168.5t-173.5 -69.5zM279 67q69 0 111.5 46.5t42.5 113.5t-42.5 114t-111.5 47q-67 0 -109.5 -47t-42.5 -114t42.5 -113.5t109.5 -46.5z" />
    <glyph glyph-name="oslash" unicode="&#xf8;" horiz-adv-x="560" 
d="M279 -11q-105 0 -171.5 69.5t-66.5 168.5q0 100 66.5 169.5t171.5 69.5q107 0 173.5 -69.5t66.5 -169.5q0 -99 -66.5 -168.5t-173.5 -69.5zM279 67q69 0 111.5 46.5t42.5 113.5t-42.5 114t-111.5 47q-67 0 -109.5 -47t-42.5 -114t42.5 -113.5t109.5 -46.5z" />
    <glyph glyph-name="ugrave" unicode="&#xf9;" 
d="M400 454h87v-454h-87v81q-21 -42 -62.5 -67t-97.5 -25q-94 0 -137 59q-34 46 -34 138v268h87v-240q0 -148 114 -148q63 0 96.5 44.5t33.5 110.5v233z" />
    <glyph glyph-name="uacute" unicode="&#xfa;" 
d="M400 454h87v-454h-87v81q-21 -42 -62.5 -67t-97.5 -25q-94 0 -137 59q-34 46 -34 138v268h87v-240q0 -148 114 -148q63 0 96.5 44.5t33.5 110.5v233z" />
    <glyph glyph-name="ucircumflex" unicode="&#xfb;" 
d="M400 454h87v-454h-87v81q-21 -42 -62.5 -67t-97.5 -25q-94 0 -137 59q-34 46 -34 138v268h87v-240q0 -148 114 -148q63 0 96.5 44.5t33.5 110.5v233z" />
    <glyph glyph-name="udieresis" unicode="&#xfc;" 
d="M400 454h87v-454h-87v81q-21 -42 -62.5 -67t-97.5 -25q-94 0 -137 59q-34 46 -34 138v268h87v-240q0 -148 114 -148q63 0 96.5 44.5t33.5 110.5v233z" />
    <glyph glyph-name="yacute" unicode="&#xfd;" horiz-adv-x="573" 
d="M282 -256q-98 0 -154 50t-58 147h88q8 -123 126 -123q63 0 95 30.5t32 104.5v128q-21 -43 -62 -67.5t-97 -24.5q-94 0 -138 58q-34 46 -34 142v265h87v-238q0 -72 26 -111t90 -39q62 0 95 44.5t33 110.5v233h87v-501q0 -209 -216 -209z" />
    <glyph glyph-name="thorn" unicode="&#xfe;" horiz-adv-x="599" 
d="M165 454v-78q22 41 65 65.5t93 24.5q103 0 168.5 -70t65.5 -169t-65.5 -168.5t-168.5 -69.5q-50 0 -93 24.5t-65 65.5v-325h-87v700h87zM319 388q-69 0 -111.5 -47t-42.5 -114t42.5 -113.5t111.5 -46.5q67 0 109 46.5t42 113.5t-42 114t-109 47z" />
    <glyph glyph-name="ydieresis" unicode="&#xff;" horiz-adv-x="573" 
d="M282 -256q-98 0 -154 50t-58 147h88q8 -123 126 -123q63 0 95 30.5t32 104.5v128q-21 -43 -62 -67.5t-97 -24.5q-94 0 -138 58q-34 46 -34 142v265h87v-238q0 -72 26 -111t90 -39q62 0 95 44.5t33 110.5v233h87v-501q0 -209 -216 -209z" />
    <glyph glyph-name="Amacron" unicode="&#x100;" horiz-adv-x="559" 
d="M554 0h-96l-37 107h-284l-36 -107h-96l241 700h66zM393 190l-113 361l-115 -361h228z" />
    <glyph glyph-name="amacron" unicode="&#x101;" horiz-adv-x="597" 
d="M433 454h86v-454h-86v79q-22 -41 -65.5 -65.5t-93.5 -24.5q-102 0 -167.5 70t-65.5 168q0 99 65.5 169t167.5 70q50 0 93.5 -24.5t65.5 -65.5v78zM279 67q69 0 111.5 46.5t42.5 113.5t-42.5 114t-111.5 47q-67 0 -109.5 -47t-42.5 -114t42.5 -113.5t109.5 -46.5z" />
    <glyph glyph-name="Abreve" unicode="&#x102;" horiz-adv-x="559" 
d="M554 0h-96l-37 107h-284l-36 -107h-96l241 700h66zM393 190l-113 361l-115 -361h228z" />
    <glyph glyph-name="abreve" unicode="&#x103;" horiz-adv-x="597" 
d="M433 454h86v-454h-86v79q-22 -41 -65.5 -65.5t-93.5 -24.5q-102 0 -167.5 70t-65.5 168q0 99 65.5 169t167.5 70q50 0 93.5 -24.5t65.5 -65.5v78zM279 67q69 0 111.5 46.5t42.5 113.5t-42.5 114t-111.5 47q-67 0 -109.5 -47t-42.5 -114t42.5 -113.5t109.5 -46.5z" />
    <glyph glyph-name="Aogonek" unicode="&#x104;" horiz-adv-x="559" 
d="M554 0h-96l-37 107h-284l-36 -107h-96l241 700h66zM393 190l-113 361l-115 -361h228z" />
    <glyph glyph-name="aogonek" unicode="&#x105;" horiz-adv-x="597" 
d="M433 454h86v-454h-86v79q-22 -41 -65.5 -65.5t-93.5 -24.5q-102 0 -167.5 70t-65.5 168q0 99 65.5 169t167.5 70q50 0 93.5 -24.5t65.5 -65.5v78zM279 67q69 0 111.5 46.5t42.5 113.5t-42.5 114t-111.5 47q-67 0 -109.5 -47t-42.5 -114t42.5 -113.5t109.5 -46.5z" />
    <glyph glyph-name="Cacute" unicode="&#x106;" horiz-adv-x="775" 
d="M636 216h100q-27 -101 -116.5 -166.5t-211.5 -65.5q-166 0 -266.5 107t-100.5 260q0 149 98 257t256 108q146 0 233 -72.5t108 -188.5h-96q-16 79 -78 129t-156 50q-124 0 -198 -83.5t-74 -199.5q0 -120 77 -202.5t208 -82.5q72 0 133.5 42.5t83.5 107.5z" />
    <glyph glyph-name="cacute" unicode="&#x107;" horiz-adv-x="529" 
d="M484 289h-87q-12 99 -126 99q-67 0 -104 -46.5t-37 -114.5q0 -69 37 -114.5t109 -45.5q99 0 122 89h87q-11 -75 -65.5 -121t-149.5 -46q-106 0 -166.5 70t-60.5 168t60.5 168.5t165.5 70.5q102 0 155 -51.5t60 -125.5z" />
    <glyph glyph-name="Ccircumflex" unicode="&#x108;" horiz-adv-x="775" 
d="M636 216h100q-27 -101 -116.5 -166.5t-211.5 -65.5q-166 0 -266.5 107t-100.5 260q0 149 98 257t256 108q146 0 233 -72.5t108 -188.5h-96q-16 79 -78 129t-156 50q-124 0 -198 -83.5t-74 -199.5q0 -120 77 -202.5t208 -82.5q72 0 133.5 42.5t83.5 107.5z" />
    <glyph glyph-name="ccircumflex" unicode="&#x109;" horiz-adv-x="529" 
d="M484 289h-87q-12 99 -126 99q-67 0 -104 -46.5t-37 -114.5q0 -69 37 -114.5t109 -45.5q99 0 122 89h87q-11 -75 -65.5 -121t-149.5 -46q-106 0 -166.5 70t-60.5 168t60.5 168.5t165.5 70.5q102 0 155 -51.5t60 -125.5z" />
    <glyph glyph-name="Cdotaccent" unicode="&#x10a;" horiz-adv-x="775" 
d="M636 216h100q-27 -101 -116.5 -166.5t-211.5 -65.5q-166 0 -266.5 107t-100.5 260q0 149 98 257t256 108q146 0 233 -72.5t108 -188.5h-96q-16 79 -78 129t-156 50q-124 0 -198 -83.5t-74 -199.5q0 -120 77 -202.5t208 -82.5q72 0 133.5 42.5t83.5 107.5z" />
    <glyph glyph-name="cdotaccent" unicode="&#x10b;" horiz-adv-x="529" 
d="M484 289h-87q-12 99 -126 99q-67 0 -104 -46.5t-37 -114.5q0 -69 37 -114.5t109 -45.5q99 0 122 89h87q-11 -75 -65.5 -121t-149.5 -46q-106 0 -166.5 70t-60.5 168t60.5 168.5t165.5 70.5q102 0 155 -51.5t60 -125.5z" />
    <glyph glyph-name="Ccaron" unicode="&#x10c;" horiz-adv-x="775" 
d="M636 216h100q-27 -101 -116.5 -166.5t-211.5 -65.5q-166 0 -266.5 107t-100.5 260q0 149 98 257t256 108q146 0 233 -72.5t108 -188.5h-96q-16 79 -78 129t-156 50q-124 0 -198 -83.5t-74 -199.5q0 -120 77 -202.5t208 -82.5q72 0 133.5 42.5t83.5 107.5z" />
    <glyph glyph-name="ccaron" unicode="&#x10d;" horiz-adv-x="529" 
d="M484 289h-87q-12 99 -126 99q-67 0 -104 -46.5t-37 -114.5q0 -69 37 -114.5t109 -45.5q99 0 122 89h87q-11 -75 -65.5 -121t-149.5 -46q-106 0 -166.5 70t-60.5 168t60.5 168.5t165.5 70.5q102 0 155 -51.5t60 -125.5z" />
    <glyph glyph-name="Dcaron" unicode="&#x10e;" horiz-adv-x="697" 
d="M78 700h216q84 0 154 -29.5t115 -79t69.5 -112t24.5 -129.5t-24.5 -129.5t-69.5 -112t-115 -79t-154 -29.5h-216v700zM294 618h-125v-536h125q123 0 196 80t73 188t-73 188t-196 80z" />
    <glyph glyph-name="dcaron" unicode="&#x10f;" horiz-adv-x="597" 
d="M433 0v79q-22 -41 -65.5 -65.5t-93.5 -24.5q-102 0 -167.5 70t-65.5 168q0 99 65.5 169t167.5 70q50 0 93.5 -24.5t65.5 -65.5v324h86v-700h-86zM279 67q69 0 111.5 46.5t42.5 113.5t-42.5 114t-111.5 47q-67 0 -109.5 -47t-42.5 -114t42.5 -113.5t109.5 -46.5z" />
    <glyph glyph-name="Dcroat" unicode="&#x110;" horiz-adv-x="697" 
d="M78 700h216q84 0 154 -29.5t115 -79t69.5 -112t24.5 -129.5t-24.5 -129.5t-69.5 -112t-115 -79t-154 -29.5h-216v700zM294 618h-125v-536h125q123 0 196 80t73 188t-73 188t-196 80z" />
    <glyph glyph-name="dcroat" unicode="&#x111;" horiz-adv-x="597" 
d="M433 0v79q-22 -41 -65.5 -65.5t-93.5 -24.5q-102 0 -167.5 70t-65.5 168q0 99 65.5 169t167.5 70q50 0 93.5 -24.5t65.5 -65.5v324h86v-700h-86zM279 67q69 0 111.5 46.5t42.5 113.5t-42.5 114t-111.5 47q-67 0 -109.5 -47t-42.5 -114t42.5 -113.5t109.5 -46.5z" />
    <glyph glyph-name="Emacron" unicode="&#x112;" horiz-adv-x="544" 
d="M471 618h-302v-229h302v-82h-302v-225h302v-82h-393v700h393v-82z" />
    <glyph glyph-name="emacron" unicode="&#x113;" horiz-adv-x="525" 
d="M265 399q-60 0 -97 -34.5t-38 -94.5h263q0 58 -36 93.5t-92 35.5zM473 204h-344q3 -64 37 -103t104 -39q89 0 115 72h88q-12 -61 -66.5 -103t-136.5 -42q-110 0 -168.5 67t-58.5 171q0 106 59.5 172.5t164.5 66.5q89 0 149.5 -59t60.5 -146q0 -32 -4 -57z" />
    <glyph glyph-name="Ebreve" unicode="&#x114;" horiz-adv-x="544" 
d="M471 618h-302v-229h302v-82h-302v-225h302v-82h-393v700h393v-82z" />
    <glyph glyph-name="ebreve" unicode="&#x115;" horiz-adv-x="525" 
d="M265 399q-60 0 -97 -34.5t-38 -94.5h263q0 58 -36 93.5t-92 35.5zM473 204h-344q3 -64 37 -103t104 -39q89 0 115 72h88q-12 -61 -66.5 -103t-136.5 -42q-110 0 -168.5 67t-58.5 171q0 106 59.5 172.5t164.5 66.5q89 0 149.5 -59t60.5 -146q0 -32 -4 -57z" />
    <glyph glyph-name="Edotaccent" unicode="&#x116;" horiz-adv-x="544" 
d="M471 618h-302v-229h302v-82h-302v-225h302v-82h-393v700h393v-82z" />
    <glyph glyph-name="edotaccent" unicode="&#x117;" horiz-adv-x="525" 
d="M265 399q-60 0 -97 -34.5t-38 -94.5h263q0 58 -36 93.5t-92 35.5zM473 204h-344q3 -64 37 -103t104 -39q89 0 115 72h88q-12 -61 -66.5 -103t-136.5 -42q-110 0 -168.5 67t-58.5 171q0 106 59.5 172.5t164.5 66.5q89 0 149.5 -59t60.5 -146q0 -32 -4 -57z" />
    <glyph glyph-name="Eogonek" unicode="&#x118;" horiz-adv-x="544" 
d="M471 618h-302v-229h302v-82h-302v-225h302v-82h-393v700h393v-82z" />
    <glyph glyph-name="eogonek" unicode="&#x119;" horiz-adv-x="525" 
d="M265 399q-60 0 -97 -34.5t-38 -94.5h263q0 58 -36 93.5t-92 35.5zM473 204h-344q3 -64 37 -103t104 -39q89 0 115 72h88q-12 -61 -66.5 -103t-136.5 -42q-110 0 -168.5 67t-58.5 171q0 106 59.5 172.5t164.5 66.5q89 0 149.5 -59t60.5 -146q0 -32 -4 -57z" />
    <glyph glyph-name="Ecaron" unicode="&#x11a;" horiz-adv-x="544" 
d="M471 618h-302v-229h302v-82h-302v-225h302v-82h-393v700h393v-82z" />
    <glyph glyph-name="ecaron" unicode="&#x11b;" horiz-adv-x="525" 
d="M265 399q-60 0 -97 -34.5t-38 -94.5h263q0 58 -36 93.5t-92 35.5zM473 204h-344q3 -64 37 -103t104 -39q89 0 115 72h88q-12 -61 -66.5 -103t-136.5 -42q-110 0 -168.5 67t-58.5 171q0 106 59.5 172.5t164.5 66.5q89 0 149.5 -59t60.5 -146q0 -32 -4 -57z" />
    <glyph glyph-name="Gcircumflex" unicode="&#x11c;" horiz-adv-x="836" 
d="M473 255v82h337v-82h-75q-21 -125 -107 -198t-228 -73q-84 0 -153 30.5t-113.5 81.5t-68.5 116.5t-24 137.5q0 149 99.5 257.5t259.5 108.5q116 0 198 -61t95 -150h-92q-14 55 -69.5 92t-131.5 37q-120 0 -193 -84t-73 -200q0 -118 73 -201t204 -83q98 0 157 53t70 136
h-165z" />
    <glyph glyph-name="gcircumflex" unicode="&#x11d;" horiz-adv-x="595" 
d="M279 388q-67 0 -109.5 -47t-42.5 -114t42.5 -113.5t109.5 -46.5q69 0 111.5 46.5t42.5 113.5t-42.5 114t-111.5 47zM519 454v-483q0 -227 -242 -227q-109 0 -167 57t-63 141h88q4 -52 39.5 -86.5t102.5 -34.5q156 0 156 150v108q-22 -41 -65.5 -65.5t-93.5 -24.5
q-102 0 -167.5 70t-65.5 168q0 99 65.5 169t167.5 70q50 0 93.5 -24.5t65.5 -65.5v78h86z" />
    <glyph glyph-name="Gbreve" unicode="&#x11e;" horiz-adv-x="836" 
d="M473 255v82h337v-82h-75q-21 -125 -107 -198t-228 -73q-84 0 -153 30.5t-113.5 81.5t-68.5 116.5t-24 137.5q0 149 99.5 257.5t259.5 108.5q116 0 198 -61t95 -150h-92q-14 55 -69.5 92t-131.5 37q-120 0 -193 -84t-73 -200q0 -118 73 -201t204 -83q98 0 157 53t70 136
h-165z" />
    <glyph glyph-name="gbreve" unicode="&#x11f;" horiz-adv-x="595" 
d="M279 388q-67 0 -109.5 -47t-42.5 -114t42.5 -113.5t109.5 -46.5q69 0 111.5 46.5t42.5 113.5t-42.5 114t-111.5 47zM519 454v-483q0 -227 -242 -227q-109 0 -167 57t-63 141h88q4 -52 39.5 -86.5t102.5 -34.5q156 0 156 150v108q-22 -41 -65.5 -65.5t-93.5 -24.5
q-102 0 -167.5 70t-65.5 168q0 99 65.5 169t167.5 70q50 0 93.5 -24.5t65.5 -65.5v78h86z" />
    <glyph glyph-name="Gdotaccent" unicode="&#x120;" horiz-adv-x="836" 
d="M473 255v82h337v-82h-75q-21 -125 -107 -198t-228 -73q-84 0 -153 30.5t-113.5 81.5t-68.5 116.5t-24 137.5q0 149 99.5 257.5t259.5 108.5q116 0 198 -61t95 -150h-92q-14 55 -69.5 92t-131.5 37q-120 0 -193 -84t-73 -200q0 -118 73 -201t204 -83q98 0 157 53t70 136
h-165z" />
    <glyph glyph-name="gdotaccent" unicode="&#x121;" horiz-adv-x="595" 
d="M279 388q-67 0 -109.5 -47t-42.5 -114t42.5 -113.5t109.5 -46.5q69 0 111.5 46.5t42.5 113.5t-42.5 114t-111.5 47zM519 454v-483q0 -227 -242 -227q-109 0 -167 57t-63 141h88q4 -52 39.5 -86.5t102.5 -34.5q156 0 156 150v108q-22 -41 -65.5 -65.5t-93.5 -24.5
q-102 0 -167.5 70t-65.5 168q0 99 65.5 169t167.5 70q50 0 93.5 -24.5t65.5 -65.5v78h86z" />
    <glyph glyph-name="Gcommaaccent" unicode="&#x122;" horiz-adv-x="836" 
d="M473 255v82h337v-82h-75q-21 -125 -107 -198t-228 -73q-84 0 -153 30.5t-113.5 81.5t-68.5 116.5t-24 137.5q0 149 99.5 257.5t259.5 108.5q116 0 198 -61t95 -150h-92q-14 55 -69.5 92t-131.5 37q-120 0 -193 -84t-73 -200q0 -118 73 -201t204 -83q98 0 157 53t70 136
h-165z" />
    <glyph glyph-name="gcommaaccent" unicode="&#x123;" horiz-adv-x="595" 
d="M279 388q-67 0 -109.5 -47t-42.5 -114t42.5 -113.5t109.5 -46.5q69 0 111.5 46.5t42.5 113.5t-42.5 114t-111.5 47zM519 454v-483q0 -227 -242 -227q-109 0 -167 57t-63 141h88q4 -52 39.5 -86.5t102.5 -34.5q156 0 156 150v108q-22 -41 -65.5 -65.5t-93.5 -24.5
q-102 0 -167.5 70t-65.5 168q0 99 65.5 169t167.5 70q50 0 93.5 -24.5t65.5 -65.5v78h86z" />
    <glyph glyph-name="Hcircumflex" unicode="&#x124;" horiz-adv-x="664" 
d="M495 0v307h-326v-307h-91v700h91v-311h326v311h91v-700h-91z" />
    <glyph glyph-name="hcircumflex" unicode="&#x125;" 
d="M78 0v700h87v-326q21 43 62.5 67.5t97.5 24.5q93 0 136 -60q35 -48 35 -138v-268h-87v241q0 148 -115 148q-62 0 -95.5 -45t-33.5 -110v-234h-87z" />
    <glyph glyph-name="Hbar" unicode="&#x126;" horiz-adv-x="664" 
d="M495 0v307h-326v-307h-91v700h91v-311h326v311h91v-700h-91z" />
    <glyph glyph-name="hbar" unicode="&#x127;" 
d="M78 0v700h87v-326q21 43 62.5 67.5t97.5 24.5q93 0 136 -60q35 -48 35 -138v-268h-87v241q0 148 -115 148q-62 0 -95.5 -45t-33.5 -110v-234h-87z" />
    <glyph glyph-name="Itilde" unicode="&#x128;" horiz-adv-x="250" 
d="M78 0v700h94v-700h-94z" />
    <glyph glyph-name="itilde" unicode="&#x129;" horiz-adv-x="243" 
d="M78 0v454h87v-454h-87zM52 626q0 29 20.5 50t48.5 21q29 0 50 -21t21 -50q0 -28 -21 -48.5t-50 -20.5t-49 20.5t-20 48.5z" />
    <glyph glyph-name="Imacron" unicode="&#x12a;" horiz-adv-x="250" 
d="M78 0v700h94v-700h-94z" />
    <glyph glyph-name="imacron" unicode="&#x12b;" horiz-adv-x="243" 
d="M78 0v454h87v-454h-87zM52 626q0 29 20.5 50t48.5 21q29 0 50 -21t21 -50q0 -28 -21 -48.5t-50 -20.5t-49 20.5t-20 48.5z" />
    <glyph glyph-name="Ibreve" unicode="&#x12c;" horiz-adv-x="250" 
d="M78 0v700h94v-700h-94z" />
    <glyph glyph-name="ibreve" unicode="&#x12d;" horiz-adv-x="243" 
d="M78 0v454h87v-454h-87zM52 626q0 29 20.5 50t48.5 21q29 0 50 -21t21 -50q0 -28 -21 -48.5t-50 -20.5t-49 20.5t-20 48.5z" />
    <glyph glyph-name="Iogonek" unicode="&#x12e;" horiz-adv-x="250" 
d="M78 0v700h94v-700h-94z" />
    <glyph glyph-name="iogonek" unicode="&#x12f;" horiz-adv-x="243" 
d="M78 0v454h87v-454h-87zM52 626q0 29 20.5 50t48.5 21q29 0 50 -21t21 -50q0 -28 -21 -48.5t-50 -20.5t-49 20.5t-20 48.5z" />
    <glyph glyph-name="Idotaccent" unicode="&#x130;" horiz-adv-x="250" 
d="M78 0v700h94v-700h-94z" />
    <glyph glyph-name="dotlessi" unicode="&#x131;" horiz-adv-x="243" 
d="M78 0v454h87v-454h-87zM52 626q0 29 20.5 50t48.5 21q29 0 50 -21t21 -50q0 -28 -21 -48.5t-50 -20.5t-49 20.5t-20 48.5z" />
    <glyph glyph-name="IJ" unicode="&#x132;" horiz-adv-x="786" 
d="M78 0v700h94v-700h-94zM715 700v-478q0 -105 -60.5 -171.5t-163.5 -66.5t-165 67t-62 171h91q0 -70 37 -113t99 -43t97.5 42.5t35.5 113.5v478h91z" />
    <glyph glyph-name="ij" unicode="&#x133;" horiz-adv-x="486" 
d="M78 0v454h87v-454h-87zM52 626q0 29 20.5 50t48.5 21q29 0 50 -21t21 -50q0 -28 -21 -48.5t-50 -20.5t-49 20.5t-20 48.5zM408 454v-576q0 -69 -30 -101t-76 -32q-45 0 -71 12v77q25 -6 44 -6q46 0 46 63v563h87zM295 626q0 29 20.5 50t48.5 21q30 0 50.5 -21t20.5 -50
t-20.5 -49t-50.5 -20q-28 0 -48.5 20.5t-20.5 48.5z" />
    <glyph glyph-name="Jcircumflex" unicode="&#x134;" horiz-adv-x="536" 
d="M465 700v-478q0 -105 -60.5 -171.5t-163.5 -66.5t-165 67t-62 171h91q0 -70 37 -113t99 -43t97.5 42.5t35.5 113.5v478h91z" />
    <glyph glyph-name="jcircumflex" unicode="&#x135;" horiz-adv-x="243" 
d="M165 454v-576q0 -69 -30 -101t-76 -32q-45 0 -71 12v77q25 -6 44 -6q46 0 46 63v563h87zM52 626q0 29 20.5 50t48.5 21q30 0 50.5 -21t20.5 -50t-20.5 -49t-50.5 -20q-29 0 -49 20.5t-20 48.5z" />
    <glyph glyph-name="Kcommaaccent" unicode="&#x136;" horiz-adv-x="590" 
d="M463 0l-294 318v-318h-91v700h91v-318l294 318h115l-320 -350l320 -350h-115z" />
    <glyph glyph-name="kcommaaccent" unicode="&#x137;" horiz-adv-x="477" 
d="M465 454l-207 -227l207 -227h-110l-190 206v-206h-87v700h87v-453l190 207h110z" />
    <glyph glyph-name="kgreenlandic" unicode="&#x138;" horiz-adv-x="477" 
d="M465 454l-207 -227l207 -227h-110l-190 206v-206h-87v700h87v-453l190 207h110z" />
    <glyph glyph-name="Lacute" unicode="&#x139;" horiz-adv-x="425" 
d="M169 82h229v-82h-320v700h91v-618z" />
    <glyph glyph-name="lacute" unicode="&#x13a;" horiz-adv-x="243" 
d="M78 0v700h87v-700h-87z" />
    <glyph glyph-name="Lcommaaccent" unicode="&#x13b;" horiz-adv-x="425" 
d="M169 82h229v-82h-320v700h91v-618z" />
    <glyph glyph-name="lcommaaccent" unicode="&#x13c;" horiz-adv-x="243" 
d="M78 0v700h87v-700h-87z" />
    <glyph glyph-name="Lcaron" unicode="&#x13d;" horiz-adv-x="425" 
d="M169 82h229v-82h-320v700h91v-618z" />
    <glyph glyph-name="lcaron" unicode="&#x13e;" horiz-adv-x="243" 
d="M78 0v700h87v-700h-87z" />
    <glyph glyph-name="Ldot" unicode="&#x13f;" horiz-adv-x="425" 
d="M169 82h229v-82h-320v700h91v-618z" />
    <glyph glyph-name="ldot" unicode="&#x140;" horiz-adv-x="243" 
d="M78 0v700h87v-700h-87z" />
    <glyph glyph-name="Lslash" unicode="&#x141;" horiz-adv-x="425" 
d="M169 82h229v-82h-320v700h91v-618z" />
    <glyph glyph-name="lslash" unicode="&#x142;" horiz-adv-x="243" 
d="M78 0v700h87v-700h-87z" />
    <glyph glyph-name="Nacute" unicode="&#x143;" horiz-adv-x="663" 
d="M179 700l315 -541v541h91v-700h-101l-315 541v-541h-91v700h101z" />
    <glyph glyph-name="nacute" unicode="&#x144;" 
d="M78 0v454h87v-80q21 43 62.5 67.5t97.5 24.5q93 0 136 -60q35 -48 35 -138v-268h-87v241q0 148 -115 148q-62 0 -95.5 -45t-33.5 -110v-234h-87z" />
    <glyph glyph-name="Ncommaaccent" unicode="&#x145;" horiz-adv-x="663" 
d="M179 700l315 -541v541h91v-700h-101l-315 541v-541h-91v700h101z" />
    <glyph glyph-name="ncommaaccent" unicode="&#x146;" 
d="M78 0v454h87v-80q21 43 62.5 67.5t97.5 24.5q93 0 136 -60q35 -48 35 -138v-268h-87v241q0 148 -115 148q-62 0 -95.5 -45t-33.5 -110v-234h-87z" />
    <glyph glyph-name="Ncaron" unicode="&#x147;" horiz-adv-x="663" 
d="M179 700l315 -541v541h91v-700h-101l-315 541v-541h-91v700h101z" />
    <glyph glyph-name="ncaron" unicode="&#x148;" 
d="M78 0v454h87v-80q21 43 62.5 67.5t97.5 24.5q93 0 136 -60q35 -48 35 -138v-268h-87v241q0 148 -115 148q-62 0 -95.5 -45t-33.5 -110v-234h-87z" />
    <glyph glyph-name="napostrophe" unicode="&#x149;" 
d="M78 0v454h87v-80q21 43 62.5 67.5t97.5 24.5q93 0 136 -60q35 -48 35 -138v-268h-87v241q0 148 -115 148q-62 0 -95.5 -45t-33.5 -110v-234h-87z" />
    <glyph glyph-name="Eng" unicode="&#x14a;" horiz-adv-x="663" 
d="M179 700l315 -541v541h91v-700h-101l-315 541v-541h-91v700h101z" />
    <glyph glyph-name="eng" unicode="&#x14b;" 
d="M78 0v454h87v-80q21 43 62.5 67.5t97.5 24.5q93 0 136 -60q35 -48 35 -138v-268h-87v241q0 148 -115 148q-62 0 -95.5 -45t-33.5 -110v-234h-87z" />
    <glyph glyph-name="Omacron" unicode="&#x14c;" horiz-adv-x="803" 
d="M402 -16q-162 0 -261.5 108.5t-99.5 257.5t99.5 257.5t261.5 108.5t261.5 -108.5t99.5 -257.5q0 -96 -42.5 -178.5t-126.5 -135t-192 -52.5zM402 66q118 0 191.5 84.5t73.5 199.5t-73.5 199.5t-191.5 84.5q-119 0 -192.5 -84t-73.5 -200q0 -115 73.5 -199.5t192.5 -84.5z
" />
    <glyph glyph-name="omacron" unicode="&#x14d;" horiz-adv-x="560" 
d="M279 -11q-105 0 -171.5 69.5t-66.5 168.5q0 100 66.5 169.5t171.5 69.5q107 0 173.5 -69.5t66.5 -169.5q0 -99 -66.5 -168.5t-173.5 -69.5zM279 67q69 0 111.5 46.5t42.5 113.5t-42.5 114t-111.5 47q-67 0 -109.5 -47t-42.5 -114t42.5 -113.5t109.5 -46.5z" />
    <glyph glyph-name="Obreve" unicode="&#x14e;" horiz-adv-x="803" 
d="M402 -16q-162 0 -261.5 108.5t-99.5 257.5t99.5 257.5t261.5 108.5t261.5 -108.5t99.5 -257.5q0 -96 -42.5 -178.5t-126.5 -135t-192 -52.5zM402 66q118 0 191.5 84.5t73.5 199.5t-73.5 199.5t-191.5 84.5q-119 0 -192.5 -84t-73.5 -200q0 -115 73.5 -199.5t192.5 -84.5z
" />
    <glyph glyph-name="obreve" unicode="&#x14f;" horiz-adv-x="560" 
d="M279 -11q-105 0 -171.5 69.5t-66.5 168.5q0 100 66.5 169.5t171.5 69.5q107 0 173.5 -69.5t66.5 -169.5q0 -99 -66.5 -168.5t-173.5 -69.5zM279 67q69 0 111.5 46.5t42.5 113.5t-42.5 114t-111.5 47q-67 0 -109.5 -47t-42.5 -114t42.5 -113.5t109.5 -46.5z" />
    <glyph glyph-name="Ohungarumlaut" unicode="&#x150;" horiz-adv-x="803" 
d="M402 -16q-162 0 -261.5 108.5t-99.5 257.5t99.5 257.5t261.5 108.5t261.5 -108.5t99.5 -257.5q0 -96 -42.5 -178.5t-126.5 -135t-192 -52.5zM402 66q118 0 191.5 84.5t73.5 199.5t-73.5 199.5t-191.5 84.5q-119 0 -192.5 -84t-73.5 -200q0 -115 73.5 -199.5t192.5 -84.5z
" />
    <glyph glyph-name="ohungarumlaut" unicode="&#x151;" horiz-adv-x="560" 
d="M279 -11q-105 0 -171.5 69.5t-66.5 168.5q0 100 66.5 169.5t171.5 69.5q107 0 173.5 -69.5t66.5 -169.5q0 -99 -66.5 -168.5t-173.5 -69.5zM279 67q69 0 111.5 46.5t42.5 113.5t-42.5 114t-111.5 47q-67 0 -109.5 -47t-42.5 -114t42.5 -113.5t109.5 -46.5z" />
    <glyph glyph-name="OE" unicode="&#x152;" horiz-adv-x="1347" 
d="M402 -16q-162 0 -261.5 108.5t-99.5 257.5t99.5 257.5t261.5 108.5t261.5 -108.5t99.5 -257.5q0 -96 -42.5 -178.5t-126.5 -135t-192 -52.5zM402 66q118 0 191.5 84.5t73.5 199.5t-73.5 199.5t-191.5 84.5q-119 0 -192.5 -84t-73.5 -200q0 -115 73.5 -199.5t192.5 -84.5z
M1274 618h-302v-229h302v-82h-302v-225h302v-82h-393v700h393v-82z" />
    <glyph glyph-name="oe" unicode="&#x153;" horiz-adv-x="1085" 
d="M279 -11q-105 0 -171.5 69.5t-66.5 168.5q0 100 66.5 169.5t171.5 69.5q107 0 173.5 -69.5t66.5 -169.5q0 -99 -66.5 -168.5t-173.5 -69.5zM279 67q69 0 111.5 46.5t42.5 113.5t-42.5 114t-111.5 47q-67 0 -109.5 -47t-42.5 -114t42.5 -113.5t109.5 -46.5zM825 399
q-60 0 -97 -34.5t-38 -94.5h263q0 58 -36 93.5t-92 35.5zM1033 204h-344q3 -64 37 -103t104 -39q89 0 115 72h88q-12 -61 -66.5 -103t-136.5 -42q-110 0 -168.5 67t-58.5 171q0 106 59.5 172.5t164.5 66.5q89 0 149.5 -59t60.5 -146q0 -32 -4 -57z" />
    <glyph glyph-name="Racute" unicode="&#x154;" horiz-adv-x="606" 
d="M78 0v700h246q107 0 173.5 -69.5t66.5 -168.5q0 -77 -42 -138t-113 -86l147 -238h-104l-139 223h-144v-223h-91zM324 306q67 0 108 45t41 111q0 65 -41.5 110.5t-107.5 45.5h-155v-312h155z" />
    <glyph glyph-name="racute" unicode="&#x155;" horiz-adv-x="365" 
d="M359 454v-80q-23 5 -43 5q-74 0 -112.5 -48t-38.5 -132v-199h-87v454h87v-89q18 42 60.5 69t90.5 27q26 0 43 -7z" />
    <glyph glyph-name="Rcommaaccent" unicode="&#x156;" horiz-adv-x="606" 
d="M78 0v700h246q107 0 173.5 -69.5t66.5 -168.5q0 -77 -42 -138t-113 -86l147 -238h-104l-139 223h-144v-223h-91zM324 306q67 0 108 45t41 111q0 65 -41.5 110.5t-107.5 45.5h-155v-312h155z" />
    <glyph glyph-name="rcommaaccent" unicode="&#x157;" horiz-adv-x="365" 
d="M359 454v-80q-23 5 -43 5q-74 0 -112.5 -48t-38.5 -132v-199h-87v454h87v-89q18 42 60.5 69t90.5 27q26 0 43 -7z" />
    <glyph glyph-name="Rcaron" unicode="&#x158;" horiz-adv-x="606" 
d="M78 0v700h246q107 0 173.5 -69.5t66.5 -168.5q0 -77 -42 -138t-113 -86l147 -238h-104l-139 223h-144v-223h-91zM324 306q67 0 108 45t41 111q0 65 -41.5 110.5t-107.5 45.5h-155v-312h155z" />
    <glyph glyph-name="rcaron" unicode="&#x159;" horiz-adv-x="365" 
d="M359 454v-80q-23 5 -43 5q-74 0 -112.5 -48t-38.5 -132v-199h-87v454h87v-89q18 42 60.5 69t90.5 27q26 0 43 -7z" />
    <glyph glyph-name="Sacute" unicode="&#x15a;" horiz-adv-x="571" 
d="M45 223h91q0 -72 43 -114.5t115 -42.5q62 0 100.5 32.5t38.5 86.5q0 30 -11 52.5t-33.5 37t-40.5 21.5t-48 16q-48 15 -73.5 24.5t-60.5 28t-52.5 38.5t-30.5 52.5t-13 73.5q0 83 61.5 135t156.5 52q96 0 157.5 -59t62.5 -155h-91q-1 60 -35 96t-92 36t-93.5 -28.5
t-35.5 -76.5q0 -51 33.5 -76.5t96.5 -44.5q43 -14 67 -23t60.5 -28t56 -39t34.5 -52t15 -71q0 -100 -66.5 -155.5t-170.5 -55.5t-173 65t-69 174z" />
    <glyph glyph-name="sacute" unicode="&#x15b;" horiz-adv-x="452" 
d="M270 253q35 -11 51.5 -18t40.5 -21.5t34 -36t10 -52.5q0 -66 -49 -101t-129 -35t-134 42.5t-54 121.5h85q0 -95 107 -95q91 0 91 65q0 12 -5 22t-11.5 16t-22 13t-27.5 11t-37 11.5t-42 13.5q-63 20 -93 44.5t-30 80.5q0 62 48 96.5t121 34.5q75 0 125 -43t50 -110h-84
q0 40 -23.5 61.5t-68.5 21.5q-37 0 -60.5 -16.5t-23.5 -46.5q0 -9 2.5 -16t6 -12t11 -10.5t14 -8.5t19.5 -8t22 -7.5t27 -8t29 -9.5z" />
    <glyph glyph-name="Scircumflex" unicode="&#x15c;" horiz-adv-x="571" 
d="M45 223h91q0 -72 43 -114.5t115 -42.5q62 0 100.5 32.5t38.5 86.5q0 30 -11 52.5t-33.5 37t-40.5 21.5t-48 16q-48 15 -73.5 24.5t-60.5 28t-52.5 38.5t-30.5 52.5t-13 73.5q0 83 61.5 135t156.5 52q96 0 157.5 -59t62.5 -155h-91q-1 60 -35 96t-92 36t-93.5 -28.5
t-35.5 -76.5q0 -51 33.5 -76.5t96.5 -44.5q43 -14 67 -23t60.5 -28t56 -39t34.5 -52t15 -71q0 -100 -66.5 -155.5t-170.5 -55.5t-173 65t-69 174z" />
    <glyph glyph-name="scircumflex" unicode="&#x15d;" horiz-adv-x="452" 
d="M270 253q35 -11 51.5 -18t40.5 -21.5t34 -36t10 -52.5q0 -66 -49 -101t-129 -35t-134 42.5t-54 121.5h85q0 -95 107 -95q91 0 91 65q0 12 -5 22t-11.5 16t-22 13t-27.5 11t-37 11.5t-42 13.5q-63 20 -93 44.5t-30 80.5q0 62 48 96.5t121 34.5q75 0 125 -43t50 -110h-84
q0 40 -23.5 61.5t-68.5 21.5q-37 0 -60.5 -16.5t-23.5 -46.5q0 -9 2.5 -16t6 -12t11 -10.5t14 -8.5t19.5 -8t22 -7.5t27 -8t29 -9.5z" />
    <glyph glyph-name="Scedilla" unicode="&#x15e;" horiz-adv-x="571" 
d="M45 223h91q0 -72 43 -114.5t115 -42.5q62 0 100.5 32.5t38.5 86.5q0 30 -11 52.5t-33.5 37t-40.5 21.5t-48 16q-48 15 -73.5 24.5t-60.5 28t-52.5 38.5t-30.5 52.5t-13 73.5q0 83 61.5 135t156.5 52q96 0 157.5 -59t62.5 -155h-91q-1 60 -35 96t-92 36t-93.5 -28.5
t-35.5 -76.5q0 -51 33.5 -76.5t96.5 -44.5q43 -14 67 -23t60.5 -28t56 -39t34.5 -52t15 -71q0 -100 -66.5 -155.5t-170.5 -55.5t-173 65t-69 174z" />
    <glyph glyph-name="scedilla" unicode="&#x15f;" horiz-adv-x="452" 
d="M270 253q35 -11 51.5 -18t40.5 -21.5t34 -36t10 -52.5q0 -66 -49 -101t-129 -35t-134 42.5t-54 121.5h85q0 -95 107 -95q91 0 91 65q0 12 -5 22t-11.5 16t-22 13t-27.5 11t-37 11.5t-42 13.5q-63 20 -93 44.5t-30 80.5q0 62 48 96.5t121 34.5q75 0 125 -43t50 -110h-84
q0 40 -23.5 61.5t-68.5 21.5q-37 0 -60.5 -16.5t-23.5 -46.5q0 -9 2.5 -16t6 -12t11 -10.5t14 -8.5t19.5 -8t22 -7.5t27 -8t29 -9.5z" />
    <glyph glyph-name="Scaron" unicode="&#x160;" horiz-adv-x="571" 
d="M45 223h91q0 -72 43 -114.5t115 -42.5q62 0 100.5 32.5t38.5 86.5q0 30 -11 52.5t-33.5 37t-40.5 21.5t-48 16q-48 15 -73.5 24.5t-60.5 28t-52.5 38.5t-30.5 52.5t-13 73.5q0 83 61.5 135t156.5 52q96 0 157.5 -59t62.5 -155h-91q-1 60 -35 96t-92 36t-93.5 -28.5
t-35.5 -76.5q0 -51 33.5 -76.5t96.5 -44.5q43 -14 67 -23t60.5 -28t56 -39t34.5 -52t15 -71q0 -100 -66.5 -155.5t-170.5 -55.5t-173 65t-69 174z" />
    <glyph glyph-name="scaron" unicode="&#x161;" horiz-adv-x="452" 
d="M270 253q35 -11 51.5 -18t40.5 -21.5t34 -36t10 -52.5q0 -66 -49 -101t-129 -35t-134 42.5t-54 121.5h85q0 -95 107 -95q91 0 91 65q0 12 -5 22t-11.5 16t-22 13t-27.5 11t-37 11.5t-42 13.5q-63 20 -93 44.5t-30 80.5q0 62 48 96.5t121 34.5q75 0 125 -43t50 -110h-84
q0 40 -23.5 61.5t-68.5 21.5q-37 0 -60.5 -16.5t-23.5 -46.5q0 -9 2.5 -16t6 -12t11 -10.5t14 -8.5t19.5 -8t22 -7.5t27 -8t29 -9.5z" />
    <glyph glyph-name="Tcommaaccent" unicode="&#x162;" horiz-adv-x="478" 
d="M193 0v618h-181v82h454v-82h-182v-618h-91z" />
    <glyph glyph-name="tcommaaccent" unicode="&#x163;" horiz-adv-x="340" 
d="M325 77v-77q-34 -6 -78 -6q-21 0 -37 2t-37 11t-35 25.5t-24 47t-10 73.5v228h-84v73h84v153h87v-153h118v-73h-118v-209q0 -61 18.5 -80t56.5 -19q33 0 59 4z" />
    <glyph glyph-name="Tcaron" unicode="&#x164;" horiz-adv-x="478" 
d="M193 0v618h-181v82h454v-82h-182v-618h-91z" />
    <glyph glyph-name="tcaron" unicode="&#x165;" horiz-adv-x="340" 
d="M325 77v-77q-34 -6 -78 -6q-21 0 -37 2t-37 11t-35 25.5t-24 47t-10 73.5v228h-84v73h84v153h87v-153h118v-73h-118v-209q0 -61 18.5 -80t56.5 -19q33 0 59 4z" />
    <glyph glyph-name="Tbar" unicode="&#x166;" horiz-adv-x="478" 
d="M193 0v618h-181v82h454v-82h-182v-618h-91z" />
    <glyph glyph-name="tbar" unicode="&#x167;" horiz-adv-x="340" 
d="M325 77v-77q-34 -6 -78 -6q-21 0 -37 2t-37 11t-35 25.5t-24 47t-10 73.5v228h-84v73h84v153h87v-153h118v-73h-118v-209q0 -61 18.5 -80t56.5 -19q33 0 59 4z" />
    <glyph glyph-name="Utilde" unicode="&#x168;" horiz-adv-x="629" 
d="M71 227v473h91v-473q0 -67 42 -114t109 -47q69 0 111.5 47t42.5 114v473h91v-473q0 -102 -67.5 -172.5t-177.5 -70.5q-107 0 -174.5 70.5t-67.5 172.5z" />
    <glyph glyph-name="utilde" unicode="&#x169;" 
d="M400 454h87v-454h-87v81q-21 -42 -62.5 -67t-97.5 -25q-94 0 -137 59q-34 46 -34 138v268h87v-240q0 -148 114 -148q63 0 96.5 44.5t33.5 110.5v233z" />
    <glyph glyph-name="Umacron" unicode="&#x16a;" horiz-adv-x="629" 
d="M71 227v473h91v-473q0 -67 42 -114t109 -47q69 0 111.5 47t42.5 114v473h91v-473q0 -102 -67.5 -172.5t-177.5 -70.5q-107 0 -174.5 70.5t-67.5 172.5z" />
    <glyph glyph-name="umacron" unicode="&#x16b;" 
d="M400 454h87v-454h-87v81q-21 -42 -62.5 -67t-97.5 -25q-94 0 -137 59q-34 46 -34 138v268h87v-240q0 -148 114 -148q63 0 96.5 44.5t33.5 110.5v233z" />
    <glyph glyph-name="Ubreve" unicode="&#x16c;" horiz-adv-x="629" 
d="M71 227v473h91v-473q0 -67 42 -114t109 -47q69 0 111.5 47t42.5 114v473h91v-473q0 -102 -67.5 -172.5t-177.5 -70.5q-107 0 -174.5 70.5t-67.5 172.5z" />
    <glyph glyph-name="ubreve" unicode="&#x16d;" 
d="M400 454h87v-454h-87v81q-21 -42 -62.5 -67t-97.5 -25q-94 0 -137 59q-34 46 -34 138v268h87v-240q0 -148 114 -148q63 0 96.5 44.5t33.5 110.5v233z" />
    <glyph glyph-name="Uring" unicode="&#x16e;" horiz-adv-x="629" 
d="M71 227v473h91v-473q0 -67 42 -114t109 -47q69 0 111.5 47t42.5 114v473h91v-473q0 -102 -67.5 -172.5t-177.5 -70.5q-107 0 -174.5 70.5t-67.5 172.5z" />
    <glyph glyph-name="uring" unicode="&#x16f;" 
d="M400 454h87v-454h-87v81q-21 -42 -62.5 -67t-97.5 -25q-94 0 -137 59q-34 46 -34 138v268h87v-240q0 -148 114 -148q63 0 96.5 44.5t33.5 110.5v233z" />
    <glyph glyph-name="Uhungarumlaut" unicode="&#x170;" horiz-adv-x="629" 
d="M71 227v473h91v-473q0 -67 42 -114t109 -47q69 0 111.5 47t42.5 114v473h91v-473q0 -102 -67.5 -172.5t-177.5 -70.5q-107 0 -174.5 70.5t-67.5 172.5z" />
    <glyph glyph-name="uhungarumlaut" unicode="&#x171;" 
d="M400 454h87v-454h-87v81q-21 -42 -62.5 -67t-97.5 -25q-94 0 -137 59q-34 46 -34 138v268h87v-240q0 -148 114 -148q63 0 96.5 44.5t33.5 110.5v233z" />
    <glyph glyph-name="Uogonek" unicode="&#x172;" horiz-adv-x="629" 
d="M71 227v473h91v-473q0 -67 42 -114t109 -47q69 0 111.5 47t42.5 114v473h91v-473q0 -102 -67.5 -172.5t-177.5 -70.5q-107 0 -174.5 70.5t-67.5 172.5z" />
    <glyph glyph-name="uogonek" unicode="&#x173;" 
d="M400 454h87v-454h-87v81q-21 -42 -62.5 -67t-97.5 -25q-94 0 -137 59q-34 46 -34 138v268h87v-240q0 -148 114 -148q63 0 96.5 44.5t33.5 110.5v233z" />
    <glyph glyph-name="Wcircumflex" unicode="&#x174;" horiz-adv-x="964" 
d="M652 0l-170 542l-169 -542h-68l-239 700h96l176 -542l170 542h69l170 -542l176 542h96l-240 -700h-67z" />
    <glyph glyph-name="wcircumflex" unicode="&#x175;" horiz-adv-x="734" 
d="M494 0l-127 359l-127 -359h-60l-176 454h93l113 -320l114 320h86l113 -320l114 320h93l-176 -454h-60z" />
    <glyph glyph-name="Ycircumflex" unicode="&#x176;" horiz-adv-x="591" 
d="M586 700l-352 -700h-100l140 278l-264 422h106l205 -327l165 327h100z" />
    <glyph glyph-name="ycircumflex" unicode="&#x177;" horiz-adv-x="573" 
d="M282 -256q-98 0 -154 50t-58 147h88q8 -123 126 -123q63 0 95 30.5t32 104.5v128q-21 -43 -62 -67.5t-97 -24.5q-94 0 -138 58q-34 46 -34 142v265h87v-238q0 -72 26 -111t90 -39q62 0 95 44.5t33 110.5v233h87v-501q0 -209 -216 -209z" />
    <glyph glyph-name="Ydieresis" unicode="&#x178;" horiz-adv-x="591" 
d="M586 700l-352 -700h-100l140 278l-264 422h106l205 -327l165 327h100z" />
    <glyph glyph-name="Zacute" unicode="&#x179;" 
d="M35 618v82h521l-389 -618h392v-82h-545l389 618h-368z" />
    <glyph glyph-name="zacute" unicode="&#x17a;" horiz-adv-x="434" 
d="M32 454h382l-243 -376h244v-78h-391l243 377h-235v77z" />
    <glyph glyph-name="Zdotaccent" unicode="&#x17b;" 
d="M35 618v82h521l-389 -618h392v-82h-545l389 618h-368z" />
    <glyph glyph-name="zdotaccent" unicode="&#x17c;" horiz-adv-x="434" 
d="M32 454h382l-243 -376h244v-78h-391l243 377h-235v77z" />
    <glyph glyph-name="Zcaron" unicode="&#x17d;" 
d="M35 618v82h521l-389 -618h392v-82h-545l389 618h-368z" />
    <glyph glyph-name="zcaron" unicode="&#x17e;" horiz-adv-x="434" 
d="M32 454h382l-243 -376h244v-78h-391l243 377h-235v77z" />
    <glyph glyph-name="Aringacute" unicode="&#x1fa;" horiz-adv-x="559" 
d="M554 0h-96l-37 107h-284l-36 -107h-96l241 700h66zM393 190l-113 361l-115 -361h228z" />
    <glyph glyph-name="aringacute" unicode="&#x1fb;" horiz-adv-x="597" 
d="M433 454h86v-454h-86v79q-22 -41 -65.5 -65.5t-93.5 -24.5q-102 0 -167.5 70t-65.5 168q0 99 65.5 169t167.5 70q50 0 93.5 -24.5t65.5 -65.5v78zM279 67q69 0 111.5 46.5t42.5 113.5t-42.5 114t-111.5 47q-67 0 -109.5 -47t-42.5 -114t42.5 -113.5t109.5 -46.5z" />
    <glyph glyph-name="AEacute" unicode="&#x1fc;" horiz-adv-x="1103" 
d="M554 0h-96l-37 107h-284l-36 -107h-96l241 700h66zM393 190l-113 361l-115 -361h228zM1030 618h-302v-229h302v-82h-302v-225h302v-82h-393v700h393v-82z" />
    <glyph glyph-name="aeacute" unicode="&#x1fd;" horiz-adv-x="1122" 
d="M433 454h86v-454h-86v79q-22 -41 -65.5 -65.5t-93.5 -24.5q-102 0 -167.5 70t-65.5 168q0 99 65.5 169t167.5 70q50 0 93.5 -24.5t65.5 -65.5v78zM279 67q69 0 111.5 46.5t42.5 113.5t-42.5 114t-111.5 47q-67 0 -109.5 -47t-42.5 -114t42.5 -113.5t109.5 -46.5zM862 399
q-60 0 -97 -34.5t-38 -94.5h263q0 58 -36 93.5t-92 35.5zM1070 204h-344q3 -64 37 -103t104 -39q89 0 115 72h88q-12 -61 -66.5 -103t-136.5 -42q-110 0 -168.5 67t-58.5 171q0 106 59.5 172.5t164.5 66.5q89 0 149.5 -59t60.5 -146q0 -32 -4 -57z" />
    <glyph glyph-name="Oslashacute" unicode="&#x1fe;" horiz-adv-x="803" 
d="M402 -16q-162 0 -261.5 108.5t-99.5 257.5t99.5 257.5t261.5 108.5t261.5 -108.5t99.5 -257.5q0 -96 -42.5 -178.5t-126.5 -135t-192 -52.5zM402 66q118 0 191.5 84.5t73.5 199.5t-73.5 199.5t-191.5 84.5q-119 0 -192.5 -84t-73.5 -200q0 -115 73.5 -199.5t192.5 -84.5z
" />
    <glyph glyph-name="oslashacute" unicode="&#x1ff;" horiz-adv-x="560" 
d="M279 -11q-105 0 -171.5 69.5t-66.5 168.5q0 100 66.5 169.5t171.5 69.5q107 0 173.5 -69.5t66.5 -169.5q0 -99 -66.5 -168.5t-173.5 -69.5zM279 67q69 0 111.5 46.5t42.5 113.5t-42.5 114t-111.5 47q-67 0 -109.5 -47t-42.5 -114t42.5 -113.5t109.5 -46.5z" />
    <glyph glyph-name="Scommaaccent" unicode="&#x218;" horiz-adv-x="571" 
d="M45 223h91q0 -72 43 -114.5t115 -42.5q62 0 100.5 32.5t38.5 86.5q0 30 -11 52.5t-33.5 37t-40.5 21.5t-48 16q-48 15 -73.5 24.5t-60.5 28t-52.5 38.5t-30.5 52.5t-13 73.5q0 83 61.5 135t156.5 52q96 0 157.5 -59t62.5 -155h-91q-1 60 -35 96t-92 36t-93.5 -28.5
t-35.5 -76.5q0 -51 33.5 -76.5t96.5 -44.5q43 -14 67 -23t60.5 -28t56 -39t34.5 -52t15 -71q0 -100 -66.5 -155.5t-170.5 -55.5t-173 65t-69 174z" />
    <glyph glyph-name="scommaaccent" unicode="&#x219;" horiz-adv-x="452" 
d="M270 253q35 -11 51.5 -18t40.5 -21.5t34 -36t10 -52.5q0 -66 -49 -101t-129 -35t-134 42.5t-54 121.5h85q0 -95 107 -95q91 0 91 65q0 12 -5 22t-11.5 16t-22 13t-27.5 11t-37 11.5t-42 13.5q-63 20 -93 44.5t-30 80.5q0 62 48 96.5t121 34.5q75 0 125 -43t50 -110h-84
q0 40 -23.5 61.5t-68.5 21.5q-37 0 -60.5 -16.5t-23.5 -46.5q0 -9 2.5 -16t6 -12t11 -10.5t14 -8.5t19.5 -8t22 -7.5t27 -8t29 -9.5z" />
    <glyph glyph-name="uni021A" unicode="&#x21a;" horiz-adv-x="478" 
d="M193 0v618h-181v82h454v-82h-182v-618h-91z" />
    <glyph glyph-name="uni021B" unicode="&#x21b;" 
d="M400 454h87v-454h-87v81q-21 -42 -62.5 -67t-97.5 -25q-94 0 -137 59q-34 46 -34 138v268h87v-240q0 -148 114 -148q63 0 96.5 44.5t33.5 110.5v233z" />
    <glyph glyph-name="uni0401" unicode="&#x401;" horiz-adv-x="544" 
d="M471 618h-302v-229h302v-82h-302v-225h302v-82h-393v700h393v-82z" />
    <glyph glyph-name="uni0403" unicode="&#x403;" horiz-adv-x="475" 
d="M78 0v700h393v-82h-302v-618h-91z" />
    <glyph glyph-name="uni0404" unicode="&#x404;" horiz-adv-x="746" 
d="M607 216h99q-20 -101 -104 -166.5t-206 -65.5q-115 0 -197 52.5t-120 133.5t-38 180q0 98 37 179t118.5 134t195.5 53q128 0 211.5 -66.5t102.5 -170.5h-99q-14 68 -72 111.5t-143 43.5q-113 0 -178.5 -69.5t-74.5 -173.5h345v-83h-345q10 -105 76 -173.5t181 -68.5
q79 0 137.5 42t73.5 108z" />
    <glyph glyph-name="uni0405" unicode="&#x405;" horiz-adv-x="571" 
d="M45 223h91q0 -72 43 -114.5t115 -42.5q62 0 100.5 32.5t38.5 86.5q0 30 -11 52.5t-33.5 37t-40.5 21.5t-48 16q-48 15 -73.5 24.5t-60.5 28t-52.5 38.5t-30.5 52.5t-13 73.5q0 83 61.5 135t156.5 52q96 0 157.5 -59t62.5 -155h-91q-1 60 -35 96t-92 36t-93.5 -28.5
t-35.5 -76.5q0 -51 33.5 -76.5t96.5 -44.5q43 -14 67 -23t60.5 -28t56 -39t34.5 -52t15 -71q0 -100 -66.5 -155.5t-170.5 -55.5t-173 65t-69 174z" />
    <glyph glyph-name="uni0406" unicode="&#x406;" horiz-adv-x="250" 
d="M78 0v700h94v-700h-94z" />
    <glyph glyph-name="uni0407" unicode="&#x407;" horiz-adv-x="250" 
d="M78 0v700h94v-700h-94z" />
    <glyph glyph-name="uni0408" unicode="&#x408;" horiz-adv-x="536" 
d="M465 700v-478q0 -105 -60.5 -171.5t-163.5 -66.5t-165 67t-62 171h91q0 -70 37 -113t99 -43t97.5 42.5t35.5 113.5v478h91z" />
    <glyph glyph-name="uni0409" unicode="&#x409;" horiz-adv-x="673" 
d="M10 -12v82h42q62 0 62 63v567h481v-700h-92v618h-297v-496q0 -64 -36 -99t-95 -35h-65z" />
    <glyph glyph-name="uni040A" unicode="&#x40a;" horiz-adv-x="664" 
d="M495 0v307h-326v-307h-91v700h91v-311h326v311h91v-700h-91z" />
    <glyph glyph-name="uni040C" unicode="&#x40c;" horiz-adv-x="594" 
d="M169 700v-288h17q74 0 121 80l62 105q65 107 154 107h42v-82h-26q-59 0 -95 -64l-54 -94q-48 -83 -138 -99l325 -365h-118l-290 336v-336h-91v700h91z" />
    <glyph glyph-name="uni040E" unicode="&#x40e;" horiz-adv-x="591" 
d="M586 700l-352 -700h-100l140 278l-264 422h106l205 -327l165 327h100z" />
    <glyph glyph-name="uni040F" unicode="&#x40f;" horiz-adv-x="642" 
d="M363 -97h-83v97h-202v700h91v-618h304v618h91v-700h-201v-97z" />
    <glyph glyph-name="uni0410" unicode="&#x410;" horiz-adv-x="559" 
d="M554 0h-96l-37 107h-284l-36 -107h-96l241 700h66zM393 190l-113 361l-115 -361h228z" />
    <glyph glyph-name="uni0411" unicode="&#x411;" horiz-adv-x="579" 
d="M484 700v-82h-315v-218h169q86 0 141.5 -58.5t55.5 -141.5t-56 -141.5t-142 -58.5h-259v700h406zM338 318h-169v-236h168q46 0 76.5 34.5t30.5 83.5t-30 83.5t-76 34.5z" />
    <glyph glyph-name="uni0412" unicode="&#x412;" horiz-adv-x="591" 
d="M78 0v700h239q60 0 104 -17.5t66.5 -46.5t32.5 -59.5t10 -63.5q0 -61 -37 -104.5t-88 -53.5q46 -3 88 -47.5t42 -113.5q0 -33 -10.5 -64.5t-34 -62t-68 -49t-104.5 -18.5h-240zM324 312h-155v-230h153q63 0 92.5 34t29.5 81q0 42 -30.5 78.5t-89.5 36.5zM169 395h150
q62 0 91 34t29 77q0 44 -29.5 78t-92.5 34h-148v-223z" />
    <glyph glyph-name="uni0413" unicode="&#x413;" horiz-adv-x="475" 
d="M78 0v700h393v-82h-302v-618h-91z" />
    <glyph glyph-name="uni0414" unicode="&#x414;" horiz-adv-x="697" 
d="M96 -97h-83v179h11q89 0 137 64q45 61 45 172v382h397v-618h57v-179h-82v97h-482v-97zM184 82h327v536h-215v-223q0 -131 -24.5 -210.5t-87.5 -102.5z" />
    <glyph glyph-name="uni0415" unicode="&#x415;" horiz-adv-x="544" 
d="M471 618h-302v-229h302v-82h-302v-225h302v-82h-393v700h393v-82z" />
    <glyph glyph-name="uni0416" unicode="&#x416;" horiz-adv-x="870" 
d="M391 337l-267 -337h-117l299 362q-80 15 -127 104l-47 89q-36 67 -91 67h-25v82h37q91 0 152 -111l58 -107q47 -88 111 -88h17v302h88v-302h17q63 0 111 88l58 107q60 111 152 111h37v-82h-25q-55 0 -91 -67l-47 -89q-47 -89 -127 -104l299 -362h-118l-266 337v-337h-88
v337z" />
    <glyph glyph-name="uni0417" unicode="&#x417;" horiz-adv-x="573" 
d="M43 221h91q0 -69 44 -110t110 -41q64 0 101 36t37 90q0 123 -150 123h-46v81h47q70 0 104 33t34 83q0 49 -36 81.5t-96 32.5q-63 0 -104 -34.5t-41 -93.5h-91q0 94 67 152t174 58q95 0 156.5 -50t61.5 -139q0 -60 -33.5 -102.5t-87.5 -54.5q58 -11 95 -56t37 -114
q0 -92 -65 -150t-165 -58q-109 0 -176.5 62.5t-67.5 170.5z" />
    <glyph glyph-name="uni0418" unicode="&#x418;" horiz-adv-x="663" 
d="M494 0v519l-325 -472v-47h-91v700h91v-519l325 472v47h91v-700h-91z" />
    <glyph glyph-name="uni0419" unicode="&#x419;" horiz-adv-x="663" 
d="M494 0v519l-325 -472v-47h-91v700h91v-519l325 472v47h91v-700h-91z" />
    <glyph glyph-name="uni041A" unicode="&#x41a;" horiz-adv-x="594" 
d="M169 700v-288h17q74 0 121 80l62 105q65 107 154 107h42v-82h-26q-59 0 -95 -64l-54 -94q-48 -83 -138 -99l325 -365h-118l-290 336v-336h-91v700h91z" />
    <glyph glyph-name="uni041B" unicode="&#x41b;" horiz-adv-x="673" 
d="M10 -12v82h42q62 0 62 63v567h481v-700h-92v618h-297v-496q0 -64 -36 -99t-95 -35h-65z" />
    <glyph glyph-name="uni041C" unicode="&#x41c;" horiz-adv-x="812" 
d="M734 700v-700h-92v488l-201 -488h-70l-202 488v-488h-91v700h88l240 -560l240 560h88z" />
    <glyph glyph-name="uni041D" unicode="&#x41d;" horiz-adv-x="664" 
d="M495 0v307h-326v-307h-91v700h91v-311h326v311h91v-700h-91z" />
    <glyph glyph-name="uni041E" unicode="&#x41e;" horiz-adv-x="803" 
d="M402 -16q-162 0 -261.5 108.5t-99.5 257.5t99.5 257.5t261.5 108.5t261.5 -108.5t99.5 -257.5q0 -96 -42.5 -178.5t-126.5 -135t-192 -52.5zM402 66q118 0 191.5 84.5t73.5 199.5t-73.5 199.5t-191.5 84.5q-119 0 -192.5 -84t-73.5 -200q0 -115 73.5 -199.5t192.5 -84.5z
" />
    <glyph glyph-name="uni041F" unicode="&#x41f;" horiz-adv-x="666" 
d="M497 618h-328v-618h-91v700h510v-700h-91v618z" />
    <glyph glyph-name="uni0420" unicode="&#x420;" horiz-adv-x="596" 
d="M78 0v700h246q107 0 173.5 -69.5t66.5 -168.5q0 -100 -66.5 -169.5t-173.5 -69.5h-155v-223h-91zM324 306q67 0 108 45t41 111q0 65 -41.5 110.5t-107.5 45.5h-155v-312h155z" />
    <glyph glyph-name="uni0421" unicode="&#x421;" horiz-adv-x="775" 
d="M636 216h100q-27 -101 -116.5 -166.5t-211.5 -65.5q-166 0 -266.5 107t-100.5 260q0 149 98 257t256 108q146 0 233 -72.5t108 -188.5h-96q-16 79 -78 129t-156 50q-124 0 -198 -83.5t-74 -199.5q0 -120 77 -202.5t208 -82.5q72 0 133.5 42.5t83.5 107.5z" />
    <glyph glyph-name="uni0422" unicode="&#x422;" horiz-adv-x="478" 
d="M193 0v618h-181v82h454v-82h-182v-618h-91z" />
    <glyph glyph-name="uni0423" unicode="&#x423;" horiz-adv-x="591" 
d="M586 700l-352 -700h-100l140 278l-264 422h106l205 -327l165 327h100z" />
    <glyph glyph-name="uni0424" unicode="&#x424;" horiz-adv-x="769" 
d="M494 95h-64v-95h-91v95h-64q-108 0 -176 74t-68 181t68 181t176 74h64v95h91v-95h64q109 0 177 -74t68 -181t-68 -181t-177 -74zM275 177h64v346h-64q-68 0 -110.5 -50t-42.5 -123t42.5 -123t110.5 -50zM494 523h-64v-346h64q68 0 110.5 50t42.5 123t-42.5 123t-110.5 50
z" />
    <glyph glyph-name="uni0425" unicode="&#x425;" horiz-adv-x="548" 
d="M274 429l161 271h104l-213 -350l213 -350h-104l-161 271l-161 -271h-103l212 350l-212 350h103z" />
    <glyph glyph-name="uni0426" unicode="&#x426;" horiz-adv-x="669" 
d="M654 -97h-82v97h-494v700h91v-618h304v618h91v-618h90v-179z" />
    <glyph glyph-name="uni0427" unicode="&#x427;" horiz-adv-x="579" 
d="M501 0h-91v222h-140q-110 0 -170.5 63t-60.5 162v253h91v-230q0 -78 40 -122t117 -44h123v396h91v-700z" />
    <glyph glyph-name="uni0428" unicode="&#x428;" horiz-adv-x="909" 
d="M831 0h-753v700h91v-618h240v618h91v-618h240v618h91v-700z" />
    <glyph glyph-name="uni0429" unicode="&#x429;" horiz-adv-x="937" 
d="M922 -97h-92v97h-752v700h91v-618h240v618h91v-618h240v618h91v-618h91v-179z" />
    <glyph glyph-name="uni042A" unicode="&#x42a;" horiz-adv-x="643" 
d="M413 318h-169v-236h168q46 0 76.5 34.5t30.5 83.5t-30 83.5t-76 34.5zM12 618v82h232v-300h169q86 0 141.5 -58.5t55.5 -141.5t-56 -141.5t-142 -58.5h-259v618h-141z" />
    <glyph glyph-name="uni042B" unicode="&#x42b;" horiz-adv-x="745" 
d="M78 700h91v-300h151q86 0 141.5 -58.5t55.5 -141.5t-56 -141.5t-142 -58.5h-241v700zM320 318h-151v-236h150q46 0 76.5 34.5t30.5 83.5t-30 83.5t-76 34.5zM576 0v700h91v-700h-91z" />
    <glyph glyph-name="uni042C" unicode="&#x42c;" horiz-adv-x="568" 
d="M78 700h91v-300h169q86 0 141.5 -58.5t55.5 -141.5t-56 -141.5t-142 -58.5h-259v700zM338 318h-169v-236h168q46 0 76.5 34.5t30.5 83.5t-30 83.5t-76 34.5z" />
    <glyph glyph-name="uni042D" unicode="&#x42d;" horiz-adv-x="753" 
d="M270 307v83h347q-10 107 -75 175.5t-169 68.5q-97 0 -158 -49.5t-78 -129.5h-96q21 117 106 189t230 72q154 0 245 -104.5t91 -260.5q0 -160 -93.5 -263.5t-255.5 -103.5q-121 0 -209 65.5t-115 166.5h100q21 -65 85 -107.5t139 -42.5q109 0 175 66t78 175h-347z" />
    <glyph glyph-name="uni042E" unicode="&#x42e;" horiz-adv-x="1074" 
d="M673 -16q-150 0 -247 93.5t-112 229.5h-145v-307h-91v700h91v-311h145q13 137 110.5 232t248.5 95q162 0 261.5 -108.5t99.5 -257.5q0 -96 -42.5 -178.5t-126.5 -135t-192 -52.5zM673 66q118 0 191.5 84.5t73.5 199.5t-73.5 199.5t-191.5 84.5q-119 0 -192.5 -84
t-73.5 -200q0 -115 73.5 -199.5t192.5 -84.5z" />
    <glyph glyph-name="uni042F" unicode="&#x42f;" horiz-adv-x="606" 
d="M528 700v-700h-92v223h-143l-139 -223h-105l148 238q-72 25 -114 86t-42 138q0 99 67 168.5t174 69.5h246zM282 306h154v312h-154q-66 0 -107.5 -45.5t-41.5 -110.5q0 -66 41 -111t108 -45z" />
    <glyph glyph-name="uni0430" unicode="&#x430;" horiz-adv-x="597" 
d="M433 454h86v-454h-86v79q-22 -41 -65.5 -65.5t-93.5 -24.5q-102 0 -167.5 70t-65.5 168q0 99 65.5 169t167.5 70q50 0 93.5 -24.5t65.5 -65.5v78zM279 67q69 0 111.5 46.5t42.5 113.5t-42.5 114t-111.5 47q-67 0 -109.5 -47t-42.5 -114t42.5 -113.5t109.5 -46.5z" />
    <glyph glyph-name="uni0431" unicode="&#x431;" horiz-adv-x="577" 
d="M130 337q18 61 69.5 95t112.5 34q103 0 163 -69t60 -170q0 -98 -66 -168t-169 -70q-124 0 -186.5 87.5t-62.5 242.5q0 204 98 298q86 83 245 83h91v-84h-115q-112 0 -168 -59q-69 -73 -72 -220zM295 67q67 0 110 46.5t43 113.5t-43 114t-110 47q-69 0 -111 -45.5
t-42 -115.5q0 -68 42 -114t111 -46z" />
    <glyph glyph-name="uni0432" unicode="&#x432;" horiz-adv-x="486" 
d="M78 0v454h210q78 0 111 -35.5t33 -82.5q0 -39 -29.5 -68t-72.5 -34q45 -2 77.5 -32t32.5 -78q0 -47 -37.5 -85.5t-119.5 -38.5h-205zM285 201h-122v-139h122q28 0 48 20t20 48t-20 49.5t-48 21.5zM163 263h119q28 0 45.5 19t17.5 45q0 27 -18 46t-46 19h-118v-129z" />
    <glyph glyph-name="uni0433" unicode="&#x433;" horiz-adv-x="356" 
d="M78 454h273v-73h-186v-381h-87v454z" />
    <glyph glyph-name="uni0434" unicode="&#x434;" horiz-adv-x="552" 
d="M89 -104h-78v173h16q55 0 84 41t29 112v232h335v-385h46v-173h-78v104h-354v-104zM149 69h245v317h-173v-148q0 -139 -72 -169z" />
    <glyph glyph-name="uni0435" unicode="&#x435;" horiz-adv-x="524" 
d="M473 204h-344q2 -63 36 -102.5t104 -39.5q89 0 115 72h88q-11 -61 -66 -103t-137 -42q-109 0 -167.5 67t-58.5 171q0 106 59 172.5t164 66.5q89 0 150 -59t61 -146q0 -32 -4 -57zM264 399q-60 0 -97 -34.5t-38 -94.5h263q0 58 -36 93.5t-92 35.5z" />
    <glyph glyph-name="uni0436" unicode="&#x436;" horiz-adv-x="668" 
d="M293 214l-179 -214h-100l211 235q-69 5 -98 60l-26 48q-23 45 -59 45h-25v71h37q69 0 108 -69l43 -76q16 -28 32 -40t41 -12h15v192h82v-192h15q25 0 41 12t32 40l42 76q40 69 108 69h38v-71h-25q-36 0 -59 -45l-26 -48q-30 -55 -98 -60l211 -235h-100l-179 214v-214h-82
v214z" />
    <glyph glyph-name="uni0437" unicode="&#x437;" horiz-adv-x="429" 
d="M33 135h84q0 -34 25.5 -54.5t72.5 -20.5q39 0 62.5 17t23.5 48q0 33 -23.5 52.5t-67.5 19.5h-49v62h44q87 0 87 71q0 29 -22.5 47.5t-59.5 18.5q-43 0 -64.5 -20t-21.5 -53h-84q0 64 46.5 103.5t124.5 39.5q74 0 119 -35t45 -90q0 -45 -25.5 -73t-69.5 -35
q46 -5 75 -34.5t29 -76.5q0 -60 -50.5 -96.5t-124.5 -36.5q-82 0 -129 39.5t-47 106.5z" />
    <glyph glyph-name="uni0438" unicode="&#x438;" horiz-adv-x="564" 
d="M400 0v316l-235 -279v-37h-87v454h87v-319l235 281v38h86v-454h-86z" />
    <glyph glyph-name="uni0439" unicode="&#x439;" horiz-adv-x="564" 
d="M400 0v316l-235 -279v-37h-87v454h87v-319l235 281v38h86v-454h-86z" />
    <glyph glyph-name="uni043A" unicode="&#x43a;" horiz-adv-x="494" 
d="M165 454v-195h14q38 0 72 52l59 86q23 33 46 47.5t57 14.5h46v-71h-27q-38 0 -62 -36l-37 -56q-34 -52 -93 -59l230 -237h-105l-200 211v-211h-87v454h87z" />
    <glyph glyph-name="uni043B" unicode="&#x43b;" horiz-adv-x="561" 
d="M18 -9v78h24q26 0 39 11t13 41v333h389v-454h-87v381h-215v-269q0 -60 -33 -90.5t-88 -30.5h-42z" />
    <glyph glyph-name="uni043C" unicode="&#x43c;" horiz-adv-x="701" 
d="M623 454v-454h-79v380l-164 -380h-59l-164 380v-380h-79v454h127l146 -337l146 337h126z" />
    <glyph glyph-name="uni043D" unicode="&#x43d;" horiz-adv-x="570" 
d="M406 0v193h-241v-193h-87v454h87v-188h241v188h86v-454h-86z" />
    <glyph glyph-name="uni043E" unicode="&#x43e;" horiz-adv-x="560" 
d="M279 -11q-105 0 -171.5 69.5t-66.5 168.5q0 100 66.5 169.5t171.5 69.5q107 0 173.5 -69.5t66.5 -169.5q0 -99 -66.5 -168.5t-173.5 -69.5zM279 67q69 0 111.5 46.5t42.5 113.5t-42.5 114t-111.5 47q-67 0 -109.5 -47t-42.5 -114t42.5 -113.5t109.5 -46.5z" />
    <glyph glyph-name="uni043F" unicode="&#x43f;" horiz-adv-x="567" 
d="M489 454v-454h-87v381h-237v-381h-87v454h411z" />
    <glyph glyph-name="uni0440" unicode="&#x440;" horiz-adv-x="599" 
d="M165 454v-78q22 41 65 65.5t93 24.5q103 0 168.5 -70t65.5 -169t-65.5 -168.5t-168.5 -69.5q-50 0 -93 24.5t-65 65.5v-325h-87v700h87zM319 388q-69 0 -111.5 -47t-42.5 -114t42.5 -113.5t111.5 -46.5q67 0 109 46.5t42 113.5t-42 114t-109 47z" />
    <glyph glyph-name="uni0441" unicode="&#x441;" horiz-adv-x="529" 
d="M484 289h-87q-12 99 -126 99q-67 0 -104 -46.5t-37 -114.5q0 -69 37 -114.5t109 -45.5q99 0 122 89h87q-11 -75 -65.5 -121t-149.5 -46q-106 0 -166.5 70t-60.5 168t60.5 168.5t165.5 70.5q102 0 155 -51.5t60 -125.5z" />
    <glyph glyph-name="uni0442" unicode="&#x442;" horiz-adv-x="384" 
d="M13 454h359v-73h-137v-381h-87v381h-135v73z" />
    <glyph glyph-name="uni0443" unicode="&#x443;" horiz-adv-x="573" 
d="M282 -256q-98 0 -154 50t-58 147h88q8 -123 126 -123q63 0 95 30.5t32 104.5v128q-21 -43 -62 -67.5t-97 -24.5q-94 0 -138 58q-34 46 -34 142v265h87v-238q0 -72 26 -111t90 -39q62 0 95 44.5t33 110.5v233h87v-501q0 -209 -216 -209z" />
    <glyph glyph-name="uni0444" unicode="&#x444;" horiz-adv-x="620" 
d="M273 -245v234q-101 6 -166.5 74.5t-65.5 163.5q0 96 65 164t166 74v235h76v-235q101 -6 166.5 -74.5t65.5 -163.5t-65.5 -163.5t-166.5 -74.5v-234h-75zM495 227q0 68 -39.5 115t-107.5 50v-330q68 1 107.5 49t39.5 116zM125 227q0 -69 40 -116.5t108 -48.5l-1 330
q-68 -3 -107.5 -50t-39.5 -115z" />
    <glyph glyph-name="uni0445" unicode="&#x445;" horiz-adv-x="440" 
d="M270 229l154 -229h-100l-104 161l-104 -161h-100l154 229l-152 225h100l102 -158l102 158h100z" />
    <glyph glyph-name="uni0446" unicode="&#x446;" horiz-adv-x="586" 
d="M556 -82h-86v82h-392v454h87v-381h230v381h87v-381h74v-155z" />
    <glyph glyph-name="uni0447" unicode="&#x447;" horiz-adv-x="478" 
d="M400 0h-87v139h-111q-77 0 -118 39.5t-41 115.5v160h87v-158q0 -84 85 -84h98v242h87v-454z" />
    <glyph glyph-name="uni0448" unicode="&#x448;" horiz-adv-x="786" 
d="M437 454v-381h184v381h87v-454h-630v454h87v-381h185v381h87z" />
    <glyph glyph-name="uni0449" unicode="&#x449;" horiz-adv-x="813" 
d="M783 -82h-86v82h-619v454h87v-381h185v381h87v-381h184v381h87v-381h75v-155z" />
    <glyph glyph-name="uni044A" unicode="&#x44a;" horiz-adv-x="494" 
d="M104 0v381h-88v73h170v-157h122q68 0 106 -42t38 -107q0 -63 -38.5 -105.5t-106.5 -42.5h-203zM293 227h-107v-157h106q37 0 58.5 22t21.5 56q0 35 -21 57t-58 22z" />
    <glyph glyph-name="uni044B" unicode="&#x44b;" horiz-adv-x="643" 
d="M479 0v454h86v-454h-86zM78 0v454h82v-157h122q67 0 105 -42t38 -107q0 -63 -38.5 -105.5t-105.5 -42.5h-203zM267 227h-107v-157h106q37 0 58 22t21 56q0 35 -20.5 57t-57.5 22z" />
    <glyph glyph-name="uni044C" unicode="&#x44c;" horiz-adv-x="468" 
d="M78 0v454h82v-157h122q67 0 105 -42t38 -107q0 -63 -38.5 -105.5t-105.5 -42.5h-203zM267 227h-107v-157h106q37 0 58 22t21 56q0 35 -20.5 57t-57.5 22z" />
    <glyph glyph-name="uni044D" unicode="&#x44d;" horiz-adv-x="535" 
d="M132 289h-86q2 75 60.5 126t154.5 51q112 0 172 -69.5t60 -169.5t-60 -169t-172 -69q-96 0 -154.5 47.5t-62.5 119.5h87q16 -89 134 -89q65 0 100 34.5t40 92.5h-191v66h191q-4 57 -39.5 92.5t-100.5 35.5q-61 0 -93.5 -27.5t-39.5 -71.5z" />
    <glyph glyph-name="uni044E" unicode="&#x44e;" horiz-adv-x="754" 
d="M473 67q69 0 111.5 46.5t42.5 113.5t-42.5 114t-111.5 47q-67 0 -109 -47t-42 -114t42 -113.5t109 -46.5zM238 191h-73v-191h-87v454h87v-190h73q12 86 76 144t159 58q107 0 174 -69.5t67 -169.5q0 -99 -67 -168.5t-174 -69.5q-95 0 -159 57.5t-76 144.5z" />
    <glyph glyph-name="uni044F" unicode="&#x44f;" horiz-adv-x="504" 
d="M231 147l-93 -147h-101l105 156q-48 13 -78.5 54t-30.5 91q0 65 44 109t114 44h235v-454h-85v147h-110zM209 219h132v164h-132q-39 0 -63.5 -24t-24.5 -58t24.5 -58t63.5 -24z" />
    <glyph glyph-name="uni0451" unicode="&#x451;" horiz-adv-x="524" 
d="M473 204h-344q2 -63 36 -102.5t104 -39.5q89 0 115 72h88q-11 -61 -66 -103t-137 -42q-109 0 -167.5 67t-58.5 171q0 106 59 172.5t164 66.5q89 0 150 -59t61 -146q0 -32 -4 -57zM264 399q-60 0 -97 -34.5t-38 -94.5h263q0 58 -36 93.5t-92 35.5z" />
    <glyph glyph-name="uni0453" unicode="&#x453;" horiz-adv-x="356" 
d="M78 454h273v-73h-186v-381h-87v454z" />
    <glyph glyph-name="uni0454" unicode="&#x454;" horiz-adv-x="539" 
d="M490 289h-87q-7 44 -39.5 71.5t-93.5 27.5q-65 0 -100.5 -35.5t-39.5 -92.5h191v-66h-191q4 -58 39.5 -92.5t100.5 -34.5q118 0 134 89h87q-4 -72 -62.5 -119.5t-154.5 -47.5q-112 0 -172 69t-60 169t60 169.5t172 69.5q96 0 154.5 -51t61.5 -126z" />
    <glyph glyph-name="uni0455" unicode="&#x455;" horiz-adv-x="452" 
d="M270 253q35 -11 51.5 -18t40.5 -21.5t34 -36t10 -52.5q0 -66 -49 -101t-129 -35t-134 42.5t-54 121.5h85q0 -95 107 -95q91 0 91 65q0 12 -5 22t-11.5 16t-22 13t-27.5 11t-37 11.5t-42 13.5q-63 20 -93 44.5t-30 80.5q0 62 48 96.5t121 34.5q75 0 125 -43t50 -110h-84
q0 40 -23.5 61.5t-68.5 21.5q-37 0 -60.5 -16.5t-23.5 -46.5q0 -9 2.5 -16t6 -12t11 -10.5t14 -8.5t19.5 -8t22 -7.5t27 -8t29 -9.5z" />
    <glyph glyph-name="uni0457" unicode="&#x457;" horiz-adv-x="0" 
 />
    <glyph glyph-name="uni0458" unicode="&#x458;" horiz-adv-x="243" 
d="M165 454v-576q0 -69 -30 -101t-76 -32q-45 0 -71 12v77q25 -6 44 -6q46 0 46 63v563h87zM52 626q0 29 20.5 50t48.5 21q30 0 50.5 -21t20.5 -50t-20.5 -49t-50.5 -20q-29 0 -49 20.5t-20 48.5z" />
    <glyph glyph-name="uni0459" unicode="&#x459;" horiz-adv-x="561" 
d="M18 -9v78h24q26 0 39 11t13 41v333h389v-454h-87v381h-215v-269q0 -60 -33 -90.5t-88 -30.5h-42z" />
    <glyph glyph-name="uni045A" unicode="&#x45a;" horiz-adv-x="570" 
d="M406 0v193h-241v-193h-87v454h87v-188h241v188h86v-454h-86z" />
    <glyph glyph-name="uni045C" unicode="&#x45c;" horiz-adv-x="494" 
d="M165 454v-195h14q38 0 72 52l59 86q23 33 46 47.5t57 14.5h46v-71h-27q-38 0 -62 -36l-37 -56q-34 -52 -93 -59l230 -237h-105l-200 211v-211h-87v454h87z" />
    <glyph glyph-name="uni045E" unicode="&#x45e;" horiz-adv-x="573" 
d="M282 -256q-98 0 -154 50t-58 147h88q8 -123 126 -123q63 0 95 30.5t32 104.5v128q-21 -43 -62 -67.5t-97 -24.5q-94 0 -138 58q-34 46 -34 142v265h87v-238q0 -72 26 -111t90 -39q62 0 95 44.5t33 110.5v233h87v-501q0 -209 -216 -209z" />
    <glyph glyph-name="uni0490" unicode="&#x490;" horiz-adv-x="475" 
d="M78 0v700h393v-82h-302v-618h-91z" />
    <glyph glyph-name="uni0491" unicode="&#x491;" horiz-adv-x="356" 
d="M78 454h273v-73h-186v-381h-87v454z" />
    <glyph glyph-name="Wgrave" unicode="&#x1e80;" horiz-adv-x="964" 
d="M652 0l-170 542l-169 -542h-68l-239 700h96l176 -542l170 542h69l170 -542l176 542h96l-240 -700h-67z" />
    <glyph glyph-name="wgrave" unicode="&#x1e81;" horiz-adv-x="734" 
d="M494 0l-127 359l-127 -359h-60l-176 454h93l113 -320l114 320h86l113 -320l114 320h93l-176 -454h-60z" />
    <glyph glyph-name="Wacute" unicode="&#x1e82;" horiz-adv-x="964" 
d="M652 0l-170 542l-169 -542h-68l-239 700h96l176 -542l170 542h69l170 -542l176 542h96l-240 -700h-67z" />
    <glyph glyph-name="wacute" unicode="&#x1e83;" horiz-adv-x="734" 
d="M494 0l-127 359l-127 -359h-60l-176 454h93l113 -320l114 320h86l113 -320l114 320h93l-176 -454h-60z" />
    <glyph glyph-name="Wdieresis" unicode="&#x1e84;" horiz-adv-x="964" 
d="M652 0l-170 542l-169 -542h-68l-239 700h96l176 -542l170 542h69l170 -542l176 542h96l-240 -700h-67z" />
    <glyph glyph-name="wdieresis" unicode="&#x1e85;" horiz-adv-x="734" 
d="M494 0l-127 359l-127 -359h-60l-176 454h93l113 -320l114 320h86l113 -320l114 320h93l-176 -454h-60z" />
    <glyph glyph-name="Ygrave" unicode="&#x1ef2;" horiz-adv-x="591" 
d="M586 700l-352 -700h-100l140 278l-264 422h106l205 -327l165 327h100z" />
    <glyph glyph-name="ygrave" unicode="&#x1ef3;" horiz-adv-x="573" 
d="M282 -256q-98 0 -154 50t-58 147h88q8 -123 126 -123q63 0 95 30.5t32 104.5v128q-21 -43 -62 -67.5t-97 -24.5q-94 0 -138 58q-34 46 -34 142v265h87v-238q0 -72 26 -111t90 -39q62 0 95 44.5t33 110.5v233h87v-501q0 -209 -216 -209z" />
    <glyph glyph-name="endash" unicode="&#x2013;" horiz-adv-x="294" 
d="M264 324v-78h-234v78h234z" />
    <glyph glyph-name="emdash" unicode="&#x2014;" horiz-adv-x="294" 
d="M264 324v-78h-234v78h234z" />
    <glyph glyph-name="ff" unicode="&#xfb00;" horiz-adv-x="694" 
d="M336 694v-74q-26 8 -51 8q-17 0 -28.5 -2t-24.5 -10t-19.5 -26.5t-6.5 -47.5v-88h130v-73h-130v-381h-87v381h-98v73h98v79q0 47 11.5 81t27 51.5t39 27t40 11.5t37.5 2q40 0 62 -12zM683 694v-74q-26 8 -51 8q-17 0 -28.5 -2t-24.5 -10t-19.5 -26.5t-6.5 -47.5v-88h130
v-73h-130v-381h-87v381h-98v73h98v79q0 47 11.5 81t27 51.5t39 27t40 11.5t37.5 2q40 0 62 -12z" />
    <glyph glyph-name="fi" unicode="&#xfb01;" horiz-adv-x="590" 
d="M336 694v-74q-26 8 -51 8q-17 0 -28.5 -2t-24.5 -10t-19.5 -26.5t-6.5 -47.5v-88h130v-73h-130v-381h-87v381h-98v73h98v79q0 47 11.5 81t27 51.5t39 27t40 11.5t37.5 2q40 0 62 -12zM425 0v454h87v-454h-87zM399 626q0 29 20.5 50t48.5 21q29 0 50 -21t21 -50
q0 -28 -21 -48.5t-50 -20.5q-28 0 -48.5 20.5t-20.5 48.5z" />
  </font>
</defs>
</svg>
