<?xml version="1.0" standalone="no"?>
<!DOCTYPE svg PUBLIC "-//W3C//DTD SVG 1.1//EN" "http://www.w3.org/Graphics/SVG/1.1/DTD/svg11.dtd" >
<svg>
<metadata>
Created by FontForge 20090622 at Wed Jul 26 21:43:49 2017
 By deploy user
Copyright (c) 2014 by Grilli Type. All rights reserved.
</metadata>
<defs>
<font id="GTWalsheimProTrial-Light" horiz-adv-x="231" >
  <font-face 
    font-family="GT Walsheim Pro Trial Light"
    font-weight="350"
    font-stretch="normal"
    units-per-em="1000"
    panose-1="2 0 5 3 4 0 0 2 0 3"
    ascent="730"
    descent="-270"
    x-height="443"
    cap-height="700"
    bbox="-24 -267 1271 715"
    underline-thickness="50"
    underline-position="-25"
    unicode-range="U+0020-U+FB01"
  />
<missing-glyph horiz-adv-x="550" 
d="M422 342v158h-30v-158h30zM302 452v-110h30v110h-30zM50 0v700h450v-700h-450zM303 260h-30v-109h30v109zM295 453q-6 2 -11 2q-18 0 -31 -21v18h-27v-110h29v50q0 35 30 35q7 0 10 -1v27zM439 452v-110h30v110h-30zM89 307v-29h44v-127h30v127h44v29h-118zM427 151h29
v158h-29v-158zM266 234v28q-3 1 -10 1q-20 0 -30 -21v18h-28v-109h30v49q0 35 28 35q6 0 10 -1zM301 500v-29h32v29h-32zM438 500v-29h32v29h-32zM181 399q0 -12 -9 -22.5t-27 -10.5q-41 0 -41 53q0 25 10.5 40t29.5 15q24 0 31 -23l30 12q-14 39 -60 39q-35 0 -54.5 -23
t-19.5 -59q0 -35 18 -58t49 -23q32 0 43 20l4 -17h23v87h-67v-28h40v-2zM304 309h-32v-30h32v30zM376 342v158h-29v-158h29zM385 151h29q-3 15 -3 21v40q0 27 -10 39t-36 12q-49 0 -51 -37h29q1 15 21 15q18 0 18 -22q-32 -3 -50 -8q-21 -9 -21 -29q0 -16 10.5 -25t27.5 -9
q25 0 35 19q0 -11 1 -16zM382 201v-3q0 -28 -24 -28q-17 0 -17 13t23 16z" />
    <glyph glyph-name=".notdef" horiz-adv-x="550" 
d="M422 342v158h-30v-158h30zM302 452v-110h30v110h-30zM50 0v700h450v-700h-450zM303 260h-30v-109h30v109zM295 453q-6 2 -11 2q-18 0 -31 -21v18h-27v-110h29v50q0 35 30 35q7 0 10 -1v27zM439 452v-110h30v110h-30zM89 307v-29h44v-127h30v127h44v29h-118zM427 151h29
v158h-29v-158zM266 234v28q-3 1 -10 1q-20 0 -30 -21v18h-28v-109h30v49q0 35 28 35q6 0 10 -1zM301 500v-29h32v29h-32zM438 500v-29h32v29h-32zM181 399q0 -12 -9 -22.5t-27 -10.5q-41 0 -41 53q0 25 10.5 40t29.5 15q24 0 31 -23l30 12q-14 39 -60 39q-35 0 -54.5 -23
t-19.5 -59q0 -35 18 -58t49 -23q32 0 43 20l4 -17h23v87h-67v-28h40v-2zM304 309h-32v-30h32v30zM376 342v158h-29v-158h29zM385 151h29q-3 15 -3 21v40q0 27 -10 39t-36 12q-49 0 -51 -37h29q1 15 21 15q18 0 18 -22q-32 -3 -50 -8q-21 -9 -21 -29q0 -16 10.5 -25t27.5 -9
q25 0 35 19q0 -11 1 -16zM382 201v-3q0 -28 -24 -28q-17 0 -17 13t23 16z" />
    <glyph glyph-name=".null" horiz-adv-x="0" 
 />
    <glyph glyph-name=".null" horiz-adv-x="0" 
 />
    <glyph glyph-name="nonmarkingreturn" horiz-adv-x="333" 
 />
    <glyph glyph-name="space" unicode=" " horiz-adv-x="255" 
 />
    <glyph glyph-name="exclam" unicode="!" horiz-adv-x="230" 
d="M55 55q0 25 17 42.5t42 17.5q26 0 43.5 -17.5t17.5 -42.5t-18 -42.5t-43 -17.5t-42 17.5t-17 42.5z" />
    <glyph glyph-name="comma" unicode="," horiz-adv-x="250" 
d="M55 54q0 26 17.5 43.5t44.5 17.5q35 0 56.5 -28t21.5 -71q0 -130 -133 -132v36q58 0 71 41q8 20 6 42q-8 -8 -25 -8q-26 0 -42.5 17t-16.5 42z" />
    <glyph glyph-name="hyphen" unicode="-" horiz-adv-x="294" 
d="M264 314v-59h-234v59h234z" />
    <glyph glyph-name="period" unicode="." horiz-adv-x="230" 
d="M55 55q0 25 17 42.5t42 17.5q26 0 43.5 -17.5t17.5 -42.5t-18 -42.5t-43 -17.5t-42 17.5t-17 42.5z" />
    <glyph glyph-name="zero" unicode="0" horiz-adv-x="578" 
d="M56 219v261q0 97 64.5 164.5t167.5 67.5q104 0 169 -67.5t65 -164.5v-261q0 -96 -65 -163.5t-169 -67.5q-103 0 -167.5 67t-64.5 164zM453 219v261q0 72 -45.5 121t-119.5 49q-73 0 -118.5 -49t-45.5 -121v-261q0 -71 45.5 -120t118.5 -49q74 0 119.5 49t45.5 120z" />
    <glyph glyph-name="one" unicode="1" horiz-adv-x="325" 
d="M32 528v56q89 0 117 25t28 91h65v-700h-70v528h-140z" />
    <glyph glyph-name="two" unicode="2" horiz-adv-x="526" 
d="M47 0q0 81 12.5 137.5t40.5 95.5t63 63t91 49q39 16 61.5 28t48 32.5t37.5 48t12 64.5q0 60 -38.5 95t-105.5 35q-69 0 -111.5 -42.5t-42.5 -113.5h-68q0 98 63 158.5t159 60.5q97 0 154.5 -53t57.5 -145q0 -46 -18 -84t-50 -64t-59.5 -41.5t-63.5 -30.5
q-98 -46 -132 -93t-34 -138h360v-62h-437z" />
    <glyph glyph-name="three" unicode="3" horiz-adv-x="549" 
d="M33 208h68q0 -71 46.5 -113.5t119.5 -42.5q71 0 114.5 39.5t43.5 99.5q0 64 -41 103t-117 39h-53v61h53q71 0 108 35t37 94q0 58 -39.5 91.5t-105.5 33.5q-72 0 -110.5 -37.5t-38.5 -100.5h-68q0 89 59 145t154 56t156 -52t61 -136q0 -61 -32.5 -103.5t-89.5 -56.5
q62 -15 98.5 -60t36.5 -111q0 -89 -64.5 -146t-164.5 -57q-99 0 -165 60t-66 159z" />
    <glyph glyph-name="four" unicode="4" horiz-adv-x="546" 
d="M336 0v240h-266v460h68v-398h198v221h68v-221h114v-62h-114v-240h-68z" />
    <glyph glyph-name="five" unicode="5" horiz-adv-x="590" 
d="M85 298v402h400v-62h-337v-273q21 40 67 62.5t96 22.5q104 0 164 -65.5t60 -163.5q0 -97 -65 -164.5t-169 -67.5q-102 0 -167 68t-65 164h69q0 -71 45.5 -120t117.5 -49q75 0 120.5 49t45.5 120t-45.5 119.5t-120.5 48.5q-102 0 -144 -91h-72z" />
    <glyph glyph-name="six" unicode="6" horiz-adv-x="543" 
d="M269 -11q-102 0 -167 68t-65 164q0 70 39 133l215 346h79l-172 -269q22 22 71 22q104 0 169 -67.5t65 -164.5t-65 -164.5t-169 -67.5zM269 52q74 0 120 49t46 120t-46 120.5t-120 49.5q-72 0 -118 -49.5t-46 -120.5t45.5 -120t118.5 -49z" />
    <glyph glyph-name="seven" unicode="7" horiz-adv-x="454" 
d="M38 700h421l-323 -700h-73l298 638h-323v62z" />
    <glyph glyph-name="eight" unicode="8" horiz-adv-x="571" 
d="M286 -11q-105 0 -168 57.5t-63 145.5q0 62 33.5 110t96.5 62q-57 16 -86.5 58.5t-29.5 97.5q0 83 59 137t158 54q98 0 157 -54.5t59 -136.5q0 -55 -29.5 -97.5t-86.5 -58.5q62 -14 96 -62.5t34 -109.5q0 -86 -63 -144.5t-167 -58.5zM286 388q68 0 108 36.5t40 92.5
q0 57 -40.5 94t-107.5 37t-107.5 -37t-40.5 -94q0 -56 40 -92.5t108 -36.5zM286 52q74 0 118 39.5t44 100.5q0 60 -44 100t-118 40q-75 0 -119 -39.5t-44 -100.5t44.5 -100.5t118.5 -39.5z" />
    <glyph glyph-name="nine" unicode="9" horiz-adv-x="543" 
d="M274 711q102 0 167 -68t65 -164q0 -70 -39 -133l-215 -346h-79l172 269q-19 -22 -63 -22q-108 0 -175 66t-67 166q0 97 65 164.5t169 67.5zM274 648q-74 0 -120 -49t-46 -120t46 -120.5t120 -49.5q72 0 118 49.5t46 120.5t-45.5 120t-118.5 49z" />
    <glyph glyph-name="colon" unicode=":" horiz-adv-x="230" 
d="M55 55q0 25 17 42.5t42 17.5q26 0 43.5 -17.5t17.5 -42.5t-18 -42.5t-43 -17.5t-42 17.5t-17 42.5z" />
    <glyph glyph-name="semicolon" unicode=";" horiz-adv-x="250" 
d="M55 54q0 26 17.5 43.5t44.5 17.5q35 0 56.5 -28t21.5 -71q0 -130 -133 -132v36q58 0 71 41q8 20 6 42q-8 -8 -25 -8q-26 0 -42.5 17t-16.5 42z" />
    <glyph glyph-name="question" unicode="?" horiz-adv-x="230" 
d="M55 55q0 25 17 42.5t42 17.5q26 0 43.5 -17.5t17.5 -42.5t-18 -42.5t-43 -17.5t-42 17.5t-17 42.5z" />
    <glyph glyph-name="A" unicode="A" horiz-adv-x="546" 
d="M540 0h-72l-43 125h-304l-43 -125h-72l241 700h52zM404 187l-131 404l-131 -404h262z" />
    <glyph glyph-name="B" unicode="B" horiz-adv-x="583" 
d="M83 0v700h239q101 0 151 -55.5t50 -129.5q0 -61 -36.5 -106t-89.5 -56q50 -6 90.5 -52.5t40.5 -111.5q0 -74 -52 -131.5t-154 -57.5h-239zM328 321h-177v-259h174q64 0 99 38.5t35 90.5q0 50 -35 90t-96 40zM151 383h174q62 0 96 38.5t34 88.5q0 51 -34.5 89.5
t-98.5 38.5h-171v-255z" />
    <glyph glyph-name="C" unicode="C" horiz-adv-x="775" 
d="M658 206h75q-29 -97 -117 -159t-207 -62q-110 0 -195 51t-128 133.5t-43 181.5q0 148 97.5 256t255.5 108q142 0 228.5 -69.5t108.5 -181.5h-71q-20 84 -87 136.5t-171 52.5q-132 0 -211.5 -89t-79.5 -213q0 -128 82 -216t222 -88q82 0 149 44.5t92 114.5z" />
    <glyph glyph-name="D" unicode="D" horiz-adv-x="694" 
d="M83 700h205q84 0 154 -29.5t115 -79t69.5 -112t24.5 -129.5t-24.5 -129.5t-69.5 -112t-115 -79t-154 -29.5h-205v700zM288 638h-137v-576h137q134 0 213.5 86t79.5 202t-79.5 202t-213.5 86z" />
    <glyph glyph-name="E" unicode="E" horiz-adv-x="543" 
d="M465 638h-314v-259h314v-62h-314v-255h314v-62h-382v700h382v-62z" />
    <glyph glyph-name="F" unicode="F" horiz-adv-x="538" 
d="M465 638h-314v-277h314v-62h-314v-299h-68v700h382v-62z" />
    <glyph glyph-name="G" unicode="G" horiz-adv-x="833" 
d="M463 262v62h342v-62h-74q-18 -128 -102.5 -202.5t-227.5 -74.5q-111 0 -194 52.5t-123.5 134t-40.5 178.5q0 149 99 257t259 108q111 0 191 -56t98 -140h-70q-17 58 -77.5 96t-141.5 38q-130 0 -209 -89.5t-79 -213.5q0 -126 78 -214.5t218 -88.5q110 0 174 59t76 156
h-196z" />
    <glyph glyph-name="H" unicode="H" horiz-adv-x="663" 
d="M511 0v317h-360v-317h-68v700h68v-321h360v321h69v-700h-69z" />
    <glyph glyph-name="I" unicode="I" horiz-adv-x="236" 
d="M83 0v700h70v-700h-70z" />
    <glyph glyph-name="J" unicode="J" horiz-adv-x="536" 
d="M463 700v-484q0 -103 -60 -167t-161 -64q-99 0 -162.5 65t-63.5 167h68q0 -77 44.5 -123.5t113.5 -46.5q70 0 111 46t41 123v484h69z" />
    <glyph glyph-name="K" unicode="K" horiz-adv-x="574" 
d="M477 0l-326 328v-328h-68v700h68v-329l326 329h88l-344 -350l344 -350h-88z" />
    <glyph glyph-name="L" unicode="L" horiz-adv-x="422" 
d="M151 62h241v-62h-309v700h68v-638z" />
    <glyph glyph-name="M" unicode="M" horiz-adv-x="810" 
d="M727 700v-700h-68v541l-227 -541h-54l-227 541v-541h-68v700h66l256 -597l256 597h66z" />
    <glyph glyph-name="N" unicode="N" horiz-adv-x="662" 
d="M159 700l351 -582v582h69v-700h-76l-352 582v-582h-68v700h76z" />
    <glyph glyph-name="O" unicode="O" horiz-adv-x="806" 
d="M403 -15q-108 0 -191.5 52t-126 134.5t-42.5 178.5t42.5 178.5t126 134.5t191.5 52t191.5 -52t126 -134.5t42.5 -178.5t-42.5 -178.5t-126 -134.5t-191.5 -52zM403 47q129 0 209 90t80 213t-80 213t-209 90q-130 0 -209.5 -89.5t-79.5 -213.5t79.5 -213.5t209.5 -89.5z
" />
    <glyph glyph-name="P" unicode="P" horiz-adv-x="596" 
d="M83 0v700h241q104 0 169 -67.5t65 -164.5t-65 -164.5t-169 -67.5h-173v-236h-68zM324 298q74 0 119.5 49.5t45.5 120.5t-45.5 120.5t-119.5 49.5h-173v-340h173z" />
    <glyph glyph-name="Q" unicode="Q" horiz-adv-x="806" 
d="M763 350q0 -136 -80 -233.5t-207 -120.5l64 -90l-60 -30l-78 109q-162 1 -260.5 108.5t-98.5 256.5q0 96 42.5 178.5t126 134.5t191.5 52t191.5 -52t126 -134.5t42.5 -178.5zM403 47q129 0 209 90t80 213t-80 213t-209 90q-130 0 -209.5 -89.5t-79.5 -213.5t79.5 -213.5
t209.5 -89.5z" />
    <glyph glyph-name="R" unicode="R" horiz-adv-x="602" 
d="M83 0v700h241q104 0 169 -67.5t65 -164.5q0 -78 -44.5 -139t-119.5 -82l157 -247h-79l-149 236h-172v-236h-68zM324 298q74 0 119.5 49.5t45.5 120.5t-45.5 120.5t-119.5 49.5h-173v-340h173z" />
    <glyph glyph-name="S" unicode="S" horiz-adv-x="572" 
d="M47 217h68q0 -77 49 -123.5t131 -46.5q73 0 117.5 36t44.5 97q0 28 -10 50.5t-23 36.5t-36.5 25.5t-41 17t-44.5 12.5l-52 15.5t-46.5 16.5t-44 20.5t-34.5 25.5t-28.5 34t-16.5 43.5t-7 55.5q0 80 60 131t159 51q97 0 157 -57t61 -153h-68q-2 69 -41 108.5t-107 39.5
q-71 0 -111.5 -33t-40.5 -87q0 -34 12 -58t37 -39.5t47.5 -24t59.5 -18.5q52 -14 83 -26t69 -35.5t56.5 -59.5t18.5 -85q0 -95 -65 -148.5t-170 -53.5q-107 0 -175 63.5t-68 168.5z" />
    <glyph glyph-name="T" unicode="T" horiz-adv-x="474" 
d="M202 0v638h-188v62h446v-62h-190v-638h-68z" />
    <glyph glyph-name="U" unicode="U" horiz-adv-x="618" 
d="M73 220v480h68v-480q0 -72 46.5 -122.5t120.5 -50.5q75 0 122 50t47 123v480h68v-480q0 -98 -66 -166.5t-171 -68.5q-104 0 -169.5 68.5t-65.5 166.5z" />
    <glyph glyph-name="V" unicode="V" horiz-adv-x="557" 
d="M552 700l-248 -700h-51l-248 700h72l202 -590l201 590h72z" />
    <glyph glyph-name="W" unicode="W" horiz-adv-x="946" 
d="M650 0l-177 584l-177 -584h-53l-237 700h72l190 -585l178 585h54l177 -585l191 585h72l-237 -700h-53z" />
    <glyph glyph-name="X" unicode="X" horiz-adv-x="534" 
d="M267 409l179 291h78l-218 -350l218 -350h-78l-179 290l-179 -290h-77l217 350l-217 350h77z" />
    <glyph glyph-name="Y" unicode="Y" horiz-adv-x="570" 
d="M566 700l-357 -700h-75l141 277l-266 423h79l222 -353l181 353h75z" />
    <glyph glyph-name="Z" unicode="Z" horiz-adv-x="552" 
d="M36 638v62h509l-414 -638h423v-62h-539l414 638h-393z" />
    <glyph glyph-name="underscore" unicode="_" horiz-adv-x="294" 
d="M264 314v-59h-234v59h234z" />
    <glyph glyph-name="a" unicode="a" horiz-adv-x="592" 
d="M444 443h65v-443h-65v93q-22 -47 -68.5 -75.5t-103.5 -28.5q-100 0 -164.5 68t-64.5 164q0 97 64 164.5t165 67.5q57 0 103.5 -28t68.5 -76v94zM275 49q75 0 122 50t47 122q0 73 -47 123t-122 50q-74 0 -120.5 -50.5t-46.5 -122.5t46.5 -122t120.5 -50z" />
    <glyph glyph-name="b" unicode="b" horiz-adv-x="593" 
d="M148 93v-93h-65v700h65v-351q22 48 68.5 76t103.5 28q101 0 165 -67.5t64 -164.5q0 -96 -64.5 -164t-164.5 -68q-57 0 -103.5 28.5t-68.5 75.5zM317 49q74 0 120.5 50t46.5 122t-46.5 122.5t-120.5 50.5q-75 0 -122 -50t-47 -123q0 -72 47 -122t122 -50z" />
    <glyph glyph-name="c" unicode="c" horiz-adv-x="524" 
d="M474 281h-65q-6 51 -40 82.5t-101 31.5q-74 0 -115 -50.5t-41 -122.5q0 -74 41 -123.5t118 -49.5q116 0 140 103h65q-11 -73 -64 -118t-145 -45q-103 0 -162 68.5t-59 164.5t59 164t162 68q99 0 150 -50t57 -123z" />
    <glyph glyph-name="d" unicode="d" horiz-adv-x="592" 
d="M444 0v93q-22 -47 -68.5 -75.5t-103.5 -28.5q-100 0 -164.5 68t-64.5 164q0 97 64 164.5t165 67.5q57 0 103.5 -28t68.5 -76v351h65v-700h-65zM275 49q75 0 122 50t47 122q0 73 -47 123t-122 50q-74 0 -120.5 -50.5t-46.5 -122.5t46.5 -122t120.5 -50z" />
    <glyph glyph-name="e" unicode="e" horiz-adv-x="519" 
d="M262 402q-66 0 -106.5 -38.5t-43.5 -105.5h293q0 64 -41 104t-102 40zM466 207h-355q2 -71 40.5 -116t115.5 -45q52 0 85 22.5t45 58.5h66q-12 -58 -65 -98t-131 -40q-107 0 -164 66.5t-57 166.5q0 102 58 166.5t160 64.5q86 0 145.5 -57t59.5 -141q0 -27 -3 -48z" />
    <glyph glyph-name="f" unicode="f" horiz-adv-x="335" 
d="M326 694v-56q-24 9 -54 9q-18 0 -30.5 -3t-26 -12t-20.5 -30.5t-7 -53.5v-105h138v-56h-138v-387h-65v387h-101v56h101v99q0 43 10 75t24 48.5t34.5 26t36.5 12t36 2.5q38 0 62 -12z" />
    <glyph glyph-name="g" unicode="g" horiz-adv-x="590" 
d="M275 394q-74 0 -120.5 -50t-46.5 -122t46.5 -122.5t120.5 -50.5q75 0 122 50t47 123q0 72 -47 122t-122 50zM509 443v-477q0 -122 -60.5 -177.5t-176.5 -55.5q-108 0 -163.5 58t-60.5 146h66q4 -64 42.5 -104.5t115.5 -40.5q84 0 128 41t44 133v128q-22 -48 -68.5 -76.5
t-103.5 -28.5q-100 0 -164.5 68t-64.5 165q0 96 64 163.5t165 67.5q57 0 103.5 -28t68.5 -76v94h65z" />
    <glyph glyph-name="h" unicode="h" horiz-adv-x="562" 
d="M83 0v700h65v-353q20 47 63.5 76.5t104.5 29.5q89 0 133 -55q39 -48 39 -138v-260h-65v241q0 70 -31.5 112t-97.5 42q-69 0 -107.5 -50.5t-38.5 -117.5v-227h-65z" />
    <glyph glyph-name="i" unicode="i" 
d="M83 0v443h65v-443h-65zM56 616q0 26 17 43.5t42 17.5t43 -17.5t18 -43.5q0 -25 -17.5 -42t-43.5 -17q-25 0 -42 17t-17 42z" />
    <glyph glyph-name="j" unicode="j" 
d="M148 443v-578q0 -65 -29 -97.5t-74 -32.5q-44 0 -69 12v60q26 -9 51 -9q26 0 41 20t15 56v569h65zM56 616q0 25 17.5 43t42.5 18t42.5 -18t17.5 -43t-17.5 -42t-42.5 -17t-42.5 17t-17.5 42z" />
    <glyph glyph-name="k" unicode="k" horiz-adv-x="455" 
d="M441 443l-219 -222l219 -221h-85l-208 207v-207h-65v700h65v-465l208 208h85z" />
    <glyph glyph-name="l" unicode="l" 
d="M83 0v700h65v-700h-65z" />
    <glyph glyph-name="m" unicode="m" horiz-adv-x="812" 
d="M737 0h-66v261q0 67 -28 100.5t-77 33.5q-58 0 -90.5 -46.5t-32.5 -123.5v-225h-66v249q0 146 -105 146q-57 0 -90.5 -46.5t-33.5 -123.5v-225h-65v443h65v-97q12 45 49.5 76t89.5 31q122 0 144 -110q13 46 53.5 78t95.5 32q77 0 117 -45t40 -129v-279z" />
    <glyph glyph-name="n" unicode="n" horiz-adv-x="562" 
d="M83 0v443h65v-96q20 47 63.5 76.5t104.5 29.5q89 0 133 -55q39 -48 39 -138v-260h-65v241q0 70 -31.5 112t-97.5 42q-69 0 -107.5 -50.5t-38.5 -117.5v-227h-65z" />
    <glyph glyph-name="o" unicode="o" horiz-adv-x="552" 
d="M275 -11q-102 0 -167 68t-65 164q0 97 64.5 164.5t167.5 67.5q104 0 169 -67.5t65 -164.5t-65 -164.5t-169 -67.5zM275 49q75 0 122 50t47 122q0 73 -47 123t-122 50q-74 0 -120.5 -50.5t-46.5 -122.5t46.5 -122t120.5 -50z" />
    <glyph glyph-name="p" unicode="p" horiz-adv-x="593" 
d="M148 443v-94q22 48 68.5 76t103.5 28q101 0 165 -67.5t64 -163.5q0 -97 -64.5 -165t-164.5 -68q-57 0 -103.5 28.5t-68.5 76.5v-351h-65v700h65zM317 394q-75 0 -122 -50t-47 -122q0 -73 47 -123t122 -50q74 0 120.5 50.5t46.5 122.5t-46.5 122t-120.5 50z" />
    <glyph glyph-name="q" unicode="q" horiz-adv-x="593" 
d="M445 349v94h65v-700h-65v351q-22 -48 -68.5 -76.5t-103.5 -28.5q-100 0 -164.5 68t-64.5 165q0 96 64 163.5t165 67.5q57 0 103.5 -28t68.5 -76zM276 394q-74 0 -120.5 -50t-46.5 -122t46.5 -122.5t120.5 -50.5q75 0 122 50t47 123q0 72 -47 122t-122 50z" />
    <glyph glyph-name="r" unicode="r" horiz-adv-x="353" 
d="M348 442v-60q-20 6 -42 6q-77 0 -117.5 -54.5t-40.5 -136.5v-197h-65v443h65v-104q19 52 62.5 81t95.5 29q27 0 42 -7z" />
    <glyph glyph-name="s" unicode="s" horiz-adv-x="450" 
d="M256 242q36 -9 54.5 -15t43 -20t35.5 -35.5t11 -52.5q0 -63 -46 -96.5t-125 -33.5q-80 0 -132.5 41t-52.5 120h64q0 -107 124 -107q50 0 78 19.5t28 55.5q0 12 -3 21.5t-11.5 17.5t-15.5 13t-23.5 10.5l-26 8.5t-32 9l-34.5 9q-33 8 -52.5 15t-41 20t-31 34t-9.5 51
q0 60 45.5 93t118.5 33q74 0 122.5 -40t48.5 -107h-64q0 45 -28.5 69.5t-79.5 24.5q-44 0 -71.5 -19.5t-27.5 -54.5q0 -39 44 -57q15 -7 90 -27z" />
    <glyph glyph-name="t" unicode="t" horiz-adv-x="329" 
d="M319 59v-59q-34 -6 -75 -6q-21 0 -37 2t-35.5 11.5t-32 25t-21.5 45t-9 70.5v239h-89v56h89v164h66v-164h128v-56h-128v-226q0 -65 20.5 -86t61.5 -21q35 0 62 5z" />
    <glyph glyph-name="u" unicode="u" horiz-adv-x="560" 
d="M412 443h65v-443h-65v96q-20 -47 -64 -77t-104 -30q-88 0 -133 56q-39 48 -39 138v260h66v-241q0 -70 31 -112t97 -42q69 0 107.5 50.5t38.5 117.5v227z" />
    <glyph glyph-name="v" unicode="v" horiz-adv-x="470" 
d="M7 443h71l156 -351l158 351h71l-206 -443h-47z" />
    <glyph glyph-name="w" unicode="w" horiz-adv-x="715" 
d="M489 0l-132 370l-131 -370h-47l-171 443h70l124 -344l123 344h65l122 -344l125 344h70l-171 -443h-47z" />
    <glyph glyph-name="x" unicode="x" horiz-adv-x="434" 
d="M255 222l156 -222h-76l-118 172l-118 -172h-76l156 222l-155 221h76l117 -170l117 170h75z" />
    <glyph glyph-name="y" unicode="y" horiz-adv-x="568" 
d="M281 -267q-201 0 -206 202h66q8 -146 141 -146q71 0 106 36.5t35 122.5v148q-20 -48 -63 -77.5t-103 -29.5q-90 0 -136 54q-38 45 -38 145v255h66v-236q0 -78 29 -118.5t100 -40.5q69 0 107 50.5t38 117.5v227h65v-495q0 -112 -51.5 -163.5t-155.5 -51.5z" />
    <glyph glyph-name="z" unicode="z" horiz-adv-x="431" 
d="M36 443h368l-265 -384h266v-59h-379l265 384h-255v59z" />
    <glyph glyph-name="Agrave" unicode="&#xc0;" horiz-adv-x="546" 
d="M540 0h-72l-43 125h-304l-43 -125h-72l241 700h52zM404 187l-131 404l-131 -404h262z" />
    <glyph glyph-name="Aacute" unicode="&#xc1;" horiz-adv-x="546" 
d="M540 0h-72l-43 125h-304l-43 -125h-72l241 700h52zM404 187l-131 404l-131 -404h262z" />
    <glyph glyph-name="Acircumflex" unicode="&#xc2;" horiz-adv-x="546" 
d="M540 0h-72l-43 125h-304l-43 -125h-72l241 700h52zM404 187l-131 404l-131 -404h262z" />
    <glyph glyph-name="Atilde" unicode="&#xc3;" horiz-adv-x="546" 
d="M540 0h-72l-43 125h-304l-43 -125h-72l241 700h52zM404 187l-131 404l-131 -404h262z" />
    <glyph glyph-name="Adieresis" unicode="&#xc4;" horiz-adv-x="546" 
d="M540 0h-72l-43 125h-304l-43 -125h-72l241 700h52zM404 187l-131 404l-131 -404h262z" />
    <glyph glyph-name="Aring" unicode="&#xc5;" horiz-adv-x="546" 
d="M540 0h-72l-43 125h-304l-43 -125h-72l241 700h52zM404 187l-131 404l-131 -404h262z" />
    <glyph glyph-name="AE" unicode="&#xc6;" horiz-adv-x="1089" 
d="M540 0h-72l-43 125h-304l-43 -125h-72l241 700h52zM404 187l-131 404l-131 -404h262zM1011 638h-314v-259h314v-62h-314v-255h314v-62h-382v700h382v-62z" />
    <glyph glyph-name="Ccedilla" unicode="&#xc7;" horiz-adv-x="775" 
d="M658 206h75q-29 -97 -117 -159t-207 -62q-110 0 -195 51t-128 133.5t-43 181.5q0 148 97.5 256t255.5 108q142 0 228.5 -69.5t108.5 -181.5h-71q-20 84 -87 136.5t-171 52.5q-132 0 -211.5 -89t-79.5 -213q0 -128 82 -216t222 -88q82 0 149 44.5t92 114.5z" />
    <glyph glyph-name="Egrave" unicode="&#xc8;" horiz-adv-x="543" 
d="M465 638h-314v-259h314v-62h-314v-255h314v-62h-382v700h382v-62z" />
    <glyph glyph-name="Eacute" unicode="&#xc9;" horiz-adv-x="543" 
d="M465 638h-314v-259h314v-62h-314v-255h314v-62h-382v700h382v-62z" />
    <glyph glyph-name="Ecircumflex" unicode="&#xca;" horiz-adv-x="543" 
d="M465 638h-314v-259h314v-62h-314v-255h314v-62h-382v700h382v-62z" />
    <glyph glyph-name="Edieresis" unicode="&#xcb;" horiz-adv-x="543" 
d="M465 638h-314v-259h314v-62h-314v-255h314v-62h-382v700h382v-62z" />
    <glyph glyph-name="Igrave" unicode="&#xcc;" horiz-adv-x="236" 
d="M83 0v700h70v-700h-70z" />
    <glyph glyph-name="Iacute" unicode="&#xcd;" horiz-adv-x="236" 
d="M83 0v700h70v-700h-70z" />
    <glyph glyph-name="Icircumflex" unicode="&#xce;" horiz-adv-x="236" 
d="M83 0v700h70v-700h-70z" />
    <glyph glyph-name="Idieresis" unicode="&#xcf;" horiz-adv-x="236" 
d="M83 0v700h70v-700h-70z" />
    <glyph glyph-name="Eth" unicode="&#xd0;" horiz-adv-x="694" 
d="M83 700h205q84 0 154 -29.5t115 -79t69.5 -112t24.5 -129.5t-24.5 -129.5t-69.5 -112t-115 -79t-154 -29.5h-205v700zM288 638h-137v-576h137q134 0 213.5 86t79.5 202t-79.5 202t-213.5 86z" />
    <glyph glyph-name="Ntilde" unicode="&#xd1;" horiz-adv-x="662" 
d="M159 700l351 -582v582h69v-700h-76l-352 582v-582h-68v700h76z" />
    <glyph glyph-name="Ograve" unicode="&#xd2;" horiz-adv-x="806" 
d="M403 -15q-108 0 -191.5 52t-126 134.5t-42.5 178.5t42.5 178.5t126 134.5t191.5 52t191.5 -52t126 -134.5t42.5 -178.5t-42.5 -178.5t-126 -134.5t-191.5 -52zM403 47q129 0 209 90t80 213t-80 213t-209 90q-130 0 -209.5 -89.5t-79.5 -213.5t79.5 -213.5t209.5 -89.5z
" />
    <glyph glyph-name="Oacute" unicode="&#xd3;" horiz-adv-x="806" 
d="M403 -15q-108 0 -191.5 52t-126 134.5t-42.5 178.5t42.5 178.5t126 134.5t191.5 52t191.5 -52t126 -134.5t42.5 -178.5t-42.5 -178.5t-126 -134.5t-191.5 -52zM403 47q129 0 209 90t80 213t-80 213t-209 90q-130 0 -209.5 -89.5t-79.5 -213.5t79.5 -213.5t209.5 -89.5z
" />
    <glyph glyph-name="Ocircumflex" unicode="&#xd4;" horiz-adv-x="806" 
d="M403 -15q-108 0 -191.5 52t-126 134.5t-42.5 178.5t42.5 178.5t126 134.5t191.5 52t191.5 -52t126 -134.5t42.5 -178.5t-42.5 -178.5t-126 -134.5t-191.5 -52zM403 47q129 0 209 90t80 213t-80 213t-209 90q-130 0 -209.5 -89.5t-79.5 -213.5t79.5 -213.5t209.5 -89.5z
" />
    <glyph glyph-name="Otilde" unicode="&#xd5;" horiz-adv-x="806" 
d="M403 -15q-108 0 -191.5 52t-126 134.5t-42.5 178.5t42.5 178.5t126 134.5t191.5 52t191.5 -52t126 -134.5t42.5 -178.5t-42.5 -178.5t-126 -134.5t-191.5 -52zM403 47q129 0 209 90t80 213t-80 213t-209 90q-130 0 -209.5 -89.5t-79.5 -213.5t79.5 -213.5t209.5 -89.5z
" />
    <glyph glyph-name="Odieresis" unicode="&#xd6;" horiz-adv-x="806" 
d="M403 -15q-108 0 -191.5 52t-126 134.5t-42.5 178.5t42.5 178.5t126 134.5t191.5 52t191.5 -52t126 -134.5t42.5 -178.5t-42.5 -178.5t-126 -134.5t-191.5 -52zM403 47q129 0 209 90t80 213t-80 213t-209 90q-130 0 -209.5 -89.5t-79.5 -213.5t79.5 -213.5t209.5 -89.5z
" />
    <glyph glyph-name="Oslash" unicode="&#xd8;" horiz-adv-x="806" 
d="M403 -15q-108 0 -191.5 52t-126 134.5t-42.5 178.5t42.5 178.5t126 134.5t191.5 52t191.5 -52t126 -134.5t42.5 -178.5t-42.5 -178.5t-126 -134.5t-191.5 -52zM403 47q129 0 209 90t80 213t-80 213t-209 90q-130 0 -209.5 -89.5t-79.5 -213.5t79.5 -213.5t209.5 -89.5z
" />
    <glyph glyph-name="Ugrave" unicode="&#xd9;" horiz-adv-x="618" 
d="M73 220v480h68v-480q0 -72 46.5 -122.5t120.5 -50.5q75 0 122 50t47 123v480h68v-480q0 -98 -66 -166.5t-171 -68.5q-104 0 -169.5 68.5t-65.5 166.5z" />
    <glyph glyph-name="Uacute" unicode="&#xda;" horiz-adv-x="618" 
d="M73 220v480h68v-480q0 -72 46.5 -122.5t120.5 -50.5q75 0 122 50t47 123v480h68v-480q0 -98 -66 -166.5t-171 -68.5q-104 0 -169.5 68.5t-65.5 166.5z" />
    <glyph glyph-name="Ucircumflex" unicode="&#xdb;" horiz-adv-x="618" 
d="M73 220v480h68v-480q0 -72 46.5 -122.5t120.5 -50.5q75 0 122 50t47 123v480h68v-480q0 -98 -66 -166.5t-171 -68.5q-104 0 -169.5 68.5t-65.5 166.5z" />
    <glyph glyph-name="Udieresis" unicode="&#xdc;" horiz-adv-x="618" 
d="M73 220v480h68v-480q0 -72 46.5 -122.5t120.5 -50.5q75 0 122 50t47 123v480h68v-480q0 -98 -66 -166.5t-171 -68.5q-104 0 -169.5 68.5t-65.5 166.5z" />
    <glyph glyph-name="Yacute" unicode="&#xdd;" horiz-adv-x="570" 
d="M566 700l-357 -700h-75l141 277l-266 423h79l222 -353l181 353h75z" />
    <glyph glyph-name="Thorn" unicode="&#xde;" horiz-adv-x="596" 
d="M83 0v700h241q104 0 169 -67.5t65 -164.5t-65 -164.5t-169 -67.5h-173v-236h-68zM324 298q74 0 119.5 49.5t45.5 120.5t-45.5 120.5t-119.5 49.5h-173v-340h173z" />
    <glyph glyph-name="germandbls" unicode="&#xdf;" horiz-adv-x="900" 
d="M256 242q36 -9 54.5 -15t43 -20t35.5 -35.5t11 -52.5q0 -63 -46 -96.5t-125 -33.5q-80 0 -132.5 41t-52.5 120h64q0 -107 124 -107q50 0 78 19.5t28 55.5q0 12 -3 21.5t-11.5 17.5t-15.5 13t-23.5 10.5l-26 8.5t-32 9l-34.5 9q-33 8 -52.5 15t-41 20t-31 34t-9.5 51
q0 60 45.5 93t118.5 33q74 0 122.5 -40t48.5 -107h-64q0 45 -28.5 69.5t-79.5 24.5q-44 0 -71.5 -19.5t-27.5 -54.5q0 -39 44 -57q15 -7 90 -27zM706 242q36 -9 54.5 -15t43 -20t35.5 -35.5t11 -52.5q0 -63 -46 -96.5t-125 -33.5q-80 0 -132.5 41t-52.5 120h64
q0 -107 124 -107q50 0 78 19.5t28 55.5q0 12 -3 21.5t-11.5 17.5t-15.5 13t-23.5 10.5l-26 8.5t-32 9l-34.5 9q-33 8 -52.5 15t-41 20t-31 34t-9.5 51q0 60 45.5 93t118.5 33q74 0 122.5 -40t48.5 -107h-64q0 45 -28.5 69.5t-79.5 24.5q-44 0 -71.5 -19.5t-27.5 -54.5
q0 -39 44 -57q15 -7 90 -27z" />
    <glyph glyph-name="agrave" unicode="&#xe0;" horiz-adv-x="592" 
d="M444 443h65v-443h-65v93q-22 -47 -68.5 -75.5t-103.5 -28.5q-100 0 -164.5 68t-64.5 164q0 97 64 164.5t165 67.5q57 0 103.5 -28t68.5 -76v94zM275 49q75 0 122 50t47 122q0 73 -47 123t-122 50q-74 0 -120.5 -50.5t-46.5 -122.5t46.5 -122t120.5 -50z" />
    <glyph glyph-name="aacute" unicode="&#xe1;" horiz-adv-x="592" 
d="M444 443h65v-443h-65v93q-22 -47 -68.5 -75.5t-103.5 -28.5q-100 0 -164.5 68t-64.5 164q0 97 64 164.5t165 67.5q57 0 103.5 -28t68.5 -76v94zM275 49q75 0 122 50t47 122q0 73 -47 123t-122 50q-74 0 -120.5 -50.5t-46.5 -122.5t46.5 -122t120.5 -50z" />
    <glyph glyph-name="acircumflex" unicode="&#xe2;" horiz-adv-x="592" 
d="M444 443h65v-443h-65v93q-22 -47 -68.5 -75.5t-103.5 -28.5q-100 0 -164.5 68t-64.5 164q0 97 64 164.5t165 67.5q57 0 103.5 -28t68.5 -76v94zM275 49q75 0 122 50t47 122q0 73 -47 123t-122 50q-74 0 -120.5 -50.5t-46.5 -122.5t46.5 -122t120.5 -50z" />
    <glyph glyph-name="atilde" unicode="&#xe3;" horiz-adv-x="592" 
d="M444 443h65v-443h-65v93q-22 -47 -68.5 -75.5t-103.5 -28.5q-100 0 -164.5 68t-64.5 164q0 97 64 164.5t165 67.5q57 0 103.5 -28t68.5 -76v94zM275 49q75 0 122 50t47 122q0 73 -47 123t-122 50q-74 0 -120.5 -50.5t-46.5 -122.5t46.5 -122t120.5 -50z" />
    <glyph glyph-name="adieresis" unicode="&#xe4;" horiz-adv-x="592" 
d="M444 443h65v-443h-65v93q-22 -47 -68.5 -75.5t-103.5 -28.5q-100 0 -164.5 68t-64.5 164q0 97 64 164.5t165 67.5q57 0 103.5 -28t68.5 -76v94zM275 49q75 0 122 50t47 122q0 73 -47 123t-122 50q-74 0 -120.5 -50.5t-46.5 -122.5t46.5 -122t120.5 -50z" />
    <glyph glyph-name="aring" unicode="&#xe5;" horiz-adv-x="592" 
d="M444 443h65v-443h-65v93q-22 -47 -68.5 -75.5t-103.5 -28.5q-100 0 -164.5 68t-64.5 164q0 97 64 164.5t165 67.5q57 0 103.5 -28t68.5 -76v94zM275 49q75 0 122 50t47 122q0 73 -47 123t-122 50q-74 0 -120.5 -50.5t-46.5 -122.5t46.5 -122t120.5 -50z" />
    <glyph glyph-name="ae" unicode="&#xe6;" horiz-adv-x="1111" 
d="M444 443h65v-443h-65v93q-22 -47 -68.5 -75.5t-103.5 -28.5q-100 0 -164.5 68t-64.5 164q0 97 64 164.5t165 67.5q57 0 103.5 -28t68.5 -76v94zM275 49q75 0 122 50t47 122q0 73 -47 123t-122 50q-74 0 -120.5 -50.5t-46.5 -122.5t46.5 -122t120.5 -50zM854 402
q-66 0 -106.5 -38.5t-43.5 -105.5h293q0 64 -41 104t-102 40zM1058 207h-355q2 -71 40.5 -116t115.5 -45q52 0 85 22.5t45 58.5h66q-12 -58 -65 -98t-131 -40q-107 0 -164 66.5t-57 166.5q0 102 58 166.5t160 64.5q86 0 145.5 -57t59.5 -141q0 -27 -3 -48z" />
    <glyph glyph-name="ccedilla" unicode="&#xe7;" horiz-adv-x="524" 
d="M474 281h-65q-6 51 -40 82.5t-101 31.5q-74 0 -115 -50.5t-41 -122.5q0 -74 41 -123.5t118 -49.5q116 0 140 103h65q-11 -73 -64 -118t-145 -45q-103 0 -162 68.5t-59 164.5t59 164t162 68q99 0 150 -50t57 -123z" />
    <glyph glyph-name="egrave" unicode="&#xe8;" horiz-adv-x="519" 
d="M262 402q-66 0 -106.5 -38.5t-43.5 -105.5h293q0 64 -41 104t-102 40zM466 207h-355q2 -71 40.5 -116t115.5 -45q52 0 85 22.5t45 58.5h66q-12 -58 -65 -98t-131 -40q-107 0 -164 66.5t-57 166.5q0 102 58 166.5t160 64.5q86 0 145.5 -57t59.5 -141q0 -27 -3 -48z" />
    <glyph glyph-name="eacute" unicode="&#xe9;" horiz-adv-x="519" 
d="M262 402q-66 0 -106.5 -38.5t-43.5 -105.5h293q0 64 -41 104t-102 40zM466 207h-355q2 -71 40.5 -116t115.5 -45q52 0 85 22.5t45 58.5h66q-12 -58 -65 -98t-131 -40q-107 0 -164 66.5t-57 166.5q0 102 58 166.5t160 64.5q86 0 145.5 -57t59.5 -141q0 -27 -3 -48z" />
    <glyph glyph-name="ecircumflex" unicode="&#xea;" horiz-adv-x="519" 
d="M262 402q-66 0 -106.5 -38.5t-43.5 -105.5h293q0 64 -41 104t-102 40zM466 207h-355q2 -71 40.5 -116t115.5 -45q52 0 85 22.5t45 58.5h66q-12 -58 -65 -98t-131 -40q-107 0 -164 66.5t-57 166.5q0 102 58 166.5t160 64.5q86 0 145.5 -57t59.5 -141q0 -27 -3 -48z" />
    <glyph glyph-name="edieresis" unicode="&#xeb;" horiz-adv-x="519" 
d="M262 402q-66 0 -106.5 -38.5t-43.5 -105.5h293q0 64 -41 104t-102 40zM466 207h-355q2 -71 40.5 -116t115.5 -45q52 0 85 22.5t45 58.5h66q-12 -58 -65 -98t-131 -40q-107 0 -164 66.5t-57 166.5q0 102 58 166.5t160 64.5q86 0 145.5 -57t59.5 -141q0 -27 -3 -48z" />
    <glyph glyph-name="igrave" unicode="&#xec;" 
d="M83 0v443h65v-443h-65zM56 616q0 26 17 43.5t42 17.5t43 -17.5t18 -43.5q0 -25 -17.5 -42t-43.5 -17q-25 0 -42 17t-17 42z" />
    <glyph glyph-name="iacute" unicode="&#xed;" 
d="M83 0v443h65v-443h-65zM56 616q0 26 17 43.5t42 17.5t43 -17.5t18 -43.5q0 -25 -17.5 -42t-43.5 -17q-25 0 -42 17t-17 42z" />
    <glyph glyph-name="icircumflex" unicode="&#xee;" 
d="M83 0v443h65v-443h-65zM56 616q0 26 17 43.5t42 17.5t43 -17.5t18 -43.5q0 -25 -17.5 -42t-43.5 -17q-25 0 -42 17t-17 42z" />
    <glyph glyph-name="idieresis" unicode="&#xef;" 
d="M83 0v443h65v-443h-65zM56 616q0 26 17 43.5t42 17.5t43 -17.5t18 -43.5q0 -25 -17.5 -42t-43.5 -17q-25 0 -42 17t-17 42z" />
    <glyph glyph-name="ntilde" unicode="&#xf1;" horiz-adv-x="562" 
d="M83 0v443h65v-96q20 47 63.5 76.5t104.5 29.5q89 0 133 -55q39 -48 39 -138v-260h-65v241q0 70 -31.5 112t-97.5 42q-69 0 -107.5 -50.5t-38.5 -117.5v-227h-65z" />
    <glyph glyph-name="ograve" unicode="&#xf2;" horiz-adv-x="552" 
d="M275 -11q-102 0 -167 68t-65 164q0 97 64.5 164.5t167.5 67.5q104 0 169 -67.5t65 -164.5t-65 -164.5t-169 -67.5zM275 49q75 0 122 50t47 122q0 73 -47 123t-122 50q-74 0 -120.5 -50.5t-46.5 -122.5t46.5 -122t120.5 -50z" />
    <glyph glyph-name="oacute" unicode="&#xf3;" horiz-adv-x="552" 
d="M275 -11q-102 0 -167 68t-65 164q0 97 64.5 164.5t167.5 67.5q104 0 169 -67.5t65 -164.5t-65 -164.5t-169 -67.5zM275 49q75 0 122 50t47 122q0 73 -47 123t-122 50q-74 0 -120.5 -50.5t-46.5 -122.5t46.5 -122t120.5 -50z" />
    <glyph glyph-name="ocircumflex" unicode="&#xf4;" horiz-adv-x="552" 
d="M275 -11q-102 0 -167 68t-65 164q0 97 64.5 164.5t167.5 67.5q104 0 169 -67.5t65 -164.5t-65 -164.5t-169 -67.5zM275 49q75 0 122 50t47 122q0 73 -47 123t-122 50q-74 0 -120.5 -50.5t-46.5 -122.5t46.5 -122t120.5 -50z" />
    <glyph glyph-name="otilde" unicode="&#xf5;" horiz-adv-x="552" 
d="M275 -11q-102 0 -167 68t-65 164q0 97 64.5 164.5t167.5 67.5q104 0 169 -67.5t65 -164.5t-65 -164.5t-169 -67.5zM275 49q75 0 122 50t47 122q0 73 -47 123t-122 50q-74 0 -120.5 -50.5t-46.5 -122.5t46.5 -122t120.5 -50z" />
    <glyph glyph-name="odieresis" unicode="&#xf6;" horiz-adv-x="552" 
d="M275 -11q-102 0 -167 68t-65 164q0 97 64.5 164.5t167.5 67.5q104 0 169 -67.5t65 -164.5t-65 -164.5t-169 -67.5zM275 49q75 0 122 50t47 122q0 73 -47 123t-122 50q-74 0 -120.5 -50.5t-46.5 -122.5t46.5 -122t120.5 -50z" />
    <glyph glyph-name="oslash" unicode="&#xf8;" horiz-adv-x="552" 
d="M275 -11q-102 0 -167 68t-65 164q0 97 64.5 164.5t167.5 67.5q104 0 169 -67.5t65 -164.5t-65 -164.5t-169 -67.5zM275 49q75 0 122 50t47 122q0 73 -47 123t-122 50q-74 0 -120.5 -50.5t-46.5 -122.5t46.5 -122t120.5 -50z" />
    <glyph glyph-name="ugrave" unicode="&#xf9;" horiz-adv-x="560" 
d="M412 443h65v-443h-65v96q-20 -47 -64 -77t-104 -30q-88 0 -133 56q-39 48 -39 138v260h66v-241q0 -70 31 -112t97 -42q69 0 107.5 50.5t38.5 117.5v227z" />
    <glyph glyph-name="uacute" unicode="&#xfa;" horiz-adv-x="560" 
d="M412 443h65v-443h-65v96q-20 -47 -64 -77t-104 -30q-88 0 -133 56q-39 48 -39 138v260h66v-241q0 -70 31 -112t97 -42q69 0 107.5 50.5t38.5 117.5v227z" />
    <glyph glyph-name="ucircumflex" unicode="&#xfb;" horiz-adv-x="560" 
d="M412 443h65v-443h-65v96q-20 -47 -64 -77t-104 -30q-88 0 -133 56q-39 48 -39 138v260h66v-241q0 -70 31 -112t97 -42q69 0 107.5 50.5t38.5 117.5v227z" />
    <glyph glyph-name="udieresis" unicode="&#xfc;" horiz-adv-x="560" 
d="M412 443h65v-443h-65v96q-20 -47 -64 -77t-104 -30q-88 0 -133 56q-39 48 -39 138v260h66v-241q0 -70 31 -112t97 -42q69 0 107.5 50.5t38.5 117.5v227z" />
    <glyph glyph-name="yacute" unicode="&#xfd;" horiz-adv-x="568" 
d="M281 -267q-201 0 -206 202h66q8 -146 141 -146q71 0 106 36.5t35 122.5v148q-20 -48 -63 -77.5t-103 -29.5q-90 0 -136 54q-38 45 -38 145v255h66v-236q0 -78 29 -118.5t100 -40.5q69 0 107 50.5t38 117.5v227h65v-495q0 -112 -51.5 -163.5t-155.5 -51.5z" />
    <glyph glyph-name="thorn" unicode="&#xfe;" horiz-adv-x="593" 
d="M148 443v-94q22 48 68.5 76t103.5 28q101 0 165 -67.5t64 -163.5q0 -97 -64.5 -165t-164.5 -68q-57 0 -103.5 28.5t-68.5 76.5v-351h-65v700h65zM317 394q-75 0 -122 -50t-47 -122q0 -73 47 -123t122 -50q74 0 120.5 50.5t46.5 122.5t-46.5 122t-120.5 50z" />
    <glyph glyph-name="ydieresis" unicode="&#xff;" horiz-adv-x="568" 
d="M281 -267q-201 0 -206 202h66q8 -146 141 -146q71 0 106 36.5t35 122.5v148q-20 -48 -63 -77.5t-103 -29.5q-90 0 -136 54q-38 45 -38 145v255h66v-236q0 -78 29 -118.5t100 -40.5q69 0 107 50.5t38 117.5v227h65v-495q0 -112 -51.5 -163.5t-155.5 -51.5z" />
    <glyph glyph-name="Amacron" unicode="&#x100;" horiz-adv-x="546" 
d="M540 0h-72l-43 125h-304l-43 -125h-72l241 700h52zM404 187l-131 404l-131 -404h262z" />
    <glyph glyph-name="amacron" unicode="&#x101;" horiz-adv-x="592" 
d="M444 443h65v-443h-65v93q-22 -47 -68.5 -75.5t-103.5 -28.5q-100 0 -164.5 68t-64.5 164q0 97 64 164.5t165 67.5q57 0 103.5 -28t68.5 -76v94zM275 49q75 0 122 50t47 122q0 73 -47 123t-122 50q-74 0 -120.5 -50.5t-46.5 -122.5t46.5 -122t120.5 -50z" />
    <glyph glyph-name="Abreve" unicode="&#x102;" horiz-adv-x="546" 
d="M540 0h-72l-43 125h-304l-43 -125h-72l241 700h52zM404 187l-131 404l-131 -404h262z" />
    <glyph glyph-name="abreve" unicode="&#x103;" horiz-adv-x="592" 
d="M444 443h65v-443h-65v93q-22 -47 -68.5 -75.5t-103.5 -28.5q-100 0 -164.5 68t-64.5 164q0 97 64 164.5t165 67.5q57 0 103.5 -28t68.5 -76v94zM275 49q75 0 122 50t47 122q0 73 -47 123t-122 50q-74 0 -120.5 -50.5t-46.5 -122.5t46.5 -122t120.5 -50z" />
    <glyph glyph-name="Aogonek" unicode="&#x104;" horiz-adv-x="546" 
d="M540 0h-72l-43 125h-304l-43 -125h-72l241 700h52zM404 187l-131 404l-131 -404h262z" />
    <glyph glyph-name="aogonek" unicode="&#x105;" horiz-adv-x="592" 
d="M444 443h65v-443h-65v93q-22 -47 -68.5 -75.5t-103.5 -28.5q-100 0 -164.5 68t-64.5 164q0 97 64 164.5t165 67.5q57 0 103.5 -28t68.5 -76v94zM275 49q75 0 122 50t47 122q0 73 -47 123t-122 50q-74 0 -120.5 -50.5t-46.5 -122.5t46.5 -122t120.5 -50z" />
    <glyph glyph-name="Cacute" unicode="&#x106;" horiz-adv-x="775" 
d="M658 206h75q-29 -97 -117 -159t-207 -62q-110 0 -195 51t-128 133.5t-43 181.5q0 148 97.5 256t255.5 108q142 0 228.5 -69.5t108.5 -181.5h-71q-20 84 -87 136.5t-171 52.5q-132 0 -211.5 -89t-79.5 -213q0 -128 82 -216t222 -88q82 0 149 44.5t92 114.5z" />
    <glyph glyph-name="cacute" unicode="&#x107;" horiz-adv-x="524" 
d="M474 281h-65q-6 51 -40 82.5t-101 31.5q-74 0 -115 -50.5t-41 -122.5q0 -74 41 -123.5t118 -49.5q116 0 140 103h65q-11 -73 -64 -118t-145 -45q-103 0 -162 68.5t-59 164.5t59 164t162 68q99 0 150 -50t57 -123z" />
    <glyph glyph-name="Ccircumflex" unicode="&#x108;" horiz-adv-x="775" 
d="M658 206h75q-29 -97 -117 -159t-207 -62q-110 0 -195 51t-128 133.5t-43 181.5q0 148 97.5 256t255.5 108q142 0 228.5 -69.5t108.5 -181.5h-71q-20 84 -87 136.5t-171 52.5q-132 0 -211.5 -89t-79.5 -213q0 -128 82 -216t222 -88q82 0 149 44.5t92 114.5z" />
    <glyph glyph-name="ccircumflex" unicode="&#x109;" horiz-adv-x="524" 
d="M474 281h-65q-6 51 -40 82.5t-101 31.5q-74 0 -115 -50.5t-41 -122.5q0 -74 41 -123.5t118 -49.5q116 0 140 103h65q-11 -73 -64 -118t-145 -45q-103 0 -162 68.5t-59 164.5t59 164t162 68q99 0 150 -50t57 -123z" />
    <glyph glyph-name="Cdotaccent" unicode="&#x10a;" horiz-adv-x="775" 
d="M658 206h75q-29 -97 -117 -159t-207 -62q-110 0 -195 51t-128 133.5t-43 181.5q0 148 97.5 256t255.5 108q142 0 228.5 -69.5t108.5 -181.5h-71q-20 84 -87 136.5t-171 52.5q-132 0 -211.5 -89t-79.5 -213q0 -128 82 -216t222 -88q82 0 149 44.5t92 114.5z" />
    <glyph glyph-name="cdotaccent" unicode="&#x10b;" horiz-adv-x="524" 
d="M474 281h-65q-6 51 -40 82.5t-101 31.5q-74 0 -115 -50.5t-41 -122.5q0 -74 41 -123.5t118 -49.5q116 0 140 103h65q-11 -73 -64 -118t-145 -45q-103 0 -162 68.5t-59 164.5t59 164t162 68q99 0 150 -50t57 -123z" />
    <glyph glyph-name="Ccaron" unicode="&#x10c;" horiz-adv-x="775" 
d="M658 206h75q-29 -97 -117 -159t-207 -62q-110 0 -195 51t-128 133.5t-43 181.5q0 148 97.5 256t255.5 108q142 0 228.5 -69.5t108.5 -181.5h-71q-20 84 -87 136.5t-171 52.5q-132 0 -211.5 -89t-79.5 -213q0 -128 82 -216t222 -88q82 0 149 44.5t92 114.5z" />
    <glyph glyph-name="ccaron" unicode="&#x10d;" horiz-adv-x="524" 
d="M474 281h-65q-6 51 -40 82.5t-101 31.5q-74 0 -115 -50.5t-41 -122.5q0 -74 41 -123.5t118 -49.5q116 0 140 103h65q-11 -73 -64 -118t-145 -45q-103 0 -162 68.5t-59 164.5t59 164t162 68q99 0 150 -50t57 -123z" />
    <glyph glyph-name="Dcaron" unicode="&#x10e;" horiz-adv-x="694" 
d="M83 700h205q84 0 154 -29.5t115 -79t69.5 -112t24.5 -129.5t-24.5 -129.5t-69.5 -112t-115 -79t-154 -29.5h-205v700zM288 638h-137v-576h137q134 0 213.5 86t79.5 202t-79.5 202t-213.5 86z" />
    <glyph glyph-name="dcaron" unicode="&#x10f;" horiz-adv-x="592" 
d="M444 0v93q-22 -47 -68.5 -75.5t-103.5 -28.5q-100 0 -164.5 68t-64.5 164q0 97 64 164.5t165 67.5q57 0 103.5 -28t68.5 -76v351h65v-700h-65zM275 49q75 0 122 50t47 122q0 73 -47 123t-122 50q-74 0 -120.5 -50.5t-46.5 -122.5t46.5 -122t120.5 -50z" />
    <glyph glyph-name="Dcroat" unicode="&#x110;" horiz-adv-x="694" 
d="M83 700h205q84 0 154 -29.5t115 -79t69.5 -112t24.5 -129.5t-24.5 -129.5t-69.5 -112t-115 -79t-154 -29.5h-205v700zM288 638h-137v-576h137q134 0 213.5 86t79.5 202t-79.5 202t-213.5 86z" />
    <glyph glyph-name="dcroat" unicode="&#x111;" horiz-adv-x="592" 
d="M444 0v93q-22 -47 -68.5 -75.5t-103.5 -28.5q-100 0 -164.5 68t-64.5 164q0 97 64 164.5t165 67.5q57 0 103.5 -28t68.5 -76v351h65v-700h-65zM275 49q75 0 122 50t47 122q0 73 -47 123t-122 50q-74 0 -120.5 -50.5t-46.5 -122.5t46.5 -122t120.5 -50z" />
    <glyph glyph-name="Emacron" unicode="&#x112;" horiz-adv-x="543" 
d="M465 638h-314v-259h314v-62h-314v-255h314v-62h-382v700h382v-62z" />
    <glyph glyph-name="emacron" unicode="&#x113;" horiz-adv-x="519" 
d="M262 402q-66 0 -106.5 -38.5t-43.5 -105.5h293q0 64 -41 104t-102 40zM466 207h-355q2 -71 40.5 -116t115.5 -45q52 0 85 22.5t45 58.5h66q-12 -58 -65 -98t-131 -40q-107 0 -164 66.5t-57 166.5q0 102 58 166.5t160 64.5q86 0 145.5 -57t59.5 -141q0 -27 -3 -48z" />
    <glyph glyph-name="Ebreve" unicode="&#x114;" horiz-adv-x="543" 
d="M465 638h-314v-259h314v-62h-314v-255h314v-62h-382v700h382v-62z" />
    <glyph glyph-name="ebreve" unicode="&#x115;" horiz-adv-x="519" 
d="M262 402q-66 0 -106.5 -38.5t-43.5 -105.5h293q0 64 -41 104t-102 40zM466 207h-355q2 -71 40.5 -116t115.5 -45q52 0 85 22.5t45 58.5h66q-12 -58 -65 -98t-131 -40q-107 0 -164 66.5t-57 166.5q0 102 58 166.5t160 64.5q86 0 145.5 -57t59.5 -141q0 -27 -3 -48z" />
    <glyph glyph-name="Edotaccent" unicode="&#x116;" horiz-adv-x="543" 
d="M465 638h-314v-259h314v-62h-314v-255h314v-62h-382v700h382v-62z" />
    <glyph glyph-name="edotaccent" unicode="&#x117;" horiz-adv-x="519" 
d="M262 402q-66 0 -106.5 -38.5t-43.5 -105.5h293q0 64 -41 104t-102 40zM466 207h-355q2 -71 40.5 -116t115.5 -45q52 0 85 22.5t45 58.5h66q-12 -58 -65 -98t-131 -40q-107 0 -164 66.5t-57 166.5q0 102 58 166.5t160 64.5q86 0 145.5 -57t59.5 -141q0 -27 -3 -48z" />
    <glyph glyph-name="Eogonek" unicode="&#x118;" horiz-adv-x="543" 
d="M465 638h-314v-259h314v-62h-314v-255h314v-62h-382v700h382v-62z" />
    <glyph glyph-name="eogonek" unicode="&#x119;" horiz-adv-x="519" 
d="M262 402q-66 0 -106.5 -38.5t-43.5 -105.5h293q0 64 -41 104t-102 40zM466 207h-355q2 -71 40.5 -116t115.5 -45q52 0 85 22.5t45 58.5h66q-12 -58 -65 -98t-131 -40q-107 0 -164 66.5t-57 166.5q0 102 58 166.5t160 64.5q86 0 145.5 -57t59.5 -141q0 -27 -3 -48z" />
    <glyph glyph-name="Ecaron" unicode="&#x11a;" horiz-adv-x="543" 
d="M465 638h-314v-259h314v-62h-314v-255h314v-62h-382v700h382v-62z" />
    <glyph glyph-name="ecaron" unicode="&#x11b;" horiz-adv-x="519" 
d="M262 402q-66 0 -106.5 -38.5t-43.5 -105.5h293q0 64 -41 104t-102 40zM466 207h-355q2 -71 40.5 -116t115.5 -45q52 0 85 22.5t45 58.5h66q-12 -58 -65 -98t-131 -40q-107 0 -164 66.5t-57 166.5q0 102 58 166.5t160 64.5q86 0 145.5 -57t59.5 -141q0 -27 -3 -48z" />
    <glyph glyph-name="Gcircumflex" unicode="&#x11c;" horiz-adv-x="833" 
d="M463 262v62h342v-62h-74q-18 -128 -102.5 -202.5t-227.5 -74.5q-111 0 -194 52.5t-123.5 134t-40.5 178.5q0 149 99 257t259 108q111 0 191 -56t98 -140h-70q-17 58 -77.5 96t-141.5 38q-130 0 -209 -89.5t-79 -213.5q0 -126 78 -214.5t218 -88.5q110 0 174 59t76 156
h-196z" />
    <glyph glyph-name="gcircumflex" unicode="&#x11d;" horiz-adv-x="590" 
d="M275 394q-74 0 -120.5 -50t-46.5 -122t46.5 -122.5t120.5 -50.5q75 0 122 50t47 123q0 72 -47 122t-122 50zM509 443v-477q0 -122 -60.5 -177.5t-176.5 -55.5q-108 0 -163.5 58t-60.5 146h66q4 -64 42.5 -104.5t115.5 -40.5q84 0 128 41t44 133v128q-22 -48 -68.5 -76.5
t-103.5 -28.5q-100 0 -164.5 68t-64.5 165q0 96 64 163.5t165 67.5q57 0 103.5 -28t68.5 -76v94h65z" />
    <glyph glyph-name="Gbreve" unicode="&#x11e;" horiz-adv-x="833" 
d="M463 262v62h342v-62h-74q-18 -128 -102.5 -202.5t-227.5 -74.5q-111 0 -194 52.5t-123.5 134t-40.5 178.5q0 149 99 257t259 108q111 0 191 -56t98 -140h-70q-17 58 -77.5 96t-141.5 38q-130 0 -209 -89.5t-79 -213.5q0 -126 78 -214.5t218 -88.5q110 0 174 59t76 156
h-196z" />
    <glyph glyph-name="gbreve" unicode="&#x11f;" horiz-adv-x="590" 
d="M275 394q-74 0 -120.5 -50t-46.5 -122t46.5 -122.5t120.5 -50.5q75 0 122 50t47 123q0 72 -47 122t-122 50zM509 443v-477q0 -122 -60.5 -177.5t-176.5 -55.5q-108 0 -163.5 58t-60.5 146h66q4 -64 42.5 -104.5t115.5 -40.5q84 0 128 41t44 133v128q-22 -48 -68.5 -76.5
t-103.5 -28.5q-100 0 -164.5 68t-64.5 165q0 96 64 163.5t165 67.5q57 0 103.5 -28t68.5 -76v94h65z" />
    <glyph glyph-name="Gdotaccent" unicode="&#x120;" horiz-adv-x="833" 
d="M463 262v62h342v-62h-74q-18 -128 -102.5 -202.5t-227.5 -74.5q-111 0 -194 52.5t-123.5 134t-40.5 178.5q0 149 99 257t259 108q111 0 191 -56t98 -140h-70q-17 58 -77.5 96t-141.5 38q-130 0 -209 -89.5t-79 -213.5q0 -126 78 -214.5t218 -88.5q110 0 174 59t76 156
h-196z" />
    <glyph glyph-name="gdotaccent" unicode="&#x121;" horiz-adv-x="590" 
d="M275 394q-74 0 -120.5 -50t-46.5 -122t46.5 -122.5t120.5 -50.5q75 0 122 50t47 123q0 72 -47 122t-122 50zM509 443v-477q0 -122 -60.5 -177.5t-176.5 -55.5q-108 0 -163.5 58t-60.5 146h66q4 -64 42.5 -104.5t115.5 -40.5q84 0 128 41t44 133v128q-22 -48 -68.5 -76.5
t-103.5 -28.5q-100 0 -164.5 68t-64.5 165q0 96 64 163.5t165 67.5q57 0 103.5 -28t68.5 -76v94h65z" />
    <glyph glyph-name="Gcommaaccent" unicode="&#x122;" horiz-adv-x="833" 
d="M463 262v62h342v-62h-74q-18 -128 -102.5 -202.5t-227.5 -74.5q-111 0 -194 52.5t-123.5 134t-40.5 178.5q0 149 99 257t259 108q111 0 191 -56t98 -140h-70q-17 58 -77.5 96t-141.5 38q-130 0 -209 -89.5t-79 -213.5q0 -126 78 -214.5t218 -88.5q110 0 174 59t76 156
h-196z" />
    <glyph glyph-name="gcommaaccent" unicode="&#x123;" horiz-adv-x="590" 
d="M275 394q-74 0 -120.5 -50t-46.5 -122t46.5 -122.5t120.5 -50.5q75 0 122 50t47 123q0 72 -47 122t-122 50zM509 443v-477q0 -122 -60.5 -177.5t-176.5 -55.5q-108 0 -163.5 58t-60.5 146h66q4 -64 42.5 -104.5t115.5 -40.5q84 0 128 41t44 133v128q-22 -48 -68.5 -76.5
t-103.5 -28.5q-100 0 -164.5 68t-64.5 165q0 96 64 163.5t165 67.5q57 0 103.5 -28t68.5 -76v94h65z" />
    <glyph glyph-name="Hcircumflex" unicode="&#x124;" horiz-adv-x="663" 
d="M511 0v317h-360v-317h-68v700h68v-321h360v321h69v-700h-69z" />
    <glyph glyph-name="hcircumflex" unicode="&#x125;" horiz-adv-x="562" 
d="M83 0v700h65v-353q20 47 63.5 76.5t104.5 29.5q89 0 133 -55q39 -48 39 -138v-260h-65v241q0 70 -31.5 112t-97.5 42q-69 0 -107.5 -50.5t-38.5 -117.5v-227h-65z" />
    <glyph glyph-name="Hbar" unicode="&#x126;" horiz-adv-x="663" 
d="M511 0v317h-360v-317h-68v700h68v-321h360v321h69v-700h-69z" />
    <glyph glyph-name="hbar" unicode="&#x127;" horiz-adv-x="562" 
d="M83 0v700h65v-353q20 47 63.5 76.5t104.5 29.5q89 0 133 -55q39 -48 39 -138v-260h-65v241q0 70 -31.5 112t-97.5 42q-69 0 -107.5 -50.5t-38.5 -117.5v-227h-65z" />
    <glyph glyph-name="Itilde" unicode="&#x128;" horiz-adv-x="236" 
d="M83 0v700h70v-700h-70z" />
    <glyph glyph-name="itilde" unicode="&#x129;" 
d="M83 0v443h65v-443h-65zM56 616q0 26 17 43.5t42 17.5t43 -17.5t18 -43.5q0 -25 -17.5 -42t-43.5 -17q-25 0 -42 17t-17 42z" />
    <glyph glyph-name="Imacron" unicode="&#x12a;" horiz-adv-x="236" 
d="M83 0v700h70v-700h-70z" />
    <glyph glyph-name="imacron" unicode="&#x12b;" 
d="M83 0v443h65v-443h-65zM56 616q0 26 17 43.5t42 17.5t43 -17.5t18 -43.5q0 -25 -17.5 -42t-43.5 -17q-25 0 -42 17t-17 42z" />
    <glyph glyph-name="Ibreve" unicode="&#x12c;" horiz-adv-x="236" 
d="M83 0v700h70v-700h-70z" />
    <glyph glyph-name="ibreve" unicode="&#x12d;" 
d="M83 0v443h65v-443h-65zM56 616q0 26 17 43.5t42 17.5t43 -17.5t18 -43.5q0 -25 -17.5 -42t-43.5 -17q-25 0 -42 17t-17 42z" />
    <glyph glyph-name="Iogonek" unicode="&#x12e;" horiz-adv-x="236" 
d="M83 0v700h70v-700h-70z" />
    <glyph glyph-name="iogonek" unicode="&#x12f;" 
d="M83 0v443h65v-443h-65zM56 616q0 26 17 43.5t42 17.5t43 -17.5t18 -43.5q0 -25 -17.5 -42t-43.5 -17q-25 0 -42 17t-17 42z" />
    <glyph glyph-name="Idotaccent" unicode="&#x130;" horiz-adv-x="236" 
d="M83 0v700h70v-700h-70z" />
    <glyph glyph-name="dotlessi" unicode="&#x131;" 
d="M83 0v443h65v-443h-65zM56 616q0 26 17 43.5t42 17.5t43 -17.5t18 -43.5q0 -25 -17.5 -42t-43.5 -17q-25 0 -42 17t-17 42z" />
    <glyph glyph-name="IJ" unicode="&#x132;" horiz-adv-x="772" 
d="M83 0v700h70v-700h-70zM699 700v-484q0 -103 -60 -167t-161 -64q-99 0 -162.5 65t-63.5 167h68q0 -77 44.5 -123.5t113.5 -46.5q70 0 111 46t41 123v484h69z" />
    <glyph glyph-name="ij" unicode="&#x133;" horiz-adv-x="462" 
d="M83 0v443h65v-443h-65zM56 616q0 26 17 43.5t42 17.5t43 -17.5t18 -43.5q0 -25 -17.5 -42t-43.5 -17q-25 0 -42 17t-17 42zM379 443v-578q0 -65 -29 -97.5t-74 -32.5q-44 0 -69 12v60q26 -9 51 -9q26 0 41 20t15 56v569h65zM287 616q0 25 17.5 43t42.5 18t42.5 -18
t17.5 -43t-17.5 -42t-42.5 -17t-42.5 17t-17.5 42z" />
    <glyph glyph-name="Jcircumflex" unicode="&#x134;" horiz-adv-x="536" 
d="M463 700v-484q0 -103 -60 -167t-161 -64q-99 0 -162.5 65t-63.5 167h68q0 -77 44.5 -123.5t113.5 -46.5q70 0 111 46t41 123v484h69z" />
    <glyph glyph-name="jcircumflex" unicode="&#x135;" 
d="M148 443v-578q0 -65 -29 -97.5t-74 -32.5q-44 0 -69 12v60q26 -9 51 -9q26 0 41 20t15 56v569h65zM56 616q0 25 17.5 43t42.5 18t42.5 -18t17.5 -43t-17.5 -42t-42.5 -17t-42.5 17t-17.5 42z" />
    <glyph glyph-name="Kcommaaccent" unicode="&#x136;" horiz-adv-x="574" 
d="M477 0l-326 328v-328h-68v700h68v-329l326 329h88l-344 -350l344 -350h-88z" />
    <glyph glyph-name="kcommaaccent" unicode="&#x137;" horiz-adv-x="455" 
d="M441 443l-219 -222l219 -221h-85l-208 207v-207h-65v700h65v-465l208 208h85z" />
    <glyph glyph-name="kgreenlandic" unicode="&#x138;" horiz-adv-x="455" 
d="M441 443l-219 -222l219 -221h-85l-208 207v-207h-65v700h65v-465l208 208h85z" />
    <glyph glyph-name="Lacute" unicode="&#x139;" horiz-adv-x="422" 
d="M151 62h241v-62h-309v700h68v-638z" />
    <glyph glyph-name="lacute" unicode="&#x13a;" 
d="M83 0v700h65v-700h-65z" />
    <glyph glyph-name="Lcommaaccent" unicode="&#x13b;" horiz-adv-x="422" 
d="M151 62h241v-62h-309v700h68v-638z" />
    <glyph glyph-name="lcommaaccent" unicode="&#x13c;" 
d="M83 0v700h65v-700h-65z" />
    <glyph glyph-name="Lcaron" unicode="&#x13d;" horiz-adv-x="422" 
d="M151 62h241v-62h-309v700h68v-638z" />
    <glyph glyph-name="lcaron" unicode="&#x13e;" 
d="M83 0v700h65v-700h-65z" />
    <glyph glyph-name="Ldot" unicode="&#x13f;" horiz-adv-x="422" 
d="M151 62h241v-62h-309v700h68v-638z" />
    <glyph glyph-name="ldot" unicode="&#x140;" 
d="M83 0v700h65v-700h-65z" />
    <glyph glyph-name="Lslash" unicode="&#x141;" horiz-adv-x="422" 
d="M151 62h241v-62h-309v700h68v-638z" />
    <glyph glyph-name="lslash" unicode="&#x142;" 
d="M83 0v700h65v-700h-65z" />
    <glyph glyph-name="Nacute" unicode="&#x143;" horiz-adv-x="662" 
d="M159 700l351 -582v582h69v-700h-76l-352 582v-582h-68v700h76z" />
    <glyph glyph-name="nacute" unicode="&#x144;" horiz-adv-x="562" 
d="M83 0v443h65v-96q20 47 63.5 76.5t104.5 29.5q89 0 133 -55q39 -48 39 -138v-260h-65v241q0 70 -31.5 112t-97.5 42q-69 0 -107.5 -50.5t-38.5 -117.5v-227h-65z" />
    <glyph glyph-name="Ncommaaccent" unicode="&#x145;" horiz-adv-x="662" 
d="M159 700l351 -582v582h69v-700h-76l-352 582v-582h-68v700h76z" />
    <glyph glyph-name="ncommaaccent" unicode="&#x146;" horiz-adv-x="562" 
d="M83 0v443h65v-96q20 47 63.5 76.5t104.5 29.5q89 0 133 -55q39 -48 39 -138v-260h-65v241q0 70 -31.5 112t-97.5 42q-69 0 -107.5 -50.5t-38.5 -117.5v-227h-65z" />
    <glyph glyph-name="Ncaron" unicode="&#x147;" horiz-adv-x="662" 
d="M159 700l351 -582v582h69v-700h-76l-352 582v-582h-68v700h76z" />
    <glyph glyph-name="ncaron" unicode="&#x148;" horiz-adv-x="562" 
d="M83 0v443h65v-96q20 47 63.5 76.5t104.5 29.5q89 0 133 -55q39 -48 39 -138v-260h-65v241q0 70 -31.5 112t-97.5 42q-69 0 -107.5 -50.5t-38.5 -117.5v-227h-65z" />
    <glyph glyph-name="napostrophe" unicode="&#x149;" horiz-adv-x="562" 
d="M83 0v443h65v-96q20 47 63.5 76.5t104.5 29.5q89 0 133 -55q39 -48 39 -138v-260h-65v241q0 70 -31.5 112t-97.5 42q-69 0 -107.5 -50.5t-38.5 -117.5v-227h-65z" />
    <glyph glyph-name="Eng" unicode="&#x14a;" horiz-adv-x="662" 
d="M159 700l351 -582v582h69v-700h-76l-352 582v-582h-68v700h76z" />
    <glyph glyph-name="eng" unicode="&#x14b;" horiz-adv-x="562" 
d="M83 0v443h65v-96q20 47 63.5 76.5t104.5 29.5q89 0 133 -55q39 -48 39 -138v-260h-65v241q0 70 -31.5 112t-97.5 42q-69 0 -107.5 -50.5t-38.5 -117.5v-227h-65z" />
    <glyph glyph-name="Omacron" unicode="&#x14c;" horiz-adv-x="806" 
d="M403 -15q-108 0 -191.5 52t-126 134.5t-42.5 178.5t42.5 178.5t126 134.5t191.5 52t191.5 -52t126 -134.5t42.5 -178.5t-42.5 -178.5t-126 -134.5t-191.5 -52zM403 47q129 0 209 90t80 213t-80 213t-209 90q-130 0 -209.5 -89.5t-79.5 -213.5t79.5 -213.5t209.5 -89.5z
" />
    <glyph glyph-name="omacron" unicode="&#x14d;" horiz-adv-x="552" 
d="M275 -11q-102 0 -167 68t-65 164q0 97 64.5 164.5t167.5 67.5q104 0 169 -67.5t65 -164.5t-65 -164.5t-169 -67.5zM275 49q75 0 122 50t47 122q0 73 -47 123t-122 50q-74 0 -120.5 -50.5t-46.5 -122.5t46.5 -122t120.5 -50z" />
    <glyph glyph-name="Obreve" unicode="&#x14e;" horiz-adv-x="806" 
d="M403 -15q-108 0 -191.5 52t-126 134.5t-42.5 178.5t42.5 178.5t126 134.5t191.5 52t191.5 -52t126 -134.5t42.5 -178.5t-42.5 -178.5t-126 -134.5t-191.5 -52zM403 47q129 0 209 90t80 213t-80 213t-209 90q-130 0 -209.5 -89.5t-79.5 -213.5t79.5 -213.5t209.5 -89.5z
" />
    <glyph glyph-name="obreve" unicode="&#x14f;" horiz-adv-x="552" 
d="M275 -11q-102 0 -167 68t-65 164q0 97 64.5 164.5t167.5 67.5q104 0 169 -67.5t65 -164.5t-65 -164.5t-169 -67.5zM275 49q75 0 122 50t47 122q0 73 -47 123t-122 50q-74 0 -120.5 -50.5t-46.5 -122.5t46.5 -122t120.5 -50z" />
    <glyph glyph-name="Ohungarumlaut" unicode="&#x150;" horiz-adv-x="806" 
d="M403 -15q-108 0 -191.5 52t-126 134.5t-42.5 178.5t42.5 178.5t126 134.5t191.5 52t191.5 -52t126 -134.5t42.5 -178.5t-42.5 -178.5t-126 -134.5t-191.5 -52zM403 47q129 0 209 90t80 213t-80 213t-209 90q-130 0 -209.5 -89.5t-79.5 -213.5t79.5 -213.5t209.5 -89.5z
" />
    <glyph glyph-name="ohungarumlaut" unicode="&#x151;" horiz-adv-x="552" 
d="M275 -11q-102 0 -167 68t-65 164q0 97 64.5 164.5t167.5 67.5q104 0 169 -67.5t65 -164.5t-65 -164.5t-169 -67.5zM275 49q75 0 122 50t47 122q0 73 -47 123t-122 50q-74 0 -120.5 -50.5t-46.5 -122.5t46.5 -122t120.5 -50z" />
    <glyph glyph-name="OE" unicode="&#x152;" horiz-adv-x="1349" 
d="M403 -15q-108 0 -191.5 52t-126 134.5t-42.5 178.5t42.5 178.5t126 134.5t191.5 52t191.5 -52t126 -134.5t42.5 -178.5t-42.5 -178.5t-126 -134.5t-191.5 -52zM403 47q129 0 209 90t80 213t-80 213t-209 90q-130 0 -209.5 -89.5t-79.5 -213.5t79.5 -213.5t209.5 -89.5z
M1271 638h-314v-259h314v-62h-314v-255h314v-62h-382v700h382v-62z" />
    <glyph glyph-name="oe" unicode="&#x153;" horiz-adv-x="1071" 
d="M275 -11q-102 0 -167 68t-65 164q0 97 64.5 164.5t167.5 67.5q104 0 169 -67.5t65 -164.5t-65 -164.5t-169 -67.5zM275 49q75 0 122 50t47 122q0 73 -47 123t-122 50q-74 0 -120.5 -50.5t-46.5 -122.5t46.5 -122t120.5 -50zM814 402q-66 0 -106.5 -38.5t-43.5 -105.5h293
q0 64 -41 104t-102 40zM1018 207h-355q2 -71 40.5 -116t115.5 -45q52 0 85 22.5t45 58.5h66q-12 -58 -65 -98t-131 -40q-107 0 -164 66.5t-57 166.5q0 102 58 166.5t160 64.5q86 0 145.5 -57t59.5 -141q0 -27 -3 -48z" />
    <glyph glyph-name="Racute" unicode="&#x154;" horiz-adv-x="602" 
d="M83 0v700h241q104 0 169 -67.5t65 -164.5q0 -78 -44.5 -139t-119.5 -82l157 -247h-79l-149 236h-172v-236h-68zM324 298q74 0 119.5 49.5t45.5 120.5t-45.5 120.5t-119.5 49.5h-173v-340h173z" />
    <glyph glyph-name="racute" unicode="&#x155;" horiz-adv-x="353" 
d="M348 442v-60q-20 6 -42 6q-77 0 -117.5 -54.5t-40.5 -136.5v-197h-65v443h65v-104q19 52 62.5 81t95.5 29q27 0 42 -7z" />
    <glyph glyph-name="Rcommaaccent" unicode="&#x156;" horiz-adv-x="602" 
d="M83 0v700h241q104 0 169 -67.5t65 -164.5q0 -78 -44.5 -139t-119.5 -82l157 -247h-79l-149 236h-172v-236h-68zM324 298q74 0 119.5 49.5t45.5 120.5t-45.5 120.5t-119.5 49.5h-173v-340h173z" />
    <glyph glyph-name="rcommaaccent" unicode="&#x157;" horiz-adv-x="353" 
d="M348 442v-60q-20 6 -42 6q-77 0 -117.5 -54.5t-40.5 -136.5v-197h-65v443h65v-104q19 52 62.5 81t95.5 29q27 0 42 -7z" />
    <glyph glyph-name="Rcaron" unicode="&#x158;" horiz-adv-x="602" 
d="M83 0v700h241q104 0 169 -67.5t65 -164.5q0 -78 -44.5 -139t-119.5 -82l157 -247h-79l-149 236h-172v-236h-68zM324 298q74 0 119.5 49.5t45.5 120.5t-45.5 120.5t-119.5 49.5h-173v-340h173z" />
    <glyph glyph-name="rcaron" unicode="&#x159;" horiz-adv-x="353" 
d="M348 442v-60q-20 6 -42 6q-77 0 -117.5 -54.5t-40.5 -136.5v-197h-65v443h65v-104q19 52 62.5 81t95.5 29q27 0 42 -7z" />
    <glyph glyph-name="Sacute" unicode="&#x15a;" horiz-adv-x="572" 
d="M47 217h68q0 -77 49 -123.5t131 -46.5q73 0 117.5 36t44.5 97q0 28 -10 50.5t-23 36.5t-36.5 25.5t-41 17t-44.5 12.5l-52 15.5t-46.5 16.5t-44 20.5t-34.5 25.5t-28.5 34t-16.5 43.5t-7 55.5q0 80 60 131t159 51q97 0 157 -57t61 -153h-68q-2 69 -41 108.5t-107 39.5
q-71 0 -111.5 -33t-40.5 -87q0 -34 12 -58t37 -39.5t47.5 -24t59.5 -18.5q52 -14 83 -26t69 -35.5t56.5 -59.5t18.5 -85q0 -95 -65 -148.5t-170 -53.5q-107 0 -175 63.5t-68 168.5z" />
    <glyph glyph-name="sacute" unicode="&#x15b;" horiz-adv-x="450" 
d="M256 242q36 -9 54.5 -15t43 -20t35.5 -35.5t11 -52.5q0 -63 -46 -96.5t-125 -33.5q-80 0 -132.5 41t-52.5 120h64q0 -107 124 -107q50 0 78 19.5t28 55.5q0 12 -3 21.5t-11.5 17.5t-15.5 13t-23.5 10.5l-26 8.5t-32 9l-34.5 9q-33 8 -52.5 15t-41 20t-31 34t-9.5 51
q0 60 45.5 93t118.5 33q74 0 122.5 -40t48.5 -107h-64q0 45 -28.5 69.5t-79.5 24.5q-44 0 -71.5 -19.5t-27.5 -54.5q0 -39 44 -57q15 -7 90 -27z" />
    <glyph glyph-name="Scircumflex" unicode="&#x15c;" horiz-adv-x="572" 
d="M47 217h68q0 -77 49 -123.5t131 -46.5q73 0 117.5 36t44.5 97q0 28 -10 50.5t-23 36.5t-36.5 25.5t-41 17t-44.5 12.5l-52 15.5t-46.5 16.5t-44 20.5t-34.5 25.5t-28.5 34t-16.5 43.5t-7 55.5q0 80 60 131t159 51q97 0 157 -57t61 -153h-68q-2 69 -41 108.5t-107 39.5
q-71 0 -111.5 -33t-40.5 -87q0 -34 12 -58t37 -39.5t47.5 -24t59.5 -18.5q52 -14 83 -26t69 -35.5t56.5 -59.5t18.5 -85q0 -95 -65 -148.5t-170 -53.5q-107 0 -175 63.5t-68 168.5z" />
    <glyph glyph-name="scircumflex" unicode="&#x15d;" horiz-adv-x="450" 
d="M256 242q36 -9 54.5 -15t43 -20t35.5 -35.5t11 -52.5q0 -63 -46 -96.5t-125 -33.5q-80 0 -132.5 41t-52.5 120h64q0 -107 124 -107q50 0 78 19.5t28 55.5q0 12 -3 21.5t-11.5 17.5t-15.5 13t-23.5 10.5l-26 8.5t-32 9l-34.5 9q-33 8 -52.5 15t-41 20t-31 34t-9.5 51
q0 60 45.5 93t118.5 33q74 0 122.5 -40t48.5 -107h-64q0 45 -28.5 69.5t-79.5 24.5q-44 0 -71.5 -19.5t-27.5 -54.5q0 -39 44 -57q15 -7 90 -27z" />
    <glyph glyph-name="Scedilla" unicode="&#x15e;" horiz-adv-x="572" 
d="M47 217h68q0 -77 49 -123.5t131 -46.5q73 0 117.5 36t44.5 97q0 28 -10 50.5t-23 36.5t-36.5 25.5t-41 17t-44.5 12.5l-52 15.5t-46.5 16.5t-44 20.5t-34.5 25.5t-28.5 34t-16.5 43.5t-7 55.5q0 80 60 131t159 51q97 0 157 -57t61 -153h-68q-2 69 -41 108.5t-107 39.5
q-71 0 -111.5 -33t-40.5 -87q0 -34 12 -58t37 -39.5t47.5 -24t59.5 -18.5q52 -14 83 -26t69 -35.5t56.5 -59.5t18.5 -85q0 -95 -65 -148.5t-170 -53.5q-107 0 -175 63.5t-68 168.5z" />
    <glyph glyph-name="scedilla" unicode="&#x15f;" horiz-adv-x="450" 
d="M256 242q36 -9 54.5 -15t43 -20t35.5 -35.5t11 -52.5q0 -63 -46 -96.5t-125 -33.5q-80 0 -132.5 41t-52.5 120h64q0 -107 124 -107q50 0 78 19.5t28 55.5q0 12 -3 21.5t-11.5 17.5t-15.5 13t-23.5 10.5l-26 8.5t-32 9l-34.5 9q-33 8 -52.5 15t-41 20t-31 34t-9.5 51
q0 60 45.5 93t118.5 33q74 0 122.5 -40t48.5 -107h-64q0 45 -28.5 69.5t-79.5 24.5q-44 0 -71.5 -19.5t-27.5 -54.5q0 -39 44 -57q15 -7 90 -27z" />
    <glyph glyph-name="Scaron" unicode="&#x160;" horiz-adv-x="572" 
d="M47 217h68q0 -77 49 -123.5t131 -46.5q73 0 117.5 36t44.5 97q0 28 -10 50.5t-23 36.5t-36.5 25.5t-41 17t-44.5 12.5l-52 15.5t-46.5 16.5t-44 20.5t-34.5 25.5t-28.5 34t-16.5 43.5t-7 55.5q0 80 60 131t159 51q97 0 157 -57t61 -153h-68q-2 69 -41 108.5t-107 39.5
q-71 0 -111.5 -33t-40.5 -87q0 -34 12 -58t37 -39.5t47.5 -24t59.5 -18.5q52 -14 83 -26t69 -35.5t56.5 -59.5t18.5 -85q0 -95 -65 -148.5t-170 -53.5q-107 0 -175 63.5t-68 168.5z" />
    <glyph glyph-name="scaron" unicode="&#x161;" horiz-adv-x="450" 
d="M256 242q36 -9 54.5 -15t43 -20t35.5 -35.5t11 -52.5q0 -63 -46 -96.5t-125 -33.5q-80 0 -132.5 41t-52.5 120h64q0 -107 124 -107q50 0 78 19.5t28 55.5q0 12 -3 21.5t-11.5 17.5t-15.5 13t-23.5 10.5l-26 8.5t-32 9l-34.5 9q-33 8 -52.5 15t-41 20t-31 34t-9.5 51
q0 60 45.5 93t118.5 33q74 0 122.5 -40t48.5 -107h-64q0 45 -28.5 69.5t-79.5 24.5q-44 0 -71.5 -19.5t-27.5 -54.5q0 -39 44 -57q15 -7 90 -27z" />
    <glyph glyph-name="Tcommaaccent" unicode="&#x162;" horiz-adv-x="474" 
d="M202 0v638h-188v62h446v-62h-190v-638h-68z" />
    <glyph glyph-name="tcommaaccent" unicode="&#x163;" horiz-adv-x="329" 
d="M319 59v-59q-34 -6 -75 -6q-21 0 -37 2t-35.5 11.5t-32 25t-21.5 45t-9 70.5v239h-89v56h89v164h66v-164h128v-56h-128v-226q0 -65 20.5 -86t61.5 -21q35 0 62 5z" />
    <glyph glyph-name="Tcaron" unicode="&#x164;" horiz-adv-x="474" 
d="M202 0v638h-188v62h446v-62h-190v-638h-68z" />
    <glyph glyph-name="tcaron" unicode="&#x165;" horiz-adv-x="329" 
d="M319 59v-59q-34 -6 -75 -6q-21 0 -37 2t-35.5 11.5t-32 25t-21.5 45t-9 70.5v239h-89v56h89v164h66v-164h128v-56h-128v-226q0 -65 20.5 -86t61.5 -21q35 0 62 5z" />
    <glyph glyph-name="Tbar" unicode="&#x166;" horiz-adv-x="474" 
d="M202 0v638h-188v62h446v-62h-190v-638h-68z" />
    <glyph glyph-name="tbar" unicode="&#x167;" horiz-adv-x="329" 
d="M319 59v-59q-34 -6 -75 -6q-21 0 -37 2t-35.5 11.5t-32 25t-21.5 45t-9 70.5v239h-89v56h89v164h66v-164h128v-56h-128v-226q0 -65 20.5 -86t61.5 -21q35 0 62 5z" />
    <glyph glyph-name="Utilde" unicode="&#x168;" horiz-adv-x="618" 
d="M73 220v480h68v-480q0 -72 46.5 -122.5t120.5 -50.5q75 0 122 50t47 123v480h68v-480q0 -98 -66 -166.5t-171 -68.5q-104 0 -169.5 68.5t-65.5 166.5z" />
    <glyph glyph-name="utilde" unicode="&#x169;" horiz-adv-x="560" 
d="M412 443h65v-443h-65v96q-20 -47 -64 -77t-104 -30q-88 0 -133 56q-39 48 -39 138v260h66v-241q0 -70 31 -112t97 -42q69 0 107.5 50.5t38.5 117.5v227z" />
    <glyph glyph-name="Umacron" unicode="&#x16a;" horiz-adv-x="618" 
d="M73 220v480h68v-480q0 -72 46.5 -122.5t120.5 -50.5q75 0 122 50t47 123v480h68v-480q0 -98 -66 -166.5t-171 -68.5q-104 0 -169.5 68.5t-65.5 166.5z" />
    <glyph glyph-name="umacron" unicode="&#x16b;" horiz-adv-x="560" 
d="M412 443h65v-443h-65v96q-20 -47 -64 -77t-104 -30q-88 0 -133 56q-39 48 -39 138v260h66v-241q0 -70 31 -112t97 -42q69 0 107.5 50.5t38.5 117.5v227z" />
    <glyph glyph-name="Ubreve" unicode="&#x16c;" horiz-adv-x="618" 
d="M73 220v480h68v-480q0 -72 46.5 -122.5t120.5 -50.5q75 0 122 50t47 123v480h68v-480q0 -98 -66 -166.5t-171 -68.5q-104 0 -169.5 68.5t-65.5 166.5z" />
    <glyph glyph-name="ubreve" unicode="&#x16d;" horiz-adv-x="560" 
d="M412 443h65v-443h-65v96q-20 -47 -64 -77t-104 -30q-88 0 -133 56q-39 48 -39 138v260h66v-241q0 -70 31 -112t97 -42q69 0 107.5 50.5t38.5 117.5v227z" />
    <glyph glyph-name="Uring" unicode="&#x16e;" horiz-adv-x="618" 
d="M73 220v480h68v-480q0 -72 46.5 -122.5t120.5 -50.5q75 0 122 50t47 123v480h68v-480q0 -98 -66 -166.5t-171 -68.5q-104 0 -169.5 68.5t-65.5 166.5z" />
    <glyph glyph-name="uring" unicode="&#x16f;" horiz-adv-x="560" 
d="M412 443h65v-443h-65v96q-20 -47 -64 -77t-104 -30q-88 0 -133 56q-39 48 -39 138v260h66v-241q0 -70 31 -112t97 -42q69 0 107.5 50.5t38.5 117.5v227z" />
    <glyph glyph-name="Uhungarumlaut" unicode="&#x170;" horiz-adv-x="618" 
d="M73 220v480h68v-480q0 -72 46.5 -122.5t120.5 -50.5q75 0 122 50t47 123v480h68v-480q0 -98 -66 -166.5t-171 -68.5q-104 0 -169.5 68.5t-65.5 166.5z" />
    <glyph glyph-name="uhungarumlaut" unicode="&#x171;" horiz-adv-x="560" 
d="M412 443h65v-443h-65v96q-20 -47 -64 -77t-104 -30q-88 0 -133 56q-39 48 -39 138v260h66v-241q0 -70 31 -112t97 -42q69 0 107.5 50.5t38.5 117.5v227z" />
    <glyph glyph-name="Uogonek" unicode="&#x172;" horiz-adv-x="618" 
d="M73 220v480h68v-480q0 -72 46.5 -122.5t120.5 -50.5q75 0 122 50t47 123v480h68v-480q0 -98 -66 -166.5t-171 -68.5q-104 0 -169.5 68.5t-65.5 166.5z" />
    <glyph glyph-name="uogonek" unicode="&#x173;" horiz-adv-x="560" 
d="M412 443h65v-443h-65v96q-20 -47 -64 -77t-104 -30q-88 0 -133 56q-39 48 -39 138v260h66v-241q0 -70 31 -112t97 -42q69 0 107.5 50.5t38.5 117.5v227z" />
    <glyph glyph-name="Wcircumflex" unicode="&#x174;" horiz-adv-x="946" 
d="M650 0l-177 584l-177 -584h-53l-237 700h72l190 -585l178 585h54l177 -585l191 585h72l-237 -700h-53z" />
    <glyph glyph-name="wcircumflex" unicode="&#x175;" horiz-adv-x="715" 
d="M489 0l-132 370l-131 -370h-47l-171 443h70l124 -344l123 344h65l122 -344l125 344h70l-171 -443h-47z" />
    <glyph glyph-name="Ycircumflex" unicode="&#x176;" horiz-adv-x="570" 
d="M566 700l-357 -700h-75l141 277l-266 423h79l222 -353l181 353h75z" />
    <glyph glyph-name="ycircumflex" unicode="&#x177;" horiz-adv-x="568" 
d="M281 -267q-201 0 -206 202h66q8 -146 141 -146q71 0 106 36.5t35 122.5v148q-20 -48 -63 -77.5t-103 -29.5q-90 0 -136 54q-38 45 -38 145v255h66v-236q0 -78 29 -118.5t100 -40.5q69 0 107 50.5t38 117.5v227h65v-495q0 -112 -51.5 -163.5t-155.5 -51.5z" />
    <glyph glyph-name="Ydieresis" unicode="&#x178;" horiz-adv-x="570" 
d="M566 700l-357 -700h-75l141 277l-266 423h79l222 -353l181 353h75z" />
    <glyph glyph-name="Zacute" unicode="&#x179;" horiz-adv-x="552" 
d="M36 638v62h509l-414 -638h423v-62h-539l414 638h-393z" />
    <glyph glyph-name="zacute" unicode="&#x17a;" horiz-adv-x="431" 
d="M36 443h368l-265 -384h266v-59h-379l265 384h-255v59z" />
    <glyph glyph-name="Zdotaccent" unicode="&#x17b;" horiz-adv-x="552" 
d="M36 638v62h509l-414 -638h423v-62h-539l414 638h-393z" />
    <glyph glyph-name="zdotaccent" unicode="&#x17c;" horiz-adv-x="431" 
d="M36 443h368l-265 -384h266v-59h-379l265 384h-255v59z" />
    <glyph glyph-name="Zcaron" unicode="&#x17d;" horiz-adv-x="552" 
d="M36 638v62h509l-414 -638h423v-62h-539l414 638h-393z" />
    <glyph glyph-name="zcaron" unicode="&#x17e;" horiz-adv-x="431" 
d="M36 443h368l-265 -384h266v-59h-379l265 384h-255v59z" />
    <glyph glyph-name="Aringacute" unicode="&#x1fa;" horiz-adv-x="546" 
d="M540 0h-72l-43 125h-304l-43 -125h-72l241 700h52zM404 187l-131 404l-131 -404h262z" />
    <glyph glyph-name="aringacute" unicode="&#x1fb;" horiz-adv-x="592" 
d="M444 443h65v-443h-65v93q-22 -47 -68.5 -75.5t-103.5 -28.5q-100 0 -164.5 68t-64.5 164q0 97 64 164.5t165 67.5q57 0 103.5 -28t68.5 -76v94zM275 49q75 0 122 50t47 122q0 73 -47 123t-122 50q-74 0 -120.5 -50.5t-46.5 -122.5t46.5 -122t120.5 -50z" />
    <glyph glyph-name="AEacute" unicode="&#x1fc;" horiz-adv-x="1089" 
d="M540 0h-72l-43 125h-304l-43 -125h-72l241 700h52zM404 187l-131 404l-131 -404h262zM1011 638h-314v-259h314v-62h-314v-255h314v-62h-382v700h382v-62z" />
    <glyph glyph-name="aeacute" unicode="&#x1fd;" horiz-adv-x="1111" 
d="M444 443h65v-443h-65v93q-22 -47 -68.5 -75.5t-103.5 -28.5q-100 0 -164.5 68t-64.5 164q0 97 64 164.5t165 67.5q57 0 103.5 -28t68.5 -76v94zM275 49q75 0 122 50t47 122q0 73 -47 123t-122 50q-74 0 -120.5 -50.5t-46.5 -122.5t46.5 -122t120.5 -50zM854 402
q-66 0 -106.5 -38.5t-43.5 -105.5h293q0 64 -41 104t-102 40zM1058 207h-355q2 -71 40.5 -116t115.5 -45q52 0 85 22.5t45 58.5h66q-12 -58 -65 -98t-131 -40q-107 0 -164 66.5t-57 166.5q0 102 58 166.5t160 64.5q86 0 145.5 -57t59.5 -141q0 -27 -3 -48z" />
    <glyph glyph-name="Oslashacute" unicode="&#x1fe;" horiz-adv-x="806" 
d="M403 -15q-108 0 -191.5 52t-126 134.5t-42.5 178.5t42.5 178.5t126 134.5t191.5 52t191.5 -52t126 -134.5t42.5 -178.5t-42.5 -178.5t-126 -134.5t-191.5 -52zM403 47q129 0 209 90t80 213t-80 213t-209 90q-130 0 -209.5 -89.5t-79.5 -213.5t79.5 -213.5t209.5 -89.5z
" />
    <glyph glyph-name="oslashacute" unicode="&#x1ff;" horiz-adv-x="552" 
d="M275 -11q-102 0 -167 68t-65 164q0 97 64.5 164.5t167.5 67.5q104 0 169 -67.5t65 -164.5t-65 -164.5t-169 -67.5zM275 49q75 0 122 50t47 122q0 73 -47 123t-122 50q-74 0 -120.5 -50.5t-46.5 -122.5t46.5 -122t120.5 -50z" />
    <glyph glyph-name="Scommaaccent" unicode="&#x218;" horiz-adv-x="572" 
d="M47 217h68q0 -77 49 -123.5t131 -46.5q73 0 117.5 36t44.5 97q0 28 -10 50.5t-23 36.5t-36.5 25.5t-41 17t-44.5 12.5l-52 15.5t-46.5 16.5t-44 20.5t-34.5 25.5t-28.5 34t-16.5 43.5t-7 55.5q0 80 60 131t159 51q97 0 157 -57t61 -153h-68q-2 69 -41 108.5t-107 39.5
q-71 0 -111.5 -33t-40.5 -87q0 -34 12 -58t37 -39.5t47.5 -24t59.5 -18.5q52 -14 83 -26t69 -35.5t56.5 -59.5t18.5 -85q0 -95 -65 -148.5t-170 -53.5q-107 0 -175 63.5t-68 168.5z" />
    <glyph glyph-name="scommaaccent" unicode="&#x219;" horiz-adv-x="450" 
d="M256 242q36 -9 54.5 -15t43 -20t35.5 -35.5t11 -52.5q0 -63 -46 -96.5t-125 -33.5q-80 0 -132.5 41t-52.5 120h64q0 -107 124 -107q50 0 78 19.5t28 55.5q0 12 -3 21.5t-11.5 17.5t-15.5 13t-23.5 10.5l-26 8.5t-32 9l-34.5 9q-33 8 -52.5 15t-41 20t-31 34t-9.5 51
q0 60 45.5 93t118.5 33q74 0 122.5 -40t48.5 -107h-64q0 45 -28.5 69.5t-79.5 24.5q-44 0 -71.5 -19.5t-27.5 -54.5q0 -39 44 -57q15 -7 90 -27z" />
    <glyph glyph-name="uni021A" unicode="&#x21a;" horiz-adv-x="474" 
d="M202 0v638h-188v62h446v-62h-190v-638h-68z" />
    <glyph glyph-name="uni021B" unicode="&#x21b;" horiz-adv-x="560" 
d="M412 443h65v-443h-65v96q-20 -47 -64 -77t-104 -30q-88 0 -133 56q-39 48 -39 138v260h66v-241q0 -70 31 -112t97 -42q69 0 107.5 50.5t38.5 117.5v227z" />
    <glyph glyph-name="uni0401" unicode="&#x401;" horiz-adv-x="543" 
d="M465 638h-314v-259h314v-62h-314v-255h314v-62h-382v700h382v-62z" />
    <glyph glyph-name="uni0403" unicode="&#x403;" horiz-adv-x="474" 
d="M83 0v700h382v-62h-314v-638h-68z" />
    <glyph glyph-name="uni0404" unicode="&#x404;" horiz-adv-x="755" 
d="M639 206h74q-25 -97 -109.5 -159t-202.5 -62q-168 0 -263 106t-95 259q0 98 38.5 179t120 133.5t192.5 52.5q130 0 213.5 -65.5t105.5 -169.5h-74q-17 77 -82 125t-163 48q-124 0 -198 -79t-80 -194h375v-63h-375q8 -116 83 -193t202 -77q87 0 152 44.5t86 114.5z" />
    <glyph glyph-name="uni0405" unicode="&#x405;" horiz-adv-x="572" 
d="M47 217h68q0 -77 49 -123.5t131 -46.5q73 0 117.5 36t44.5 97q0 28 -10 50.5t-23 36.5t-36.5 25.5t-41 17t-44.5 12.5l-52 15.5t-46.5 16.5t-44 20.5t-34.5 25.5t-28.5 34t-16.5 43.5t-7 55.5q0 80 60 131t159 51q97 0 157 -57t61 -153h-68q-2 69 -41 108.5t-107 39.5
q-71 0 -111.5 -33t-40.5 -87q0 -34 12 -58t37 -39.5t47.5 -24t59.5 -18.5q52 -14 83 -26t69 -35.5t56.5 -59.5t18.5 -85q0 -95 -65 -148.5t-170 -53.5q-107 0 -175 63.5t-68 168.5z" />
    <glyph glyph-name="uni0406" unicode="&#x406;" horiz-adv-x="236" 
d="M83 0v700h70v-700h-70z" />
    <glyph glyph-name="uni0407" unicode="&#x407;" horiz-adv-x="236" 
d="M83 0v700h70v-700h-70z" />
    <glyph glyph-name="uni0408" unicode="&#x408;" horiz-adv-x="536" 
d="M463 700v-484q0 -103 -60 -167t-161 -64q-99 0 -162.5 65t-63.5 167h68q0 -77 44.5 -123.5t113.5 -46.5q70 0 111 46t41 123v484h69z" />
    <glyph glyph-name="uni0409" unicode="&#x409;" horiz-adv-x="682" 
d="M10 -12v62h36q37 0 55.5 18t18.5 64v568h479v-700h-68v638h-342v-516q0 -69 -34.5 -101.5t-93.5 -32.5h-51z" />
    <glyph glyph-name="uni040A" unicode="&#x40a;" horiz-adv-x="663" 
d="M511 0v317h-360v-317h-68v700h68v-321h360v321h69v-700h-69z" />
    <glyph glyph-name="uni040C" unicode="&#x40c;" horiz-adv-x="582" 
d="M151 700v-301h22q83 0 132 83l69 118q30 50 63.5 76.5t81.5 26.5h44v-63h-33q-33 0 -56.5 -16.5t-45.5 -55.5l-64 -111q-48 -85 -147 -95l347 -362h-90l-323 342v-342h-68v700h68z" />
    <glyph glyph-name="uni040E" unicode="&#x40e;" horiz-adv-x="570" 
d="M566 700l-357 -700h-75l141 277l-266 423h79l222 -353l181 353h75z" />
    <glyph glyph-name="uni040F" unicode="&#x40f;" horiz-adv-x="634" 
d="M348 -103h-62v103h-203v700h68v-638h332v638h68v-700h-203v-103z" />
    <glyph glyph-name="uni0410" unicode="&#x410;" horiz-adv-x="546" 
d="M540 0h-72l-43 125h-304l-43 -125h-72l241 700h52zM404 187l-131 404l-131 -404h262z" />
    <glyph glyph-name="uni0411" unicode="&#x411;" horiz-adv-x="576" 
d="M475 700v-62h-324v-245h187q81 0 135.5 -57t54.5 -139t-55 -139.5t-138 -57.5h-252v700h392zM338 332h-187v-270h184q53 0 88.5 39t35.5 96q0 55 -35 95t-86 40z" />
    <glyph glyph-name="uni0412" unicode="&#x412;" horiz-adv-x="583" 
d="M83 0v700h239q101 0 151 -55.5t50 -129.5q0 -61 -36.5 -106t-89.5 -56q50 -6 90.5 -52.5t40.5 -111.5q0 -74 -52 -131.5t-154 -57.5h-239zM328 321h-177v-259h174q64 0 99 38.5t35 90.5q0 50 -35 90t-96 40zM151 383h174q62 0 96 38.5t34 88.5q0 51 -34.5 89.5
t-98.5 38.5h-171v-255z" />
    <glyph glyph-name="uni0413" unicode="&#x413;" horiz-adv-x="474" 
d="M83 0v700h382v-62h-314v-638h-68z" />
    <glyph glyph-name="uni0414" unicode="&#x414;" horiz-adv-x="689" 
d="M75 -103h-63v165h12q96 0 141 71q40 64 40 176v391h382v-638h67v-165h-62v103h-517v-103zM158 62h360v576h-246v-268q0 -132 -25 -208.5t-89 -99.5z" />
    <glyph glyph-name="uni0415" unicode="&#x415;" horiz-adv-x="543" 
d="M465 638h-314v-259h314v-62h-314v-255h314v-62h-382v700h382v-62z" />
    <glyph glyph-name="uni0416" unicode="&#x416;" horiz-adv-x="865" 
d="M400 343l-303 -343h-88l322 356q-93 10 -139 100l-53 105q-21 41 -43 60t-53 19h-32v63h40q85 0 141 -110l61 -118q25 -48 54 -68.5t70 -20.5h23v314h65v-314h23q41 0 70 20.5t54 68.5l61 118q56 110 142 110h39v-63h-32q-31 0 -53 -19t-43 -60l-53 -105
q-46 -90 -138 -100l321 -356h-88l-303 343v-343h-65v343z" />
    <glyph glyph-name="uni0417" unicode="&#x417;" horiz-adv-x="560" 
d="M42 208h68q0 -72 47.5 -115t120.5 -43t116 40t43 101q0 65 -41.5 102t-122.5 37h-50v61h50q74 0 113.5 37t39.5 93t-41 92.5t-108 36.5q-72 0 -117.5 -38t-45.5 -102h-68q0 90 65 146t169 56q95 0 154.5 -49.5t59.5 -136.5q0 -61 -35.5 -105t-94.5 -56q63 -10 102 -57
t39 -116q0 -91 -63.5 -147.5t-164.5 -56.5q-105 0 -170 59.5t-65 160.5z" />
    <glyph glyph-name="uni0418" unicode="&#x418;" horiz-adv-x="662" 
d="M510 0v553l-359 -507v-46h-68v700h68v-553l359 507v46h69v-700h-69z" />
    <glyph glyph-name="uni0419" unicode="&#x419;" horiz-adv-x="662" 
d="M510 0v553l-359 -507v-46h-68v700h68v-553l359 507v46h69v-700h-69z" />
    <glyph glyph-name="uni041A" unicode="&#x41a;" horiz-adv-x="582" 
d="M151 700v-301h22q83 0 132 83l69 118q30 50 63.5 76.5t81.5 26.5h44v-63h-33q-33 0 -56.5 -16.5t-45.5 -55.5l-64 -111q-48 -85 -147 -95l347 -362h-90l-323 342v-342h-68v700h68z" />
    <glyph glyph-name="uni041B" unicode="&#x41b;" horiz-adv-x="682" 
d="M10 -12v62h36q37 0 55.5 18t18.5 64v568h479v-700h-68v638h-342v-516q0 -69 -34.5 -101.5t-93.5 -32.5h-51z" />
    <glyph glyph-name="uni041C" unicode="&#x41c;" horiz-adv-x="810" 
d="M727 700v-700h-68v541l-227 -541h-54l-227 541v-541h-68v700h66l256 -597l256 597h66z" />
    <glyph glyph-name="uni041D" unicode="&#x41d;" horiz-adv-x="663" 
d="M511 0v317h-360v-317h-68v700h68v-321h360v321h69v-700h-69z" />
    <glyph glyph-name="uni041E" unicode="&#x41e;" horiz-adv-x="806" 
d="M403 -15q-108 0 -191.5 52t-126 134.5t-42.5 178.5t42.5 178.5t126 134.5t191.5 52t191.5 -52t126 -134.5t42.5 -178.5t-42.5 -178.5t-126 -134.5t-191.5 -52zM403 47q129 0 209 90t80 213t-80 213t-209 90q-130 0 -209.5 -89.5t-79.5 -213.5t79.5 -213.5t209.5 -89.5z
" />
    <glyph glyph-name="uni041F" unicode="&#x41f;" horiz-adv-x="668" 
d="M517 638h-366v-638h-68v700h502v-700h-68v638z" />
    <glyph glyph-name="uni0420" unicode="&#x420;" horiz-adv-x="596" 
d="M83 0v700h241q104 0 169 -67.5t65 -164.5t-65 -164.5t-169 -67.5h-173v-236h-68zM324 298q74 0 119.5 49.5t45.5 120.5t-45.5 120.5t-119.5 49.5h-173v-340h173z" />
    <glyph glyph-name="uni0421" unicode="&#x421;" horiz-adv-x="775" 
d="M658 206h75q-29 -97 -117 -159t-207 -62q-110 0 -195 51t-128 133.5t-43 181.5q0 148 97.5 256t255.5 108q142 0 228.5 -69.5t108.5 -181.5h-71q-20 84 -87 136.5t-171 52.5q-132 0 -211.5 -89t-79.5 -213q0 -128 82 -216t222 -88q82 0 149 44.5t92 114.5z" />
    <glyph glyph-name="uni0422" unicode="&#x422;" horiz-adv-x="474" 
d="M202 0v638h-188v62h446v-62h-190v-638h-68z" />
    <glyph glyph-name="uni0423" unicode="&#x423;" horiz-adv-x="570" 
d="M566 700l-357 -700h-75l141 277l-266 423h79l222 -353l181 353h75z" />
    <glyph glyph-name="uni0424" unicode="&#x424;" horiz-adv-x="764" 
d="M486 99h-70v-99h-68v99h-70q-108 0 -175 72.5t-67 178.5t67 179t175 73h70v98h68v-98h70q108 0 174.5 -73t66.5 -179t-66.5 -178.5t-174.5 -72.5zM278 161h70v378h-70q-78 0 -125.5 -54.5t-47.5 -134.5t47.5 -134.5t125.5 -54.5zM486 539h-70v-378h70q77 0 125 54.5
t48 134.5t-48 134.5t-125 54.5z" />
    <glyph glyph-name="uni0425" unicode="&#x425;" horiz-adv-x="534" 
d="M267 409l179 291h78l-218 -350l218 -350h-78l-179 290l-179 -290h-77l217 350l-217 350h77z" />
    <glyph glyph-name="uni0426" unicode="&#x426;" horiz-adv-x="660" 
d="M640 -103h-62v103h-495v700h68v-638h332v638h68v-638h89v-165z" />
    <glyph glyph-name="uni0427" unicode="&#x427;" horiz-adv-x="572" 
d="M489 0h-68v234h-147q-114 0 -172.5 60.5t-58.5 164.5v241h68v-225q0 -179 175 -179h135v404h68v-700z" />
    <glyph glyph-name="uni0428" unicode="&#x428;" horiz-adv-x="913" 
d="M831 0h-748v700h68v-638h272v638h68v-638h271v638h69v-700z" />
    <glyph glyph-name="uni0429" unicode="&#x429;" horiz-adv-x="940" 
d="M920 -103h-68v103h-769v700h68v-638h272v638h68v-638h271v638h69v-638h89v-165z" />
    <glyph glyph-name="uni042A" unicode="&#x42a;" horiz-adv-x="641" 
d="M416 332h-187v-270h184q53 0 88.5 39t35.5 96q0 55 -35 95t-86 40zM14 638v62h215v-307h187q81 0 135.5 -57t54.5 -139t-55 -139.5t-138 -57.5h-252v638h-147z" />
    <glyph glyph-name="uni042B" unicode="&#x42b;" horiz-adv-x="734" 
d="M83 700h68v-307h175q81 0 135.5 -57t54.5 -139t-55 -139.5t-138 -57.5h-240v700zM326 332h-175v-270h172q53 0 88.5 39t35.5 96q0 55 -35 95t-86 40zM583 0v700h68v-700h-68z" />
    <glyph glyph-name="uni042C" unicode="&#x42c;" horiz-adv-x="563" 
d="M83 700h68v-307h187q81 0 135.5 -57t54.5 -139t-55 -139.5t-138 -57.5h-252v700zM338 332h-187v-270h184q53 0 88.5 39t35.5 96q0 55 -35 95t-86 40z" />
    <glyph glyph-name="uni042D" unicode="&#x42d;" horiz-adv-x="760" 
d="M269 317v62h377q-8 117 -81 195.5t-191 78.5q-106 0 -172.5 -52t-87.5 -137h-72q23 112 108 181.5t227 69.5q155 0 247.5 -105.5t92.5 -258.5q0 -158 -95.5 -262t-257.5 -104q-118 0 -205.5 62t-116.5 159h75q25 -69 94 -114t153 -45q122 0 197 75.5t85 194.5h-377z" />
    <glyph glyph-name="uni042E" unicode="&#x42e;" horiz-adv-x="1083" 
d="M680 -15q-152 0 -249.5 96.5t-109.5 235.5h-170v-317h-68v700h68v-321h170q10 140 108 238t251 98q108 0 191.5 -52t126 -134.5t42.5 -178.5t-42.5 -178.5t-126 -134.5t-191.5 -52zM680 47q129 0 208.5 90t79.5 213t-79.5 213t-208.5 90q-130 0 -209.5 -89.5
t-79.5 -213.5t79.5 -213.5t209.5 -89.5z" />
    <glyph glyph-name="uni042F" unicode="&#x42f;" horiz-adv-x="602" 
d="M519 700v-700h-68v236h-172l-149 -236h-79l157 247q-75 21 -119.5 82t-44.5 139q0 97 65.5 164.5t169.5 67.5h240zM279 298h172v340h-172q-74 0 -120 -49.5t-46 -120.5t46 -120.5t120 -49.5z" />
    <glyph glyph-name="uni0430" unicode="&#x430;" horiz-adv-x="592" 
d="M444 443h65v-443h-65v93q-22 -47 -68.5 -75.5t-103.5 -28.5q-100 0 -164.5 68t-64.5 164q0 97 64 164.5t165 67.5q57 0 103.5 -28t68.5 -76v94zM275 49q75 0 122 50t47 122q0 73 -47 123t-122 50q-74 0 -120.5 -50.5t-46.5 -122.5t46.5 -122t120.5 -50z" />
    <glyph glyph-name="uni0431" unicode="&#x431;" horiz-adv-x="571" 
d="M113 309q17 68 70 106t122 38q102 0 162 -67t60 -165q0 -96 -64.5 -164t-166.5 -68q-65 0 -113.5 26t-76.5 72.5t-41 104t-13 127.5q0 192 93 290q88 91 245 91h86v-63h-106q-118 0 -182 -69q-80 -88 -75 -259zM293 49q75 0 122 50t47 122t-47 122.5t-122 50.5
q-76 0 -122 -48.5t-46 -124.5q0 -71 46 -121.5t122 -50.5z" />
    <glyph glyph-name="uni0432" unicode="&#x432;" horiz-adv-x="482" 
d="M83 0v443h206q69 0 101.5 -34t32.5 -81q0 -37 -27.5 -66t-69.5 -34q43 -2 73 -33t30 -76q0 -46 -35.5 -82.5t-107.5 -36.5h-203zM288 202h-141v-154h140q32 0 54.5 22.5t22.5 52.5q0 32 -22.5 55.5t-53.5 23.5zM147 250h139q31 0 51.5 22t20.5 51q0 30 -21 50.5t-53 20.5
h-137v-144z" />
    <glyph glyph-name="uni0433" unicode="&#x433;" horiz-adv-x="354" 
d="M83 443h261v-56h-196v-387h-65v443z" />
    <glyph glyph-name="uni0434" unicode="&#x434;" horiz-adv-x="548" 
d="M72 -104h-60v157h22q54 0 85 43.5t31 122.5v224h311v-390h54v-157h-59v104h-384v-104zM134 53h265v337h-187v-152q0 -153 -78 -185z" />
    <glyph glyph-name="uni0435" unicode="&#x435;" horiz-adv-x="519" 
d="M465 207h-354q2 -70 40.5 -115.5t115.5 -45.5q52 0 84.5 22.5t45.5 58.5h66q-13 -58 -65.5 -98t-130.5 -40q-107 0 -164 66.5t-57 166.5q0 102 58 166.5t160 64.5q86 0 145 -57t59 -141q0 -27 -3 -48zM262 402q-66 0 -106.5 -38.5t-44.5 -105.5h294q0 64 -41 104t-102 40
z" />
    <glyph glyph-name="uni0436" unicode="&#x436;" horiz-adv-x="661" 
d="M300 215l-201 -215h-77l223 229q-77 2 -106 61l-26 51q-26 52 -61 52h-28v54h36q61 0 99 -70l37 -70q16 -31 33.5 -43t49.5 -12h21v191h61v-191h21q32 0 49.5 12t33.5 43l38 70q36 70 98 70h36v-54h-27q-35 0 -61 -52l-26 -51q-30 -59 -107 -61l223 -229h-77l-201 215
v-215h-61v215z" />
    <glyph glyph-name="uni0437" unicode="&#x437;" horiz-adv-x="415" 
d="M35 126h64q0 -38 28 -60t79 -22q44 0 70.5 20t26.5 55q0 36 -26 57.5t-73 21.5h-45v49h42q46 0 70 21.5t24 57.5q0 33 -25 53.5t-66 20.5q-47 0 -72 -21.5t-25 -57.5h-64q0 59 44.5 95.5t116.5 36.5q69 0 111.5 -33.5t42.5 -86.5q0 -43 -25.5 -71.5t-68.5 -35.5
q46 -5 74 -34t28 -75q0 -57 -47 -92.5t-117 -35.5q-77 0 -122 37.5t-45 99.5z" />
    <glyph glyph-name="uni0438" unicode="&#x438;" horiz-adv-x="558" 
d="M410 0v330l-262 -296v-34h-65v443h65v-333l262 297v36h65v-443h-65z" />
    <glyph glyph-name="uni0439" unicode="&#x439;" horiz-adv-x="558" 
d="M410 0v330l-262 -296v-34h-65v443h65v-333l262 297v36h65v-443h-65z" />
    <glyph glyph-name="uni043A" unicode="&#x43a;" horiz-adv-x="480" 
d="M148 443v-197h17q44 0 80 54l57 86q21 31 42.5 46t52.5 15h43v-54h-28q-22 0 -36 -9.5t-29 -31.5l-43 -66q-20 -31 -42 -44t-53 -15l242 -227h-82l-221 211v-211h-65v443h65z" />
    <glyph glyph-name="uni043B" unicode="&#x43b;" horiz-adv-x="551" 
d="M15 -10v59h22q30 0 45 13t15 53v328h371v-443h-65v387h-241v-280q0 -117 -112 -117h-35z" />
    <glyph glyph-name="uni043C" unicode="&#x43c;" horiz-adv-x="685" 
d="M602 443v-443h-60v387l-177 -387h-44l-178 387v-387h-60v443h97l163 -355l163 355h96z" />
    <glyph glyph-name="uni043D" unicode="&#x43d;" horiz-adv-x="564" 
d="M416 0v194h-268v-194h-65v443h65v-192h268v192h65v-443h-65z" />
    <glyph glyph-name="uni043E" unicode="&#x43e;" horiz-adv-x="552" 
d="M275 -11q-102 0 -167 68t-65 164q0 97 64.5 164.5t167.5 67.5q104 0 169 -67.5t65 -164.5t-65 -164.5t-169 -67.5zM275 49q75 0 122 50t47 122q0 73 -47 123t-122 50q-74 0 -120.5 -50.5t-46.5 -122.5t46.5 -122t120.5 -50z" />
    <glyph glyph-name="uni043F" unicode="&#x43f;" horiz-adv-x="567" 
d="M484 443v-443h-65v387h-271v-387h-65v443h401z" />
    <glyph glyph-name="uni0440" unicode="&#x440;" horiz-adv-x="593" 
d="M148 443v-94q22 48 68.5 76t103.5 28q101 0 165 -67.5t64 -163.5q0 -97 -64.5 -165t-164.5 -68q-57 0 -103.5 28.5t-68.5 76.5v-351h-65v700h65zM317 394q-75 0 -122 -50t-47 -122q0 -73 47 -123t122 -50q74 0 120.5 50.5t46.5 122.5t-46.5 122t-120.5 50z" />
    <glyph glyph-name="uni0441" unicode="&#x441;" horiz-adv-x="524" 
d="M474 281h-65q-6 51 -40 82.5t-101 31.5q-74 0 -115 -50.5t-41 -122.5q0 -74 41 -123.5t118 -49.5q116 0 140 103h65q-11 -73 -64 -118t-145 -45q-103 0 -162 68.5t-59 164.5t59 164t162 68q99 0 150 -50t57 -123z" />
    <glyph glyph-name="uni0442" unicode="&#x442;" horiz-adv-x="372" 
d="M15 443h342v-56h-139v-387h-65v387h-138v56z" />
    <glyph glyph-name="uni0443" unicode="&#x443;" horiz-adv-x="568" 
d="M281 -267q-201 0 -206 202h66q8 -146 141 -146q71 0 106 36.5t35 122.5v148q-20 -48 -63 -77.5t-103 -29.5q-90 0 -136 54q-38 45 -38 145v255h66v-236q0 -78 29 -118.5t100 -40.5q69 0 107 50.5t38 117.5v227h65v-495q0 -112 -51.5 -163.5t-155.5 -51.5z" />
    <glyph glyph-name="uni0444" unicode="&#x444;" horiz-adv-x="603" 
d="M273 -257v247q-102 4 -166 70t-64 161t64 161.5t165 70.5v247h58v-247q101 -4 165.5 -70.5t64.5 -161.5q0 -94 -64.5 -160.5t-165.5 -70.5v-247h-57zM496 221q0 74 -45 124.5t-121 52.5v-353q76 1 121 51.5t45 124.5zM107 221q0 -74 45 -124.5t121 -51.5l-1 353
q-75 -2 -120 -52.5t-45 -124.5z" />
    <glyph glyph-name="uni0445" unicode="&#x445;" horiz-adv-x="434" 
d="M255 222l156 -222h-76l-118 172l-118 -172h-76l156 222l-155 221h76l117 -170l117 170h75z" />
    <glyph glyph-name="uni0446" unicode="&#x446;" horiz-adv-x="579" 
d="M549 -89h-65v89h-401v443h65v-387h261v387h65v-387h75v-145z" />
    <glyph glyph-name="uni0447" unicode="&#x447;" horiz-adv-x="464" 
d="M382 0h-66v143h-114q-76 0 -116.5 39.5t-40.5 114.5v146h66v-145q0 -99 100 -99h105v244h66v-443z" />
    <glyph glyph-name="uni0448" unicode="&#x448;" horiz-adv-x="789" 
d="M427 443v-387h214v387h65v-443h-623v443h65v-387h214v387h65z" />
    <glyph glyph-name="uni0449" unicode="&#x449;" horiz-adv-x="811" 
d="M781 -89h-65v89h-633v443h65v-387h214v387h65v-387h214v387h65v-387h75v-145z" />
    <glyph glyph-name="uni044A" unicode="&#x44a;" horiz-adv-x="479" 
d="M108 0v387h-91v56h153v-165h130q61 0 97.5 -40t36.5 -99t-37 -99t-99 -40h-190zM290 224h-120v-170h118q38 0 61.5 24t23.5 61q0 36 -23 60.5t-60 24.5z" />
    <glyph glyph-name="uni044B" unicode="&#x44b;" horiz-adv-x="613" 
d="M465 0v443h65v-443h-65zM83 0v443h62v-165h130q61 0 97 -39.5t36 -99.5q0 -59 -37 -99t-98 -40h-190zM265 224h-120v-170h118q38 0 61 24t23 61q0 36 -22.5 60.5t-59.5 24.5z" />
    <glyph glyph-name="uni044C" unicode="&#x44c;" horiz-adv-x="453" 
d="M83 0v443h62v-165h130q61 0 97 -39.5t36 -99.5q0 -59 -37 -99t-98 -40h-190zM265 224h-120v-170h118q38 0 61 24t23 61q0 36 -22.5 60.5t-59.5 24.5z" />
    <glyph glyph-name="uni044D" unicode="&#x44d;" horiz-adv-x="528" 
d="M115 281h-65q4 73 59 123t150 50q107 0 165.5 -67.5t58.5 -164.5t-58.5 -165t-165.5 -68q-94 0 -150 46t-61 117h66q8 -47 44.5 -75t102.5 -28q71 0 111 40.5t45 105.5h-201v51h201q-4 65 -44.5 107t-111.5 42q-68 0 -103.5 -32t-42.5 -82z" />
    <glyph glyph-name="uni044E" unicode="&#x44e;" horiz-adv-x="740" 
d="M462 49q76 0 122.5 50t46.5 122q0 73 -46.5 123t-122.5 50q-73 0 -119.5 -50.5t-46.5 -122.5t46.5 -122t119.5 -50zM233 193h-85v-193h-65v443h65v-194h85q9 87 71.5 145.5t157.5 58.5q105 0 170 -67.5t65 -164.5t-65.5 -164.5t-169.5 -67.5q-94 0 -157 58.5t-72 145.5z
" />
    <glyph glyph-name="uni044F" unicode="&#x44f;" horiz-adv-x="490" 
d="M218 150l-101 -150h-76l109 157q-49 8 -82 49t-33 91q0 61 42.5 103.5t109.5 42.5h220v-443h-64v150h-125zM199 206h144v182h-144q-44 0 -71 -27t-27 -64q0 -38 27 -64.5t71 -26.5z" />
    <glyph glyph-name="uni0451" unicode="&#x451;" horiz-adv-x="519" 
d="M465 207h-354q2 -70 40.5 -115.5t115.5 -45.5q52 0 84.5 22.5t45.5 58.5h66q-13 -58 -65.5 -98t-130.5 -40q-107 0 -164 66.5t-57 166.5q0 102 58 166.5t160 64.5q86 0 145 -57t59 -141q0 -27 -3 -48zM262 402q-66 0 -106.5 -38.5t-44.5 -105.5h294q0 64 -41 104t-102 40
z" />
    <glyph glyph-name="uni0453" unicode="&#x453;" horiz-adv-x="354" 
d="M83 443h261v-56h-196v-387h-65v443z" />
    <glyph glyph-name="uni0454" unicode="&#x454;" horiz-adv-x="531" 
d="M478 281h-65q-7 50 -42.5 82t-103.5 32q-72 0 -112 -42t-43 -107h200v-51h-200q3 -65 43 -105.5t112 -40.5q66 0 102.5 28t45.5 75h65q-5 -71 -61 -117t-149 -46q-107 0 -166 68t-59 165t59 164.5t166 67.5q95 0 149.5 -50t58.5 -123z" />
    <glyph glyph-name="uni0455" unicode="&#x455;" horiz-adv-x="450" 
d="M256 242q36 -9 54.5 -15t43 -20t35.5 -35.5t11 -52.5q0 -63 -46 -96.5t-125 -33.5q-80 0 -132.5 41t-52.5 120h64q0 -107 124 -107q50 0 78 19.5t28 55.5q0 12 -3 21.5t-11.5 17.5t-15.5 13t-23.5 10.5l-26 8.5t-32 9l-34.5 9q-33 8 -52.5 15t-41 20t-31 34t-9.5 51
q0 60 45.5 93t118.5 33q74 0 122.5 -40t48.5 -107h-64q0 45 -28.5 69.5t-79.5 24.5q-44 0 -71.5 -19.5t-27.5 -54.5q0 -39 44 -57q15 -7 90 -27z" />
    <glyph glyph-name="uni0457" unicode="&#x457;" horiz-adv-x="0" 
 />
    <glyph glyph-name="uni0458" unicode="&#x458;" 
d="M148 443v-578q0 -65 -29 -97.5t-74 -32.5q-44 0 -69 12v60q26 -9 51 -9q26 0 41 20t15 56v569h65zM56 616q0 25 17.5 43t42.5 18t42.5 -18t17.5 -43t-17.5 -42t-42.5 -17t-42.5 17t-17.5 42z" />
    <glyph glyph-name="uni0459" unicode="&#x459;" horiz-adv-x="551" 
d="M15 -10v59h22q30 0 45 13t15 53v328h371v-443h-65v387h-241v-280q0 -117 -112 -117h-35z" />
    <glyph glyph-name="uni045A" unicode="&#x45a;" horiz-adv-x="564" 
d="M416 0v194h-268v-194h-65v443h65v-192h268v192h65v-443h-65z" />
    <glyph glyph-name="uni045C" unicode="&#x45c;" horiz-adv-x="480" 
d="M148 443v-197h17q44 0 80 54l57 86q21 31 42.5 46t52.5 15h43v-54h-28q-22 0 -36 -9.5t-29 -31.5l-43 -66q-20 -31 -42 -44t-53 -15l242 -227h-82l-221 211v-211h-65v443h65z" />
    <glyph glyph-name="uni045E" unicode="&#x45e;" horiz-adv-x="568" 
d="M281 -267q-201 0 -206 202h66q8 -146 141 -146q71 0 106 36.5t35 122.5v148q-20 -48 -63 -77.5t-103 -29.5q-90 0 -136 54q-38 45 -38 145v255h66v-236q0 -78 29 -118.5t100 -40.5q69 0 107 50.5t38 117.5v227h65v-495q0 -112 -51.5 -163.5t-155.5 -51.5z" />
    <glyph glyph-name="uni0490" unicode="&#x490;" horiz-adv-x="474" 
d="M83 0v700h382v-62h-314v-638h-68z" />
    <glyph glyph-name="uni0491" unicode="&#x491;" horiz-adv-x="354" 
d="M83 443h261v-56h-196v-387h-65v443z" />
    <glyph glyph-name="Wgrave" unicode="&#x1e80;" horiz-adv-x="946" 
d="M650 0l-177 584l-177 -584h-53l-237 700h72l190 -585l178 585h54l177 -585l191 585h72l-237 -700h-53z" />
    <glyph glyph-name="wgrave" unicode="&#x1e81;" horiz-adv-x="715" 
d="M489 0l-132 370l-131 -370h-47l-171 443h70l124 -344l123 344h65l122 -344l125 344h70l-171 -443h-47z" />
    <glyph glyph-name="Wacute" unicode="&#x1e82;" horiz-adv-x="946" 
d="M650 0l-177 584l-177 -584h-53l-237 700h72l190 -585l178 585h54l177 -585l191 585h72l-237 -700h-53z" />
    <glyph glyph-name="wacute" unicode="&#x1e83;" horiz-adv-x="715" 
d="M489 0l-132 370l-131 -370h-47l-171 443h70l124 -344l123 344h65l122 -344l125 344h70l-171 -443h-47z" />
    <glyph glyph-name="Wdieresis" unicode="&#x1e84;" horiz-adv-x="946" 
d="M650 0l-177 584l-177 -584h-53l-237 700h72l190 -585l178 585h54l177 -585l191 585h72l-237 -700h-53z" />
    <glyph glyph-name="wdieresis" unicode="&#x1e85;" horiz-adv-x="715" 
d="M489 0l-132 370l-131 -370h-47l-171 443h70l124 -344l123 344h65l122 -344l125 344h70l-171 -443h-47z" />
    <glyph glyph-name="Ygrave" unicode="&#x1ef2;" horiz-adv-x="570" 
d="M566 700l-357 -700h-75l141 277l-266 423h79l222 -353l181 353h75z" />
    <glyph glyph-name="ygrave" unicode="&#x1ef3;" horiz-adv-x="568" 
d="M281 -267q-201 0 -206 202h66q8 -146 141 -146q71 0 106 36.5t35 122.5v148q-20 -48 -63 -77.5t-103 -29.5q-90 0 -136 54q-38 45 -38 145v255h66v-236q0 -78 29 -118.5t100 -40.5q69 0 107 50.5t38 117.5v227h65v-495q0 -112 -51.5 -163.5t-155.5 -51.5z" />
    <glyph glyph-name="endash" unicode="&#x2013;" horiz-adv-x="294" 
d="M264 314v-59h-234v59h234z" />
    <glyph glyph-name="emdash" unicode="&#x2014;" horiz-adv-x="294" 
d="M264 314v-59h-234v59h234z" />
    <glyph glyph-name="ff" unicode="&#xfb00;" horiz-adv-x="670" 
d="M326 694v-56q-24 9 -54 9q-18 0 -30.5 -3t-26 -12t-20.5 -30.5t-7 -53.5v-105h138v-56h-138v-387h-65v387h-101v56h101v99q0 43 10 75t24 48.5t34.5 26t36.5 12t36 2.5q38 0 62 -12zM661 694v-56q-24 9 -54 9q-18 0 -30.5 -3t-26 -12t-20.5 -30.5t-7 -53.5v-105h138v-56
h-138v-387h-65v387h-101v56h101v99q0 43 10 75t24 48.5t34.5 26t36.5 12t36 2.5q38 0 62 -12z" />
    <glyph glyph-name="fi" unicode="&#xfb01;" horiz-adv-x="566" 
d="M326 694v-56q-24 9 -54 9q-18 0 -30.5 -3t-26 -12t-20.5 -30.5t-7 -53.5v-105h138v-56h-138v-387h-65v387h-101v56h101v99q0 43 10 75t24 48.5t34.5 26t36.5 12t36 2.5q38 0 62 -12zM418 0v443h65v-443h-65zM391 616q0 26 17 43.5t42 17.5q26 0 43.5 -17.5t17.5 -43.5
q0 -25 -17.5 -42t-43.5 -17q-25 0 -42 17t-17 42z" />
  </font>
</defs>
</svg>
